<svg width="164" height="56" viewBox="0 0 164 56" fill="none" xmlns="http://www.w3.org/2000/svg">
<g filter="url(#filter0_b_1050_12671)">
<rect x="0.916748" width="162.917" height="56" rx="7.08333" fill="white" fill-opacity="0.5"/>
<rect x="1.62508" y="0.708333" width="161.5" height="54.5833" rx="6.375" stroke="#EEEEEE" stroke-width="1.41667"/>
</g>
<path d="M31.4328 19.4789L14.9167 36.4H22.7455C22.8215 36.4 22.8937 36.367 22.9435 36.3097L25.8587 32.9511H22.4522L31.1867 23.7289C31.3497 23.5568 31.6393 23.6722 31.6393 23.9092V33.3822H34.7361V20.6645C34.7361 19.2633 32.7748 18.2933 31.4328 19.4789Z" fill="#3BD5F0"/>
<path d="M22.6587 36.4L42.7877 36.2922L43.9573 36.3227C45.5791 36.365 46.9167 35.0619 46.9167 33.4395V17.4824C46.9167 16.103 46.7863 14.403 45.4465 14.0751C44.3916 13.8168 43.3106 14.5188 42.564 15.3074L34.7361 23.5744V27.8855L44.0264 18.1855V33.3821H30.1285C30.0406 33.3821 29.9585 33.3381 29.9099 33.2648L28.1296 30.5799L22.6587 36.4Z" fill="#1C2838"/>
<path d="M65.9407 33L65.3167 30.52H61.8447L61.2207 33H58.7727L62.1807 21.928H65.0447L68.4367 33H65.9407ZM62.2927 28.776H64.8687L63.5727 23.672L62.2927 28.776ZM72.2277 24.264C73.4224 24.264 74.4464 24.6053 75.2997 25.288L74.4357 26.584C73.7211 26.136 73.0171 25.912 72.3237 25.912C71.9504 25.912 71.6624 25.9813 71.4597 26.12C71.2571 26.2587 71.1557 26.4453 71.1557 26.68C71.1557 26.8507 71.1984 26.9947 71.2837 27.112C71.3797 27.2293 71.5504 27.3413 71.7957 27.448C72.0517 27.5547 72.4304 27.6827 72.9317 27.832C73.8277 28.0773 74.4944 28.408 74.9317 28.824C75.3691 29.2293 75.5877 29.7893 75.5877 30.504C75.5877 31.0693 75.4224 31.56 75.0917 31.976C74.7717 32.392 74.3344 32.712 73.7797 32.936C73.2251 33.1493 72.6064 33.256 71.9237 33.256C71.2091 33.256 70.5584 33.1493 69.9717 32.936C69.3851 32.712 68.8837 32.408 68.4677 32.024L69.5877 30.776C70.3024 31.3307 71.0597 31.608 71.8597 31.608C72.2864 31.608 72.6224 31.528 72.8677 31.368C73.1237 31.1973 73.2517 30.968 73.2517 30.68C73.2517 30.456 73.2037 30.28 73.1077 30.152C73.0117 30.024 72.8357 29.9067 72.5797 29.8C72.3237 29.6827 71.9237 29.5493 71.3797 29.4C70.5264 29.1653 69.8917 28.8347 69.4757 28.408C69.0704 27.9707 68.8677 27.432 68.8677 26.792C68.8677 26.312 69.0064 25.88 69.2837 25.496C69.5611 25.112 69.9504 24.8133 70.4517 24.6C70.9637 24.376 71.5557 24.264 72.2277 24.264ZM80.604 24.264C81.1693 24.264 81.676 24.3493 82.124 24.52C82.5827 24.68 83.0147 24.936 83.42 25.288L82.428 26.632C82.1507 26.4187 81.8787 26.264 81.612 26.168C81.356 26.072 81.0733 26.024 80.764 26.024C79.5587 26.024 78.956 26.952 78.956 28.808C78.956 29.7467 79.1107 30.4187 79.42 30.824C79.7293 31.2293 80.172 31.432 80.748 31.432C81.0467 31.432 81.3187 31.3893 81.564 31.304C81.8093 31.208 82.0973 31.0533 82.428 30.84L83.42 32.264C82.6093 32.9253 81.6813 33.256 80.636 33.256C79.804 33.256 79.0787 33.0747 78.46 32.712C77.852 32.3493 77.3827 31.8373 77.052 31.176C76.7213 30.504 76.556 29.72 76.556 28.824C76.556 27.928 76.7213 27.1387 77.052 26.456C77.3827 25.7627 77.852 25.224 78.46 24.84C79.0787 24.456 79.7933 24.264 80.604 24.264ZM91.5641 28.568C91.5641 28.6747 91.5481 28.968 91.5161 29.448H86.2201C86.2948 30.216 86.5028 30.76 86.8441 31.08C87.1855 31.4 87.6495 31.56 88.2361 31.56C88.5988 31.56 88.9401 31.5013 89.2601 31.384C89.5801 31.2667 89.9268 31.08 90.3001 30.824L91.2441 32.104C90.2948 32.872 89.2228 33.256 88.0281 33.256C86.6948 33.256 85.6708 32.856 84.9561 32.056C84.2415 31.256 83.8841 30.1733 83.8841 28.808C83.8841 27.944 84.0335 27.1707 84.3321 26.488C84.6415 25.7947 85.0841 25.2507 85.6601 24.856C86.2468 24.4613 86.9401 24.264 87.7401 24.264C88.9455 24.264 89.8841 24.6427 90.5561 25.4C91.2281 26.1573 91.5641 27.2133 91.5641 28.568ZM89.3081 27.928C89.3081 26.52 88.8015 25.816 87.7881 25.816C87.3188 25.816 86.9508 25.992 86.6841 26.344C86.4281 26.6853 86.2735 27.2453 86.2201 28.024H89.3081V27.928ZM97.9446 24.264C98.6913 24.264 99.2726 24.4933 99.6886 24.952C100.105 25.4 100.313 26.024 100.313 26.824V33H98.0406V27.208C98.0406 26.7493 97.9606 26.4293 97.8006 26.248C97.6513 26.056 97.422 25.96 97.1126 25.96C96.7926 25.96 96.4993 26.0613 96.2326 26.264C95.9766 26.456 95.726 26.7493 95.4806 27.144V33H93.2086V24.52H95.1766L95.3526 25.592C95.7046 25.1547 96.0886 24.824 96.5046 24.6C96.9313 24.376 97.4113 24.264 97.9446 24.264ZM109.818 21.144V33H107.818L107.69 31.96C107.093 32.824 106.282 33.256 105.258 33.256C104.213 33.256 103.413 32.856 102.858 32.056C102.314 31.2453 102.042 30.1467 102.042 28.76C102.042 27.8853 102.181 27.112 102.458 26.44C102.746 25.7573 103.152 25.224 103.674 24.84C104.197 24.456 104.8 24.264 105.482 24.264C106.272 24.264 106.96 24.5467 107.546 25.112V20.888L109.818 21.144ZM105.93 31.56C106.261 31.56 106.554 31.48 106.81 31.32C107.066 31.1493 107.312 30.888 107.546 30.536V26.744C107.322 26.4773 107.093 26.28 106.858 26.152C106.634 26.0133 106.373 25.944 106.074 25.944C105.552 25.944 105.141 26.1733 104.842 26.632C104.554 27.0907 104.41 27.8 104.41 28.76C104.41 29.7733 104.538 30.4933 104.794 30.92C105.061 31.3467 105.44 31.56 105.93 31.56ZM119.22 28.568C119.22 28.6747 119.204 28.968 119.172 29.448H113.876C113.951 30.216 114.159 30.76 114.5 31.08C114.842 31.4 115.306 31.56 115.892 31.56C116.255 31.56 116.596 31.5013 116.916 31.384C117.236 31.2667 117.583 31.08 117.956 30.824L118.9 32.104C117.951 32.872 116.879 33.256 115.684 33.256C114.351 33.256 113.327 32.856 112.612 32.056C111.898 31.256 111.54 30.1733 111.54 28.808C111.54 27.944 111.69 27.1707 111.988 26.488C112.298 25.7947 112.74 25.2507 113.316 24.856C113.903 24.4613 114.596 24.264 115.396 24.264C116.602 24.264 117.54 24.6427 118.212 25.4C118.884 26.1573 119.22 27.2133 119.22 28.568ZM116.964 27.928C116.964 26.52 116.458 25.816 115.444 25.816C114.975 25.816 114.607 25.992 114.34 26.344C114.084 26.6853 113.93 27.2453 113.876 28.024H116.964V27.928ZM124.965 28.456L127.749 33H125.141L123.525 29.72L121.941 33H119.445L122.229 28.536L119.733 24.52H122.293L123.621 27.336L124.917 24.52H127.349L124.965 28.456Z" fill="#5A5A5A"/>
<path d="M147.583 28.6665V32.0885C147.582 33.1435 146.727 33.9985 145.672 33.9995H138.828C137.773 33.998 136.918 33.1435 136.917 32.0885V25.244C136.918 24.189 137.773 23.334 138.828 23.333H142.25C142.618 23.333 142.917 23.6315 142.917 23.9995C142.917 24.3675 142.618 24.666 142.25 24.666H138.828C138.509 24.6665 138.251 24.925 138.25 25.244V32.0885C138.251 32.4075 138.509 32.666 138.828 32.6665H145.673C145.992 32.666 146.25 32.4075 146.251 32.0885V28.6665C146.251 28.2985 146.549 28 146.917 28C147.285 28 147.584 28.2985 147.584 28.6665H147.583ZM148.865 22.412C148.762 22.169 148.526 22.001 148.25 22H144.917C144.549 22 144.25 22.2985 144.25 22.6665C144.25 23.0345 144.549 23.333 144.917 23.333H146.641L141.112 28.8615C140.987 28.983 140.909 29.153 140.909 29.341C140.909 29.709 141.207 30.0075 141.575 30.0075C141.763 30.0075 141.933 29.9295 142.055 29.804L147.584 24.275V25.999C147.584 26.367 147.882 26.6655 148.25 26.6655C148.618 26.6655 148.917 26.367 148.917 25.999V22.6655C148.916 22.5735 148.898 22.486 148.864 22.4065L148.865 22.411V22.412Z" fill="#929292"/>
<defs>
<filter id="filter0_b_1050_12671" x="-15.0833" y="-16" width="194.917" height="88" filterUnits="userSpaceOnUse" color-interpolation-filters="sRGB">
<feFlood flood-opacity="0" result="BackgroundImageFix"/>
<feGaussianBlur in="BackgroundImage" stdDeviation="8"/>
<feComposite in2="SourceAlpha" operator="in" result="effect1_backgroundBlur_1050_12671"/>
<feBlend mode="normal" in="SourceGraphic" in2="effect1_backgroundBlur_1050_12671" result="shape"/>
</filter>
</defs>
</svg>
