<svg width="163" height="56" viewBox="0 0 163 56" fill="none" xmlns="http://www.w3.org/2000/svg">
<g filter="url(#filter0_b_1050_12641)">
<rect width="162.917" height="56" rx="7.08333" fill="white" fill-opacity="0.5"/>
<rect x="0.708333" y="0.708333" width="161.5" height="54.5833" rx="6.375" stroke="#EEEEEE" stroke-width="1.41667"/>
</g>
<path d="M74.792 22.672C75.5387 22.672 76.2 22.7893 76.776 23.024C77.3627 23.248 77.9067 23.5733 78.408 24L77.176 25.28C76.7813 24.9813 76.408 24.7627 76.056 24.624C75.7147 24.4853 75.3253 24.416 74.888 24.416C74.0453 24.416 73.3627 24.752 72.84 25.424C72.328 26.0853 72.072 27.0987 72.072 28.464C72.072 29.904 72.2693 30.9387 72.664 31.568C73.0693 32.1867 73.6933 32.496 74.536 32.496C75.144 32.496 75.6933 32.3627 76.184 32.096V29.392H74.632L74.392 27.68H78.472V33.136C77.896 33.488 77.272 33.7653 76.6 33.968C75.9387 34.16 75.2667 34.256 74.584 34.256C72.952 34.256 71.7147 33.7653 70.872 32.784C70.0293 31.8027 69.608 30.3573 69.608 28.448C69.608 27.2427 69.8373 26.2027 70.296 25.328C70.7547 24.4533 71.3733 23.792 72.152 23.344C72.9413 22.896 73.8213 22.672 74.792 22.672ZM86.85 31.648C86.85 31.9787 86.898 32.224 86.994 32.384C87.09 32.5333 87.25 32.6453 87.474 32.72L86.994 34.224C86.4927 34.1813 86.082 34.064 85.762 33.872C85.4527 33.68 85.2127 33.3813 85.042 32.976C84.4873 33.8293 83.6393 34.256 82.498 34.256C81.6553 34.256 80.9833 34.016 80.482 33.536C79.9913 33.0453 79.746 32.4107 79.746 31.632C79.746 30.704 80.082 29.9947 80.754 29.504C81.426 29.0133 82.3913 28.768 83.65 28.768H84.626V28.352C84.626 27.8293 84.5087 27.4667 84.274 27.264C84.0393 27.0613 83.65 26.96 83.106 26.96C82.5087 26.96 81.762 27.1093 80.866 27.408L80.354 25.888C81.41 25.472 82.4553 25.264 83.49 25.264C84.642 25.264 85.49 25.5147 86.034 26.016C86.578 26.5067 86.85 27.2427 86.85 28.224V31.648ZM83.122 32.624C83.762 32.624 84.2633 32.3093 84.626 31.68V30.064H83.874C82.6473 30.064 82.034 30.5227 82.034 31.44C82.034 31.8133 82.1247 32.1067 82.306 32.32C82.498 32.5227 82.77 32.624 83.122 32.624ZM94.192 33.6C93.8827 33.8133 93.5307 33.9733 93.136 34.08C92.752 34.1973 92.368 34.256 91.984 34.256C91.1093 34.2453 90.448 33.9947 90 33.504C89.552 33.0133 89.328 32.2933 89.328 31.344V27.12H88.064V25.52H89.328V23.664L91.6 23.392V25.52H93.552L93.328 27.12H91.6V31.296C91.6 31.7013 91.6693 31.9947 91.808 32.176C91.9467 32.3573 92.16 32.448 92.448 32.448C92.736 32.448 93.056 32.352 93.408 32.16L94.192 33.6ZM102.101 29.568C102.101 29.6747 102.085 29.968 102.053 30.448H96.7565C96.8312 31.216 97.0392 31.76 97.3805 32.08C97.7218 32.4 98.1858 32.56 98.7725 32.56C99.1352 32.56 99.4765 32.5013 99.7965 32.384C100.117 32.2667 100.463 32.08 100.837 31.824L101.781 33.104C100.831 33.872 99.7592 34.256 98.5645 34.256C97.2312 34.256 96.2072 33.856 95.4925 33.056C94.7778 32.256 94.4205 31.1733 94.4205 29.808C94.4205 28.944 94.5698 28.1707 94.8685 27.488C95.1778 26.7947 95.6205 26.2507 96.1965 25.856C96.7832 25.4613 97.4765 25.264 98.2765 25.264C99.4818 25.264 100.421 25.6427 101.093 26.4C101.765 27.1573 102.101 28.2133 102.101 29.568ZM99.8445 28.928C99.8445 27.52 99.3378 26.816 98.3245 26.816C97.8552 26.816 97.4872 26.992 97.2205 27.344C96.9645 27.6853 96.8098 28.2453 96.7565 29.024H99.8445V28.928ZM104.373 31.52C104.757 31.52 105.082 31.6533 105.349 31.92C105.615 32.1867 105.749 32.5067 105.749 32.88C105.749 33.2533 105.615 33.5787 105.349 33.856C105.082 34.1227 104.757 34.256 104.373 34.256C103.999 34.256 103.679 34.1227 103.413 33.856C103.146 33.5787 103.013 33.2533 103.013 32.88C103.013 32.5067 103.146 32.1867 103.413 31.92C103.679 31.6533 103.999 31.52 104.373 31.52ZM109.705 25.52V34H107.433V25.52H109.705ZM108.553 21.152C108.958 21.152 109.289 21.28 109.545 21.536C109.811 21.7813 109.945 22.096 109.945 22.48C109.945 22.864 109.811 23.184 109.545 23.44C109.289 23.6853 108.958 23.808 108.553 23.808C108.147 23.808 107.817 23.6853 107.561 23.44C107.305 23.184 107.177 22.864 107.177 22.48C107.177 22.096 107.305 21.7813 107.561 21.536C107.817 21.28 108.147 21.152 108.553 21.152ZM115.516 25.264C116.785 25.264 117.777 25.664 118.492 26.464C119.207 27.2533 119.564 28.352 119.564 29.76C119.564 30.656 119.399 31.4453 119.068 32.128C118.748 32.8 118.279 33.3227 117.66 33.696C117.052 34.0693 116.332 34.256 115.5 34.256C114.231 34.256 113.233 33.8613 112.508 33.072C111.793 32.272 111.436 31.168 111.436 29.76C111.436 28.864 111.596 28.08 111.916 27.408C112.247 26.7253 112.716 26.1973 113.324 25.824C113.943 25.4507 114.673 25.264 115.516 25.264ZM115.516 26.96C114.94 26.96 114.508 27.1893 114.22 27.648C113.943 28.096 113.804 28.8 113.804 29.76C113.804 30.72 113.943 31.4293 114.22 31.888C114.508 32.336 114.935 32.56 115.5 32.56C116.065 32.56 116.487 32.336 116.764 31.888C117.052 31.4293 117.196 30.72 117.196 29.76C117.196 28.8 117.057 28.096 116.78 27.648C116.503 27.1893 116.081 26.96 115.516 26.96Z" fill="#5A5A5A"/>
<path d="M21.0448 27.9076L36.9237 12.0446C36.9484 12.0199 36.9884 12.0199 37.0131 12.0444L40.2183 15.2219C40.2432 15.2466 40.2433 15.2868 40.2186 15.3116L27.9199 27.6855C27.8952 27.7103 27.8953 27.7504 27.9201 27.7751L36.8337 36.6665C36.9081 36.7407 37.0285 36.7406 37.1027 36.6663L44.1505 29.6115C44.3163 29.4455 44.5826 29.4372 44.7585 29.5926L44.9957 29.802C45.2004 29.9829 45.5228 29.8375 45.5228 29.5643V25.7007C45.5228 25.4905 45.3524 25.3201 45.1422 25.3201H41.361C41.0961 25.3201 40.9479 25.6257 41.112 25.8337L41.4473 26.2589C41.5671 26.4107 41.5539 26.6282 41.4168 26.7645L37.3156 30.8414C37.1642 30.9919 37.1232 31.2211 37.213 31.4148L37.2663 31.5296C37.3637 31.7398 37.2103 31.9802 36.9785 31.9802H33.0182C32.8042 31.9802 32.6322 31.8038 32.6377 31.5899L32.7374 27.6977C32.7443 27.431 33.0574 27.2914 33.2604 27.4647L33.5623 27.7224C33.7141 27.852 33.9402 27.8423 34.0804 27.7002L43.3548 18.2936C43.3797 18.2684 43.4203 18.2684 43.4452 18.2936L52.6906 27.6704C52.8619 27.844 52.8609 28.1233 52.6886 28.2959L37.2246 43.7752C37.1006 43.8993 36.8995 43.8992 36.7756 43.775L21.0447 27.9973C21.02 27.9725 21.0201 27.9324 21.0448 27.9076Z" fill="#DE5959"/>
<path d="M140.667 29.6665V33.0885C140.665 34.1435 139.811 34.9985 138.755 34.9995H131.911C130.856 34.998 130.001 34.1435 130 33.0885V26.244C130.002 25.189 130.856 24.334 131.911 24.333H135.333C135.701 24.333 136 24.6315 136 24.9995C136 25.3675 135.701 25.666 135.333 25.666H131.911C131.592 25.6665 131.334 25.925 131.333 26.244V33.0885C131.334 33.4075 131.592 33.666 131.911 33.6665H138.756C139.075 33.666 139.333 33.4075 139.334 33.0885V29.6665C139.334 29.2985 139.632 29 140 29C140.368 29 140.667 29.2985 140.667 29.6665H140.667ZM141.948 23.412C141.845 23.169 141.609 23.001 141.333 23H138C137.632 23 137.333 23.2985 137.333 23.6665C137.333 24.0345 137.632 24.333 138 24.333H139.724L134.195 29.8615C134.07 29.983 133.992 30.153 133.992 30.341C133.992 30.709 134.291 31.0075 134.659 31.0075C134.847 31.0075 135.016 30.9295 135.138 30.804L140.667 25.275V26.999C140.667 27.367 140.965 27.6655 141.333 27.6655C141.701 27.6655 142 27.367 142 26.999V23.6655C142 23.5735 141.981 23.486 141.947 23.4065L141.948 23.411V23.412Z" fill="#929292"/>
<defs>
<filter id="filter0_b_1050_12641" x="-16" y="-16" width="194.917" height="88" filterUnits="userSpaceOnUse" color-interpolation-filters="sRGB">
<feFlood flood-opacity="0" result="BackgroundImageFix"/>
<feGaussianBlur in="BackgroundImage" stdDeviation="8"/>
<feComposite in2="SourceAlpha" operator="in" result="effect1_backgroundBlur_1050_12641"/>
<feBlend mode="normal" in="SourceGraphic" in2="effect1_backgroundBlur_1050_12641" result="shape"/>
</filter>
</defs>
</svg>
