<svg width="163" height="56" viewBox="0 0 163 56" fill="none" xmlns="http://www.w3.org/2000/svg">
<g filter="url(#filter0_b_1050_12649)">
<rect width="162.917" height="56" rx="7.08333" fill="white" fill-opacity="0.5"/>
<rect x="0.708333" y="0.708333" width="161.5" height="54.5833" rx="6.375" stroke="#EEEEEE" stroke-width="1.41667"/>
</g>
<path d="M75.44 29.352C75.44 30.1093 75.28 30.7813 74.96 31.368C74.64 31.9547 74.16 32.4187 73.52 32.76C72.8907 33.0907 72.1227 33.256 71.216 33.256C69.8507 33.256 68.8053 32.904 68.08 32.2C67.3653 31.4853 67.008 30.536 67.008 29.352V21.928H69.36V29.24C69.36 29.9867 69.5093 30.5467 69.808 30.92C70.1067 31.2827 70.576 31.464 71.216 31.464C71.856 31.464 72.3253 31.2827 72.624 30.92C72.9333 30.5467 73.088 29.9867 73.088 29.24V21.928H75.44V29.352ZM82.3248 24.264C83.0714 24.264 83.6528 24.4933 84.0688 24.952C84.4848 25.4 84.6927 26.024 84.6927 26.824V33H82.4208V27.208C82.4208 26.7493 82.3408 26.4293 82.1808 26.248C82.0314 26.056 81.8021 25.96 81.4928 25.96C81.1728 25.96 80.8794 26.0613 80.6128 26.264C80.3568 26.456 80.1061 26.7493 79.8608 27.144V33H77.5888V24.52H79.5568L79.7328 25.592C80.0848 25.1547 80.4688 24.824 80.8848 24.6C81.3114 24.376 81.7914 24.264 82.3248 24.264ZM89.1264 24.52V33H86.8544V24.52H89.1264ZM87.9744 20.152C88.3797 20.152 88.7104 20.28 88.9664 20.536C89.233 20.7813 89.3664 21.096 89.3664 21.48C89.3664 21.864 89.233 22.184 88.9664 22.44C88.7104 22.6853 88.3797 22.808 87.9744 22.808C87.569 22.808 87.2384 22.6853 86.9824 22.44C86.7264 22.184 86.5984 21.864 86.5984 21.48C86.5984 21.096 86.7264 20.7813 86.9824 20.536C87.2384 20.28 87.569 20.152 87.9744 20.152ZM94.186 24.264C95.3807 24.264 96.4047 24.6053 97.258 25.288L96.394 26.584C95.6793 26.136 94.9753 25.912 94.282 25.912C93.9087 25.912 93.6207 25.9813 93.418 26.12C93.2153 26.2587 93.114 26.4453 93.114 26.68C93.114 26.8507 93.1567 26.9947 93.242 27.112C93.338 27.2293 93.5087 27.3413 93.754 27.448C94.01 27.5547 94.3887 27.6827 94.89 27.832C95.786 28.0773 96.4527 28.408 96.89 28.824C97.3273 29.2293 97.546 29.7893 97.546 30.504C97.546 31.0693 97.3807 31.56 97.05 31.976C96.73 32.392 96.2927 32.712 95.738 32.936C95.1833 33.1493 94.5647 33.256 93.882 33.256C93.1673 33.256 92.5167 33.1493 91.93 32.936C91.3433 32.712 90.842 32.408 90.426 32.024L91.546 30.776C92.2607 31.3307 93.018 31.608 93.818 31.608C94.2447 31.608 94.5807 31.528 94.826 31.368C95.082 31.1973 95.21 30.968 95.21 30.68C95.21 30.456 95.162 30.28 95.066 30.152C94.97 30.024 94.794 29.9067 94.538 29.8C94.282 29.6827 93.882 29.5493 93.338 29.4C92.4847 29.1653 91.85 28.8347 91.434 28.408C91.0287 27.9707 90.826 27.432 90.826 26.792C90.826 26.312 90.9647 25.88 91.242 25.496C91.5193 25.112 91.9087 24.8133 92.41 24.6C92.922 24.376 93.514 24.264 94.186 24.264ZM109.509 24.52L107.701 33H104.933L103.717 26.552L102.501 33H99.7653L97.9093 24.52H100.197L101.237 31.32L102.645 24.52H104.917L106.181 31.32L107.333 24.52H109.509ZM117.038 30.648C117.038 30.9787 117.086 31.224 117.182 31.384C117.278 31.5333 117.438 31.6453 117.661 31.72L117.182 33.224C116.68 33.1813 116.27 33.064 115.95 32.872C115.64 32.68 115.4 32.3813 115.23 31.976C114.675 32.8293 113.827 33.256 112.686 33.256C111.843 33.256 111.171 33.016 110.67 32.536C110.179 32.0453 109.934 31.4107 109.934 30.632C109.934 29.704 110.27 28.9947 110.942 28.504C111.614 28.0133 112.579 27.768 113.838 27.768H114.814V27.352C114.814 26.8293 114.696 26.4667 114.462 26.264C114.227 26.0613 113.838 25.96 113.294 25.96C112.696 25.96 111.95 26.1093 111.054 26.408L110.542 24.888C111.598 24.472 112.643 24.264 113.678 24.264C114.83 24.264 115.678 24.5147 116.222 25.016C116.766 25.5067 117.038 26.2427 117.038 27.224V30.648ZM113.31 31.624C113.95 31.624 114.451 31.3093 114.814 30.68V29.064H114.062C112.835 29.064 112.222 29.5227 112.222 30.44C112.222 30.8133 112.312 31.1067 112.494 31.32C112.686 31.5227 112.958 31.624 113.31 31.624ZM123.884 24.264C124.95 24.264 125.74 24.6587 126.252 25.448C126.774 26.2267 127.036 27.3253 127.036 28.744C127.036 29.608 126.902 30.3813 126.635 31.064C126.369 31.7467 125.98 32.2853 125.468 32.68C124.966 33.064 124.369 33.256 123.676 33.256C122.812 33.256 122.113 32.952 121.58 32.344V36.264L119.308 36.52V24.52H121.308L121.42 25.512C121.74 25.096 122.113 24.7867 122.54 24.584C122.977 24.3707 123.425 24.264 123.884 24.264ZM123.004 31.56C124.113 31.56 124.668 30.6267 124.668 28.76C124.668 27.736 124.545 27.0107 124.3 26.584C124.054 26.1573 123.681 25.944 123.18 25.944C122.86 25.944 122.561 26.0453 122.284 26.248C122.017 26.44 121.782 26.7013 121.58 27.032V30.728C121.942 31.2827 122.417 31.56 123.004 31.56Z" fill="#5A5A5A"/>
<g clip-path="url(#clip0_1050_12649)">
<path d="M48.9461 32.6685C48.6994 31.067 47.9581 29.7984 46.7338 28.8648C45.951 28.268 45.0772 27.8944 44.1541 27.648C43.2473 27.4059 42.3215 27.2779 41.4008 27.1227C40.7972 27.021 40.196 26.9058 39.6042 26.7382C38.9525 26.553 38.3524 26.2585 37.8388 25.7753C37.7905 25.7304 37.7442 25.681 37.6604 25.6455C37.6418 25.9008 37.6428 26.1378 37.6443 26.3747C37.6475 27.4732 37.9901 28.4225 38.6989 29.2129C39.0491 29.6033 39.4444 29.9316 39.8662 30.2233C40.6874 30.7912 41.5676 31.2319 42.4654 31.6337C43.4212 32.0611 44.3842 32.4699 45.3153 32.9604C45.8808 33.2575 46.4308 33.5844 46.9212 34.016C47.6733 34.678 48.1386 35.5075 48.1816 36.5809C48.1839 36.6368 48.1858 36.6943 48.231 36.7308C48.2793 36.7144 48.2954 36.6749 48.3125 36.6406C48.549 36.1625 48.745 35.6662 48.8612 35.1369C48.9285 34.8306 48.9548 34.5167 48.9739 34.2032C49.0015 33.6908 49.0247 33.1764 48.9461 32.6685Z" fill="#ED1B7A"/>
<path d="M29.2925 17.033C29.3342 17.0426 29.3764 17.0519 29.4187 17.0582C30.4152 17.2092 31.3431 17.5587 32.1799 18.174C32.6751 18.5385 33.1186 18.9679 33.5323 19.4346C34.0959 20.0693 34.5923 20.7627 35.0814 21.4643C35.6127 22.2257 36.1516 22.9793 36.7548 23.677C37.4595 24.4921 38.2934 25.0768 39.2781 25.4149C39.9197 25.6353 40.5742 25.7768 41.2408 25.8605C41.971 25.9523 42.706 25.9853 43.4383 26.0397C43.8823 26.0727 44.3238 26.1211 44.7623 26.2132C45.5753 26.3839 46.2199 26.8361 46.696 27.5698C46.7729 27.6886 46.8484 27.8088 46.9246 27.9284C46.9251 27.9451 46.9313 27.9611 46.942 27.9732C46.9526 27.9854 46.967 27.9928 46.9824 27.9942C47.0004 27.9418 46.9893 27.8964 46.9628 27.8527C46.9426 27.5625 46.892 27.2757 46.8117 26.998C46.4649 25.7768 45.8692 24.7098 45.0963 23.7534C45.0513 23.6977 45.003 23.6451 44.9403 23.5727C44.8906 23.7913 44.8481 23.9867 44.8014 24.1808C44.7036 24.588 44.5687 24.9789 44.3552 25.3333C44.2457 25.5151 44.1198 25.6816 43.9429 25.791C43.6479 25.9736 43.2847 25.828 43.1555 25.4878C43.0845 25.301 43.0936 25.1278 43.1816 24.9532C43.2823 24.7538 43.37 24.5485 43.418 24.3255C43.5692 23.6229 43.4985 22.9275 43.3674 22.232C43.3394 22.0837 43.2658 21.9856 43.1517 21.9051C42.7973 21.6532 42.4283 21.4267 42.0468 21.2269C40.6792 20.5161 39.2292 20.2012 37.7199 20.1848C36.9831 20.1768 36.2526 20.2566 35.5284 20.3996C35.4025 20.4244 35.3226 20.3949 35.2403 20.2862C34.8092 19.7206 34.3346 19.1958 33.8217 18.7174C32.6402 17.6071 31.2829 16.9832 29.7081 16.956C29.5493 16.9533 29.3909 16.9539 29.2334 16.997C29.2493 17.0269 29.2722 17.0283 29.2925 17.033Z" fill="#ED1B7A"/>
<path d="M46.1846 35.2707C45.6142 34.7254 44.979 34.2828 44.323 33.8726C43.4642 33.3358 42.5765 32.8544 41.7336 32.2866C41.5668 32.1742 41.5311 32.1895 41.4709 32.3915C41.3764 32.7086 41.3359 33.038 41.3235 33.3701C41.3 34.0004 41.406 34.6085 41.5947 35.2023C41.8027 35.8569 42.1251 36.4462 42.4756 37.0187C42.891 37.6971 43.3153 38.3691 43.7273 39.0498C44.0686 39.6139 44.3927 40.1897 44.6576 40.802C44.887 41.3326 45.0414 41.8869 45.0889 42.4723C45.1511 43.24 45.0033 43.9641 44.6941 44.6533C44.6386 44.7772 44.5805 44.9003 44.5368 45.0698C44.6149 45.0324 44.6642 45.0107 44.712 44.9857C45.5815 44.5314 46.2939 43.8743 46.8306 43.003C47.4199 42.0464 47.7783 41.0007 47.821 39.84C47.8355 39.4444 47.8569 39.0468 47.8142 38.6535C47.6679 37.303 47.1281 36.1724 46.1846 35.2707Z" fill="#ED1B7A"/>
<path d="M39.831 47.3925C39.3841 47.3052 39.0207 47.0691 38.7569 46.661C38.6016 46.4165 38.4787 46.1495 38.3918 45.8678C38.2507 45.4247 38.2071 44.96 38.138 44.5016C38.049 43.9103 37.9698 43.3168 37.8107 42.7415C37.6154 42.035 37.3162 41.3898 36.821 40.8703C36.4144 40.4436 35.9335 40.1425 35.4118 39.913C34.9149 39.6946 34.3974 39.5843 33.8635 39.549C33.2721 39.5099 32.6848 39.5214 32.1019 39.6539C31.1227 39.8751 30.2051 40.2718 29.3368 40.8041C28.6108 41.249 27.9225 41.7528 27.3285 42.3943C27.3045 42.4203 27.2609 42.4376 27.2802 42.4887C27.6199 42.5511 27.9587 42.6092 28.2958 42.6762C28.7502 42.7663 29.1952 42.8913 29.6137 43.1115C30.0634 43.3481 30.4431 43.6882 30.8052 44.0551C31.1583 44.4128 31.483 44.8013 31.8356 45.1594C32.1939 45.5223 32.6067 45.7632 33.0855 45.8741C33.5141 45.9734 33.93 45.9369 34.3237 45.7233C34.8021 45.464 35.1199 45.058 35.2196 44.4787C35.2679 44.1972 35.2595 43.9118 35.2104 43.628C35.1737 43.4155 35.0932 43.2279 34.9582 43.0722C34.5795 42.6353 34.1126 42.4649 33.5721 42.5829C33.229 42.6577 32.9828 42.8838 32.8701 43.2534C32.7545 43.6328 32.8902 43.9861 33.204 44.1464C33.2271 44.1813 33.263 44.1827 33.2971 44.1886C33.3227 44.214 33.3604 44.2316 33.3794 44.2007C33.3944 44.1764 33.3557 44.1596 33.3311 44.1498L33.2374 44.1119C33.0603 43.9996 32.9439 43.8479 32.9387 43.6107C32.931 43.245 33.0983 42.9752 33.4204 42.8515C33.8365 42.6916 34.4197 42.8974 34.6704 43.2925C34.7214 43.3746 34.7599 43.4652 34.7843 43.5606C34.8193 43.6913 34.8214 43.8248 34.8188 43.9588C34.8051 44.7173 34.1641 45.2925 33.475 45.1646C33.1567 45.1054 32.8732 44.9596 32.6175 44.7485C32.4628 44.6215 32.3354 44.4595 32.2441 44.2737C31.8588 43.494 32.1762 42.5105 32.9387 42.1243C33.3308 41.9261 33.7437 41.8891 34.1654 41.9593C34.8128 42.067 35.3332 42.4327 35.7863 42.925C36.0895 43.2544 36.3002 43.6534 36.4947 44.0635C36.7504 44.6014 36.9559 45.1645 37.1951 45.7105C37.3895 46.1539 37.6083 46.5778 37.9065 46.9513C38.6231 47.8481 39.5182 48.1688 40.5818 47.9173C41.1157 47.791 41.5702 47.479 42.0029 47.1294C42.015 47.1216 42.0252 47.1107 42.0325 47.0976C42.0397 47.0845 42.0438 47.0697 42.0444 47.0544C41.8995 47.082 41.768 47.146 41.6324 47.1965C41.0474 47.4145 40.4493 47.5147 39.831 47.3925Z" fill="#ED1B7A"/>
<path d="M29.8994 22.0403C30.3265 22.9349 30.9287 23.6524 31.7359 24.1592C31.9737 24.3086 32.2241 24.4248 32.4944 24.4849C32.6418 24.5189 32.7937 24.5231 32.9425 24.4973C33.1117 24.4671 33.1666 24.3491 33.0969 24.1786C33.0714 24.121 33.0408 24.0661 33.0056 24.0148C32.8175 23.7176 32.6455 23.4087 32.4904 23.0897C32.3504 22.8082 32.2446 22.5082 32.1756 22.1973C32.0967 21.8413 32.0228 21.4843 31.9502 21.1266C31.8484 20.621 31.7307 20.1204 31.5367 19.6445C31.3308 19.14 31.0205 18.7346 30.5793 18.4562C30.2167 18.2296 29.8245 18.0642 29.416 17.9655C29.3344 17.9452 29.2524 17.9131 29.1661 17.9292C29.1045 18.2834 29.0856 18.8746 29.1254 19.27C29.2219 20.2378 29.4844 21.1774 29.8994 22.0403Z" fill="#ED1B7A"/>
<path d="M38.3032 36.2794C37.7791 36.5765 37.2142 36.728 36.6368 36.8375C35.9402 36.9698 35.2431 37.0967 34.5507 37.2549C33.7206 37.445 32.9277 37.7916 32.2079 38.2789C32.1414 38.3235 32.0689 38.3619 32.0146 38.4362C32.0911 38.4725 32.1486 38.4308 32.2051 38.4087C32.9572 38.1152 33.7383 37.9733 34.5296 37.8934C35.2452 37.821 35.9626 37.787 36.6794 37.7186C37.2813 37.6606 37.8687 37.5371 38.4288 37.2914C39.4847 36.8278 40.2267 36.0298 40.5965 34.8464C40.6489 34.6752 40.6789 34.4968 40.6859 34.3166C40.6981 34.0544 40.7003 33.7923 40.695 33.5302C40.6915 33.3621 40.6971 33.1917 40.6574 33.0266C40.5105 32.416 40.2709 31.8569 39.8763 31.3849C39.8694 31.3556 39.8492 31.317 39.828 31.3267C39.7871 31.346 39.8164 31.3818 39.8301 31.4101C39.833 31.4149 39.8364 31.4194 39.8402 31.4234C39.983 31.8685 40.0749 32.331 40.1139 32.8004C40.1772 33.5842 40.0379 34.3173 39.6478 34.9862C39.3158 35.5582 38.8505 35.9694 38.3032 36.2794Z" fill="#ED1B7A"/>
<path d="M41.2621 19.7097C41.5563 19.8631 41.8527 20.0119 42.1443 20.1709C42.5468 20.3902 42.9413 20.6252 43.3026 20.9192C43.5976 21.1596 43.8178 21.4609 43.9244 21.8487C43.9765 22.0441 44.0116 22.2445 44.0294 22.447C44.0777 22.9403 44.0616 23.4352 44.0616 23.9296C44.0616 24.0631 44.0568 24.1964 44.0465 24.3303C44.0304 24.5372 43.9484 24.7212 43.8956 24.9154C43.8676 24.9449 43.8431 24.9837 43.8847 25.0115C43.9041 25.0244 43.9209 24.9799 43.9276 24.9521C44.2231 24.4103 44.3508 23.8162 44.3843 23.1942C44.4018 22.8697 44.4058 22.5445 44.4165 22.2197C44.4203 22.108 44.4363 22.0005 44.5131 21.9152C44.5678 21.8553 44.6211 21.8342 44.6979 21.8778C44.8457 21.9617 44.9805 22.0657 45.1135 22.1728C45.5174 22.4984 45.9032 22.8477 46.2785 23.211C46.3096 23.2706 46.359 23.3096 46.4073 23.3508C46.4316 23.3952 46.4662 23.4318 46.5078 23.4567C46.5143 23.48 46.5278 23.5023 46.5503 23.4917C46.5664 23.4847 46.5553 23.4611 46.5455 23.4485C46.5349 23.4364 46.5234 23.4252 46.5112 23.415C46.4951 23.3886 46.4824 23.3597 46.4537 23.3459C46.413 23.2823 46.3784 23.2133 46.3186 23.1665C46.2864 23.1202 46.2573 23.0714 46.222 23.0277C45.8611 22.5746 45.4894 22.1325 45.1067 21.7012C44.8974 21.4674 44.6881 21.2342 44.4987 20.9817C44.3035 20.7252 44.174 20.4174 44.1233 20.0893C44.1072 19.9919 44.0896 19.8951 44.075 19.7978C43.9829 19.1613 43.9515 18.5268 44.1254 17.8988C44.1674 17.8381 44.183 17.7667 44.1957 17.694C44.2181 17.6639 44.2423 17.626 44.2036 17.6001C44.1841 17.5872 44.168 17.6283 44.1595 17.6536C44.1349 17.71 44.0978 17.7609 44.0917 17.8259C44.0104 17.9893 43.9446 18.1612 43.8953 18.339C43.765 18.7917 43.7209 19.2587 43.703 19.7298C43.6961 19.9098 43.6869 20.0898 43.653 20.2663C43.6161 20.4585 43.5849 20.4772 43.4114 20.4236C43.1699 20.3496 42.9384 20.2413 42.7043 20.1427C42.2456 19.9495 41.779 19.7833 41.2974 19.6699C41.2369 19.644 41.2369 19.644 41.1807 19.6636C41.1905 19.677 41.2028 19.6881 41.2169 19.6961C41.2309 19.704 41.2463 19.7087 41.2621 19.7097Z" fill="#ED1B7A"/>
<path d="M17.1391 8.14574C17.1187 8.09471 17.0805 8.06064 17.042 8.02709L17.0138 8.00175L17 8L17.0068 8.00909C17.0073 8.02243 17.0105 8.03549 17.0163 8.04731C17.022 8.05913 17.0301 8.06941 17.0399 8.07741C17.056 8.10468 17.0707 8.13508 17.1027 8.14574C17.1088 8.16514 17.1188 8.18069 17.1396 8.17982V8.14574H17.1391Z" fill="#ED1B7A"/>
<path d="M17.1729 8.21484H17.1719V8.21607H17.1729V8.21502V8.21484Z" fill="#ED1B7A"/>
<path d="M17.1406 8.18038C17.1406 8.2031 17.1493 8.21655 17.172 8.21446C17.1749 8.18877 17.1653 8.17654 17.1406 8.18038Z" fill="#ED1B7A"/>
<path d="M17.2055 8.24861C17.2055 8.22502 17.1965 8.21104 17.1733 8.21576C17.1719 8.2202 17.1715 8.22494 17.1722 8.22958C17.1728 8.23422 17.1745 8.23862 17.1771 8.24241C17.1796 8.24619 17.183 8.24924 17.1869 8.25129C17.1908 8.25334 17.1951 8.25434 17.1994 8.2542L17.2055 8.24861Z" fill="#ED1B7A"/>
<path d="M27.6779 40.4893C27.8054 40.3057 27.902 40.1059 27.9443 39.8796C28.0121 39.5167 28.0157 39.1486 27.9728 38.7843C27.9277 38.4016 27.7419 38.0888 27.498 37.8144C27.1979 37.4766 26.8443 37.2124 26.4915 36.947C26.1558 36.6941 25.8343 36.4227 25.5554 36.0966C25.1774 35.6536 24.9637 35.1355 24.9275 34.5291C24.9006 34.0748 25.0057 33.6536 25.155 33.2383C25.3305 32.75 25.5458 32.2815 25.7496 31.8076C26.0935 31.0081 26.3027 30.1731 26.3573 29.2912C26.3769 28.9723 26.4019 28.6532 26.4465 28.3362C26.5477 27.6176 26.9295 27.2153 27.5265 27.1147C27.8703 27.0568 28.2156 27.0072 28.5541 26.913C29.1791 26.7382 29.7161 26.4115 30.1352 25.8706C30.313 25.6433 30.4365 25.372 30.4949 25.0806C30.5297 24.9097 30.519 24.7311 30.5464 24.5612C30.5926 24.2751 30.4994 24.0815 30.3231 23.869C28.3981 21.5501 26.4666 19.2372 24.5288 16.9304C22.5509 14.5691 20.5702 12.2103 18.5866 9.85424C18.2034 9.3985 17.8148 8.94799 17.4287 8.49504C17.3802 8.41227 17.318 8.33998 17.2453 8.28184C17.2383 8.26192 17.2277 8.24689 17.2055 8.24812L17.1987 8.25371C17.1968 8.25924 17.1968 8.26539 17.1988 8.27091C17.2008 8.27642 17.2047 8.2809 17.2097 8.28342C17.2599 8.37591 17.3227 8.45963 17.396 8.53174C17.407 8.55148 17.4189 8.57061 17.4317 8.58905C17.8359 9.12495 18.2401 9.66115 18.6446 10.1976C20.7516 12.9908 22.8584 15.7841 24.965 18.5774C26.3639 20.4345 27.7629 22.2916 29.1463 24.1623C29.2066 24.244 29.2678 24.3251 29.3124 24.419C29.4329 24.6725 29.4048 24.9179 29.2292 25.1283C29.1336 25.2391 29.0203 25.3303 28.8948 25.3972C28.679 25.518 28.4481 25.5922 28.2132 25.6531C27.6122 25.8088 27.1374 25.5954 26.7762 25.0655C26.6073 24.8177 26.446 24.5635 26.2871 24.3078C25.2374 22.619 24.2389 20.8944 23.22 19.1836C22.8592 18.5778 22.4926 17.9759 22.1287 17.3722C22.1097 17.3054 22.0659 17.2551 22.0321 17.1974C22.0288 17.1873 22.0247 17.1775 22.02 17.1681C22.0099 17.1506 21.9976 17.1254 21.9772 17.137C21.9567 17.1485 21.9654 17.1757 21.9736 17.1951C21.9811 17.2091 21.99 17.2221 22 17.2339C22.0276 17.296 22.0469 17.3631 22.095 17.412C22.1208 17.4692 22.1433 17.5279 22.1728 17.5834C23.1379 19.4638 24.1031 21.3439 25.0684 23.224C25.4173 23.9056 25.7607 24.5899 26.0779 25.2892C26.1893 25.5339 26.1594 25.7471 26.0278 25.961C25.9473 26.0922 25.8507 26.2095 25.7541 26.3269C25.501 26.6371 25.3075 26.999 25.185 27.3915C25.0152 27.9224 24.932 28.473 24.8689 29.0275C24.7823 29.789 24.6121 30.5237 24.3081 31.2192C23.9798 31.9706 23.5454 32.6478 23.0809 33.3043C22.692 33.8537 22.2758 34.3795 21.8989 34.9396C21.3998 35.6837 21.123 36.5066 21.103 37.4371C21.0855 38.2557 21.236 39.0321 21.5044 39.7882C21.6907 40.3125 21.9714 40.782 22.2507 41.2512C22.4692 41.6182 22.6803 41.989 22.8527 42.3843C22.9097 42.5154 22.9645 42.6464 22.9769 42.7964C22.9861 42.906 23.0091 42.9208 23.1141 42.9163C23.1515 42.9136 23.1887 42.9082 23.2255 42.9C23.5736 42.8313 23.9178 42.7427 24.2577 42.6379C25.07 42.3868 25.8527 42.0598 26.5701 41.5668C26.995 41.2761 27.3734 40.9278 27.6779 40.4893ZM23.2111 38.5147C23.0207 38.6443 22.787 38.6195 22.6304 38.4622C22.5254 38.3574 22.4937 38.2321 22.5362 38.0827C22.5621 37.9922 22.6117 37.9161 22.6507 37.8335C22.735 37.6552 22.716 37.5677 22.556 37.4759C22.4678 37.4254 22.4024 37.3688 22.4082 37.2526C22.4143 37.1263 22.486 37.052 22.5871 37.008C22.8138 36.9094 23.0303 36.9461 23.2311 37.0857C23.4467 37.2355 23.5792 37.5168 23.5776 37.8529C23.5586 38.0979 23.4531 38.3492 23.2111 38.5138V38.5147Z" fill="#ED1B7A"/>
<path d="M32.9954 29.3889C33.1461 29.2162 33.2247 29.0156 33.2144 28.7729C33.2061 28.586 33.1552 28.4043 33.0664 28.2441C32.6703 27.5159 32.1305 27.2725 31.4122 27.3153C31.1909 27.3281 30.9786 27.4142 30.8038 27.562C30.2517 28.0195 30.014 28.6166 30.139 29.3675C30.2034 29.755 30.4066 29.9617 30.7669 30.0316C30.9001 30.0571 31.0335 30.0583 31.1676 30.0602C31.623 30.0589 32.0633 29.9758 32.4805 29.7714C32.6729 29.677 32.8494 29.5564 32.9954 29.3889ZM32.2585 28.5151C31.86 28.7947 31.4784 28.7963 31.1071 28.5076C30.7837 28.2561 30.8946 27.9402 31.087 27.7593C31.2607 27.5959 31.4689 27.5337 31.6957 27.5356C31.9119 27.5305 32.1227 27.6093 32.29 27.7579C32.5459 27.9825 32.5346 28.3208 32.2585 28.5151Z" fill="#ED1B7A"/>
</g>
<path d="M148.667 28.6665V32.0885C148.665 33.1435 147.811 33.9985 146.755 33.9995H139.911C138.856 33.998 138.001 33.1435 138 32.0885V25.244C138.002 24.189 138.856 23.334 139.911 23.333H143.333C143.701 23.333 144 23.6315 144 23.9995C144 24.3675 143.701 24.666 143.333 24.666H139.911C139.592 24.6665 139.334 24.925 139.333 25.244V32.0885C139.334 32.4075 139.592 32.666 139.911 32.6665H146.756C147.075 32.666 147.333 32.4075 147.334 32.0885V28.6665C147.334 28.2985 147.632 28 148 28C148.368 28 148.667 28.2985 148.667 28.6665H148.667ZM149.948 22.412C149.845 22.169 149.609 22.001 149.333 22H146C145.632 22 145.333 22.2985 145.333 22.6665C145.333 23.0345 145.632 23.333 146 23.333H147.724L142.195 28.8615C142.07 28.983 141.992 29.153 141.992 29.341C141.992 29.709 142.291 30.0075 142.659 30.0075C142.847 30.0075 143.016 29.9295 143.138 29.804L148.667 24.275V25.999C148.667 26.367 148.965 26.6655 149.333 26.6655C149.701 26.6655 150 26.367 150 25.999V22.6655C150 22.5735 149.981 22.486 149.947 22.4065L149.948 22.411V22.412Z" fill="#929292"/>
<defs>
<filter id="filter0_b_1050_12649" x="-16" y="-16" width="194.917" height="88" filterUnits="userSpaceOnUse" color-interpolation-filters="sRGB">
<feFlood flood-opacity="0" result="BackgroundImageFix"/>
<feGaussianBlur in="BackgroundImage" stdDeviation="8"/>
<feComposite in2="SourceAlpha" operator="in" result="effect1_backgroundBlur_1050_12649"/>
<feBlend mode="normal" in="SourceGraphic" in2="effect1_backgroundBlur_1050_12649" result="shape"/>
</filter>
<clipPath id="clip0_1050_12649">
<rect width="40" height="40" fill="white" transform="translate(13 8)"/>
</clipPath>
</defs>
</svg>
