<?xml version="1.0" encoding="utf-8"?>
<!-- Generator: Adobe Illustrator 27.0.1, SVG Export Plug-In . SVG Version: 6.00 Build 0)  -->
<svg version="1.1" id="Layer_1" xmlns="http://www.w3.org/2000/svg" xmlns:xlink="http://www.w3.org/1999/xlink" x="0px" y="0px"
	 viewBox="0 0 70 70" style="enable-background:new 0 0 70 70;" xml:space="preserve">
<style type="text/css">
	.st0{fill-rule:evenodd;clip-rule:evenodd;fill:url(#SVGID_1_);}
	.st1{fill-rule:evenodd;clip-rule:evenodd;fill:url(#SVGID_00000092423403118432864760000016464357951735431051_);}
	.st2{fill-rule:evenodd;clip-rule:evenodd;fill:#AEAEAE;}
	.st3{fill-rule:evenodd;clip-rule:evenodd;fill:url(#SVGID_00000044144722227119803320000011688728945119434113_);}
	.st4{fill-rule:evenodd;clip-rule:evenodd;fill:url(#SVGID_00000111170657591196469310000006231931665884511673_);}
</style>
<linearGradient id="SVGID_1_" gradientUnits="userSpaceOnUse" x1="26.6401" y1="26.8888" x2="130.2411" y2="6.3774" gradientTransform="matrix(1 0 0 -1 0 72)">
	<stop  offset="0" style="stop-color:#00A551"/>
	<stop  offset="1" style="stop-color:#2AACE2"/>
</linearGradient>
<path class="st0" d="M36.2,39.6c1,0.1,4.2,1.7,4.6,1.7c0.3,0,0.8-0.5,1.1-0.8c0.9-0.7,2.9-1.9,3.9-2c0-1.2,0.6-3.2,0.6-4.8h5
	c0,1.6,0.6,3.7,0.6,4.8c1,0.1,2.9,1.2,3.8,1.8c1.4,1,0.7,1.2,3.4,0c0.5-0.2,1.8-0.8,2.4-0.9c0.1,0.5,1.9,3.4,2.3,4.1l-3.9,3
	c0.6,2.4,0.2,3.5,0,5.7c0.8,0.4,2.8,2.2,3.9,2.8l-2.4,4.3c-1.3-0.7-3.1-1.1-4.4-1.8l-2,1.4c-0.7,0.5-1.5,0.8-2.3,1.1
	c-0.6,0.2-0.7,0.2-0.8,0.9l-0.4,3c-0.2,1.5,0.6,1.2-4.7,1.2c-0.6,0-0.5-1.4-0.7-2.7c-0.3-2-0.1-2.1-1-2.4c-2.4-0.9-2.7-1.5-4.3-2.6
	c-1.3,0.7-3.1,1.2-4.4,1.8L34,55.3c0.7-0.5,1.2-0.9,1.9-1.4c0.7-0.5,1.3-1.1,2-1.4c-0.2-2.1-0.6-3.2,0-5.7c-0.3-0.2-0.7-0.5-1-0.7
	L34,43.8C34.4,42.9,36.1,40.1,36.2,39.6L36.2,39.6z M40.3,36.4c-0.4,0-2.3-0.8-2.8-1.1c-3.1-1.2-2.8-1.4-3.3-0.6
	c-0.2,0.3-0.3,0.4-0.4,0.7c-1.7,3.1-3.9,6.6-5.5,9.5l2.5,1.9c0.4,0.4,0.8,0.6,1.2,0.9c0.3,0.2,0.4,0.3,0.6,0.5
	c0.7,0.5,0.5,0.5,0.5,2.1c0,0.5-4.1,3-4.7,4c0.1,0.6,0.4,0.8,0.7,1.3c0.7,1.2,5.2,8.8,5.4,9.3l4.7-1.8c0.6-0.2,1-0.6,1.6-0.3
	c0.2,0.1,0.4,0.2,0.6,0.4c0.8,0.4,0.5,0.3,0.9,2.6c0.2,1.2,0.5,2.7,0.6,3.8h12.5L56,64c0.2-0.8,0.5-0.7,1.2-1.1
	c0.7-0.4,1.6,0.2,3.1,0.8c0.6,0.3,2.7,1.2,3.2,1.2c0.1-0.5,0.4-0.9,0.7-1.3l4.6-7.9c0.3-0.5,0.6-0.8,0.7-1.4
	c-0.4-0.5-1.7-1.4-2.3-1.9c-2.7-2.2-2.4-1.2-2.4-3.5c0-0.4,0.6-0.7,1-1.1c0.5-0.4,0.8-0.6,1.3-1l2.5-1.9l-3.1-5.3
	c-0.3-0.5-3-5.3-3.2-5.3c-0.7,0-5.1,2.1-5.7,2.1c-0.2,0-1.3-0.7-1.5-0.8c-0.2-0.3-0.9-5.4-1-6.1H42.7c0,0.6-0.2,1.3-0.3,2
	c-0.1,0.6-0.4,3.7-0.6,4.1C41.6,35.7,40.5,36.4,40.3,36.4L40.3,36.4z"/>
<linearGradient id="SVGID_00000031908577320272784600000015506665664895848363_" gradientUnits="userSpaceOnUse" x1="-0.5899" y1="59.2859" x2="79.9539" y2="43.3265" gradientTransform="matrix(1 0 0 -1 0 72)">
	<stop  offset="0" style="stop-color:#00A551"/>
	<stop  offset="1" style="stop-color:#2AACE2"/>
</linearGradient>
<path style="fill-rule:evenodd;clip-rule:evenodd;fill:url(#SVGID_00000031908577320272784600000015506665664895848363_);" d="
	M7,8.6c0.5,0,2.3,0.8,2.8,1c1.1,0.5,0.4,0.4,2.4-0.9c0.4-0.3,0.8-0.5,1.3-0.7c1.3-0.5,1-0.1,1.4-3.5C15,3.7,14.7,4,18.6,4L19,7.3
	c0.2,0.8,0.7,0.4,2.4,1.5c2,1.3,1.3,1.3,2.3,0.8c0.6-0.2,2.3-1,2.9-1.1c0.1,0.5,1.5,2.7,1.7,3.1c-0.4,0.2-0.4,0.2-0.7,0.5
	c-0.3,0.2-0.5,0.3-0.7,0.5c-0.3,0.3-1.2,1-1.5,1.1c0,0.8,0.2,1.4,0.2,2.3c0,0.9-0.2,1.5-0.2,2.3c0.5,0.1,2.3,1.8,3,2.2
	c-0.3,0.4-1.6,2.6-1.7,3.1c-0.6,0-2.3-0.8-2.8-1c-1.2-0.5-0.4-0.5-2.3,0.8l-1.9,0.9c-0.7,0.3-0.6,0.2-0.8,2.2
	c-0.1,0.6-0.2,1.2-0.2,1.7c-4.3,0-3.6,0.4-3.8-1.4c-0.5-4.2-0.4-1.3-3.7-4.2c-0.6-0.5-0.5-0.4-1.2-0.1c-0.5,0.2-2.4,1-2.9,1.1
	c-0.6-1.1-1.2-2-1.7-3.1c1-0.7,1.9-1.5,2.9-2.2L8,15.8c0-0.8,0.1-1.2,0.1-2c-1-0.7-1.9-1.5-2.9-2.2C5.8,10.6,6.4,9.6,7,8.6L7,8.6z
	 M5.5,4.1C5.4,4.5,5.2,4.8,4.9,5.1C4.7,5.5,4.5,5.8,4.3,6.2l-3.7,6.4c0.4,0.2,0.7,0.4,1,0.7l2.4,1.9c0.5,0.4,0.4,0.4,0.4,1.5
	c0,0.3-0.1,0.3-0.3,0.5l-3.5,2.6c0.4,0.7,0.8,1.4,1.2,2.1c0.4,0.7,0.8,1.4,1.2,2.1c0.2,0.4,2.3,3.9,2.4,4.3l3.6-1.5
	c1.1-0.4,0.7-0.5,1.7,0.1c0.6,0.3,0.3,0,0.6,1.9l0.4,3h9.9c0-1.2,0.6-3.4,0.6-4.7c1.6-0.8,0.9-0.8,2.7-0.1c1,0.4,2.1,0.8,2.9,1.2
	l3.7-6.3c0.3-0.5,1.1-1.7,1.2-2.2L30,17.6c-0.4-0.3-0.6-0.5-1-0.7v-1.4c0.6-0.3,3-2.3,3.8-2.9c-0.2-0.7-3.1-5.5-3.6-6.4
	c-0.4-0.7-0.9-1.4-1.2-2.1l-4.3,1.8c-0.3,0-0.9-0.4-1.4-0.6c0-1.3-0.6-3.5-0.6-4.7h-9.9c0,0.4-0.2,1-0.2,1.4l-0.4,3
	c-0.1,0.4,0,0.3-0.3,0.5C9.8,6.1,9.9,5.9,8,5.1L5.5,4.1L5.5,4.1z"/>
<path class="st2" d="M34.1,9.8l7,7l3.1-3L42.5,12c2.8,0,4.3,0.1,5.9,1.3c1.2,0.9,2.5,2.7,2.5,4.6v7h4.4c0-5,0.7-9.2-2.2-13
	c-1.2-1.6-3.2-3-5.2-3.7c-1.8-0.6-3.1-0.5-5.4-0.5l1.8-1.8l-3-3.1L34.1,9.8L34.1,9.8z"/>
<path class="st2" d="M5.9,39.9c0,3.5,1.5,5.8,3.7,8c2.6,2.6,5.7,2.7,9.1,2.7l-1.8,1.8l3,3.1l7.1-7l-7-7l-3.1,3l1.8,1.9
	c-2.7,0-4.3-0.1-5.9-1.3c-1.2-0.9-2.5-2.7-2.5-4.8v-6.8H5.9V39.9L5.9,39.9z"/>
<linearGradient id="SVGID_00000088834827182241624540000000909874077496662969_" gradientUnits="userSpaceOnUse" x1="42.4126" y1="49.392" x2="55.4462" y2="49.392">
	<stop  offset="0" style="stop-color:#00A551"/>
	<stop  offset="1" style="stop-color:#2AACE2"/>
</linearGradient>
<path style="fill-rule:evenodd;clip-rule:evenodd;fill:url(#SVGID_00000088834827182241624540000000909874077496662969_);" d="
	M46.9,49.6c0-3.1,4.2-3,4.2,0c0,1.6-2.3,2.5-3.5,1.3C47.2,50.6,46.9,50.1,46.9,49.6L46.9,49.6z M42.4,49.2c0,7.7,10.2,8.8,12.5,2.8
	c0.7-1.9,0.8-3.4,0-5.2c-2.4-5.1-9.3-5.1-11.7-0.2c-0.2,0.3-0.3,0.7-0.4,1.1C42.6,47.9,42.4,48.9,42.4,49.2L42.4,49.2z"/>
<linearGradient id="SVGID_00000176006782010374838470000018389037092009376644_" gradientUnits="userSpaceOnUse" x1="11.1274" y1="56.9721" x2="37.4058" y2="51.8434" gradientTransform="matrix(1 0 0 -1 0 72)">
	<stop  offset="0" style="stop-color:#00A551"/>
	<stop  offset="1" style="stop-color:#2AACE2"/>
</linearGradient>
<path style="fill-rule:evenodd;clip-rule:evenodd;fill:url(#SVGID_00000176006782010374838470000018389037092009376644_);" d="
	M16.9,17.9c-2.3,0-2.3-3.5,0-3.4c1.4,0,2.3,1.8,1.1,2.9C17.8,17.6,17.2,17.9,16.9,17.9L16.9,17.9z M11.5,16.2
	c0,6.4,9.8,7.4,10.5,0.2c0.3-2.7-2.3-5.3-4.8-5.3c-1.8,0-2.9,0.2-4.2,1.6C12.2,13.4,11.5,14.6,11.5,16.2L11.5,16.2z"/>
</svg>
