<?xml version="1.0" encoding="utf-8"?>
<!-- Generator: Adobe Illustrator 27.0.1, SVG Export Plug-In . SVG Version: 6.00 Build 0)  -->
<svg version="1.1" id="Layer_1" xmlns="http://www.w3.org/2000/svg" xmlns:xlink="http://www.w3.org/1999/xlink" x="0px" y="0px"
	 viewBox="0 0 65 64" style="enable-background:new 0 0 65 64;" xml:space="preserve">
<style type="text/css">
	.st0{fill-rule:evenodd;clip-rule:evenodd;fill:#AEAEAE;}
	.st1{fill-rule:evenodd;clip-rule:evenodd;fill:url(#SVGID_1_);}
	.st2{fill-rule:evenodd;clip-rule:evenodd;fill:url(#SVGID_00000025430413644499593260000006818908846337227928_);}
	.st3{fill-rule:evenodd;clip-rule:evenodd;fill:url(#SVGID_00000032642408707632707680000007269367460374385340_);}
	.st4{fill:#AEAEAE;}
	.st5{fill:#FFFFFF;filter:url(#Adobe_OpacityMaskFilter);}
	.st6{mask:url(#path-6-inside-1_1006_5430_00000039852758562511845210000012207125209751851413_);fill:#AEAEAE;}
</style>
<path class="st0" d="M60.8,17.6L3,17.5c0,0,0,0,0,0l2.7-1.5c0,0,0.1,0,0.1-0.1l2.4-1.3c0.1,0,0.1,0,0.1-0.1l0.9-0.5
	c0.1,0,0.1-0.1,0.2-0.1l0.8-0.4c0,0,0,0,0,0c0,0,0.1,0,0.1-0.1l1.6-0.8c0,0,0,0,0,0c0,0,0,0,0,0l3.3-1.8c0,0,0,0,0.1,0l0.1,0
	c0,0,0,0,0,0l1-0.5c0.1-0.1,0.1-0.1,0.2-0.1l0.8-0.4c0,0,0,0,0,0l1.2-0.7c0,0,0,0,0,0l0.1-0.1c0,0,0,0,0,0l2.2-1.2c0,0,0,0,0,0
	l0.2-0.1c0,0,0,0,0,0l1-0.5c0.1,0,0,0,0.1-0.1l0.8-0.4c0,0,0,0,0,0l0.8-0.4c0,0,0,0,0,0c0,0,0,0,0.1,0c0.1,0,0.1-0.1,0.1-0.1
	l3.3-1.8c0,0,0.1,0,0.1,0l0.1,0c0,0,0,0,0,0s0,0,0,0L28.4,4c0.1-0.1,0,0,0.1-0.1L29,3.7c0,0,0,0,0,0l0.4-0.2c0,0,0,0,0.1,0
	c0.1,0,0,0,0.1,0c0,0,0,0,0,0l1.2-0.6c0,0,0,0,0.1,0l0.5-0.3c0.1,0,0,0,0.1,0c0.4-0.2,0.5-0.3,0.9,0l0.2,0.1c0.1,0,0,0,0.1,0.1
	l1.2,0.7c0.1,0,0.2,0.1,0.2,0.1l1.8,1c0.1,0,0,0,0.1,0.1c0,0,0,0,0,0l0.4,0.2c0.1,0,0.1,0,0.1,0.1c0.1,0,0.1,0.1,0.2,0.1l0.2,0.1
	C37.2,5,37.2,5,37.3,5l1.6,0.8C39,5.9,39,5.9,39.1,6c0,0,0,0,0,0l0.3,0.2c0,0,0,0,0,0L41,7c0,0,0,0,0,0c0,0,0,0,0,0l2,1.1
	c0.1,0,0,0,0.1,0.1l1.5,0.8c0,0,0,0,0,0l3.5,1.9c0,0,0.1,0,0.1,0l0.1,0.1c0,0,0.1,0,0.1,0.1c0,0,0,0,0,0l1.4,0.7c0,0,0,0,0,0
	l0.4,0.2c0,0,0,0,0,0l0.9,0.5c0,0,0,0,0,0c0,0,0,0,0,0l2.4,1.3c0.1,0,0,0,0.1,0l0.1,0c0,0,0,0,0.1,0.1l0.5,0.2c0.1,0,0.1,0,0.1,0.1
	l1.1,0.6c0,0,0,0,0,0l1.5,0.8c0.1,0,0.1,0,0.1,0.1l1.2,0.6c0,0,0,0,0,0l0.2,0.1c0,0,0,0,0,0c0,0,0,0,0,0l1.4,0.8
	c0.1,0,0.1,0,0.1,0.1L60.8,17.6L60.8,17.6z M31.4,0h0.6c0.2,0,0.4,0,0.5,0.1c0.3,0.1,0.6,0.3,0.9,0.5c0,0,0,0,0,0l0.4,0.2
	c0,0,0,0,0,0c0.1,0,0,0,0.1,0l2.6,1.4c0,0,0,0,0,0c0,0,0,0,0,0l1,0.5c0.1,0,0.1,0,0.1,0.1l2.9,1.5c0,0,0.1,0,0.1,0L41,4.5
	c0,0,0,0,0,0c0,0,0,0,0,0l0.1,0c0,0,0,0,0,0l0.5,0.3c0.1,0,0,0,0.1,0.1l0.9,0.5c0,0,0,0,0,0l3.8,2c0,0,0.1,0,0.1,0.1l0.5,0.3
	c0,0,0.1,0,0.1,0c0.1,0,0,0,0.1,0l3.8,2c0.8,0.5,1.6,0.8,2.4,1.3l1.8,0.9c0.1,0,0,0,0.1,0.1l0.5,0.2c0,0,0,0,0,0l0.1,0.1
	c0,0,0,0,0,0l2.4,1.3c0,0,0,0,0,0c0,0,0,0,0,0c0,0,0,0,0,0l1.1,0.6c0,0,0,0,0,0c0,0,0,0,0,0c0,0,0,0,0.1,0l1.5,0.8c0,0,0,0,0,0
	c0,0,0,0,0.1,0l0.1,0.1c0,0,0,0,0,0c0,0,0,0,0,0c0,0,0,0,0,0l0.2,0.1c0,0,0,0,0,0l0.5,0.3c0.3,0.2,0.5,0.4,0.6,0.6
	c0.1,0.1,0.3,0.5,0.3,0.7v1v0v0v0v0v0c0,0.1,0,0,0,0.1c0,0.1,0,0,0,0.1l-0.2,0.4l-0.7,0.7c0,0,0,0,0,0c0,0,0,0,0,0l-0.5,0.2
	c-0.3,0.2-0.8,0.1-1.2,0.1H3.3l-0.8,0c-0.1,0-0.2,0-0.4,0l-0.9-0.5c0,0,0,0-0.1-0.1l-0.3-0.4c-0.1-0.1,0,0-0.1-0.1l-0.1-0.3
	c0,0,0,0,0,0L0.7,18v-0.8c0-0.1,0-0.2,0.1-0.3c0.2-0.4,0.4-0.8,0.8-1.1l4.8-2.6c0.1,0,0.1,0,0.1-0.1l1.6-0.9c0,0,0,0,0,0l0.8-0.4
	c0.1-0.1,0.2-0.1,0.3-0.1l1.2-0.6c0.1,0,0.1,0,0.1-0.1l0.8-0.4c0.1,0,0,0,0.1,0l1.3-0.7c0,0,0,0,0,0l0.3-0.2c0,0,0,0,0.1,0l1.5-0.8
	c0,0,0,0,0,0l1.3-0.7c0,0,0.1,0,0.1-0.1l1.1-0.6c0,0,0,0,0,0l1.6-0.9c0.1,0,0.1,0,0.1-0.1c0,0,0.1,0,0.1-0.1l1-0.5
	c0,0,0.1,0,0.1-0.1l0.1-0.1c0,0,0,0,0.1,0l1.2-0.6c0,0,0,0,0,0L21.9,5c0,0,0,0,0,0l0.4-0.2c0.1,0,0.1,0,0.1-0.1L23,4.4c0,0,0,0,0,0
	l0.2-0.1c0,0,0,0,0,0c0,0,0,0,0.1,0L25,3.3c0.1,0,0,0,0.1-0.1l3.1-1.7c0,0,0,0,0.1,0L29,1.2c0,0,0,0,0,0c0,0,0,0,0,0l0.5-0.3
	c0.1,0,0,0,0.1-0.1c0.1-0.1,0.2-0.1,0.3-0.1L31.3,0C31.3,0,31.4,0,31.4,0L31.4,0z"/>
<linearGradient id="SVGID_1_" gradientUnits="userSpaceOnUse" x1="23.7952" y1="32.2246" x2="61.3977" y2="27.7877" gradientTransform="matrix(1 0 0 -1 0 66)">
	<stop  offset="0" style="stop-color:#00A551"/>
	<stop  offset="1" style="stop-color:#2AACE2"/>
</linearGradient>
<path class="st1" d="M26.7,42.1v-1.5c0-0.1,0-0.2,0-0.3c0.1,0,0,0,0.1,0l0.4,0.2c0.1,0.1,0.1,0.1,0.2,0.1l0.5,0.2c0.1,0,0,0,0.1,0
	l0.9,0.3c0.1,0,0.2,0,0.3,0.1l0.9,0.2c0.8,0,1.2,0.1,2,0.1c0.5,0,0.9-0.1,1.4-0.1l0.9-0.2c0.1,0,0.7-0.1,0.9-0.2
	c0.2-0.1,0.1,0,0.3-0.1c0.2,0,0,0,0.3-0.1l0.7-0.3c0.1,0,0.1,0,0.1-0.1l0.3-0.1c0,0.1,0,0.1,0,0.3c0,0.5,0.1,1.9-0.1,2.2
	c-0.1,0.2-0.4,0.4-0.6,0.6L36,43.6c-0.1,0.1,0,0-0.2,0.1L35,44.1c-0.1,0-0.1,0-0.2,0c-0.1,0-0.1,0-0.2,0.1c-0.1,0-0.1,0-0.2,0
	c-0.2,0-0.2,0.1-0.4,0.1c-0.2,0-0.2,0-0.4,0.1c-0.2,0.1-1.6,0.2-1.9,0.2l-1.7-0.2c-0.2-0.1-0.2,0-0.4-0.1l-0.6-0.1
	c-0.1,0-0.1,0-0.2-0.1c-0.2-0.1-0.2,0-0.4-0.1l-0.3-0.1c-0.6-0.3-1.4-0.6-1.5-1.3C26.7,42.4,26.7,42.3,26.7,42.1L26.7,42.1z
	 M26.7,36.9c0-2.2-0.1-1.7,0.6-1.4c0.3,0.1,0.5,0.2,0.8,0.3c0.3,0.1,0.3,0.1,0.8,0.2c0.2,0,0.1,0.1,0.3,0.1c0.1,0,0.2,0,0.3,0
	c0.1,0,0.2,0.1,0.3,0.1c0.3,0,0.2-0.1,0.6,0.1c0.4,0.1,2.3,0.1,2.7,0c0.5-0.1,0,0,0.6-0.1c0.3,0,0.2-0.1,0.5-0.1
	c0.3,0,0.2-0.1,0.4-0.1c0.1,0,0.1,0,0.2,0l0.9-0.3c0.1,0,0,0,0.1-0.1l0.8-0.3c0,0,0.3-0.2,0.3,0.1c0,0.5,0.1,1.9-0.1,2.3
	c-0.2,0.3-0.3,0.4-0.6,0.6l-0.6,0.3c-0.1,0-0.1,0.1-0.2,0.1l-1.7,0.5c-0.3,0.1-0.5,0-0.6,0.1c-0.7,0.1-2,0.2-2.6,0
	c-0.2-0.1-0.3,0-0.8-0.1c-0.2-0.1-0.3,0-0.5-0.1l-1.6-0.6L27.1,38C26.8,37.7,26.7,37.4,26.7,36.9L26.7,36.9z M26.7,31.7V30
	c0.2,0,0.3,0.1,0.7,0.3c0,0,0,0,0,0c0,0,0,0,0,0c0,0,0,0,0,0l1.2,0.4c0.2,0,0.3,0.1,0.5,0.1l0.5,0.1c0.3,0,0.2,0,0.5,0.1
	c0.4,0.1,2.9,0.1,3.3,0c0.2,0,0,0,0.3-0.1c0.1,0,0.3,0,0.3,0c0,0,0.1,0,0.1,0c0.1,0,0,0,0.1,0c0.1,0,0.2,0,0.3,0l1-0.3
	c0.1,0,0,0,0.1-0.1l0.9-0.4c0,0,0,0,0,0c0.3-0.1,0.2-0.1,0.4-0.1c0,0.5,0.1,2.1-0.1,2.4c-0.1,0.2-0.3,0.4-0.5,0.5
	c-0.1,0.1-0.2,0.1-0.3,0.2l-0.5,0.2c-0.1,0-0.1,0-0.2,0.1l-0.4,0.1c-0.3,0.1-0.1,0.1-0.3,0.1c-0.3,0.1-0.2,0.1-0.4,0.1
	c-0.3,0-0.2,0-0.4,0.1C34,34,33.8,34,33.5,34c-0.5,0.1-0.1,0-0.6,0.1l-2.4,0c-0.1,0-0.1,0-0.2-0.1c-0.2-0.1-0.5,0-0.6-0.1
	c-0.2-0.1-0.1-0.1-0.4-0.1l-0.7-0.2c-0.1,0-0.1,0-0.2-0.1l-0.9-0.5c0,0,0,0,0,0l-0.2-0.2c0,0,0,0,0,0c0,0,0,0,0,0l-0.3-0.3
	C26.8,32.3,26.7,32,26.7,31.7L26.7,31.7z M26.8,27c0-0.2,0-0.3,0.1-0.4c0.2-0.3,0.5-0.5,0.8-0.7l0.9-0.4c0.1,0,0.1,0,0.2,0
	c0.1,0,0,0,0.1-0.1c0.1,0,0.1,0,0.2,0c0.2,0,0.1-0.1,0.3-0.1c0.2,0,0.2,0,0.4-0.1c0.2-0.1,0.2,0,0.4-0.1L31,25c0.3,0,0.5,0,0.9,0
	c0.5,0,1.1,0.1,1.6,0.1c0.4,0.1,0.4,0.1,0.8,0.1c0.3,0,0.1,0.1,0.3,0.1l1.3,0.5l0.7,0.4c0,0,0.1,0.1,0.1,0.1
	c0.5,0.5,0.4,0.9-0.1,1.4l-0.3,0.2c0,0,0,0,0,0c0,0,0,0,0,0l-1.3,0.6c-0.1,0-0.1,0-0.2,0.1c-0.2,0.1-0.8,0.2-1.1,0.2
	c-0.1,0-0.6,0.1-0.8,0.1c-1.3,0.1-0.6,0.1-1.8,0c-0.1,0-0.7,0-0.8-0.1c-0.1,0-0.2-0.1-0.3-0.1c-0.6,0-0.9-0.2-1.4-0.4L28,28.2
	c-0.3-0.2-0.7-0.4-0.9-0.6C26.9,27.4,26.8,27.3,26.8,27L26.8,27z M24.5,26.6v16.2c0,0.1,0.2,0.6,0.2,0.7c0.1,0.1,0,0.1,0.1,0.2
	c0.1,0.1,0.1,0.1,0.1,0.2l0.1,0.2c0.5,0.6,0.7,0.8,1.3,1.2l0.6,0.3c0.1,0,0.1,0,0.1,0.1l0.4,0.2c0.1,0,0.2,0.1,0.2,0.1l1.3,0.4
	c0.1,0,0.2,0,0.3,0c0.2,0,0.3,0.1,0.6,0.1c0.4,0,0.6,0.1,1.2,0.1c0.5,0,1.8,0.1,2.3-0.1c0.2-0.1,0.5,0,0.7-0.1
	c0.4-0.1,0.8-0.2,1.2-0.3c0.1,0,0.1,0,0.2-0.1l1-0.4c0.1,0,0,0,0.1-0.1c0.1,0,0.1,0,0.1-0.1c0.6-0.3,1.2-0.7,1.7-1.3
	c0.2-0.2,0.4-0.5,0.5-0.8l0.2-0.5c0-0.1,0.1-0.1,0.1-0.3V26.6L39,26c0,0,0,0,0,0l-0.1-0.2c0,0,0,0,0,0l0,0c0,0,0,0,0-0.1l-0.1-0.2
	c0-0.1-0.1-0.1-0.1-0.2l-0.5-0.5c0,0,0,0,0,0l-0.6-0.5c-0.1-0.1-0.1-0.1-0.2-0.1l0,0c0,0,0,0,0,0l-2.4-0.9c-0.2,0-0.1,0-0.3,0
	l-1.2-0.2c-0.3,0-0.4,0-0.7,0h-1.3c-0.2,0-0.4,0-0.7,0L29.3,23c-0.2,0.1-0.1,0-0.3,0c-0.2,0-0.6,0.2-0.8,0.2l-0.5,0.2
	c-0.1,0,0,0-0.1,0.1l-2,1.2c0,0,0,0,0,0c0,0,0,0,0,0L25,25.5L24.5,26.6L24.5,26.6z"/>
<linearGradient id="SVGID_00000124878207944673618010000008898441449014064020_" gradientUnits="userSpaceOnUse" x1="5.0573" y1="32.2318" x2="42.6604" y2="27.7979" gradientTransform="matrix(1 0 0 -1 0 66)">
	<stop  offset="0" style="stop-color:#00A551"/>
	<stop  offset="1" style="stop-color:#2AACE2"/>
</linearGradient>
<path style="fill-rule:evenodd;clip-rule:evenodd;fill:url(#SVGID_00000124878207944673618010000008898441449014064020_);" d="
	M8,40.4c0.2,0,0.3,0.2,0.5,0.2l2.3,0.7c0.3,0,0.4,0.1,0.6,0.1c0.8,0,1.2,0.1,2,0.1c0.5,0,0.9-0.1,1.4-0.1c0.3,0,0.4-0.1,0.6-0.1
	c0.2,0,0.1,0,0.3-0.1c0.2-0.1,0.2,0,0.3-0.1c0.1,0,0.1-0.1,0.3-0.1l0.5-0.1c0.1,0,0,0,0.2,0l1.3-0.6c0,0.4,0.1,2,0,2.3
	c-0.1,0.3-0.5,0.7-0.8,0.8l-1.3,0.6c-0.1,0-0.1,0-0.2,0.1c-0.1,0-0.1,0-0.2,0.1c-0.2,0-0.2,0.1-0.5,0.1c-0.3,0-0.3,0.1-0.5,0.1
	c-0.2,0-0.4,0-0.6,0c-1,0.1-1.2,0.2-2.2,0c-0.2,0-0.4,0-0.6,0c-0.2,0-0.2-0.1-0.5-0.1c-0.3,0-1.2-0.3-1.6-0.5c-0.1,0-0.1,0-0.1,0
	l-0.6-0.3c-0.1,0-0.1-0.1-0.2-0.1c-0.2-0.1-0.5-0.4-0.5-0.6C7.9,42.5,8,40.8,8,40.4L8,40.4z M8,37.4v-2c0-0.2,0.3,0,0.5,0.1
	c0.1,0.1,0,0,0.1,0.1l0.3,0.1c0.4,0.2,0.9,0.3,1.3,0.4c0.2,0,0.1,0.1,0.3,0.1c0.1,0,0.2,0,0.3,0c0.1,0,0.1,0.1,0.3,0.1
	c0.2,0,0.4,0,0.6,0.1c0.5,0.1,2.3,0.1,2.8,0c0.7-0.1,0.4,0,0.9-0.2c0.1,0,0.2,0,0.3,0c0.1,0,0.2-0.1,0.3-0.1c0.1,0,0.2,0,0.3-0.1
	c0.2,0,0.1,0,0.3-0.1c0.2,0,0.1,0,0.3-0.1c0.1,0,0.2,0,0.3-0.1l1.1-0.5c0,0,0,0,0,0l0.1-0.1c0,0.6,0.1,1.6,0,2.2
	c0,0.2,0,0.1-0.1,0.3c-0.1,0.1,0-0.1,0,0.1c-0.1,0.3-0.7,0.7-1,0.8l-0.7,0.3c-0.2,0.1-0.1,0-0.3,0.1c-0.3,0.1-0.2,0-0.4,0.1
	c-0.3,0.1-0.8,0.2-1.1,0.2c-0.3,0-0.5,0.1-1,0.1c-0.5,0-1.3,0-1.8-0.1c-0.2-0.1-0.5,0-0.7-0.1L10.5,39c-0.1,0-0.6-0.2-0.8-0.3
	c-0.1,0-0.1,0-0.1-0.1c0,0,0,0,0,0l-1.1-0.6c0,0,0,0,0,0l-0.3-0.4C8,37.5,8,37.5,8,37.4L8,37.4z M8,32.1V30c0.3,0,0.2,0.1,0.5,0.2
	c0.1,0,0.1,0,0.2,0.1c0,0,0,0,0,0l0.4,0.2c0.2,0,0.1,0,0.2,0.1c0,0,0,0,0,0c0,0,0,0,0,0c0,0,0.6,0.2,0.9,0.3
	c0.4,0.1,0.4,0.1,0.8,0.1c0.3,0,0.2,0.1,0.9,0.1c0.5,0,2.3,0,2.7-0.1c0.4-0.1,0.3,0,0.6-0.1l0.2-0.1c0.2-0.1,0.2,0,0.5-0.1l0.6-0.2
	c0.1,0,0,0,0.1,0c0.2-0.1,0.2,0,0.3-0.1l1.1-0.5c0,0.3,0,2.1,0,2.3c0,0-0.1,0.2-0.1,0.2l-0.1,0.1c-0.2,0.3-0.5,0.5-0.8,0.7l-1.9,0.7
	l-1,0.1c-0.7,0-1.3,0.1-2,0c-0.1,0-0.3,0-0.4,0c-0.1,0-0.4-0.1-0.8-0.1c-0.2,0-0.2-0.1-0.4-0.1c-0.3,0-0.1,0-0.3-0.1
	c-0.1,0-0.4-0.1-0.7-0.2l-0.3-0.1c0,0-0.1,0-0.1-0.1l-0.5-0.3c0,0,0,0,0,0l-0.3-0.2c0,0,0,0,0,0C8.2,32.6,8,32.4,8,32.1L8,32.1z
	 M8,26.9c0-0.2,0-0.2,0.1-0.3l0.2-0.3C8.8,26,8.7,26,9.2,25.7c0,0,0,0,0.1,0l0.9-0.3c0.1,0,0.1,0,0.2,0c0.2,0,0.2-0.1,0.3-0.1
	c0.1,0,0.2,0,0.4-0.1c0.1,0,0.1,0,0.2-0.1l0.6-0.1C12,25,12,25,12.3,25c0.3,0,0.5,0,0.9,0c0.3,0,0.5,0,0.8,0c0.2,0,0.2,0,0.4,0
	c0.2,0,0.2,0,0.4,0c0.1,0,0.3,0,0.4,0.1l1.1,0.3c0.1,0,0,0,0.2,0l0.8,0.3c0.1,0.1,0.2,0.1,0.3,0.2c0,0,0.1,0,0.1,0.1l0.2,0.1
	c0.2,0.1,0.5,0.5,0.5,0.7c0,0.2,0,0.2-0.2,0.5L18,27.6c-0.1,0.1,0.1-0.1,0,0c0,0,0,0-0.1,0.1L17.5,28c0,0,0,0,0,0c0,0,0,0,0,0
	c-0.3,0.2-0.8,0.4-1.2,0.5c-0.1,0-0.1,0-0.2,0c-0.3,0.1-0.6,0.2-0.9,0.2c-0.2,0-0.2,0-0.4,0.1L13.1,29l-1.7-0.1
	c-0.1,0-0.2-0.1-0.3-0.1c-0.4,0-0.8-0.2-1.1-0.3l-0.3-0.1C9.2,28.2,8,27.6,8,26.9L8,26.9z M5.8,27.2v15.1c0,0.4,0,0.8,0.2,1.2
	l0.4,0.8c0.6,0.7,1.2,1.1,2,1.5l0.2,0.1C9,46,8.8,46,9.2,46.1l0.8,0.2c0.2,0.1,0.3,0.1,0.5,0.1c0.3,0,0.3,0.1,0.6,0.1
	c0.6,0,0.4,0.1,0.6,0.1c0.9,0.1,1.9,0.1,2.7,0c0.2,0,0.1,0,0.6-0.1c0.1,0,0.2,0,0.3-0.1c0.1,0,0,0,0.3-0.1c0.1,0,0.2,0,0.3,0
	l0.8-0.2c0.1,0,0.2-0.1,0.3-0.1l0.6-0.2c0.1,0,0,0,0.1-0.1l0.9-0.5c0.2-0.1,0.4-0.3,0.6-0.4c0,0,0.1-0.1,0.1-0.1c0,0,0,0,0,0
	c0,0,0,0,0,0L20,44c0-0.1,0.1-0.2,0.1-0.2l0.2-0.3c0.1-0.4,0.1-0.3,0.1-0.8c0-0.2,0-0.4,0-0.7V27.4c0-0.3,0-0.9-0.1-1.2
	c0-0.1,0,0,0-0.1c0-0.2,0-0.1-0.1-0.3l-0.4-0.7l-1.1-1c0,0,0,0,0,0L18.5,24c0,0-0.1,0-0.1-0.1l-0.8-0.4c-0.1,0-0.2-0.1-0.3-0.1
	c-0.1,0-0.2-0.1-0.3-0.1l-0.3-0.1c-0.1,0-0.1,0-0.2-0.1c-0.1,0-0.2,0-0.3-0.1c-0.2-0.1,0-0.1-0.3-0.1l-1.3-0.2
	c-0.4,0-1.4-0.1-1.8-0.1c-0.1,0-0.3,0-0.4,0c-0.3,0-0.4,0-0.7,0c-0.2,0-1.1,0.1-1.3,0.2c-0.2,0.1-0.1,0-0.3,0
	c-0.2,0-0.2,0.1-0.3,0.1c-0.2,0.1-0.4,0.1-0.7,0.2l-0.4,0.2c-0.4,0.2-0.8,0.3-1.1,0.5L7,24.6c0,0-0.1,0-0.1,0.1
	c-0.3,0.2-0.5,0.5-0.7,0.8c0,0,0,0,0,0c-0.2,0.3-0.3,0.6-0.4,0.9C5.8,26.7,5.8,26.9,5.8,27.2L5.8,27.2z"/>
<linearGradient id="SVGID_00000088121449694497888050000005686406415209258898_" gradientUnits="userSpaceOnUse" x1="42.5295" y1="32.2221" x2="80.1324" y2="27.7884" gradientTransform="matrix(1 0 0 -1 0 66)">
	<stop  offset="0" style="stop-color:#00A551"/>
	<stop  offset="1" style="stop-color:#2AACE2"/>
</linearGradient>
<path style="fill-rule:evenodd;clip-rule:evenodd;fill:url(#SVGID_00000088121449694497888050000005686406415209258898_);" d="
	M50.7,44.5L49,44.4c-0.2,0-0.2-0.1-0.5-0.1c-0.2,0-0.7-0.2-0.9-0.2L47.3,44c-0.1,0-0.1,0-0.1,0l-0.8-0.4c-0.2-0.1-0.5-0.3-0.6-0.5
	c0,0,0-0.1,0-0.1l-0.2-0.3c-0.1-0.2,0-2,0-2.3L47,41c0.2,0.1,0.1,0.1,0.3,0.1c0.2,0,0.1,0.1,0.3,0.1l0.6,0.1c0.4,0,0.5,0.1,0.7,0.1
	c1,0,2,0.1,3,0c0.1,0,0.2,0,0.4,0c0.3,0,0.4-0.1,0.6-0.1c0.5,0,0.2-0.1,0.7-0.1c0.2,0,0.1,0,0.3-0.1c0.2-0.1,0.1,0,0.3-0.1l1.5-0.6
	c0.1,0-0.1,0,0.2,0c0,0.4,0.1,2,0,2.3c0,0.1-0.2,0.3-0.2,0.4c-0.4,0.4-0.9,0.7-1.4,0.9c-0.2,0.1-1.2,0.4-1.4,0.4
	c-0.3,0-0.3,0.1-0.5,0.1c-0.2,0-0.4,0-0.6,0C51.4,44.5,51,44.5,50.7,44.5L50.7,44.5z M51.1,39.3c-0.6,0-1,0-1.5,0
	c-0.2,0-0.2-0.1-0.5-0.1c-0.4,0-0.6-0.1-0.9-0.1c-0.2,0-0.1,0-0.2-0.1c-0.2-0.1-0.2,0-0.4-0.1c-0.2-0.1-0.1,0-0.2-0.1L45.9,38
	l-0.4-0.5c-0.1-0.1,0,0.1-0.1-0.1l0-2.2l0.6,0.3c0.3,0.1,0.4,0.2,0.6,0.2c0.1,0,0.2,0,0.3,0.1c0.1,0,0,0,0.1,0l0.4,0.1
	c0.1,0,0.2,0,0.3,0.1c0.1,0,0.1,0.1,0.3,0.1c0.6,0.1,0.4,0.1,0.6,0.1c0.3,0,0.1,0,0.6,0.1c0.4,0.1,2.3,0.1,2.7,0
	c0.2,0,0.1-0.1,0.3-0.1c0.1,0,0.2,0,0.3,0c0.1,0,0.2-0.1,0.3-0.1c0.1,0,0.2,0,0.3,0c0.1,0,0.2-0.1,0.3-0.1c0.2,0,0.1,0,0.4-0.1
	c0.2-0.1,0.5-0.1,0.8-0.3l0.4-0.2c0.1,0,0,0,0.1,0l0.2-0.1c0.1-0.1,0.3-0.2,0.3,0c0,0.4,0.1,2,0,2.2l-0.1,0.1
	c-0.1,0.1-0.1,0.2-0.2,0.2L55.4,38c0,0,0,0,0,0c-0.2,0.2-0.6,0.4-0.9,0.6l-0.7,0.3c-0.1,0-0.1,0-0.1,0.1l-0.1,0c0,0-0.1,0-0.1,0
	C53.2,39,53.3,39,53,39.1c-0.2,0-0.2,0-0.4,0.1L51.1,39.3L51.1,39.3z M50.7,34.1l-1.4,0c-0.1,0-0.1,0-0.2-0.1c-0.2,0-0.4,0-0.5-0.1
	l-0.6-0.2c-0.2-0.1-0.1,0-0.3-0.1c-0.1,0,0,0-0.1,0c-0.2,0-0.1,0-0.2-0.1l-0.1,0c0,0,0,0,0,0l-0.5-0.2c-0.1,0,0,0-0.1,0
	c-0.4-0.2-0.4-0.3-0.7-0.6c-0.1-0.1-0.1-0.1-0.1-0.1c0,0-0.1-0.2-0.1-0.2c-0.1-0.2,0-1.9,0-2.3l2.4,0.9l0.8,0.1
	c0.4,0,0.3,0.1,0.9,0.1c0.5,0,2.3,0,2.7-0.1c0.4-0.1,0.3,0,0.6-0.1l2.3-0.7c0,0,0,0,0,0c0,0,0,0,0,0l0.2-0.1
	c0.2-0.1,0.2-0.1,0.4-0.1v2.1c0,0.2-0.2,0.5-0.3,0.6l-0.2,0.2C55.2,33,55.1,33,55,33.1l-0.7,0.4c-0.1,0,0,0-0.1,0c0,0,0,0,0,0
	l-0.1,0c-0.3,0.1-0.7,0.3-1,0.3c-0.2,0-0.2,0.1-0.3,0.1c-0.1,0-0.3,0-0.4,0c-0.2,0-0.2,0.1-0.3,0.1L50.7,34.1L50.7,34.1z M50.7,29
	L49,28.9c-0.1,0-0.2-0.1-0.3-0.1c-0.5-0.1-0.3,0-0.7-0.1l-1.4-0.6c0,0,0,0,0,0l-0.2-0.2c0,0,0,0,0,0c-0.3-0.2-0.4-0.2-0.6-0.5
	c-0.3-0.4-0.2-0.6,0.2-1l0.1-0.1c0.2-0.2,0.2-0.2,0.4-0.3l0.6-0.3c0.4-0.2,0.5-0.2,0.7-0.2c0.5-0.2,0.8-0.2,1-0.3l1.2-0.2
	c0.3,0,0.5,0,0.9,0c0.5,0,1.1,0.1,1.6,0.1c0.4,0.1,0.4,0.1,0.8,0.1c0.3,0,0.1,0.1,0.3,0.1l1.8,0.8c0,0,0,0,0,0
	c1.1,0.9,0.5,1.4-0.5,2l-1.3,0.5l-0.7,0.2c-0.2,0-0.2,0-0.4,0.1L50.7,29L50.7,29z M43.3,27.5v14.4c0,0.3,0,1.1,0.1,1.3
	c0.1,0.1,0,0,0,0.1c0,0.1,0,0.1,0,0.2c0.1,0.3,0.3,0.6,0.5,0.8c0,0,0,0,0,0l0.3,0.3c0,0,0,0,0,0c0,0,0,0,0.1,0.1c0,0,0,0,0,0
	l0.6,0.5c0,0,0,0,0,0c0,0,0,0,0,0c0,0,0,0,0.1,0l1.2,0.6c0.4,0.1,0.7,0.3,1.1,0.4l0.3,0.1c0.1,0,0.2,0.1,0.3,0.1l0.6,0.1
	c0.1,0,0.2,0,0.3,0c0.2,0,0.1,0.1,0.3,0.1c0.9,0.1,1.9,0.1,2.7,0c0.3,0,0.3-0.1,0.6-0.1c0.2,0,1.2-0.2,1.4-0.3l0.6-0.2
	c0,0,0,0,0.1,0l1.7-0.8l0.5-0.4c0,0,0.1-0.1,0.1-0.1l0.5-0.5c0.1-0.1,0.1-0.1,0.1-0.2c0.3-0.5,0.5-0.9,0.5-1.6V27
	c0-0.5-0.1-0.9-0.3-1.3l-0.2-0.4c-0.3-0.4-0.7-0.9-1.2-1.2l-1.1-0.6c-0.1,0-0.2-0.1-0.3-0.1c-0.3-0.1-0.7-0.3-1-0.3
	c-0.2,0-0.2-0.1-0.4-0.1c-0.2,0-0.2,0-0.3-0.1c-0.3-0.1-2.4-0.3-2.7-0.2c-0.4,0.1-1,0-1.4,0.1L48.1,23c-0.2,0.1-0.1,0-0.3,0.1
	c-0.2,0-0.1,0.1-0.3,0.1L47,23.3c-0.1,0-0.1,0-0.2,0l-0.7,0.3c-0.4,0.1-0.7,0.3-1,0.5l-1.5,1.5c0,0,0,0-0.1,0.1c0,0,0,0,0,0
	c-0.1,0.2-0.2,0.5-0.2,0.7L43.3,27.5L43.3,27.5z"/>
<path class="st4" d="M5.5,53h53.4v-2.5H5.5V53z M59.1,53.2v4.5h2.5v-4.5H59.1z M5.3,57.7v-4.5H2.8v4.5H5.3z M58.9,53
	c0.1,0,0.2,0.1,0.2,0.2h2.5c0-1.5-1.2-2.8-2.8-2.8V53z M5.5,50.5c-1.5,0-2.8,1.2-2.8,2.8h2.5c0-0.1,0.1-0.2,0.2-0.2V50.5z"/>
<defs>
	<filter id="Adobe_OpacityMaskFilter" filterUnits="userSpaceOnUse" x="-2.5" y="53.2" width="69.4" height="13">
		<feColorMatrix  type="matrix" values="1 0 0 0 0  0 1 0 0 0  0 0 1 0 0  0 0 0 1 0"/>
	</filter>
</defs>
<mask maskUnits="userSpaceOnUse" x="-2.5" y="53.2" width="69.4" height="13" id="path-6-inside-1_1006_5430_00000039852758562511845210000012207125209751851413_">
	<path class="st5" d="M0,57.7c0-1.1,0.9-2,2-2h60.4c1.1,0,2,0.9,2,2v5c0,0.6-0.4,1-1,1H32.2H1c-0.6,0-1-0.4-1-1V57.7z"/>
</mask>
<path class="st6" d="M2,58.2h60.4v-5H2V58.2z M61.9,57.7v5h5v-5H61.9z M2.5,62.7v-5h-5v5H2.5z M63.4,61.2H32.2v5h31.2V61.2z
	 M32.2,61.2H1v5h31.2V61.2z M-2.5,62.7c0,1.9,1.6,3.5,3.5,3.5v-5c0.8,0,1.5,0.7,1.5,1.5H-2.5z M61.9,62.7c0-0.8,0.7-1.5,1.5-1.5v5
	c1.9,0,3.5-1.6,3.5-3.5H61.9z M62.4,58.2c-0.3,0-0.5-0.2-0.5-0.5h5c0-2.5-2-4.5-4.5-4.5V58.2z M2,53.2c-2.5,0-4.5,2-4.5,4.5h5
	c0,0.3-0.2,0.5-0.5,0.5V53.2z"/>
</svg>
