<?xml version="1.0" encoding="utf-8"?>
<!-- Generator: Adobe Illustrator 27.0.1, SVG Export Plug-In . SVG Version: 6.00 Build 0)  -->
<svg version="1.1" id="Layer_1" xmlns="http://www.w3.org/2000/svg" xmlns:xlink="http://www.w3.org/1999/xlink" x="0px" y="0px"
	 viewBox="0 0 65 60" style="enable-background:new 0 0 65 60;" xml:space="preserve">
<style type="text/css">
	.st0{fill:none;stroke:#AEAEAE;stroke-width:4;stroke-linejoin:round;stroke-miterlimit:2.6131;}
	.st1{fill-rule:evenodd;clip-rule:evenodd;fill:url(#SVGID_1_);}
</style>
<path class="st0" d="M4.8,13.8c1.1,0,2-0.9,2-2V3.9c0,0,0,0,0,0C6.8,3.5,7,3,7.4,2.6C7.8,2.1,8.3,2,8.5,2h52.6
	c0.9,0,1.8,0.9,1.8,1.8V56c0,0.9-0.9,1.8-1.8,1.8H8.5c-0.2,0-0.6-0.1-1.1-0.6c-0.4-0.4-0.6-0.9-0.6-1.3V48c0-1.1-0.9-2-2-2H2.5
	c0,0,0,0-0.1,0c-0.1,0-0.2-0.1-0.3-0.2C2.1,45.7,2,45.7,2,45.6V33.5c0,0,0,0,0,0c0,0,0,0,0,0c0,0,0-0.1,0-0.1c0,0,0-0.1,0.1-0.1
	c0,0,0,0,0,0c0,0,0,0,0,0l0,0c0.2-0.1,0.4-0.2,0.8-0.2c0.3,0,0.6,0,1,0c0.2,0,0.5,0,0.8,0c1.1,0,2-0.9,2-2v-2.3c0-1.1-0.9-2-2-2H2.4
	c0,0,0,0-0.1,0c-0.1,0-0.1-0.1-0.2-0.1C2.1,26.5,2,26.4,2,26.4c0,0,0,0,0-0.1V14.2c0,0,0,0,0,0c0.1-0.2,0.2-0.3,0.2-0.3
	c0,0,0.1,0,0.2-0.1c0.2,0,0.4,0,0.9,0c0.1,0,0.3,0,0.5,0C4.1,13.8,4.5,13.8,4.8,13.8z"/>
<linearGradient id="SVGID_1_" gradientUnits="userSpaceOnUse" x1="14.3825" y1="35.7476" x2="108.3033" y2="17.7846" gradientTransform="matrix(1 0 0 -1 0 62)">
	<stop  offset="0" style="stop-color:#00A551"/>
	<stop  offset="1" style="stop-color:#2AACE2"/>
</linearGradient>
<path class="st1" d="M42.3,25.9c-0.1-0.2-0.1-0.3-0.1-0.4v0c0-0.5,0.5-1,0.8-1.3c0.1-0.1,0.1-0.1,0.2-0.2l7.2-7.2
	c1.8-1.8,0.1-3.3-1-3.3c-0.9,0-1.8,1-2.4,1.7c-0.1,0.1-0.3,0.3-0.4,0.4l-2.4,2.4l-2.4,2.4c-0.4,0.4-0.7,0.7-1,1
	c-1.3,1.4-1.3,1.4-2.7,0.7c-1.9-0.9-4.2-1-6.3-0.3c-0.6,0.2-0.9,0.4-1.2,0.5c-0.7,0.4-0.8,0.4-2.1-0.9l-5.9-6
	c-0.1-0.1-0.2-0.2-0.4-0.4c-0.6-0.7-1.5-1.6-2.4-1.6c-0.8,0-1.8,0.8-1.8,1.6c0,1,0.1,1.1,0.7,1.7c0.1,0.1,0.1,0.1,0.2,0.2
	c0.3,0.3,0.5,0.5,0.8,0.8l0,0c0.1,0.1,0.3,0.3,0.4,0.4c0.1,0.1,0.4,0.4,0.7,0.7l0,0l0,0c1.8,1.8,6.1,6,6.1,6.4c0,0.7-0.2,1-0.4,1.4
	c-0.1,0.3-0.3,0.6-0.4,1c-0.5,1.9-0.5,4.1,0.4,5.9c0.1,0.2,0.2,0.3,0.2,0.4c0.1,0.3,0.2,0.3,0.2,0.9c0,0.5-1.1,1.6-1.8,2.2l0,0
	c-0.2,0.1-0.3,0.3-0.4,0.4l-4.6,4.7c-0.1,0.1-0.2,0.2-0.4,0.3c-0.7,0.6-1.7,1.6-1.7,2.3c0,1.1,0.6,2,1.4,2c1.1,0,1.1,0,1.8-0.7l0,0
	c0.1-0.1,0.2-0.2,0.2-0.2l7-7c0.1-0.1,0.2-0.2,0.2-0.2l0,0c0.8-0.8,0.9-1,2.3-0.3c1.8,0.8,3.9,1,5.9,0.4c0.6-0.2,1-0.4,1.3-0.5
	c0.9-0.4,1.1-0.5,2.4,0.7l7,7.1c0,0.1,0.1,0.1,0.2,0.2c0.3,0.3,0.7,0.7,1.2,0.7c1.1,0,2.1-0.4,2.1-1.8c0-0.9-1-1.8-1.6-2.5
	c-0.1-0.1-0.3-0.3-0.4-0.4l-2.4-2.4c-1-1-1.7-1.7-2.4-2.3c-1.6-1.6-2.2-2.1-2.2-2.6c0-0.3,0.1-0.5,0.3-0.9c0.1-0.3,0.3-0.6,0.4-1
	C44,29.8,42.7,26.9,42.3,25.9z M17.3,18.5c-0.8-0.8-1.5-1.8-1.5-3.3l0,0c0-0.4,0.3-1.3,0.4-1.6c1-2.3,3.9-2.9,5.7-1.7
	c0.7,0.5,7.8,7.6,8.2,8.1c0.2-0.1,0.4-0.1,0.6-0.2l0,0c0.1-0.1,0.3-0.1,0.5-0.2c2.1-0.6,3.6-0.7,5.8-0.2c0.5,0.1,0.8,0.2,1.2,0.4
	c0.3,0.1,0.5,0.2,0.8,0.3c0.3-0.4,3.9-4,5.9-6c0.5-0.5,0.9-0.9,1.1-1.1c1.4-1.4,1.8-1.6,3.7-1.6c2.1,0,4.7,3,2.9,6.2
	c-0.3,0.4-7.7,7.9-8.1,8.2c0.1,0.4,0.2,0.7,0.3,1c0.3,0.8,0.6,1.7,0.6,3.4c0,1.8-0.3,2.7-0.6,3.5c-0.1,0.3-0.2,0.6-0.3,1
	c0.4,0.2,4.5,4.4,6.2,6.2c0.3,0.3,0.6,0.6,0.7,0.7c0.1,0.1,0.1,0.1,0.2,0.2c0.5,0.5,1,1,1.3,1.7c0.4,0.8,0.5,1.9,0.2,2.8
	c-0.8,2.7-4.1,4.3-7.1,1.3c-0.1-0.1-0.3-0.3-0.5-0.5l0,0c-1.7-1.7-6.2-6.3-6.6-6.6c-0.3,0.1-0.6,0.2-0.9,0.3
	c-0.3,0.1-0.6,0.2-0.9,0.3c-3,0.7-5.2,0-6.3-0.4h0l0,0c-0.3-0.1-0.5-0.2-0.7-0.2c-0.1,0-1.6,1.5-3.2,3.2l0,0
	c-2.1,2.2-4.6,4.7-5.2,5.1c-2.7,1.4-5.9-0.5-5.9-3.7c0-1.3,0.9-2.4,1.6-3.1c0.2-0.2,0.6-0.6,1.1-1.1l0,0h0l0,0c2-2,5.7-5.8,6.1-6
	c-1.2-2.3-1.2-6.5,0-8.8c-0.4-0.2-3.6-3.5-5.7-5.7l0,0l0,0C18.2,19.3,17.6,18.7,17.3,18.5z M50.8,35.8v-6.8c0-1.6,2.1-1.3,2.1-0.2
	V36c0,0.2-0.2,0.5-0.3,0.6C52.1,37,50.8,36.9,50.8,35.8z M50.8,25.7c0,1.2,2.1,1.6,2.1-0.2c0-0.7-1.1-1.3-1.8-0.6
	C50.9,25.1,50.8,25.4,50.8,25.7z M35,33.6h-0.8c-1.4,0-3.1-1.7-3.1-3.1c0-1.6,0.5-2.9,2.1-3.6c3.4-1.5,6.6,2.8,4.1,5.6
	C36.8,33,35.9,33.6,35,33.6L35,33.6z M28.8,30.1c0,5.1,6.1,7.8,9.8,4.1c1-1,1.6-2,1.7-3.9c0.3-2.9-2.4-6-5.2-6
	c-1.9,0-3.3,0.3-4.7,1.8C29.7,27,28.8,28.5,28.8,30.1L28.8,30.1z M32.6,30c0,0.6,0,1,0.6,1.6c1.3,1.3,3.5,0.4,3.5-1.5
	C36.7,27.4,32.6,27.4,32.6,30z"/>
</svg>
