<?xml version="1.0" encoding="utf-8"?>
<!-- Generator: Adobe Illustrator 27.0.1, SVG Export Plug-In . SVG Version: 6.00 Build 0)  -->
<svg version="1.1" id="Layer_1" xmlns="http://www.w3.org/2000/svg" xmlns:xlink="http://www.w3.org/1999/xlink" x="0px" y="0px"
	 viewBox="0 0 56 56" style="enable-background:new 0 0 56 56;" xml:space="preserve">
<style type="text/css">
	.st0{fill:#FFFFFF;}
	.st1{fill:none;stroke:url(#SVGID_1_);stroke-miterlimit:10;}
	.st2{fill:#FFFFFF;stroke:#00A551;stroke-linecap:round;stroke-dasharray:2,4;}
	.st3{fill:url(#SVGID_00000114054597011124143290000013675182919534988445_);}
</style>
<path class="st0" d="M20,0h16c11,0,20,9,20,20v16c0,11-9,20-20,20H20C9,56,0,47,0,36V20C0,9,9,0,20,0z"/>
<linearGradient id="SVGID_1_" gradientUnits="userSpaceOnUse" x1="5.5879" y1="28.0006" x2="50.4115" y2="28.0006">
	<stop  offset="0" style="stop-color:#00A551"/>
	<stop  offset="1" style="stop-color:#2AACE2"/>
</linearGradient>
<circle class="st1" cx="28" cy="28" r="21.9"/>
<circle class="st2" cx="28" cy="28" r="17.7"/>
<linearGradient id="SVGID_00000150090931318195403500000006767085713689135538_" gradientUnits="userSpaceOnUse" x1="17.617" y1="30" x2="38.383" y2="30" gradientTransform="matrix(1 0 0 -1 0 58)">
	<stop  offset="0" style="stop-color:#00A551"/>
	<stop  offset="1" style="stop-color:#2AACE2"/>
</linearGradient>
<path style="fill:url(#SVGID_00000150090931318195403500000006767085713689135538_);" d="M28.6,20.9v-3.3c4.4,0.3,8.1,3.3,9.4,7.4
	h-3.5C33.3,22.7,31.2,21.1,28.6,20.9L28.6,20.9z M38.2,26.1L38.2,26.1L38.2,26.1l-3.4-0.1c0,0,0,0,0,0h-6.3v3.3H35
	c-0.6,3.1-3.2,5.5-6.4,5.8v3.3c5.5-0.3,9.8-4.9,9.8-10.4C38.4,27.4,38.3,26.7,38.2,26.1L38.2,26.1z M20.9,17.6h-3.3V28l0,0
	c0,0,0,0,0,0c0,5.6,4.3,10.1,9.8,10.4v-3.3c-3.7-0.3-6.5-3.4-6.5-7.1s2.9-6.8,6.5-7.1v-3.3c-2.5,0.1-4.8,1.2-6.5,2.8
	C20.9,20.4,20.9,17.6,20.9,17.6z"/>
</svg>
