<?xml version="1.0" encoding="utf-8"?>
<!-- Generator: Adobe Illustrator 27.0.1, SVG Export Plug-In . SVG Version: 6.00 Build 0)  -->
<svg version="1.1" id="Layer_1" xmlns="http://www.w3.org/2000/svg" xmlns:xlink="http://www.w3.org/1999/xlink" x="0px" y="0px"
	 viewBox="0 0 58 56" style="enable-background:new 0 0 58 56;" xml:space="preserve">
<style type="text/css">
	.st0{opacity:0.5;}
	.st1{clip-path:url(#SVGID_00000161591133331830685240000009022767021333840810_);}
	.st2{fill:none;stroke:#0BA363;stroke-miterlimit:10;}
	.st3{fill-rule:evenodd;clip-rule:evenodd;fill:url(#SVGID_00000094592527400342793480000004134417763743702673_);}
</style>
<g class="st0">
	<g>
		<defs>
			<circle id="SVGID_1_" cx="30" cy="28" r="28"/>
		</defs>
		<clipPath id="SVGID_00000164480222496812675600000014126956799190869169_">
			<use xlink:href="#SVGID_1_"  style="overflow:visible;"/>
		</clipPath>
		<g style="clip-path:url(#SVGID_00000164480222496812675600000014126956799190869169_);">
			<path class="st2" d="M2,0h56"/>
			<path class="st2" d="M2,1.9h56"/>
			<path class="st2" d="M2,3.7h56"/>
			<path class="st2" d="M2,5.6h56"/>
			<path class="st2" d="M2,7.5h56"/>
			<path class="st2" d="M2,9.3h56"/>
			<path class="st2" d="M2,11.2h56"/>
			<path class="st2" d="M2,13.1h56"/>
			<path class="st2" d="M2,14.9h56"/>
			<path class="st2" d="M2,16.8h56"/>
			<path class="st2" d="M2,18.7h56"/>
			<path class="st2" d="M2,20.5h56"/>
			<path class="st2" d="M2,22.4h56"/>
			<path class="st2" d="M2,24.3h56"/>
			<path class="st2" d="M2,26.1h56"/>
			<path class="st2" d="M2,28h56"/>
			<path class="st2" d="M2,29.9h56"/>
			<path class="st2" d="M2,31.7h56"/>
			<path class="st2" d="M2,33.6h56"/>
			<path class="st2" d="M2,35.5h56"/>
			<path class="st2" d="M2,37.3h56"/>
			<path class="st2" d="M2,39.2h56"/>
			<path class="st2" d="M2,41.1h56"/>
			<path class="st2" d="M2,42.9h56"/>
			<path class="st2" d="M2,44.8h56"/>
			<path class="st2" d="M2,46.7h56"/>
			<path class="st2" d="M2,48.5h56"/>
			<path class="st2" d="M2,50.4h56"/>
			<path class="st2" d="M2,52.3h56"/>
			<path class="st2" d="M2,54.1h56"/>
			<path class="st2" d="M2,56h56"/>
		</g>
	</g>
</g>
<linearGradient id="SVGID_00000052820361554691471170000000244237152175721614_" gradientUnits="userSpaceOnUse" x1="-1.865919e-08" y1="30.0401" x2="45.5346" y2="30.0401">
	<stop  offset="1.065558e-08" style="stop-color:#06A250"/>
	<stop  offset="1" style="stop-color:#2CAAE1"/>
</linearGradient>
<path style="fill-rule:evenodd;clip-rule:evenodd;fill:url(#SVGID_00000052820361554691471170000000244237152175721614_);" d="
	M18.2,6c-1.1-0.1-2.1,0.6-2.2,1.7c-0.1,1.1,0.6,2.1,1.7,2.2l5.6,0.7L0.7,29.9c-0.8,0.7-0.9,2-0.2,2.8c0.7,0.8,2,0.9,2.8,0.2L26,13.6
	v3.5c0,1.1,0.9,2,2,2c1.1,0,2-0.9,2-2V9.3c0-1-0.7-1.9-1.7-2L18.2,6z M41.5,48.7V13.4c0-0.8-0.6-1.4-1.4-1.4c-0.8,0-1.4,0.6-1.4,1.4
	v35.4c0,0.8,0.6,1.4,1.4,1.4C40.9,50.1,41.5,49.5,41.5,48.7z M40.2,8c-3,0-5.4,2.4-5.4,5.4v35.4c0,3,2.4,5.4,5.4,5.4
	c3,0,5.4-2.4,5.4-5.4V13.4C45.5,10.4,43.1,8,40.2,8z M26.6,31v17.1c0,1-0.8,1.9-1.9,1.9c-1,0-1.9-0.8-1.9-1.9V31
	c0-1,0.8-1.9,1.9-1.9C25.8,29.1,26.6,30,26.6,31z M18.8,31c0-3.3,2.6-5.9,5.9-5.9c3.3,0,5.9,2.6,5.9,5.9v17.1c0,3.3-2.6,5.9-5.9,5.9
	c-3.3,0-5.9-2.6-5.9-5.9V31z M10.6,43.4v5.4c0,0.8-0.6,1.4-1.4,1.4c-0.8,0-1.4-0.6-1.4-1.4v-5.4c0-0.8,0.6-1.4,1.4-1.4
	C10,42,10.6,42.6,10.6,43.4z M3.9,43.4c0-3,2.4-5.4,5.4-5.4c3,0,5.4,2.4,5.4,5.4v5.4c0,3-2.4,5.4-5.4,5.4c-3,0-5.4-2.4-5.4-5.4V43.4
	z"/>
</svg>
