<?xml version="1.0" encoding="utf-8"?>
<!-- Generator: Adobe Illustrator 27.0.1, SVG Export Plug-In . SVG Version: 6.00 Build 0)  -->
<svg version="1.1" id="Layer_1" xmlns="http://www.w3.org/2000/svg" xmlns:xlink="http://www.w3.org/1999/xlink" x="0px" y="0px"
	 viewBox="0 0 56 57" style="enable-background:new 0 0 56 57;" xml:space="preserve">
<style type="text/css">
	.st0{opacity:0.5;}
	.st1{clip-path:url(#SVGID_00000029743419994647716820000002266817606416086702_);}
	.st2{fill:none;stroke:#0BA363;stroke-miterlimit:10;}
	.st3{fill-rule:evenodd;clip-rule:evenodd;fill:url(#SVGID_00000022551673054003528130000001485183083008989325_);}
</style>
<g class="st0">
	<g>
		<defs>
			<circle id="SVGID_1_" cx="28" cy="28" r="28"/>
		</defs>
		<clipPath id="SVGID_00000115491923144929404840000004152140698786078859_">
			<use xlink:href="#SVGID_1_"  style="overflow:visible;"/>
		</clipPath>
		<g style="clip-path:url(#SVGID_00000115491923144929404840000004152140698786078859_);">
			<path class="st2" d="M0,0h56"/>
			<path class="st2" d="M0,1.9h56"/>
			<path class="st2" d="M0,3.7h56"/>
			<path class="st2" d="M0,5.6h56"/>
			<path class="st2" d="M0,7.5h56"/>
			<path class="st2" d="M0,9.3h56"/>
			<path class="st2" d="M0,11.2h56"/>
			<path class="st2" d="M0,13.1h56"/>
			<path class="st2" d="M0,14.9h56"/>
			<path class="st2" d="M0,16.8h56"/>
			<path class="st2" d="M0,18.7h56"/>
			<path class="st2" d="M0,20.5h56"/>
			<path class="st2" d="M0,22.4h56"/>
			<path class="st2" d="M0,24.3h56"/>
			<path class="st2" d="M0,26.1h56"/>
			<path class="st2" d="M0,28h56"/>
			<path class="st2" d="M0,29.9h56"/>
			<path class="st2" d="M0,31.7h56"/>
			<path class="st2" d="M0,33.6h56"/>
			<path class="st2" d="M0,35.5h56"/>
			<path class="st2" d="M0,37.3h56"/>
			<path class="st2" d="M0,39.2h56"/>
			<path class="st2" d="M0,41.1h56"/>
			<path class="st2" d="M0,42.9h56"/>
			<path class="st2" d="M0,44.8h56"/>
			<path class="st2" d="M0,46.7h56"/>
			<path class="st2" d="M0,48.5h56"/>
			<path class="st2" d="M0,50.4h56"/>
			<path class="st2" d="M0,52.3h56"/>
			<path class="st2" d="M0,54.1h56"/>
			<path class="st2" d="M0,56h56"/>
		</g>
	</g>
</g>
<linearGradient id="SVGID_00000145764460141868686290000004692382368720019890_" gradientUnits="userSpaceOnUse" x1="3.4312" y1="32.1988" x2="52.0151" y2="32.1988">
	<stop  offset="1.065558e-08" style="stop-color:#06A250"/>
	<stop  offset="1" style="stop-color:#2CAAE1"/>
</linearGradient>
<path style="fill-rule:evenodd;clip-rule:evenodd;fill:url(#SVGID_00000145764460141868686290000004692382368720019890_);" d="
	M28.2,13.5c-2.7-1.4-5.9-1.9-8.9-1.2c-3,0.7-5.7,2.4-7.5,4.9c-1.8,2.5-2.7,5.6-2.4,8.6c0.3,3.1,1.6,5.9,3.8,8.1c0.8,0.8,0.8,2,0,2.8
	c-0.8,0.8-2,0.8-2.8,0c-0.7-0.7-1.3-1.4-1.8-2.1c-0.4-0.1-0.8-0.2-1.1-0.5c-0.6-0.6-0.8-1.4-0.5-2.2c-0.9-1.8-1.4-3.8-1.6-5.8
	c-0.3-4,0.8-8,3.2-11.3c2.4-3.3,5.9-5.6,9.8-6.5c3.9-0.9,8.1-0.4,11.7,1.5c3.6,1.9,6.4,5,7.8,8.8c0.8,2,1.1,4,1.1,6.1
	c2.2,0,4.3,0.5,6.2,1.6c2.2,1.2,4,3,5.1,5.1s1.7,4.6,1.6,7.1c-0.2,2.5-1,4.8-2.5,6.8c-1.5,2-3.5,3.5-5.8,4.4
	c-2.3,0.9-4.8,1.1-7.2,0.6c-1.7-0.3-3.4-1.1-4.8-2.1c0,0,0,0,0,0c-0.1,0.1-0.1,0.3-0.2,0.4c-0.5,1-1.7,1.3-2.7,0.8
	c-1-0.5-1.3-1.7-0.8-2.7c0.1-0.1,0.1-0.2,0.2-0.3c0.2-0.4,0.5-0.6,0.8-0.8c-1.1-1.4-1.9-3-2.3-4.7c-2.5,0.7-5.1,0.7-7.7,0.2
	c-1.1-0.2-1.8-1.3-1.6-2.4c0.2-1.1,1.3-1.8,2.4-1.6c3,0.6,6.2,0.1,8.9-1.4c2.7-1.5,4.7-3.9,5.8-6.8c1-2.9,1-6.1-0.1-9
	C33.1,17.3,31,14.9,28.2,13.5z M38.1,30.5c0.2-0.5,0.4-1.1,0.5-1.7c1.7-0.1,3.3,0.3,4.8,1.1c1.5,0.8,2.7,2,3.6,3.5
	c0.8,1.5,1.2,3.2,1.1,4.9c-0.1,1.7-0.7,3.3-1.7,4.7c-1,1.4-2.4,2.4-4,3.1c-1.6,0.6-3.3,0.8-5,0.4c-1.7-0.3-3.2-1.1-4.4-2.3
	c-1.2-1.2-2.1-2.7-2.5-4.3l-1.2,0.3c0.4-0.2,0.9-0.4,1.3-0.7C34,37.5,36.7,34.3,38.1,30.5z M8.2,37.5c0.4-1-0.1-2.2-1.1-2.6
	c-1-0.4-2.2,0.1-2.6,1.1c-0.1,0.1-0.1,0.3-0.2,0.4c-0.1,0.1-0.1,0.3-0.2,0.4c-0.4,1,0.2,2.2,1.3,2.5c1,0.3,2.2-0.2,2.5-1.3
	c0-0.1,0.1-0.2,0.1-0.3C8.1,37.7,8.2,37.6,8.2,37.5z M7.4,42.2c-0.1-1.1-1-2-2.1-1.9s-2,1-1.9,2.1c0,0.2,0,0.3,0,0.5
	c0,0.2,0,0.3,0,0.5c0.1,1.1,1.1,1.9,2.2,1.8c1.1-0.1,1.9-1.1,1.8-2.2c0-0.1,0-0.2,0-0.3C7.4,42.4,7.4,42.3,7.4,42.2z M8.7,46.7
	c-0.5-1-1.7-1.4-2.7-0.8c-1,0.5-1.4,1.7-0.8,2.7c0.1,0.1,0.1,0.3,0.2,0.4c0.1,0.1,0.2,0.3,0.2,0.4c0.6,0.9,1.8,1.3,2.7,0.7
	c0.9-0.6,1.3-1.8,0.7-2.7c-0.1-0.1-0.1-0.2-0.2-0.3C8.8,46.9,8.7,46.8,8.7,46.7z M28,53.1c0.8-0.7,1-2,0.2-2.8c-0.7-0.8-2-1-2.8-0.2
	c-0.1,0.1-0.2,0.1-0.3,0.2c-0.1,0.1-0.2,0.1-0.3,0.2c-0.9,0.7-1.1,1.9-0.4,2.8c0.7,0.9,1.9,1.1,2.8,0.4c0.1-0.1,0.2-0.2,0.4-0.3
	C27.8,53.3,27.9,53.2,28,53.1z M11.7,50.3c-0.9-0.7-2.1-0.5-2.8,0.4c-0.7,0.9-0.5,2.1,0.4,2.8c0.1,0.1,0.2,0.2,0.4,0.3
	c0.1,0.1,0.3,0.2,0.4,0.3c0.9,0.6,2.2,0.4,2.8-0.5c0.6-0.9,0.4-2.2-0.5-2.8c-0.1-0.1-0.2-0.1-0.3-0.2S11.8,50.4,11.7,50.3z M22.3,56
	c1.1-0.3,1.7-1.4,1.4-2.5s-1.4-1.7-2.5-1.4c-0.1,0-0.2,0.1-0.3,0.1c-0.1,0-0.2,0.1-0.3,0.1c-1.1,0.2-1.8,1.3-1.5,2.4
	c0.2,1.1,1.3,1.8,2.4,1.5c0.2,0,0.3-0.1,0.4-0.1C22,56.1,22.2,56.1,22.3,56z M15.9,52.3c-1.1-0.2-2.1,0.4-2.4,1.5
	c-0.2,1.1,0.4,2.1,1.5,2.4c0.1,0,0.3,0.1,0.5,0.1s0.3,0.1,0.5,0.1c1.1,0.2,2.1-0.6,2.3-1.6c0.2-1.1-0.6-2.1-1.6-2.3
	c-0.1,0-0.2,0-0.3-0.1C16.1,52.3,16,52.3,15.9,52.3z"/>
</svg>
