<?xml version="1.0" encoding="utf-8"?>
<!-- Generator: Adobe Illustrator 27.0.1, SVG Export Plug-In . SVG Version: 6.00 Build 0)  -->
<svg version="1.1" id="Layer_1" xmlns="http://www.w3.org/2000/svg" xmlns:xlink="http://www.w3.org/1999/xlink" x="0px" y="0px"
	 viewBox="0 0 56 57" style="enable-background:new 0 0 56 57;" xml:space="preserve">
<style type="text/css">
	.st0{opacity:0.5;}
	.st1{clip-path:url(#SVGID_00000102527578642280410900000015860611007350631322_);}
	.st2{fill:none;stroke:#0BA363;stroke-miterlimit:10;}
	.st3{fill-rule:evenodd;clip-rule:evenodd;fill:url(#SVGID_00000055685137596015126590000018329840505301996205_);}
</style>
<g class="st0">
	<g>
		<defs>
			<circle id="SVGID_1_" cx="28" cy="28" r="28"/>
		</defs>
		<clipPath id="SVGID_00000161627306968717123330000002058845397569020585_">
			<use xlink:href="#SVGID_1_"  style="overflow:visible;"/>
		</clipPath>
		<g style="clip-path:url(#SVGID_00000161627306968717123330000002058845397569020585_);">
			<path class="st2" d="M0,0h56"/>
			<path class="st2" d="M0,1.9h56"/>
			<path class="st2" d="M0,3.7h56"/>
			<path class="st2" d="M0,5.6h56"/>
			<path class="st2" d="M0,7.5h56"/>
			<path class="st2" d="M0,9.3h56"/>
			<path class="st2" d="M0,11.2h56"/>
			<path class="st2" d="M0,13.1h56"/>
			<path class="st2" d="M0,14.9h56"/>
			<path class="st2" d="M0,16.8h56"/>
			<path class="st2" d="M0,18.7h56"/>
			<path class="st2" d="M0,20.5h56"/>
			<path class="st2" d="M0,22.4h56"/>
			<path class="st2" d="M0,24.3h56"/>
			<path class="st2" d="M0,26.1h56"/>
			<path class="st2" d="M0,28h56"/>
			<path class="st2" d="M0,29.9h56"/>
			<path class="st2" d="M0,31.7h56"/>
			<path class="st2" d="M0,33.6h56"/>
			<path class="st2" d="M0,35.5h56"/>
			<path class="st2" d="M0,37.3h56"/>
			<path class="st2" d="M0,39.2h56"/>
			<path class="st2" d="M0,41.1h56"/>
			<path class="st2" d="M0,42.9h56"/>
			<path class="st2" d="M0,44.8h56"/>
			<path class="st2" d="M0,46.7h56"/>
			<path class="st2" d="M0,48.5h56"/>
			<path class="st2" d="M0,50.4h56"/>
			<path class="st2" d="M0,52.3h56"/>
			<path class="st2" d="M0,54.1h56"/>
			<path class="st2" d="M0,56h56"/>
		</g>
	</g>
</g>
<linearGradient id="SVGID_00000181765855871679740880000006772951141483548303_" gradientUnits="userSpaceOnUse" x1="0.9204" y1="31.9999" x2="49.0803" y2="31.9999">
	<stop  offset="1.065558e-08" style="stop-color:#06A250"/>
	<stop  offset="1" style="stop-color:#2CAAE1"/>
</linearGradient>
<path style="fill-rule:evenodd;clip-rule:evenodd;fill:url(#SVGID_00000181765855871679740880000006772951141483548303_);" d="
	M31.1,13.7c-0.4-0.4-0.8-0.8-1.2-1.1c3.9,1,7.4,3.2,10,6.1c-1.6,0.6-3.1,1.1-4.6,1.5C34.2,17.4,32.7,15.3,31.1,13.7z M36.2,22.1
	c1.6-0.5,3.4-1.1,5.2-1.8c2.1,3,3.5,6.6,3.7,10.5c-0.9,0.2-1.6,1-1.6,2c0,0.9,0.6,1.7,1.5,1.9c-0.4,3.2-1.6,6.2-3.4,8.7
	c-1.8-0.7-3.5-1.3-5.1-1.8c0.6-1.7,1-3.6,1.3-5.7c0.1-0.5-0.3-1-0.9-1.1c-0.5-0.1-1,0.3-1.1,0.9c-0.2,2-0.7,3.8-1.2,5.4
	c-2.9-0.7-5.5-1.1-8.1-1.2l0-3.9c0-0.6-0.5-1-1-1c-0.6,0-1,0.5-1,1l0,3.9c-3,0.1-5.9,0.6-9.1,1.4c-0.4-1.6-0.8-3.5-0.9-5.6
	c0-0.6-0.5-1-1.1-0.9c-0.6,0-1,0.5-0.9,1.1c0.2,2.3,0.5,4.2,1,6c-1.5,0.4-3.2,1-4.9,1.5c-1.8-2.5-2.9-5.5-3.4-8.7c1.1,0,2-0.9,2-2
	c0-1.1-0.9-2-2-2H5c0.2-3.9,1.6-7.5,3.8-10.5c1.7,0.6,3.4,1,5,1.5c-0.7,2.1-1.2,4.6-1.4,7.5c0,0.6,0.4,1,0.9,1.1
	c0.6,0,1-0.4,1.1-0.9c0.2-2.8,0.7-5.2,1.3-7.2c3.1,0.8,5.9,1.2,8.8,1.4v4.6c0,0.6,0.4,1,1,1s1-0.4,1-1v-4.6c2.6,0,5.1-0.4,7.8-1
	c0.6,1.8,1.2,4,1.4,6.5c0.1,0.5,0.6,0.9,1.1,0.9c0.5-0.1,0.9-0.6,0.9-1.1C37.3,26.3,36.8,24,36.2,22.1z M35.6,43.5
	c1.5,0.4,3,0.9,4.6,1.6c-2.7,3.2-6.4,5.5-10.5,6.5c0.5-0.4,1-0.9,1.5-1.4C32.8,48.5,34.4,46.3,35.6,43.5z M24.4,52.1L24.4,52.1
	l0-10.1c-2.7,0.1-5.5,0.6-8.5,1.3c1.2,3.3,3,5.4,4.6,6.7c1.3,1.1,2.6,1.7,3.5,2C24.1,52,24.2,52,24.4,52.1z M9.8,45.1
	c2.3,2.7,5.4,4.8,8.9,6c-1.8-1.6-3.5-3.9-4.7-7.3C12.6,44.2,11.2,44.6,9.8,45.1z M14.3,19.8c-1.4-0.4-2.8-0.8-4.3-1.3
	c2.4-2.7,5.6-4.8,9.2-5.8c0,0-0.1,0.1-0.1,0.1C17.4,14.4,15.7,16.6,14.3,19.8z M0.9,32C0.9,18.7,11.7,7.9,25,7.9S49.1,18.7,49.1,32
	S38.3,56.1,25,56.1S0.9,45.3,0.9,32z M33.5,20.7c-1.1-2.5-2.5-4.3-3.8-5.7c-1.2-1.3-2.4-2.2-3.3-2.7l0,0v9.3
	C28.7,21.6,31,21.3,33.5,20.7z M24.4,21.6V12c-0.1,0-0.2,0.1-0.3,0.1c-0.9,0.4-2.2,1.1-3.6,2.2c-1.4,1.3-3,3.2-4.2,6
	C19.2,21,21.8,21.5,24.4,21.6z M33.7,43c-2.6-0.6-5-1-7.3-1.1l0,9.6l0,0c0.9-0.6,2.1-1.5,3.4-2.9C31.1,47.3,32.6,45.4,33.7,43z
	 M9.1,30.8c-1.1,0-2,0.9-2,2c0,1.1,0.9,2,2,2h2c1.1,0,2-0.9,2-2c0-1.1-0.9-2-2-2H9.1z M15.2,30.8c-1.1,0-2,0.9-2,2c0,1.1,0.9,2,2,2
	h2c1.1,0,2-0.9,2-2c0-1.1-0.9-2-2-2H15.2z M21.2,30.8c-1.1,0-2,0.9-2,2c0,1.1,0.9,2,2,2h2c1.1,0,2-0.9,2-2c0-1.1-0.9-2-2-2H21.2z
	 M27.3,30.8c-1.1,0-2,0.9-2,2c0,1.1,0.9,2,2,2h2c1.1,0,2-0.9,2-2c0-1.1-0.9-2-2-2H27.3z M33.3,30.8c-1.1,0-2,0.9-2,2
	c0,1.1,0.9,2,2,2h2c1.1,0,2-0.9,2-2c0-1.1-0.9-2-2-2H33.3z M39.4,30.8c-1.1,0-2,0.9-2,2c0,1.1,0.9,2,2,2h2c1.1,0,2-0.9,2-2
	c0-1.1-0.9-2-2-2H39.4z"/>
</svg>
