<?xml version="1.0" encoding="utf-8"?>
<!-- Generator: Adobe Illustrator 27.0.1, SVG Export Plug-In . SVG Version: 6.00 Build 0)  -->
<svg version="1.1" id="Layer_1" xmlns="http://www.w3.org/2000/svg" xmlns:xlink="http://www.w3.org/1999/xlink" x="0px" y="0px"
	 viewBox="0 0 48 48" style="enable-background:new 0 0 48 48;" xml:space="preserve">
<style type="text/css">
	.st0{opacity:0.5;clip-path:url(#SVGID_00000169532001429179270730000012047474249739055285_);}
	.st1{fill:#FFFFFF;}
	.st2{fill:none;stroke:#0BA363;stroke-width:0.5;stroke-miterlimit:10;}
	
		.st3{fill:none;stroke:url(#SVGID_00000142895710771862607100000011864623582304362890_);stroke-linecap:round;stroke-linejoin:round;stroke-miterlimit:10;}
	.st4{fill:url(#SVGID_00000033337348871603698160000011290244723297605279_);stroke:#FFFFFF;stroke-width:2;stroke-miterlimit:10;}
</style>
<g>
	<defs>
		<path id="SVGID_1_" d="M24,0L24,0c13.3,0,24,10.7,24,24l0,0c0,13.3-10.7,24-24,24l0,0C10.7,48,0,37.3,0,24l0,0C0,10.7,10.7,0,24,0
			z"/>
	</defs>
	<clipPath id="SVGID_00000028313900873402887700000009549381152142146985_">
		<use xlink:href="#SVGID_1_"  style="overflow:visible;"/>
	</clipPath>
	<g style="opacity:0.5;clip-path:url(#SVGID_00000028313900873402887700000009549381152142146985_);">
		<path class="st1" d="M24,0L24,0c13.3,0,24,10.7,24,24l0,0c0,13.3-10.7,24-24,24l0,0C10.7,48,0,37.3,0,24l0,0C0,10.7,10.7,0,24,0z"
			/>
		<path class="st2" d="M0,34h48"/>
		<path class="st2" d="M0,32.9h48"/>
		<path class="st2" d="M0,0.6h48"/>
		<path class="st2" d="M0,35.1h48"/>
		<path class="st2" d="M0,1.6h48"/>
		<path class="st2" d="M0,36.1h48"/>
		<path class="st2" d="M0,2.7h48"/>
		<path class="st2" d="M0,37.2h48"/>
		<path class="st2" d="M0,3.8h48"/>
		<path class="st2" d="M0,38.3h48"/>
		<path class="st2" d="M0,4.9h48"/>
		<path class="st2" d="M0,39.4h48"/>
		<path class="st2" d="M0,6h48"/>
		<path class="st2" d="M0,40.4h48"/>
		<path class="st2" d="M0,7h48"/>
		<path class="st2" d="M0,41.5h48"/>
		<path class="st2" d="M0,8.1h48"/>
		<path class="st2" d="M0,42.6h48"/>
		<path class="st2" d="M0,9.2h48"/>
		<path class="st2" d="M0,43.7h48"/>
		<path class="st2" d="M0,10.3h48"/>
		<path class="st2" d="M0,44.8h48"/>
		<path class="st2" d="M0,11.3h48"/>
		<path class="st2" d="M0,45.8h48"/>
		<path class="st2" d="M0,12.4h48"/>
		<path class="st2" d="M0,46.9h48"/>
		<path class="st2" d="M0,13.5h48"/>
		<path class="st2" d="M0,48h48"/>
		<path class="st2" d="M0,14.6h48"/>
		<path class="st2" d="M0,15.7h48"/>
		<path class="st2" d="M0,16.7h48"/>
		<path class="st2" d="M0,17.8h48"/>
		<path class="st2" d="M0,18.9h48"/>
		<path class="st2" d="M0,20h48"/>
		<path class="st2" d="M0,21.1h48"/>
		<path class="st2" d="M0,22.1h48"/>
		<path class="st2" d="M0,23.2h48"/>
		<path class="st2" d="M0,24.3h48"/>
		<path class="st2" d="M0,25.4h48"/>
		<path class="st2" d="M0,26.4h48"/>
		<path class="st2" d="M0,27.5h48"/>
		<path class="st2" d="M0,28.6h48"/>
		<path class="st2" d="M0,29.7h48"/>
		<path class="st2" d="M0,30.8h48"/>
		<path class="st2" d="M0,31.8h48"/>
	</g>
</g>
<linearGradient id="SVGID_00000049223773211140959030000007603187038052270744_" gradientUnits="userSpaceOnUse" x1="0" y1="24" x2="48" y2="24">
	<stop  offset="1.065558e-08" style="stop-color:#06A250"/>
	<stop  offset="1" style="stop-color:#2CAAE1"/>
</linearGradient>
<path style="fill:none;stroke:url(#SVGID_00000049223773211140959030000007603187038052270744_);stroke-linecap:round;stroke-linejoin:round;stroke-miterlimit:10;" d="
	M24,0.5L24,0.5C37,0.5,47.5,11,47.5,24l0,0C47.5,37,37,47.5,24,47.5l0,0C11,47.5,0.5,37,0.5,24l0,0C0.5,11,11,0.5,24,0.5z"/>
<linearGradient id="SVGID_00000111870774573150675670000004186884016329466534_" gradientUnits="userSpaceOnUse" x1="9.7864" y1="23.8352" x2="38.484" y2="23.8352">
	<stop  offset="1.065558e-08" style="stop-color:#06A250"/>
	<stop  offset="1" style="stop-color:#2CAAE1"/>
</linearGradient>
<path style="fill:url(#SVGID_00000111870774573150675670000004186884016329466534_);stroke:#FFFFFF;stroke-width:2;stroke-miterlimit:10;" d="
	M36.5,14.2c-0.4-1-1.5-1.4-2.4-1.1l-5,1.8c-1,0.4-1.5,1.5-1.1,2.5c0.4,1,1.5,1.5,2.5,1.1l0.7-0.3l-2.4,5.3l-11-3.2
	c-0.9-0.3-1.8,0.1-2.2,1L10,31.8c-0.5,0.9-0.1,2.1,0.8,2.6c0.9,0.5,2.1,0.1,2.6-0.8l4.8-9.1l11,3.2c0.9,0.3,1.9-0.2,2.3-1l-0.9-0.4
	l0.9,0.4l3.2-6.9l0.2,0.4c0.4,1,1.5,1.5,2.5,1.1c1-0.4,1.5-1.5,1.1-2.5L36.5,14.2z"/>
</svg>
