<?xml version="1.0" encoding="utf-8"?>
<!-- Generator: Adobe Illustrator 27.0.1, SVG Export Plug-In . SVG Version: 6.00 Build 0)  -->
<svg version="1.1" id="Layer_1" xmlns="http://www.w3.org/2000/svg" xmlns:xlink="http://www.w3.org/1999/xlink" x="0px" y="0px"
	 viewBox="0 0 57 57" style="enable-background:new 0 0 57 57;" xml:space="preserve">
<style type="text/css">
	.st0{opacity:0.5;}
	.st1{clip-path:url(#SVGID_00000021089215851443840800000006662481768003816118_);}
	.st2{fill:none;stroke:#0BA363;stroke-miterlimit:10;}
	
		.st3{fill:none;stroke:url(#SVGID_00000103977919518058232940000009598027479175358338_);stroke-width:4;stroke-linecap:round;stroke-linejoin:round;stroke-miterlimit:10;}
	.st4{fill:url(#SVGID_00000144325000288392007350000012403726617233646526_);}
</style>
<g class="st0">
	<g>
		<defs>
			<path id="SVGID_1_" d="M1,28C1,12.5,13.5,0,29,0l0,0c15.5,0,28,12.5,28,28l0,0c0,15.5-12.5,28-28,28l0,0C13.5,56,1,43.5,1,28
				L1,28z"/>
		</defs>
		<clipPath id="SVGID_00000128445632944799312770000007121599967963538316_">
			<use xlink:href="#SVGID_1_"  style="overflow:visible;"/>
		</clipPath>
		<g style="clip-path:url(#SVGID_00000128445632944799312770000007121599967963538316_);">
			<path class="st2" d="M1,0h56"/>
			<path class="st2" d="M1,1.9h56"/>
			<path class="st2" d="M1,3.7h56"/>
			<path class="st2" d="M1,5.6h56"/>
			<path class="st2" d="M1,7.5h56"/>
			<path class="st2" d="M1,9.3h56"/>
			<path class="st2" d="M1,11.2h56"/>
			<path class="st2" d="M1,13.1h56"/>
			<path class="st2" d="M1,14.9h56"/>
			<path class="st2" d="M1,16.8h56"/>
			<path class="st2" d="M1,18.7h56"/>
			<path class="st2" d="M1,20.5h56"/>
			<path class="st2" d="M1,22.4h56"/>
			<path class="st2" d="M1,24.3h56"/>
			<path class="st2" d="M1,26.1h56"/>
			<path class="st2" d="M1,28h56"/>
			<path class="st2" d="M1,29.9h56"/>
			<path class="st2" d="M1,31.7h56"/>
			<path class="st2" d="M1,33.6h56"/>
			<path class="st2" d="M1,35.5h56"/>
			<path class="st2" d="M1,37.3h56"/>
			<path class="st2" d="M1,39.2h56"/>
			<path class="st2" d="M1,41.1h56"/>
			<path class="st2" d="M1,42.9h56"/>
			<path class="st2" d="M1,44.8h56"/>
			<path class="st2" d="M1,46.7h56"/>
			<path class="st2" d="M1,48.5h56"/>
			<path class="st2" d="M1,50.4h56"/>
			<path class="st2" d="M1,52.3h56"/>
			<path class="st2" d="M1,54.1h56"/>
			<path class="st2" d="M1,56h56"/>
		</g>
	</g>
</g>
<linearGradient id="SVGID_00000026885038530223696260000007742334855721248391_" gradientUnits="userSpaceOnUse" x1="-3.0673" y1="30.2314" x2="127.1959" y2="5.1743" gradientTransform="matrix(1 0 0 -1 0 58)">
	<stop  offset="1.065558e-08" style="stop-color:#06A250"/>
	<stop  offset="1" style="stop-color:#2CAAE1"/>
</linearGradient>
<path style="fill:none;stroke:url(#SVGID_00000026885038530223696260000007742334855721248391_);stroke-width:4;stroke-linecap:round;stroke-linejoin:round;stroke-miterlimit:10;" d="
	M16.6,13.6c2.4,1,5.2,0.3,6.8-1.7c0.8-1,2.3-1,3.1,0c1.7,2,4.4,2.6,6.8,1.7c1.2-0.5,2.5,0.2,2.8,1.5c0.6,2.5,2.7,4.4,5.3,4.7
	c1.3,0.1,2.1,1.4,1.8,2.6c-0.7,2.5,0.3,5.2,2.5,6.6c1.1,0.7,1.2,2.2,0.4,3.1c-1.7,1.9-2.1,4.7-0.9,7c0.6,1.1,0.1,2.5-1.1,2.9
	c-2.4,0.9-4,3.2-4,5.8c0,1.3-1.1,2.3-2.3,2.1c-2.6-0.4-5.1,1-6.2,3.3c-0.6,1.1-2,1.5-3,0.8c-2.1-1.5-4.9-1.5-7.1,0
	c-1,0.7-2.5,0.4-3-0.8c-1.2-2.3-3.7-3.6-6.2-3.3C10.9,50,9.8,49,9.8,47.8c0-2.6-1.6-4.9-4-5.8c-1.2-0.4-1.7-1.8-1.1-2.9
	c1.2-2.3,0.9-5.1-0.9-7c-0.9-0.9-0.7-2.4,0.4-3.1c2.2-1.4,3.2-4.1,2.5-6.6c-0.3-1.2,0.5-2.4,1.8-2.6c2.6-0.3,4.7-2.1,5.3-4.7
	C14.1,13.8,15.4,13.1,16.6,13.6z"/>
<linearGradient id="SVGID_00000072271025505757264300000016282512754560751779_" gradientUnits="userSpaceOnUse" x1="13.9768" y1="32.936" x2="37.2128" y2="32.936">
	<stop  offset="1.065558e-08" style="stop-color:#06A250"/>
	<stop  offset="1" style="stop-color:#2CAAE1"/>
</linearGradient>
<path style="fill:url(#SVGID_00000072271025505757264300000016282512754560751779_);" d="M31.1,21.7l2.7,1.7L20.1,44.1l-2.6-1.7
	L31.1,21.7z M19.1,22.7c1,0,1.9,0.2,2.6,0.7c0.8,0.4,1.4,1,1.8,1.8c0.5,0.8,0.7,1.7,0.7,2.8c0,1-0.2,2-0.7,2.8
	c-0.4,0.8-1,1.4-1.8,1.8c-0.8,0.4-1.6,0.6-2.6,0.6c-1,0-1.8-0.2-2.6-0.6c-0.8-0.4-1.4-1-1.8-1.8c-0.5-0.8-0.7-1.7-0.7-2.8
	c0-1,0.2-2,0.7-2.8c0.5-0.8,1.1-1.4,1.8-1.8C17.3,22.9,18.2,22.7,19.1,22.7z M19.1,25.2c-1.4,0-2,0.9-2,2.7c0,0.8,0.1,1.4,0.4,1.9
	c0.3,0.5,0.8,0.7,1.6,0.7c1.3,0,2-0.9,2-2.7C21.1,26.1,20.5,25.2,19.1,25.2z M32.1,33c1,0,1.9,0.2,2.6,0.7c0.8,0.4,1.4,1,1.8,1.8
	c0.5,0.8,0.7,1.7,0.7,2.8c0,1-0.2,2-0.7,2.8c-0.4,0.8-1,1.4-1.8,1.8c-0.8,0.4-1.7,0.7-2.6,0.7s-1.8-0.2-2.6-0.7
	c-0.8-0.4-1.4-1-1.9-1.8c-0.5-0.8-0.7-1.7-0.7-2.8c0-1,0.2-2,0.7-2.8c0.5-0.8,1.1-1.4,1.9-1.8C30.2,33.2,31.1,33,32.1,33z
	 M32.1,35.6c-1.4,0-2,0.9-2,2.7c0,0.8,0.1,1.4,0.4,1.9c0.3,0.5,0.8,0.7,1.6,0.7c1.3,0,2-0.9,2-2.7C34.1,36.5,33.4,35.6,32.1,35.6z"
	/>
</svg>
