<?xml version="1.0" encoding="utf-8"?>
<!-- Generator: Adobe Illustrator 27.0.1, SVG Export Plug-In . SVG Version: 6.00 Build 0)  -->
<svg version="1.1" id="Layer_1" xmlns="http://www.w3.org/2000/svg" xmlns:xlink="http://www.w3.org/1999/xlink" x="0px" y="0px"
	 viewBox="0 0 56 56" style="enable-background:new 0 0 56 56;" xml:space="preserve">
<style type="text/css">
	.st0{opacity:0.5;}
	.st1{clip-path:url(#SVGID_00000060002496876992024540000008630305619368141471_);}
	.st2{fill:none;stroke:#0BA363;stroke-miterlimit:10;}
	.st3{fill:url(#SVGID_00000114768509780351863750000004369441184405987502_);}
</style>
<g class="st0">
	<g>
		<defs>
			<circle id="SVGID_1_" cx="28" cy="27" r="28"/>
		</defs>
		<clipPath id="SVGID_00000174601895005265796080000011672355650979275434_">
			<use xlink:href="#SVGID_1_"  style="overflow:visible;"/>
		</clipPath>
		<g style="clip-path:url(#SVGID_00000174601895005265796080000011672355650979275434_);">
			<path class="st2" d="M0,0.9h56"/>
			<path class="st2" d="M0,2.7h56"/>
			<path class="st2" d="M0,4.6h56"/>
			<path class="st2" d="M0,6.5h56"/>
			<path class="st2" d="M0,8.3h56"/>
			<path class="st2" d="M0,10.2h56"/>
			<path class="st2" d="M0,12.1h56"/>
			<path class="st2" d="M0,13.9h56"/>
			<path class="st2" d="M0,15.8h56"/>
			<path class="st2" d="M0,17.7h56"/>
			<path class="st2" d="M0,19.5h56"/>
			<path class="st2" d="M0,21.4h56"/>
			<path class="st2" d="M0,23.3h56"/>
			<path class="st2" d="M0,25.1h56"/>
			<path class="st2" d="M0,27h56"/>
			<path class="st2" d="M0,28.9h56"/>
			<path class="st2" d="M0,30.7h56"/>
			<path class="st2" d="M0,32.6h56"/>
			<path class="st2" d="M0,34.5h56"/>
			<path class="st2" d="M0,36.3h56"/>
			<path class="st2" d="M0,38.2h56"/>
			<path class="st2" d="M0,40.1h56"/>
			<path class="st2" d="M0,41.9h56"/>
			<path class="st2" d="M0,43.8h56"/>
			<path class="st2" d="M0,45.7h56"/>
			<path class="st2" d="M0,47.5h56"/>
			<path class="st2" d="M0,49.4h56"/>
			<path class="st2" d="M0,51.3h56"/>
			<path class="st2" d="M0,53.1h56"/>
			<path class="st2" d="M0,55h56"/>
		</g>
	</g>
</g>
<linearGradient id="SVGID_00000037671780075005020380000017187125951840837273_" gradientUnits="userSpaceOnUse" x1="4" y1="33" x2="42.412" y2="33">
	<stop  offset="1.065558e-08" style="stop-color:#06A250"/>
	<stop  offset="1" style="stop-color:#2CAAE1"/>
</linearGradient>
<path style="fill:url(#SVGID_00000037671780075005020380000017187125951840837273_);" d="M41.5,13c-0.3-0.2-0.6-0.4-1-0.5
	c-0.3-0.1-0.7-0.1-1.1,0c-2.6,0.5-5.2,0.5-7.8,0c-2.6-0.5-5-1.6-7.2-3.1C24.2,9.1,23.7,9,23.2,9c-0.5,0-1,0.1-1.4,0.4
	c-2.1,1.5-4.6,2.5-7.2,3.1c-2.6,0.5-5.2,0.5-7.8,0c-0.4-0.1-0.7-0.1-1.1,0c-0.3,0.1-0.7,0.2-1,0.5c-0.3,0.2-0.5,0.5-0.7,0.8
	c-0.2,0.3-0.2,0.7-0.2,1v17.9c0,3.4,0.8,6.8,2.4,9.9c1.6,3.1,3.9,5.7,6.7,7.7l8.8,6.2c0.4,0.3,0.9,0.4,1.4,0.4c0.5,0,1-0.2,1.4-0.4
	l8.8-6.2c2.8-2,5.1-4.6,6.7-7.7c1.6-3.1,2.4-6.5,2.4-9.9V14.8c0-0.4-0.1-0.7-0.2-1C42,13.5,41.8,13.2,41.5,13z M37.6,32.7
	c0,2.7-0.6,5.3-1.9,7.7s-3,4.4-5.2,6l-7.4,5.3l-7.4-5.3c-2.2-1.6-4-3.6-5.2-6c-1.2-2.4-1.9-5-1.9-7.7V17.6c5,0.4,10.1-0.7,14.4-3.3
	c4.3,2.6,9.4,3.8,14.4,3.3V32.7z M26.9,27.2l-6.5,6.5l-2.1-2.2c-0.5-0.5-1.1-0.7-1.7-0.7c-0.6,0-1.3,0.3-1.7,0.7
	c-0.5,0.5-0.7,1.1-0.7,1.7c0,0.6,0.3,1.3,0.7,1.7l3.8,3.8c0.2,0.2,0.5,0.4,0.8,0.5c0.3,0.1,0.6,0.2,0.9,0.2c0.3,0,0.6-0.1,0.9-0.2
	c0.3-0.1,0.6-0.3,0.8-0.5l8.3-8.2c0.5-0.5,0.7-1.1,0.7-1.7s-0.3-1.3-0.7-1.7c-0.5-0.5-1.1-0.7-1.7-0.7
	C28.1,26.5,27.5,26.7,26.9,27.2L26.9,27.2z"/>
</svg>
