<?xml version="1.0" encoding="UTF-8"?>
<svg xmlns="http://www.w3.org/2000/svg" xmlns:xlink="http://www.w3.org/1999/xlink" viewBox="0 0 655 1244">
  <defs>
    <style>
      .cls-1 {
        fill: #fff;
      }

      .cls-2 {
        fill: url(#linear-gradient-17);
      }

      .cls-3 {
        stroke: url(#linear-gradient-2);
      }

      .cls-3, .cls-4 {
        stroke-miterlimit: 10;
      }

      .cls-3, .cls-4, .cls-5 {
        stroke-width: 2px;
      }

      .cls-3, .cls-4, .cls-5, .cls-6 {
        fill: none;
      }

      .cls-7 {
        fill: url(#linear-gradient-15);
      }

      .cls-8 {
        fill: url(#linear-gradient-18);
      }

      .cls-9 {
        fill: url(#linear-gradient-14);
      }

      .cls-10 {
        fill: url(#linear-gradient-20);
      }

      .cls-11 {
        fill: url(#linear-gradient-6);
      }

      .cls-12 {
        isolation: isolate;
      }

      .cls-4 {
        stroke: url(#linear-gradient-3);
      }

      .cls-13 {
        fill: url(#linear-gradient-11);
      }

      .cls-5 {
        filter: url(#drop-shadow-1);
        stroke: #fff79c;
        stroke-dasharray: 0 0 0 6;
        stroke-linecap: round;
        stroke-linejoin: round;
      }

      .cls-14 {
        fill: url(#linear-gradient-10);
      }

      .cls-15 {
        fill: url(#linear-gradient-16);
      }

      .cls-16 {
        fill: url(#linear-gradient-21);
      }

      .cls-17 {
        fill: url(#linear-gradient-5);
      }

      .cls-18 {
        clip-path: url(#clippath);
      }

      .cls-19 {
        fill: url(#linear-gradient-7);
      }

      .cls-20 {
        fill: url(#linear-gradient-9);
      }

      .cls-21 {
        fill: url(#linear-gradient-22);
      }

      .cls-22 {
        fill: url(#linear-gradient);
      }

      .cls-23 {
        fill: url(#linear-gradient-23);
      }

      .cls-24 {
        fill: url(#linear-gradient-19);
      }

      .cls-25 {
        fill: url(#linear-gradient-4);
      }

      .cls-26 {
        mix-blend-mode: multiply;
      }

      .cls-27 {
        fill: url(#linear-gradient-8);
      }

      .cls-28 {
        opacity: .37;
      }

      .cls-29 {
        fill: url(#linear-gradient-12);
      }

      .cls-30 {
        fill: url(#linear-gradient-13);
      }
    </style>
    <clipPath id="clippath">
      <rect class="cls-6" width="655" height="1244"/>
    </clipPath>
    <linearGradient id="linear-gradient" x1="293.7" y1="662.4" x2="1001.62" y2="662.4" gradientUnits="userSpaceOnUse">
      <stop offset="0" stop-color="#03a550"/>
      <stop offset="1" stop-color="#2bace2"/>
    </linearGradient>
    <filter id="drop-shadow-1" filterUnits="userSpaceOnUse">
      <feOffset dx="1" dy="1"/>
      <feGaussianBlur result="blur" stdDeviation="1"/>
      <feFlood flood-color="#be8835" flood-opacity=".75"/>
      <feComposite in2="blur" operator="in"/>
      <feComposite in="SourceGraphic"/>
    </filter>
    <linearGradient id="linear-gradient-2" x1="446.35" y1="863.71" x2="848.97" y2="461.09" gradientTransform="translate(658.08 -263.95) rotate(45)" gradientUnits="userSpaceOnUse">
      <stop offset="0" stop-color="#b9752a"/>
      <stop offset=".15" stop-color="#daa852"/>
      <stop offset=".27" stop-color="#efca6c"/>
      <stop offset=".33" stop-color="#f8d777"/>
      <stop offset=".38" stop-color="#fadc8a"/>
      <stop offset=".47" stop-color="#fde4ac"/>
      <stop offset=".52" stop-color="#ffe8b9"/>
      <stop offset=".57" stop-color="#fde4af"/>
      <stop offset=".65" stop-color="#f9dc95"/>
      <stop offset=".75" stop-color="#f3d070"/>
      <stop offset=".97" stop-color="#c18133"/>
      <stop offset="1" stop-color="#b9752a"/>
    </linearGradient>
    <linearGradient id="linear-gradient-3" x1="396.7" y1="913.35" x2="898.61" y2="411.44" gradientTransform="matrix(1, 0, 0, 1, 0, 0)" xlink:href="#linear-gradient-2"/>
    <linearGradient id="linear-gradient-4" x1="209.97" y1="732.02" x2="766.92" y2="1107.23" gradientUnits="userSpaceOnUse">
      <stop offset="0" stop-color="#b9752a"/>
      <stop offset=".03" stop-color="#c18133"/>
      <stop offset=".25" stop-color="#f3d070"/>
      <stop offset=".35" stop-color="#f9dc95"/>
      <stop offset=".43" stop-color="#fde4af"/>
      <stop offset=".48" stop-color="#ffe8b9"/>
      <stop offset=".53" stop-color="#fde4ac"/>
      <stop offset=".62" stop-color="#fadc8a"/>
      <stop offset=".67" stop-color="#f8d777"/>
      <stop offset=".73" stop-color="#efca6c"/>
      <stop offset=".85" stop-color="#daa852"/>
      <stop offset="1" stop-color="#b9752a"/>
    </linearGradient>
    <linearGradient id="linear-gradient-5" x1="216.09" y1="722.94" x2="773.04" y2="1098.14" xlink:href="#linear-gradient-4"/>
    <linearGradient id="linear-gradient-6" x1="223.69" y1="711.67" x2="780.63" y2="1086.87" xlink:href="#linear-gradient-4"/>
    <linearGradient id="linear-gradient-7" x1="232.69" y1="698.3" x2="789.64" y2="1073.51" xlink:href="#linear-gradient-4"/>
    <linearGradient id="linear-gradient-8" x1="242.87" y1="683.19" x2="799.81" y2="1058.39" xlink:href="#linear-gradient-4"/>
    <linearGradient id="linear-gradient-9" x1="254.18" y1="666.4" x2="811.12" y2="1041.61" xlink:href="#linear-gradient-4"/>
    <linearGradient id="linear-gradient-10" x1="266.63" y1="647.93" x2="823.58" y2="1023.13" xlink:href="#linear-gradient-4"/>
    <linearGradient id="linear-gradient-11" x1="280.09" y1="627.93" x2="837.04" y2="1003.14" xlink:href="#linear-gradient-4"/>
    <linearGradient id="linear-gradient-12" x1="294.45" y1="606.63" x2="851.4" y2="981.83" xlink:href="#linear-gradient-4"/>
    <linearGradient id="linear-gradient-13" x1="309.56" y1="584.2" x2="866.51" y2="959.41" xlink:href="#linear-gradient-4"/>
    <linearGradient id="linear-gradient-14" x1="325.36" y1="560.74" x2="882.31" y2="935.95" xlink:href="#linear-gradient-4"/>
    <linearGradient id="linear-gradient-15" x1="341.84" y1="536.28" x2="898.79" y2="911.48" xlink:href="#linear-gradient-4"/>
    <linearGradient id="linear-gradient-16" x1="358.66" y1="511.31" x2="915.61" y2="886.52" xlink:href="#linear-gradient-4"/>
    <linearGradient id="linear-gradient-17" x1="375.66" y1="486.08" x2="932.61" y2="861.29" xlink:href="#linear-gradient-4"/>
    <linearGradient id="linear-gradient-18" x1="392.69" y1="460.81" x2="949.63" y2="836.01" xlink:href="#linear-gradient-4"/>
    <linearGradient id="linear-gradient-19" x1="409.59" y1="435.72" x2="966.54" y2="810.93" xlink:href="#linear-gradient-4"/>
    <linearGradient id="linear-gradient-20" x1="426.21" y1="411.04" x2="983.16" y2="786.25" xlink:href="#linear-gradient-4"/>
    <linearGradient id="linear-gradient-21" x1="442.32" y1="387.13" x2="999.27" y2="762.34" xlink:href="#linear-gradient-4"/>
    <linearGradient id="linear-gradient-22" x1="457.69" y1="364.31" x2="1014.65" y2="739.52" xlink:href="#linear-gradient-4"/>
    <linearGradient id="linear-gradient-23" x1="478.29" y1="661.2" x2="817.03" y2="661.2" xlink:href="#linear-gradient"/>
  </defs>
  <g class="cls-12">
    <g id="Layer_1" data-name="Layer 1">
      <g class="cls-18">
        <g class="cls-28">
          <circle class="cls-1" cx="647.66" cy="662.4" r="353.96"/>
          <path class="cls-22" d="M647.66,308.44c-195.48,0-353.96,158.47-353.96,353.96s158.47,353.96,353.96,353.96,353.96-158.47,353.96-353.96-158.47-353.96-353.96-353.96Zm0,637.65c-156.68,0-283.7-127.01-283.7-283.7s127.01-283.7,283.7-283.7,283.7,127.01,283.7,283.7-127.01,283.7-283.7,283.7Z"/>
          <circle class="cls-5" cx="647.66" cy="662.4" r="271.51"/>
          <circle class="cls-3" cx="647.66" cy="662.4" r="283.7" transform="translate(-278.69 651.98) rotate(-45)"/>
          <circle class="cls-4" cx="647.66" cy="662.4" r="353.9"/>
          <g class="cls-26">
            <path class="cls-25" d="M390.51,863.08l2.39-4.93-2.58-4.8,5.34,.82,3.74-3.97s.19,1.33,.39,2.65c.19,1.33,.41,2.65,.41,2.65l4.96,2.06-4.75,2.66-.5,5.39-4.02-3.68-5.37,1.14Z"/>
            <path class="cls-17" d="M372.58,837.73l2.84-4.67-2.11-5.02,5.23,1.33,4.1-3.6s.07,1.34,.13,2.68c.05,1.35,.17,2.67,.17,2.67l4.74,2.52-4.98,2.2-1.01,5.32-3.65-4.04-5.45,.62Z"/>
            <path class="cls-11" d="M357.14,810.8l1.6-2.18c.83-1.1,1.66-2.19,1.66-2.19l-1.62-5.21,5.08,1.82,4.42-3.19s-.06,1.34-.13,2.68c-.08,1.35-.07,2.67-.07,2.67l4.47,2.96-5.17,1.72-1.52,5.2-3.24-4.37-5.49,.1Z"/>
            <path class="cls-19" d="M344.34,782.52l3.64-4.04-1.1-5.34,4.87,2.3,4.71-2.76s-.19,1.33-.39,2.66c-.2,1.33-.3,2.64-.3,2.64l4.16,3.38-5.31,1.22-2.01,5.03-2.8-4.67-5.47-.43Z"/>
            <path class="cls-27" d="M334.31,753.14l3.98-3.66-.58-5.42,4.62,2.76,4.95-2.29s-.32,1.3-.64,2.61c-.26,1.3-.53,2.59-.53,2.59l3.81,3.76-5.4,.7-2.49,4.82-2.33-4.92-5.4-.95Z"/>
            <path class="cls-20" d="M327.14,722.93l4.32-3.27s-.1-1.35-.08-2.72c0-1.36-.01-2.73-.01-2.73l4.32,3.19,5.15-1.81s-.47,1.27-.83,2.52c-.39,1.27-.78,2.53-.78,2.53l3.41,4.11-5.44,.18-2.96,4.56-1.83-5.12-5.27-1.46Z"/>
            <path class="cls-14" d="M322.89,692.18l4.62-2.84s.06-1.36,.13-2.71c.09-1.36,.24-2.71,.24-2.71,0,0,.99,.9,1.99,1.81,1.03,.89,2.07,1.78,2.07,1.78l5.26-1.31-2.06,4.88,2.98,4.42-5.42-.34-3.4,4.26-1.31-5.28-5.1-1.96Z"/>
            <polygon class="cls-13" points="321.57 661.18 326.46 658.79 327.26 653.42 331.04 657.37 336.41 656.56 333.87 661.23 336.38 665.92 331.02 665.06 327.21 668.99 326.45 663.61 321.57 661.18"/>
            <path class="cls-29" d="M323.14,630.19l5.11-1.92,1.34-5.27,3.37,4.29,5.42-.3-3.01,4.4,2.03,4.9-5.25-1.35s-1.05,.88-2.09,1.76c-1.01,.9-2.02,1.79-2.02,1.79,0,0-.16-1.36-.19-2.71-.06-1.36-.11-2.71-.11-2.71l-4.61-2.88Z"/>
            <path class="cls-30" d="M327.62,599.48l5.28-1.43,1.86-5.11,2.93,4.59,5.43,.22-3.44,4.09s.38,1.27,.77,2.54c.37,1.26,.8,2.53,.8,2.53l-5.12-1.84s-1.09,.78-2.18,1.57c-1.09,.8-2.17,1.59-2.17,1.59,0,0,.01-1.36,.03-2.73,0-1.37,.12-2.72,.12-2.72l-4.3-3.3Z"/>
            <path class="cls-9" d="M335,569.33l5.4-.91,2.36-4.9,2.46,4.84,5.39,.74-3.83,3.74s.25,1.3,.51,2.6c.27,1.3,.61,2.61,.61,2.61l-4.94-2.33-4.64,2.73s.15-1.35,.3-2.71c.15-1.36,.32-2.71,.32-2.71l-3.96-3.69Z"/>
            <path class="cls-7" d="M345.24,540.02l5.47-.39,2.84-4.65,1.98,5.05,5.3,1.25-4.18,3.35s.1,1.31,.28,2.64c.18,1.33,.37,2.66,.37,2.66l-4.69-2.79-4.89,2.27,1.14-5.33-3.6-4.06Z"/>
            <path class="cls-15" d="M358.24,511.82l5.49,.14,3.28-4.35,1.48,5.21,5.16,1.75-4.49,2.93s-.02,1.32,.05,2.67c.05,1.34,.11,2.68,.11,2.68l-4.4-3.22-5.09,1.79,1.66-5.19s-.82-1.1-1.64-2.2c-.79-1.1-1.59-2.2-1.59-2.2Z"/>
            <path class="cls-2" d="M373.88,485l5.45,.66,3.68-4.01,.97,5.32,4.97,2.24-4.76,2.48s-.12,1.33-.19,2.68c-.08,1.34-.15,2.67-.15,2.67l-4.07-3.63-5.25,1.29,2.15-5.01-2.81-4.7Z"/>
            <polygon class="cls-8" points="392 459.79 397.36 460.98 401.41 457.33 401.87 462.72 406.6 465.42 401.63 467.44 400.79 472.74 397.09 468.74 391.74 469.52 394.36 464.75 392 459.79"/>
            <polygon class="cls-24" points="412.42 436.42 417.65 438.1 422.03 434.86 421.98 440.27 426.43 443.4 421.29 444.94 419.96 450.14 416.65 445.81 411.25 446.08 414.31 441.58 412.42 436.42"/>
            <polygon class="cls-10" points="434.97 415.09 440.01 417.25 444.68 414.44 444.11 419.81 448.25 423.36 442.99 424.4 441.17 429.45 438.29 424.83 432.88 424.59 436.36 420.4 434.97 415.09"/>
            <path class="cls-16" d="M459.44,395.98l4.81,2.62,4.92-2.35-1.08,5.29,3.79,3.92s-1.33,.13-2.67,.26c-1.34,.12-2.67,.29-2.67,.29l-2.29,4.85-2.43-4.87-5.36-.76,3.86-3.84-.88-5.42Z"/>
            <path class="cls-21" d="M485.6,379.28s1.13,.75,2.26,1.5c1.13,.77,2.27,1.55,2.27,1.55l5.12-1.87-1.58,5.16,3.4,4.26s-1.34,0-2.68,0c-1.35-.01-2.68,.05-2.68,.05l-2.74,4.61-1.96-5.08-5.26-1.26,4.21-3.45-.36-5.48Z"/>
          </g>
          <path class="cls-23" d="M656.86,545.22v-53.79c72.25,4.17,132.37,53.43,152.73,120.05h-57.4c-17.32-36.57-53.09-62.69-95.33-66.27Zm157.41,85.64v-1.15h-.19s-55.07,0-55.07,0c0,0,0,.02,0,.03h-102.12v53.65h104.39c-9.73,50.57-52.16,89.48-104.42,93.91v53.79c89.32-5.16,160.17-79.2,160.17-169.82,0-10.38-.98-20.53-2.76-30.4Zm-282.14-138.6h-53.83v168.49h.01c0,.14-.01,.27-.01,.41,0,90.62,70.85,164.66,160.17,169.82v-53.79c-59.67-5.06-106.52-55.06-106.52-116.03s46.86-110.98,106.52-116.03v-53.79c-41.05,2.37-78.18,19.32-106.34,45.72v-44.8Z"/>
        </g>
      </g>
    </g>
  </g>
</svg>