<?xml version="1.0" encoding="utf-8"?>
<!-- Generator: Adobe Illustrator 27.0.1, SVG Export Plug-In . SVG Version: 6.00 Build 0)  -->
<svg version="1.1" id="Layer_1" xmlns="http://www.w3.org/2000/svg" xmlns:xlink="http://www.w3.org/1999/xlink" x="0px" y="0px"
	 viewBox="0 0 56 59" style="enable-background:new 0 0 56 59;" xml:space="preserve">
<style type="text/css">
	.st0{opacity:0.5;}
	.st1{clip-path:url(#SVGID_00000167353902440520576910000003689402617675224251_);}
	.st2{fill:none;stroke:#0BA363;stroke-miterlimit:10;}
	
		.st3{fill:none;stroke:url(#SVGID_00000021086705011502844870000009207184119854050223_);stroke-width:4;stroke-linecap:round;stroke-linejoin:round;stroke-miterlimit:10;}
</style>
<g class="st0">
	<g>
		<defs>
			<path id="SVGID_1_" d="M0,25.3C0,11.3,11.3,0,25.3,0h5.4C44.7,0,56,11.3,56,25.3c0,14-11.3,25.3-25.3,25.3h-5.4
				C11.3,50.6,0,39.3,0,25.3z"/>
		</defs>
		<clipPath id="SVGID_00000016781375356063132150000013550386506846187693_">
			<use xlink:href="#SVGID_1_"  style="overflow:visible;"/>
		</clipPath>
		<g style="clip-path:url(#SVGID_00000016781375356063132150000013550386506846187693_);">
			<path class="st2" d="M0,0h56"/>
			<path class="st2" d="M0,1.7h56"/>
			<path class="st2" d="M0,3.4h56"/>
			<path class="st2" d="M0,5.1h56"/>
			<path class="st2" d="M0,6.7h56"/>
			<path class="st2" d="M0,8.4h56"/>
			<path class="st2" d="M0,10.1h56"/>
			<path class="st2" d="M0,11.8h56"/>
			<path class="st2" d="M0,13.5h56"/>
			<path class="st2" d="M0,15.2h56"/>
			<path class="st2" d="M0,16.9h56"/>
			<path class="st2" d="M0,18.5h56"/>
			<path class="st2" d="M0,20.2h56"/>
			<path class="st2" d="M0,21.9h56"/>
			<path class="st2" d="M0,23.6h56"/>
			<path class="st2" d="M0,25.3h56"/>
			<path class="st2" d="M0,27h56"/>
			<path class="st2" d="M0,28.7h56"/>
			<path class="st2" d="M0,30.3h56"/>
			<path class="st2" d="M0,32h56"/>
			<path class="st2" d="M0,33.7h56"/>
			<path class="st2" d="M0,35.4h56"/>
			<path class="st2" d="M0,37.1h56"/>
			<path class="st2" d="M0,38.8h56"/>
			<path class="st2" d="M0,40.5h56"/>
			<path class="st2" d="M0,42.2h56"/>
			<path class="st2" d="M0,43.8h56"/>
			<path class="st2" d="M0,45.5h56"/>
			<path class="st2" d="M0,47.2h56"/>
			<path class="st2" d="M0,48.9h56"/>
			<path class="st2" d="M0,50.6h56"/>
		</g>
	</g>
</g>
<linearGradient id="SVGID_00000103960472344550053600000016104360574879883180_" gradientUnits="userSpaceOnUse" x1="4" y1="32" x2="48.4706" y2="32">
	<stop  offset="1.065558e-08" style="stop-color:#06A250"/>
	<stop  offset="1" style="stop-color:#2CAAE1"/>
</linearGradient>
<path style="fill:none;stroke:url(#SVGID_00000103960472344550053600000016104360574879883180_);stroke-width:4;stroke-linecap:round;stroke-linejoin:round;stroke-miterlimit:10;" d="
	M6,15.2L27.1,8l19.4,6.3 M24.9,39.2c4.4-0.1,8.3,1.4,13.2,6.1l4.6-2.7c-2.1-3-3.2-4.8-4.6-9.4c-1.1-3.8-1.9-5.4-3.6-7.5v-4
	 M34.4,19.4v2.4 M25.6,29.8c0,0-1.3,0.8-1.3,8.6S27.6,49,28,56 M9.3,49.9c0-24.1,8.9-31.8,25.1-28.1 M31.1,30.6
	c1.1,0.2,1,0.1,0.8,1.3"/>
</svg>
