<svg width="16" height="15" viewBox="0 0 16 15" fill="none" xmlns="http://www.w3.org/2000/svg">
<path fill-rule="evenodd" clip-rule="evenodd" d="M6.29102 0C5.56302 0 4.99524 0.578887 4.99524 1.26731V1.89058C4.99524 2.14872 5.20989 2.3788 5.50228 2.3788C5.79467 2.3788 6.00933 2.14872 6.00933 1.89058V1.26731C6.00933 1.09518 6.1478 0.976452 6.29102 0.976452H9.70886C9.85207 0.976452 9.99055 1.09518 9.99055 1.26731V1.89058C9.99055 2.14872 10.2052 2.3788 10.4976 2.3788C10.79 2.3788 11.0046 2.14872 11.0046 1.89058V1.26731C11.0046 0.578886 10.4368 0 9.70886 0H6.29102ZM2.08451 2.80459C0.920909 2.80459 0 3.73228 0 4.85098V5.78503C0 6.68513 0.600795 7.48833 1.49299 7.74736L5.91549 9.03138V9.83723C5.91549 10.3105 6.30671 10.715 6.8169 10.715H9.1831C9.69329 10.715 10.0845 10.3105 10.0845 9.83723V9.03138L14.507 7.74736C15.3992 7.48833 16 6.68513 16 5.78503V4.85098C16 3.73228 15.0791 2.80459 13.9155 2.80459H2.08451ZM1.01408 4.85098C1.01408 4.24858 1.50569 3.78104 2.08451 3.78104H13.9155C14.4943 3.78104 14.9859 4.24858 14.9859 4.85098V5.78503C14.9859 6.26757 14.6644 6.68169 14.2137 6.81256L10.0454 8.02276C9.93449 7.66942 9.59755 7.4013 9.1831 7.4013H6.8169C6.40245 7.4013 6.06551 7.66942 5.95459 8.02276L1.78632 6.81256C1.33558 6.68169 1.01408 6.26757 1.01408 5.78503V4.85098ZM0.507042 7.63506C0.214653 7.63506 0 7.86514 0 8.12329V12.9536C0 14.0723 0.920908 15 2.08451 15H13.9155C15.0791 15 16 14.0723 16 12.9536V8.12329C16 7.86514 15.7853 7.63506 15.493 7.63506C15.2006 7.63506 14.9859 7.86514 14.9859 8.12329V12.9536C14.9859 13.556 14.4943 14.0235 13.9155 14.0235H2.08451C1.50569 14.0235 1.01408 13.556 1.01408 12.9536V8.12329C1.01408 7.86514 0.799431 7.63506 0.507042 7.63506ZM6.92958 8.65861V8.37775H9.07042V8.65861C9.07029 8.66514 9.07029 8.6717 9.07042 8.67827V9.73855H6.92958V8.67826C6.92971 8.6717 6.92971 8.66514 6.92958 8.65861Z" fill="#AEAEAE"/>
</svg>
