<svg width="18" height="18" viewBox="0 0 18 18" fill="none" xmlns="http://www.w3.org/2000/svg">
<path fill-rule="evenodd" clip-rule="evenodd" d="M17.9967 4.63254V16.4872C17.917 16.7938 17.7624 16.9171 17.4342 16.9288C17.3876 16.9304 17.3406 16.9298 17.2938 16.9293C17.2705 16.9291 17.2473 16.9288 17.2242 16.9288H0.69143C0.194087 16.926 0.0211182 16.7507 0.0211182 16.25V4.83785C0.0211182 4.37753 0.203931 4.19144 0.670337 4.19097C2.01409 4.18816 3.35784 4.18816 4.70159 4.19097H5.05221C5.30721 4.19097 5.31424 4.18675 5.36862 3.94253C5.45455 3.5533 5.60457 3.18104 5.81252 2.84097C6.19402 2.20616 6.75545 1.69894 7.4256 1.38363C8.09576 1.06832 8.84445 0.959123 9.57675 1.06989C10.309 1.18066 10.992 1.5064 11.5389 2.00581C12.0858 2.50521 12.4721 3.15579 12.6488 3.87503C12.7242 4.19003 12.7256 4.19003 13.0528 4.19003H17.2247H17.4352C17.7605 4.20269 17.917 4.32597 17.9967 4.63254ZM9.01735 8.45566C11.6005 8.45566 14.1841 8.45441 16.7681 8.45191C16.913 8.45191 16.9486 8.48425 16.9481 8.63097C16.9428 10.9691 16.9428 13.3071 16.9481 15.6449C16.9481 15.7902 16.9148 15.8244 16.7686 15.8244C11.6014 15.8203 6.43407 15.8203 1.26657 15.8244C1.12173 15.8244 1.08657 15.7921 1.08704 15.6453C1.09204 13.3075 1.09204 10.9696 1.08704 8.63144C1.08704 8.48613 1.12032 8.45144 1.2661 8.45191C3.84985 8.45691 6.4336 8.45816 9.01735 8.45566ZM9.0127 4.24679C8.21208 4.24679 7.41192 4.24679 6.61129 4.24914C6.48848 4.24914 6.4402 4.24914 6.48098 4.09351C6.80583 2.85039 8.04145 2.00757 9.3188 2.17164C10.4143 2.31226 11.2875 3.07164 11.5571 4.10476C11.5954 4.25114 11.5449 4.25081 11.444 4.25015L11.4315 4.25007C10.7493 4.2465 10.0671 4.24663 9.38487 4.24675L9.0127 4.24679ZM9.0352 5.29904C11.6133 5.29904 14.1915 5.29779 16.7696 5.29529C16.9154 5.29529 16.9514 5.32904 16.9491 5.47482C16.9397 6.07107 16.9421 6.66732 16.9491 7.2631C16.9491 7.37888 16.9182 7.40607 16.8052 7.40607C11.6143 7.40294 6.42364 7.40294 1.23333 7.40607C1.11895 7.40607 1.08848 7.37701 1.08989 7.26263C1.09551 6.66076 1.09692 6.05841 1.08989 5.45654C1.08989 5.32435 1.12223 5.29576 1.25208 5.29576C3.84551 5.29982 6.43989 5.30091 9.0352 5.29904Z" fill="#AEAEAE"/>
<path d="M11.4024 10.7969C11.4044 10.9015 11.3752 11.0043 11.3186 11.0922C11.2619 11.1801 11.1804 11.2491 11.0843 11.2904C10.9882 11.3317 10.882 11.3434 10.7792 11.3241C10.6765 11.3047 10.5818 11.2552 10.5073 11.1818C10.4328 11.1084 10.3819 11.0144 10.3611 10.912C10.3403 10.8095 10.3505 10.7031 10.3904 10.6065C10.4303 10.5098 10.4982 10.4273 10.5852 10.3693C10.6723 10.3114 10.7747 10.2808 10.8792 10.2813C10.9476 10.2803 11.0154 10.2929 11.0789 10.3184C11.1423 10.3438 11.2 10.3817 11.2487 10.4296C11.2974 10.4776 11.336 10.5348 11.3624 10.5979C11.3888 10.6609 11.4024 10.7286 11.4024 10.7969Z" fill="#AEAEAE"/>
<path d="M7.6842 10.8064C7.68392 10.8754 7.67005 10.9438 7.64336 11.0075C7.61667 11.0712 7.5777 11.129 7.52867 11.1776C7.47963 11.2263 7.4215 11.2648 7.35758 11.291C7.29367 11.3171 7.22522 11.3305 7.15616 11.3302C7.08709 11.3299 7.01875 11.316 6.95505 11.2894C6.89135 11.2627 6.83352 11.2237 6.78488 11.1747C6.73624 11.1256 6.69773 11.0675 6.67156 11.0036C6.64538 10.9397 6.63205 10.8712 6.63233 10.8022C6.63289 10.6627 6.68883 10.5291 6.78786 10.4309C6.88689 10.3326 7.02089 10.2778 7.16037 10.2783C7.29986 10.2789 7.43341 10.3348 7.53165 10.4339C7.62989 10.5329 7.68476 10.6669 7.6842 10.8064Z" fill="#AEAEAE"/>
<path d="M9.5433 10.0277C9.54451 10.1321 9.51463 10.2345 9.45745 10.3218C9.40027 10.4092 9.31839 10.4775 9.22224 10.5182C9.12608 10.5588 9.02 10.57 8.9175 10.5501C8.815 10.5303 8.72072 10.4804 8.64667 10.4068C8.57262 10.3332 8.52214 10.2393 8.50167 10.1369C8.48119 10.0345 8.49165 9.92838 8.53171 9.83197C8.57176 9.73556 8.6396 9.65325 8.72659 9.59553C8.81358 9.5378 8.91578 9.50727 9.02017 9.50782C9.08872 9.50739 9.15667 9.52052 9.22012 9.54645C9.28357 9.57238 9.34127 9.6106 9.38989 9.65892C9.43851 9.70723 9.47709 9.76469 9.50342 9.82797C9.52975 9.89126 9.54331 9.95913 9.5433 10.0277Z" fill="#AEAEAE"/>
<path fill-rule="evenodd" clip-rule="evenodd" d="M8.80555 11.0901C7.7668 11.1754 6.91508 12.1091 6.91508 13.1666C6.91508 13.1911 6.91467 13.2154 6.91427 13.2397C6.9137 13.2738 6.91313 13.3078 6.91367 13.3419C6.93805 13.8435 7.22727 14.181 7.71477 14.2841C7.92383 14.3287 8.13243 14.3127 8.34196 14.2954C8.38225 14.2919 8.42249 14.2883 8.4627 14.2847C8.76582 14.2576 9.06696 14.2307 9.37321 14.2659C9.66758 14.2996 9.9643 14.3235 10.2638 14.2799C10.7195 14.2138 11.0035 13.964 11.0945 13.5107C11.1371 13.2749 11.1347 13.0331 11.0874 12.7982C10.8976 11.7398 9.90993 10.9991 8.80555 11.0901ZM9.95623 13.2561C10.0547 13.2692 10.0842 13.2303 10.0692 13.1511C10.0575 12.6092 9.56764 12.1428 9.02154 12.1395C8.47545 12.1363 7.98935 12.5947 7.96497 13.1314C7.96029 13.228 7.98044 13.2711 8.08732 13.2561C8.70734 13.1703 9.33621 13.1703 9.95623 13.2561Z" fill="#AEAEAE"/>
</svg>
