<svg width="24" height="24" viewBox="0 0 24 24" fill="none" xmlns="http://www.w3.org/2000/svg">
<path fill-rule="evenodd" clip-rule="evenodd" d="M12 19.8C16.3078 19.8 19.8 16.3078 19.8 12C19.8 7.69218 16.3078 4.2 12 4.2C7.69218 4.2 4.2 7.69218 4.2 12C4.2 16.3078 7.69218 19.8 12 19.8ZM12 21C16.9706 21 21 16.9706 21 12C21 7.02944 16.9706 3 12 3C7.02944 3 3 7.02944 3 12C3 16.9706 7.02944 21 12 21ZM11.4228 7.94158C11.6179 7.83717 11.8546 7.84862 12.0387 7.97136L17.3328 11.5008C17.4997 11.612 17.6 11.7994 17.6 12C17.6 12.2006 17.4997 12.388 17.3328 12.4992L12.0387 16.0286C11.8546 16.1514 11.6179 16.1628 11.4228 16.0584C11.2277 15.954 11.1059 15.7507 11.1059 15.5294V8.47059C11.1059 8.24931 11.2277 8.04599 11.4228 7.94158ZM12.3059 14.4083L15.9183 12L12.3059 9.5917V14.4083ZM10.1 8.47059C10.1 8.13922 9.83137 7.87059 9.5 7.87059C9.16863 7.87059 8.9 8.13922 8.9 8.47059V15.0882C8.9 15.4196 9.16863 15.6882 9.5 15.6882C9.83137 15.6882 10.1 15.4196 10.1 15.0882V8.47059Z" fill="#AEAEAE"/>
</svg>
