<svg width="18" height="18" viewBox="0 0 18 18" fill="none" xmlns="http://www.w3.org/2000/svg">
<path d="M9 17.15C13.5011 17.15 17.15 13.5011 17.15 9C17.15 4.49888 13.5011 0.85 9 0.85C4.49888 0.85 0.85 4.49888 0.85 9C0.85 13.5011 4.49888 17.15 9 17.15ZM16.2786 9C16.2786 13.0198 13.0198 16.2786 9 16.2786C4.98016 16.2786 1.72143 13.0198 1.72143 9C1.72143 4.98016 4.98016 1.72143 9 1.72143C13.0198 1.72143 16.2786 4.98016 16.2786 9Z" fill="#AEAEAE" stroke="#AEAEAE" stroke-width="0.3"/>
<path d="M10.9867 4.80127C11.4949 4.80127 11.9069 5.21208 11.9069 5.71883V11.9582C11.9069 12.465 11.4949 12.8758 10.9867 12.8758C10.4785 12.8758 10.0665 12.465 10.0665 11.9582V5.71883C10.0665 5.21208 10.4785 4.80127 10.9867 4.80127Z" fill="#AEAEAE"/>
<path d="M8.49306 7.37045C8.95549 7.37045 9.33036 7.74425 9.33036 8.20536V10.4318C9.33036 10.8929 8.95549 11.2667 8.49306 11.2667C8.03063 11.2667 7.65576 10.8929 7.65576 10.4318V8.20536C7.65576 7.74425 8.03063 7.37045 8.49306 7.37045Z" fill="#AEAEAE"/>
<path d="M7.12187 7.10428C7.12187 6.64318 6.74699 6.26937 6.28457 6.26937C5.82214 6.26937 5.44727 6.64317 5.44727 7.10428V7.38258C5.44727 7.84369 5.82214 8.21749 6.28457 8.21749C6.74699 8.21749 7.12187 7.84369 7.12187 7.38259V7.10428Z" fill="#AEAEAE"/>
<path d="M8.49306 5.1683C8.95549 5.1683 9.33036 5.5421 9.33036 6.00321V6.28151C9.33036 6.74262 8.95549 7.11642 8.49306 7.11642C8.03063 7.11642 7.65576 6.74262 7.65576 6.28151V6.00321C7.65576 5.5421 8.03063 5.1683 8.49306 5.1683Z" fill="#AEAEAE"/>
</svg>
