<svg width="40" height="40" viewBox="0 0 40 40" fill="none" xmlns="http://www.w3.org/2000/svg">
<circle cx="20" cy="20" r="19" stroke="#C6C6C6" stroke-width="2"/>
<path d="M20.4826 9.73067L16.425 12.0767L14.0212 10.7114L20.4633 7L26.9054 10.7114L24.5401 12.0767L20.4826 9.73067Z" fill="#F0B90B"/>
<path d="M24.558 14.0381L26.9233 15.4034V18.1341L22.8658 20.4802V25.1723L20.5005 26.5376L18.1352 25.1723V20.4802L14.0776 18.1341V15.4034L16.443 14.0381L20.5005 16.3842L24.558 14.0381Z" fill="#F0B90B"/>
<path d="M26.9232 20.0957V22.8264L24.5579 24.1917V21.461L26.9232 20.0957Z" fill="#F0B90B"/>
<path d="M24.5579 26.1535L28.6154 23.8075H28.6346V19.1153L30.9999 17.75V25.1728L24.5579 28.8842V26.1535Z" fill="#F0B90B"/>
<path d="M28.6184 14.4221L26.2532 13.0567L28.6184 11.6914L30.9837 13.0567V15.7874L28.6184 17.1527V14.4221Z" fill="#F0B90B"/>
<path d="M18.1155 29.8635V27.1328L20.4808 28.4981L22.8461 27.1328V29.8635L20.4808 31.2288L18.1155 29.8635Z" fill="#F0B90B"/>
<path d="M16.4242 24.1917L14.0588 22.8264V20.0957L16.4242 21.461V24.1917Z" fill="#F0B90B"/>
<path d="M20.4808 14.4221L18.1155 13.0567L20.4808 11.6914L22.8461 13.0567L20.4808 14.4221Z" fill="#F0B90B"/>
<path d="M14.7306 13.0567L12.3653 14.4221V17.1527L10 15.7874V13.0567L12.3653 11.6914L14.7306 13.0567Z" fill="#F0B90B"/>
<path d="M10 17.75L12.3653 19.1153H12.3845V23.8075L16.4421 26.1535V28.8842L10 25.1728V17.75Z" fill="#F0B90B"/>
</svg>
