<svg width="40" height="40" viewBox="0 0 40 40" fill="none" xmlns="http://www.w3.org/2000/svg">
<circle cx="20" cy="20" r="19" stroke="#C6C6C6" stroke-width="2"/>
<path fill-rule="evenodd" clip-rule="evenodd" d="M27.929 21.8209C27.929 25.5726 28.1745 25.1152 26.2838 26.3028C25.5088 26.7896 24.5377 27.6796 23.4355 27.2466C23.0228 27.0845 21.4718 26.1185 21.0136 25.7947C19.8481 24.9709 20.236 24.3075 20.164 22.6416C19.3547 22.9444 18.835 23.5218 18.0392 23.7605C17.9053 27.2015 18.1684 26.722 20.5295 28.1302C24.5724 30.5416 23.4744 30.6706 27.5309 28.2255C30.7272 26.2989 30.1685 27.297 30.1685 20.4777C30.1685 18.8095 27.9827 18.0543 25.7476 16.6943C23.3466 15.2334 24.0036 15.9793 20.1901 18.0271C19.7009 18.2898 19.4772 18.5003 18.9582 18.8066L14.9623 21.2062C13.8305 21.8594 12.9227 20.9336 12.0881 20.4465C9.9763 19.2141 10.2526 19.4341 10.2526 15.9434C10.2526 14.1954 10.7796 14.467 11.8813 13.7536C13.7612 12.5361 13.9555 11.921 17.1389 14.2286C18.2501 15.034 17.9073 15.7854 17.9834 17.4092C18.5107 17.2222 18.747 17.0135 19.2302 16.7324C20.2252 16.1536 20.1431 16.3444 20.1431 14.6C20.1431 12.7686 19.1414 12.8354 16.271 11.0606C13.404 9.28806 14.3295 9.66736 9.18119 12.7285C8.00387 13.4286 8.05114 13.5999 8.06432 15.2693C8.096 19.2713 7.51792 20.3387 9.31358 21.38C15.5173 24.9775 12.8622 24.6933 18.879 21.422C23.9596 18.6599 23.0564 17.715 26.2191 19.5862C27.2813 20.2147 27.9293 20.2299 27.9293 21.8211L27.929 21.8209Z" fill="#8247E5"/>
</svg>
