<svg width="42" height="49" viewBox="0 0 42 49" fill="none" xmlns="http://www.w3.org/2000/svg">
<path d="M16.5415 15.7734C17.92 15.2756 19.3368 14.8736 20.7918 14.5673C40.4476 8.90191 50.5145 34.2515 31.9985 42.6083C20.1574 47.9524 16.5415 48.9922 16.5415 48.9922C14.4757 45.4289 16.1421 39.4875 19.8796 37.7567L28.1489 34.431C31.4745 32.903 31.7925 28.9646 30.3193 26.152C28.9723 23.5805 25.8745 22.4845 23.1479 23.4807C20.9635 24.2789 18.4453 25.1044 16.5415 25.4543C12.3413 26.2261 10.1802 19.434 13.5762 17.1185C14.725 16.4675 15.1247 16.2712 16.5415 15.7734Z" fill="#70629C"/>
<path d="M25.2329 34.2109C23.8544 34.7087 22.4377 35.1108 20.9826 35.4171C1.32686 41.0825 -8.74012 15.7329 9.77592 7.37611C21.617 2.03193 25.2329 0.992207 25.2329 0.992207C27.2987 4.55545 25.6323 10.4968 21.8948 12.2276L13.6256 15.5533C10.2999 17.0814 9.9819 21.0198 11.4552 23.8324C12.8021 26.4038 15.8999 27.4999 18.6265 26.5037C20.811 25.7055 23.3291 24.8799 25.2329 24.5301C29.4331 23.7583 31.5942 30.5504 28.1982 32.8659C27.0494 33.5168 26.6497 33.7132 25.2329 34.2109Z" fill="#A99CD3"/>
<path d="M18.6369 30.5484L18.7991 30.5016C19.0005 30.4434 19.1314 30.3821 19.1919 30.3178C19.253 30.2503 19.2681 30.1632 19.2372 30.0564C19.2048 29.9443 19.1475 29.8751 19.0653 29.8491C18.9759 29.8237 18.8332 29.8393 18.6372 29.8959L18.4629 29.9463L18.6369 30.5484ZM18.4016 32.5474L17.5439 29.5791L18.357 29.3442C18.6841 29.2497 18.9211 29.1929 19.0679 29.1739C19.2049 29.1563 19.3305 29.1603 19.4448 29.1858C19.5713 29.2181 19.6776 29.2745 19.7639 29.3551C19.8517 29.441 19.9151 29.5515 19.9542 29.6867C20.0038 29.8584 19.9996 30.006 19.9416 30.1297C19.8846 30.2516 19.7695 30.3654 19.5965 30.4711C19.8066 30.4279 19.9926 30.4533 20.1545 30.5471C20.3117 30.6452 20.4223 30.8051 20.4864 31.0268C20.5317 31.1836 20.5379 31.3319 20.5051 31.4717C20.4734 31.6156 20.4053 31.7371 20.3006 31.8361C20.2205 31.9135 20.1074 31.9886 19.9616 32.0615C19.8083 32.1292 19.5675 32.2106 19.239 32.3055L18.4016 32.5474ZM18.9766 31.7244L19.2605 31.6424C19.4524 31.5869 19.5804 31.5229 19.6443 31.4502C19.7121 31.3808 19.7299 31.29 19.6974 31.1778C19.6623 31.0562 19.6006 30.9796 19.5124 30.9479C19.4253 30.9204 19.2831 30.9351 19.0858 30.9921L18.7898 31.0776L18.9766 31.7244Z" fill="white"/>
<path d="M20.3399 28.7712L21.1509 28.5369L21.5681 29.9805C21.6317 30.2008 21.6813 30.352 21.7167 30.434C21.7595 30.5315 21.8 30.6033 21.8382 30.6494C21.8888 30.7182 21.9586 30.7595 22.0476 30.7734C22.1381 30.7926 22.2388 30.7862 22.3496 30.7542C22.4591 30.7226 22.547 30.6745 22.6133 30.6099C22.6748 30.5541 22.7124 30.4817 22.7263 30.3928C22.7323 30.3324 22.7276 30.2503 22.7122 30.1464C22.7009 30.0618 22.6629 29.9073 22.598 29.6829L22.5395 29.4801L22.1809 28.2393L22.9859 28.0067L23.4393 29.576C23.5322 29.8977 23.5818 30.1426 23.5879 30.3108C23.5963 30.4767 23.5685 30.629 23.5046 30.7676C23.4347 30.9211 23.3208 31.0514 23.1628 31.1585C23.0074 31.2693 22.8019 31.3617 22.5464 31.4355C22.2856 31.5108 22.0619 31.5425 21.8753 31.5305C21.6873 31.5234 21.5214 31.4739 21.3777 31.3821C21.2532 31.3009 21.1485 31.1869 21.0636 31.0401C20.9756 30.8927 20.8855 30.6595 20.7934 30.3405L20.7043 30.0324L20.3399 28.7712Z" fill="white"/>
<path d="M24.9871 30.6446L24.5957 29.2902L23.0913 27.9762L24.0199 27.7079L24.6402 28.3569C24.6454 28.3598 24.6518 28.3667 24.6594 28.3777C24.7235 28.4426 24.7745 28.5099 24.8122 28.5796C24.8056 28.5112 24.8136 28.4298 24.8361 28.3354C24.8407 28.3107 24.8429 28.2983 24.8429 28.2983L25.0174 27.4197L25.9481 27.1508L25.3763 29.0647L25.7677 30.419L24.9871 30.6446Z" fill="white"/>
<path d="M15.1485 21.4959C15.3121 21.5988 15.4602 21.6673 15.5927 21.7015C15.731 21.7355 15.857 21.7365 15.9707 21.7043C16.0776 21.6741 16.1581 21.6199 16.212 21.5418C16.266 21.4636 16.2803 21.3799 16.2551 21.2905C16.2275 21.1931 16.1768 21.1248 16.1028 21.0857C16.0256 21.0506 15.8727 21.0346 15.6441 21.0378C15.3321 21.0412 15.0983 20.9977 14.9426 20.9072C14.7848 20.8143 14.6748 20.6583 14.6128 20.4389C14.5324 20.1546 14.5624 19.8961 14.7028 19.6634C14.8401 19.4301 15.061 19.2704 15.3657 19.1843C15.5376 19.1357 15.6996 19.114 15.8517 19.1193C16.0106 19.1226 16.1681 19.1497 16.3243 19.2006L16.2352 19.8552C16.1241 19.8033 16.0124 19.7705 15.9004 19.7569C15.7918 19.7452 15.6908 19.7525 15.5974 19.7789C15.5026 19.8057 15.4301 19.8518 15.3799 19.9172C15.3316 19.9791 15.318 20.0473 15.339 20.1218C15.3593 20.1935 15.4025 20.2456 15.4687 20.2781C15.5369 20.3071 15.6532 20.3202 15.8177 20.3176C15.8235 20.3174 15.8286 20.3174 15.833 20.3176C15.8371 20.3165 15.8436 20.3161 15.8525 20.3165C16.2077 20.3111 16.4536 20.3483 16.5902 20.4282C16.6788 20.4777 16.7577 20.5497 16.8268 20.6442C16.8903 20.7344 16.9401 20.8432 16.976 20.9705C17.0649 21.2846 17.0331 21.5677 16.8806 21.8199C16.7261 22.0697 16.4769 22.2433 16.133 22.3405C15.9218 22.4002 15.7232 22.4191 15.5371 22.3971C15.3524 22.3748 15.1579 22.3099 14.9535 22.2025L15.1485 21.4959Z" fill="white"/>
<path d="M17.7049 21.8106L16.8642 18.8374L18.6859 18.3223L18.8702 18.9742L17.8385 19.2659L17.9844 19.7818L18.9572 19.5067L19.1375 20.1444L18.1647 20.4194L18.3065 20.9211L19.3382 20.6294L19.5265 21.2955L17.7049 21.8106Z" fill="white"/>
<path d="M20.0647 21.1433L19.2241 18.1701L20.0344 17.941L20.6787 20.2197L21.686 19.9349L21.8823 20.6294L20.0647 21.1433Z" fill="white"/>
<path d="M22.2784 20.5174L21.4377 17.5443L22.248 17.3152L22.8923 19.5938L23.8996 19.309L24.096 20.0035L22.2784 20.5174Z" fill="white"/>
</svg>
