<svg width="60" height="60" viewBox="0 0 60 60" fill="none" xmlns="http://www.w3.org/2000/svg">
<path fill-rule="evenodd" clip-rule="evenodd" d="M43.0341 42.6113C43.8818 41.7636 43.683 40.3431 42.6613 39.7162C40.5176 38.4007 38.598 37.003 36.7897 35.3161C34.895 33.5485 33.1776 31.5152 31.4586 29.0161C30.6672 27.8654 28.9094 27.9185 28.163 29.0989C26.8784 31.1302 25.4551 32.9408 23.7385 34.6289C21.8723 36.4642 19.7144 38.1007 17.115 39.7088C16.0988 40.3375 15.9048 41.7534 16.7497 42.5983L26.915 52.7636C28.5627 54.4113 31.2341 54.4113 32.8817 52.7636L43.0341 42.6113Z" fill="#0747A6"/>
<path fill-rule="evenodd" clip-rule="evenodd" d="M32.8889 7.23575C31.2412 5.58808 28.5698 5.58808 26.9221 7.23575L7.23575 26.9221C5.58808 28.5698 5.58808 31.2412 7.23575 32.8889L10.6621 36.3152C10.9105 36.5636 11.3063 36.5687 11.6143 36.3997C15.3108 34.3704 17.8916 32.542 19.9199 30.5473C21.934 28.5666 23.5035 26.3233 25.0622 23.3464C27.0052 19.6355 32.3844 19.3651 34.6045 23.0249C36.8222 26.6809 38.7789 29.1587 40.892 31.13C43.0063 33.1024 45.3812 34.6655 48.5632 36.3934C48.8785 36.5647 49.2829 36.5597 49.5367 36.3059L52.7645 33.0781C54.4122 31.4304 54.4122 28.759 52.7645 27.1114L32.8889 7.23575Z" fill="#4C9AFF"/>
</svg>
