<svg width="200" height="104" viewBox="0 0 200 104" fill="none" xmlns="http://www.w3.org/2000/svg">
<g filter="url(#filter0_b_1050_12722)">
<rect width="200" height="104" rx="8" fill="white" fill-opacity="0.5"/>
<path d="M70.0578 77.0922C69.087 77.9174 68.1501 78.4999 67.2472 78.8397C66.3541 79.1795 65.3929 79.3494 64.3639 79.3494C62.6649 79.3494 61.3591 78.9368 60.4465 78.1116C59.5339 77.2767 59.0776 76.2136 59.0776 74.9224C59.0776 74.1651 59.2475 73.4759 59.5873 72.8545C59.9368 72.2235 60.3883 71.7186 60.9416 71.34C61.5047 70.9614 62.1358 70.675 62.8348 70.4808C63.3493 70.3449 64.126 70.2138 65.1648 70.0876C67.2812 69.8352 68.8394 69.5342 69.8394 69.1847C69.8491 68.8255 69.854 68.5974 69.854 68.5003C69.854 67.4324 69.6064 66.68 69.1113 66.2431C68.4414 65.6509 67.4463 65.3548 66.1259 65.3548C64.893 65.3548 63.9804 65.5732 63.3882 66.0101C62.8057 66.4373 62.3736 67.1994 62.0921 68.2964L59.5291 67.9469C59.7621 66.8499 60.1456 65.9664 60.6795 65.2965C61.2135 64.6169 61.9853 64.0975 62.995 63.7383C64.0046 63.3694 65.1745 63.185 66.5046 63.185C67.8249 63.185 68.8977 63.3403 69.7229 63.651C70.5481 63.9616 71.1549 64.3548 71.5432 64.8305C71.9315 65.2965 72.2034 65.8887 72.3587 66.6072C72.4461 67.0538 72.4898 67.8595 72.4898 69.0246V72.5196C72.4898 74.9564 72.5432 76.5 72.65 77.1505C72.7665 77.7912 72.9898 78.4077 73.3198 78.9999H70.5821C70.3102 78.4563 70.1355 77.8204 70.0578 77.0922ZM69.8394 71.2381C68.888 71.6264 67.4608 71.9565 65.558 72.2283C64.4804 72.3837 63.7182 72.5584 63.2717 72.7526C62.8251 72.9467 62.4804 73.2331 62.2377 73.6118C61.995 73.9807 61.8737 74.3933 61.8737 74.8496C61.8737 75.5486 62.1358 76.1311 62.66 76.5971C63.194 77.0631 63.9707 77.2961 64.99 77.2961C65.9997 77.2961 66.8977 77.0777 67.6841 76.6408C68.4705 76.1942 69.0482 75.5874 69.4171 74.8205C69.6986 74.2283 69.8394 73.3545 69.8394 72.1992V71.2381Z" fill="#808085"/>
<path d="M76.2691 78.9999V63.5345H78.6136V65.7043C79.0991 64.947 79.7447 64.3403 80.5505 63.884C81.3563 63.418 82.2737 63.185 83.3028 63.185C84.4484 63.185 85.3852 63.4228 86.1134 63.8985C86.8512 64.3742 87.3706 65.0393 87.6716 65.8936C88.8948 64.0878 90.487 63.185 92.4481 63.185C93.982 63.185 95.1616 63.6121 95.9868 64.4665C96.812 65.3111 97.2246 66.6169 97.2246 68.3838V78.9999H94.6179V69.2576C94.6179 68.209 94.5305 67.4566 94.3558 67.0004C94.1908 66.5344 93.8849 66.1606 93.4384 65.879C92.9918 65.5975 92.4675 65.4567 91.8656 65.4567C90.7782 65.4567 89.8754 65.8208 89.157 66.5489C88.4385 67.2673 88.0793 68.4226 88.0793 70.0148V78.9999H85.4581V68.9517C85.4581 67.7867 85.2445 66.913 84.8173 66.3305C84.3901 65.748 83.6911 65.4567 82.7203 65.4567C81.9825 65.4567 81.298 65.6509 80.667 66.0392C80.0456 66.4276 79.5942 66.9955 79.3126 67.743C79.0311 68.4906 78.8903 69.5682 78.8903 70.9759V78.9999H76.2691Z" fill="#808085"/>
<path d="M100.815 84.9269V63.5345H103.203V65.5441C103.766 64.7577 104.402 64.1704 105.111 63.782C105.819 63.384 106.678 63.185 107.688 63.185C109.008 63.185 110.173 63.5247 111.183 64.2043C112.193 64.8839 112.955 65.8451 113.469 67.0877C113.984 68.3207 114.241 69.675 114.241 71.1507C114.241 72.7332 113.955 74.1603 113.382 75.4321C112.819 76.6942 111.994 77.665 110.906 78.3446C109.829 79.0145 108.693 79.3494 107.499 79.3494C106.625 79.3494 105.839 79.165 105.14 78.7961C104.45 78.4271 103.882 77.9611 103.436 77.398V84.9269H100.815ZM103.188 71.3546C103.188 73.3448 103.591 74.8156 104.397 75.767C105.203 76.7185 106.178 77.1942 107.324 77.1942C108.489 77.1942 109.484 76.7039 110.309 75.7233C111.144 74.7331 111.562 73.204 111.562 71.1361C111.562 69.1653 111.154 67.6897 110.339 66.7091C109.533 65.7286 108.567 65.2383 107.441 65.2383C106.324 65.2383 105.334 65.7625 104.47 66.811C103.615 67.8498 103.188 69.3643 103.188 71.3546Z" fill="#808085"/>
<path d="M117.059 78.9999V57.6512H119.681V78.9999H117.059Z" fill="#808085"/>
<path d="M123.475 60.6656V57.6512H126.096V60.6656H123.475ZM123.475 78.9999V63.5345H126.096V78.9999H123.475Z" fill="#808085"/>
<path d="M130.428 78.9999V65.5732H128.113V63.5345H130.428V61.8889C130.428 60.8501 130.521 60.0783 130.705 59.5734C130.958 58.8938 131.399 58.3453 132.03 57.9279C132.671 57.5007 133.564 57.2871 134.71 57.2871C135.448 57.2871 136.263 57.3745 137.156 57.5492L136.763 59.8356C136.22 59.7385 135.705 59.6899 135.22 59.6899C134.423 59.6899 133.86 59.8598 133.53 60.1996C133.2 60.5394 133.035 61.1753 133.035 62.1073V63.5345H136.05V65.5732H133.035V78.9999H130.428Z" fill="#808085"/>
<path d="M137.819 60.6656V57.6512H140.441V60.6656H137.819ZM137.819 78.9999V63.5345H140.441V78.9999H137.819Z" fill="#808085"/>
<path fill-rule="evenodd" clip-rule="evenodd" d="M103.722 23.8882C103.327 23.3715 102.552 23.3628 102.146 23.8704L83.3427 47.3745C82.3077 48.6683 80.4198 48.878 79.126 47.843C77.8322 46.808 77.6225 44.9201 78.6575 43.6263L97.4607 20.1223C100.304 16.5687 105.728 16.6299 108.49 20.2467L126.384 43.6796C127.39 44.9965 127.138 46.8791 125.821 47.8847C124.504 48.8903 122.621 48.6379 121.616 47.3211L103.722 23.8882Z" fill="#2399D8"/>
<circle cx="102" cy="41" r="5" fill="#818186"/>
</g>
<defs>
<filter id="filter0_b_1050_12722" x="-16" y="-16" width="232" height="136" filterUnits="userSpaceOnUse" color-interpolation-filters="sRGB">
<feFlood flood-opacity="0" result="BackgroundImageFix"/>
<feGaussianBlur in="BackgroundImage" stdDeviation="8"/>
<feComposite in2="SourceAlpha" operator="in" result="effect1_backgroundBlur_1050_12722"/>
<feBlend mode="normal" in="SourceGraphic" in2="effect1_backgroundBlur_1050_12722" result="shape"/>
</filter>
</defs>
</svg>
