<svg width="200" height="104" viewBox="0 0 200 104" fill="none" xmlns="http://www.w3.org/2000/svg">
<g filter="url(#filter0_b_1050_12703)">
<rect width="200" height="104" rx="8" fill="white" fill-opacity="0.5"/>
<path d="M29.7266 50.0258L35.9028 44.0075L42.0816 50.0307L45.6733 46.527L35.9028 37L26.1323 46.5245L29.7266 50.0258Z" fill="#F3BA2F"/>
<path d="M20 52.501L23.5929 48.9985L27.1858 52.501L23.5929 56.0034L20 52.501Z" fill="#F3BA2F"/>
<path d="M29.7264 54.9741L35.9027 60.9949L42.0814 54.9717L45.6757 58.4705L45.6732 58.473L35.9027 68L26.1322 58.4779L26.1272 58.473L29.7264 54.9741Z" fill="#F3BA2F"/>
<path d="M44.6138 52.501L48.2067 48.9985L51.7996 52.501L48.2067 56.0034L44.6138 52.501Z" fill="#F3BA2F"/>
<path d="M39.5471 52.4985L35.9027 48.9434L33.2076 51.5706L32.8962 51.8717L32.2582 52.4936L32.2532 52.4985L32.2582 52.5059L35.9027 56.0561L39.5471 52.501L39.5496 52.4985H39.5471Z" fill="#F3BA2F"/>
<path d="M57.4053 44.5127H65.2217C67.1607 44.5127 68.6275 45.0024 69.6221 45.9818C69.9969 46.3436 70.2923 46.7758 70.4905 47.2522C70.6886 47.7287 70.7854 48.2394 70.775 48.7534V48.8C70.7817 49.221 70.7216 49.6406 70.5967 50.0438C70.4854 50.3908 70.3238 50.7206 70.1169 51.0232C69.924 51.3084 69.6906 51.5656 69.4237 51.7871C69.1629 52.0059 68.8772 52.1949 68.5722 52.3502C69.4517 52.6489 70.2426 53.1533 70.8755 53.8193C71.4347 54.4396 71.7144 55.2965 71.7144 56.3902V56.4367C71.7303 57.1197 71.5778 57.7965 71.2698 58.4102C70.9713 58.9756 70.5338 59.4601 69.9964 59.8205C69.3887 60.2176 68.7122 60.5038 67.9996 60.6652C67.153 60.8609 66.2851 60.9555 65.415 60.9468H57.4053V44.5127ZM64.438 51.1578C65.1143 51.1897 65.7872 51.0478 66.3896 50.7465C66.6245 50.6127 66.8163 50.4175 66.9432 50.183C67.0702 49.9484 67.1272 49.6839 67.1079 49.4194V49.3729C67.1204 49.1292 67.0696 48.8863 66.9603 48.6668C66.851 48.4472 66.6866 48.2581 66.4825 48.1168C66.0656 47.8279 65.4636 47.6835 64.6766 47.6835H61.0196V51.1578H64.438ZM65.4251 57.7809C66.0988 57.8177 66.7695 57.6674 67.3591 57.3475C67.5888 57.2037 67.7747 57.0024 67.8975 56.7647C68.0203 56.527 68.0755 56.2616 68.0573 55.996V55.9495C68.0664 55.6971 68.0118 55.4463 67.8984 55.2192C67.785 54.9922 67.6162 54.7956 67.4068 54.6469C66.9748 54.3204 66.2766 54.1572 65.3121 54.1572H61.0196V57.7809H65.4251Z" fill="#F3BA2F"/>
<path d="M76.3711 44.5127H80.0809V60.9517H76.3711V44.5127Z" fill="#F3BA2F"/>
<path d="M85.6946 44.5127H89.1155L97.0223 54.6297V44.5127H100.684V60.9517H97.5271L89.3616 50.5016V60.9517H85.6946V44.5127Z" fill="#F3BA2F"/>
<path d="M111.916 44.3945H115.332L122.558 60.951H118.685L117.143 57.2637H110.013L108.47 60.951H104.688L111.916 44.3945ZM115.82 54.0709L113.574 48.7381L111.339 54.0709H115.82Z" fill="#F3BA2F"/>
<path d="M126.57 44.5127H129.99L137.892 54.6297V44.5127H141.554V60.9517H138.397L130.232 50.5016V60.9517H126.57V44.5127Z" fill="#F3BA2F"/>
<path d="M154.907 61.2401C153.724 61.25 152.552 61.0268 151.461 60.5839C150.433 60.1703 149.501 59.5603 148.719 58.7899C147.937 58.0196 147.321 57.1044 146.907 56.0984C146.471 55.046 146.25 53.9206 146.256 52.7856V52.7391C146.237 50.5017 147.12 48.3465 148.715 46.7379C149.5 45.9521 150.44 45.3291 151.478 44.9064C152.608 44.4504 153.82 44.223 155.042 44.238C155.765 44.2327 156.487 44.2959 157.197 44.4265C157.805 44.5386 158.399 44.7117 158.971 44.9432C159.489 45.1558 159.982 45.4235 160.44 45.7414C160.887 46.0513 161.307 46.3969 161.696 46.7746L159.337 49.4287C158.735 48.8867 158.059 48.4279 157.328 48.0649C156.61 47.7304 155.823 47.5628 155.027 47.5753C154.365 47.5684 153.709 47.6989 153.103 47.9581C152.497 48.2173 151.954 48.5992 151.511 49.0786C151.071 49.5568 150.727 50.1106 150.496 50.7117C150.254 51.347 150.132 52.0198 150.137 52.6974V52.744C150.135 53.4206 150.256 54.0922 150.496 54.7272C150.724 55.3305 151.065 55.8875 151.501 56.3701C151.941 56.8555 152.482 57.243 153.089 57.5066C153.695 57.7702 154.353 57.9037 155.017 57.898C155.863 57.924 156.702 57.7465 157.461 57.3814C158.184 56.9976 158.851 56.5235 159.448 55.971L161.809 58.2971C161.392 58.7382 160.941 59.1474 160.46 59.5213C159.987 59.8855 159.474 60.1968 158.93 60.4493C158.351 60.7153 157.74 60.9118 157.112 61.0345C156.386 61.1763 155.647 61.2453 154.907 61.2401Z" fill="#F3BA2F"/>
<path d="M166.187 44.5127H178.878V47.73H169.836V51.0648H177.798V54.2821H169.849V57.7344H179.004V60.9517H166.194L166.187 44.5127Z" fill="#F3BA2F"/>
</g>
<defs>
<filter id="filter0_b_1050_12703" x="-16" y="-16" width="232" height="136" filterUnits="userSpaceOnUse" color-interpolation-filters="sRGB">
<feFlood flood-opacity="0" result="BackgroundImageFix"/>
<feGaussianBlur in="BackgroundImage" stdDeviation="8"/>
<feComposite in2="SourceAlpha" operator="in" result="effect1_backgroundBlur_1050_12703"/>
<feBlend mode="normal" in="SourceGraphic" in2="effect1_backgroundBlur_1050_12703" result="shape"/>
</filter>
</defs>
</svg>
