<svg width="200" height="104" viewBox="0 0 200 104" fill="none" xmlns="http://www.w3.org/2000/svg">
<g filter="url(#filter0_b_1050_12718)">
<path d="M0 8C0 3.58172 3.58172 0 8 0H192C196.418 0 200 3.58172 200 8V96C200 100.418 196.418 104 192 104H8C3.58173 104 0 100.418 0 96V8Z" fill="white" fill-opacity="0.5"/>
<path fill-rule="evenodd" clip-rule="evenodd" d="M102.095 10.712C101.818 10.2661 101.325 9.99599 100.795 10C100.264 10.0041 99.7751 10.2818 99.5051 10.7318L87.2004 31.244V11.7392C87.2004 11.0717 86.7504 10.4855 86.0988 10.3044C85.4472 10.1233 84.753 10.3914 84.3994 10.9607L62.7308 45.8511C62.3928 46.3953 62.4435 47.0911 62.8569 47.582L84.5255 73.3168C84.9324 73.8001 85.6029 73.98 86.202 73.7667C86.8011 73.5534 87.2004 72.9926 87.2004 72.3645V58.2714L99.6347 73.3067C99.9189 73.6504 100.344 73.8514 100.793 73.8552C101.243 73.8591 101.671 73.6653 101.961 73.3265L114.412 58.7902V72.3645C114.412 72.9926 114.811 73.5534 115.411 73.7667C116.01 73.98 116.68 73.8001 117.087 73.3168L138.756 47.582C139.169 47.0911 139.22 46.3953 138.882 45.8511L117.213 10.9607C116.86 10.3914 116.165 10.1233 115.514 10.3044C114.862 10.4855 114.412 11.0717 114.412 11.7392V30.5363L102.095 10.712ZM117.436 55.4689C117.436 55.4032 117.431 55.3386 117.423 55.2751L123.882 47.7347C124.302 47.2436 124.357 46.542 124.016 45.9939L117.436 35.4028V17.0279L135.738 46.4983L117.436 68.2354V55.4689ZM84.1769 54.6155L78.47 47.7149C78.0695 47.2306 78.0178 46.5515 78.3404 46.0137L84.1769 36.2842V17.0279L65.8743 46.4983L84.1769 68.2354V54.6155ZM81.4797 46.6365L99.2945 16.939V68.1777L81.4797 46.6365ZM120.867 46.6333L102.318 68.2892V16.7776L120.867 46.6333ZM66.8203 92.3358H68.7036V82.499H66.8203V92.3358ZM51 92.3358V83.0113H53.9095C54.7408 83.0113 55.4833 83.197 56.137 83.5685C56.7951 83.9356 57.3082 84.4608 57.6762 85.1439C58.0442 85.8227 58.2282 86.5955 58.2282 87.4622V87.8913C58.2282 88.758 58.0464 89.5287 57.6827 90.2032C57.3233 90.8778 56.8146 91.4008 56.1565 91.7723C55.4984 92.1437 54.7559 92.3316 53.929 92.3358H51ZM52.9483 84.5675V90.7924H53.89C54.652 90.7924 55.2343 90.5469 55.637 90.0559C56.0396 89.5649 56.2453 88.8626 56.2539 87.949V87.4558C56.2539 86.508 56.0548 85.7907 55.6565 85.304C55.2581 84.813 54.6758 84.5675 53.9095 84.5675H52.9483ZM62.7613 92.4639C61.7308 92.4639 60.8909 92.1523 60.2415 91.5289C59.5964 90.9056 59.2738 90.0751 59.2738 89.0377V88.8584C59.2738 88.1624 59.4102 87.5412 59.683 86.9947C59.9557 86.444 60.3411 86.0213 60.839 85.7267C61.3412 85.4278 61.9127 85.2784 62.5535 85.2784C63.5146 85.2784 64.2701 85.5773 64.82 86.175C65.3742 86.7727 65.6513 87.6202 65.6513 88.7175V89.4732H61.1767C61.2373 89.9257 61.4191 90.2886 61.7222 90.5619C62.0296 90.8351 62.4171 90.9717 62.8847 90.9717C63.6077 90.9717 64.1727 90.7134 64.5797 90.1968L65.5019 91.2151C65.2205 91.6079 64.8395 91.9153 64.3589 92.1373C63.8783 92.355 63.3458 92.4639 62.7613 92.4639ZM62.547 86.777C62.1746 86.777 61.8716 86.9008 61.6378 87.1484C61.4083 87.396 61.2611 87.7504 61.1961 88.2115H63.8069V88.0642C63.7982 87.6544 63.6856 87.3384 63.4692 87.1164C63.2527 86.8901 62.9453 86.777 62.547 86.777ZM72.5028 83.7029V85.4065H73.7043V86.7642H72.5028V90.2225C72.5028 90.4786 72.5526 90.6622 72.6522 90.7732C72.7518 90.8842 72.9423 90.9397 73.2237 90.9397C73.4315 90.9397 73.6155 90.9248 73.7757 90.8949V92.2974C73.4077 92.4084 73.0289 92.4639 72.6392 92.4639C71.323 92.4639 70.6519 91.8086 70.626 90.4978V86.7642H69.5998V85.4065H70.626V83.7029H72.5028ZM78.6335 91.7146C78.6725 91.9623 78.7352 92.1693 78.8218 92.3358H80.7182V92.227C80.5363 91.8897 80.4433 91.3923 80.4389 90.7348V87.7312C80.4389 86.9542 80.1835 86.3522 79.6726 85.9252C79.166 85.494 78.4798 85.2784 77.6139 85.2784C77.0424 85.2784 76.5272 85.3766 76.0682 85.573C75.6093 85.7651 75.2543 86.032 75.0031 86.3735C74.752 86.7151 74.6265 87.0865 74.6265 87.4878H76.5033C76.5033 87.2274 76.5921 87.0225 76.7696 86.873C76.9515 86.7236 77.2004 86.6489 77.5165 86.6489C77.8758 86.6489 78.1378 86.745 78.3023 86.9371C78.4711 87.1292 78.5556 87.3854 78.5556 87.7056V88.1027H77.6918C76.6484 88.1069 75.8496 88.3055 75.2954 88.6982C74.7455 89.091 74.4706 89.6546 74.4706 90.389C74.4706 90.9867 74.6957 91.4819 75.146 91.8747C75.6006 92.2675 76.1721 92.4639 76.8605 92.4639C77.5879 92.4639 78.1789 92.2142 78.6335 91.7146ZM78.036 90.8693C77.8022 90.9888 77.5468 91.0486 77.2697 91.0486C76.9839 91.0486 76.7588 90.9739 76.5943 90.8244C76.4297 90.675 76.3475 90.485 76.3475 90.2545L76.354 90.1456C76.4146 89.5052 76.9147 89.185 77.8542 89.185H78.5556V90.3761C78.443 90.5811 78.2698 90.7455 78.036 90.8693ZM89.6999 92.3358H87.7516V88.3396H83.9524V92.3358H82.0041V83.0113H83.9524V86.7898H87.7516V83.0113H89.6999V92.3358ZM93.5705 92.4639C94.3888 92.4639 95.0296 92.1864 95.4928 91.6314L95.5448 92.3358H97.3113V85.4065H95.4279V90.3121C95.1898 90.7476 94.7525 90.9653 94.116 90.9653C93.4493 90.9653 93.1159 90.6046 93.1159 89.883V85.4065H91.239V89.9471C91.2477 90.7711 91.449 91.3966 91.843 91.8235C92.2413 92.2505 92.8172 92.4639 93.5705 92.4639ZM105.059 88.9352C105.059 90.0453 104.819 90.912 104.338 91.5353C103.858 92.1544 103.187 92.4639 102.325 92.4639C101.563 92.4639 100.955 92.1757 100.5 91.5994L100.416 92.3358H98.727V82.499H100.604V86.0277C101.037 85.5282 101.606 85.2784 102.312 85.2784C103.169 85.2784 103.84 85.5901 104.325 86.2134C104.814 86.8325 105.059 87.7056 105.059 88.8327V88.9352ZM103.182 88.8007C103.182 88.1005 103.07 87.5903 102.844 87.2701C102.619 86.9456 102.284 86.7834 101.838 86.7834C101.24 86.7834 100.829 87.0246 100.604 87.5071V90.2417C100.833 90.7284 101.249 90.9717 101.851 90.9717C102.457 90.9717 102.855 90.6771 103.046 90.088C103.137 89.8062 103.182 89.3771 103.182 88.8007ZM115.95 91.5994C116.63 91.023 117.006 90.2331 117.08 89.2298H115.132C115.088 89.7976 114.917 90.2182 114.619 90.4914C114.324 90.7604 113.876 90.8949 113.274 90.8949C112.608 90.8949 112.118 90.6622 111.807 90.1968C111.499 89.7315 111.346 88.995 111.346 87.9874V87.2829C111.354 86.318 111.519 85.6071 111.839 85.1503C112.164 84.6892 112.651 84.4586 113.3 84.4586C113.898 84.4586 114.342 84.5953 114.632 84.8685C114.926 85.1375 115.097 85.573 115.145 86.175H117.093C116.989 85.1332 116.604 84.3242 115.937 83.7478C115.27 83.1714 114.391 82.8832 113.3 82.8832C112.512 82.8832 111.82 83.0668 111.222 83.434C110.629 83.7969 110.172 84.3199 109.852 85.003C109.531 85.6861 109.371 86.476 109.371 87.3726V87.9426C109.371 89.3472 109.718 90.453 110.41 91.2599C111.107 92.0626 112.062 92.4639 113.274 92.4639C114.383 92.4639 115.275 92.1757 115.95 91.5994ZM122.308 92.3358C122.221 92.1693 122.159 91.9623 122.12 91.7146C121.665 92.2142 121.074 92.4639 120.347 92.4639C119.658 92.4639 119.087 92.2675 118.632 91.8747C118.182 91.4819 117.957 90.9867 117.957 90.389C117.957 89.6546 118.232 89.091 118.782 88.6982C119.336 88.3055 120.135 88.1069 121.178 88.1027H122.042V87.7056C122.042 87.3854 121.957 87.1292 121.789 86.9371C121.624 86.745 121.362 86.6489 121.003 86.6489C120.687 86.6489 120.438 86.7236 120.256 86.873C120.078 87.0225 119.99 87.2274 119.99 87.4878H118.113C118.113 87.0865 118.238 86.7151 118.489 86.3735C118.74 86.032 119.096 85.7651 119.554 85.573C120.013 85.3766 120.529 85.2784 121.1 85.2784C121.966 85.2784 122.652 85.494 123.159 85.9252C123.67 86.3522 123.925 86.9542 123.925 87.7312V90.7348C123.929 91.3923 124.023 91.8897 124.204 92.227V92.3358H122.308ZM120.756 91.0486C121.033 91.0486 121.288 90.9888 121.522 90.8693C121.756 90.7455 121.929 90.5811 122.042 90.3761V89.185H121.34C120.401 89.185 119.901 89.5052 119.84 90.1456L119.834 90.2545C119.834 90.485 119.916 90.675 120.08 90.8244C120.245 90.9739 120.47 91.0486 120.756 91.0486ZM130.952 91.5033C131.446 90.8586 131.692 90.0026 131.692 88.9352V88.8391C131.692 87.7291 131.452 86.8581 130.972 86.2262C130.491 85.5943 129.818 85.2784 128.952 85.2784C128.22 85.2784 127.627 85.5474 127.172 86.0853L127.107 85.4065H125.367V95H127.244V91.7338C127.681 92.2206 128.255 92.4639 128.965 92.4639C129.8 92.4639 130.463 92.1437 130.952 91.5033ZM129.465 87.3085C129.699 87.6586 129.816 88.156 129.816 88.8007C129.816 90.2481 129.367 90.9717 128.471 90.9717C127.882 90.9717 127.473 90.7433 127.244 90.2865V87.4494C127.465 87.0054 127.869 86.7834 128.458 86.7834C128.9 86.7834 129.235 86.9584 129.465 87.3085ZM132.959 92.3358V85.4065H134.842V92.3358H132.959ZM132.848 83.6133C132.848 83.3358 132.941 83.1074 133.128 82.928C133.318 82.7487 133.576 82.6591 133.9 82.6591C134.221 82.6591 134.476 82.7487 134.667 82.928C134.857 83.1074 134.953 83.3358 134.953 83.6133C134.953 83.8951 134.855 84.1256 134.66 84.3049C134.47 84.4843 134.217 84.5739 133.9 84.5739C133.584 84.5739 133.329 84.4843 133.134 84.3049C132.944 84.1256 132.848 83.8951 132.848 83.6133ZM138.641 85.4065V83.7029H136.764V85.4065H135.738V86.7642H136.764V90.4978C136.79 91.8086 137.462 92.4639 138.778 92.4639C139.167 92.4639 139.546 92.4084 139.914 92.2974V90.8949C139.754 90.9248 139.57 90.9397 139.362 90.9397C139.081 90.9397 138.89 90.8842 138.791 90.7732C138.691 90.6622 138.641 90.4786 138.641 90.2225V86.7642H139.843V85.4065H138.641ZM144.96 92.3358C144.874 92.1693 144.811 91.9623 144.772 91.7146C144.317 92.2142 143.726 92.4639 142.999 92.4639C142.311 92.4639 141.739 92.2675 141.285 91.8747C140.834 91.4819 140.609 90.9867 140.609 90.389C140.609 89.6546 140.884 89.091 141.434 88.6982C141.988 88.3055 142.787 88.1069 143.83 88.1027H144.694V87.7056C144.694 87.3854 144.61 87.1292 144.441 86.9371C144.276 86.745 144.014 86.6489 143.655 86.6489C143.339 86.6489 143.09 86.7236 142.908 86.873C142.731 87.0225 142.642 87.2274 142.642 87.4878H140.765C140.765 87.0865 140.891 86.7151 141.142 86.3735C141.393 86.032 141.748 85.7651 142.207 85.573C142.666 85.3766 143.181 85.2784 143.752 85.2784C144.618 85.2784 145.305 85.494 145.811 85.9252C146.322 86.3522 146.577 86.9542 146.577 87.7312V90.7348C146.582 91.3923 146.675 91.8897 146.857 92.227V92.3358H144.96ZM143.408 91.0486C143.685 91.0486 143.941 90.9888 144.175 90.8693C144.408 90.7455 144.582 90.5811 144.694 90.3761V89.185H143.993C143.053 89.185 142.553 89.5052 142.493 90.1456L142.486 90.2545C142.486 90.485 142.568 90.675 142.733 90.8244C142.897 90.9739 143.122 91.0486 143.408 91.0486ZM148.117 92.3358H150V82.499H148.117V92.3358Z" fill="#154B70"/>
</g>
<defs>
<filter id="filter0_b_1050_12718" x="-16" y="-16" width="232" height="136" filterUnits="userSpaceOnUse" color-interpolation-filters="sRGB">
<feFlood flood-opacity="0" result="BackgroundImageFix"/>
<feGaussianBlur in="BackgroundImage" stdDeviation="8"/>
<feComposite in2="SourceAlpha" operator="in" result="effect1_backgroundBlur_1050_12718"/>
<feBlend mode="normal" in="SourceGraphic" in2="effect1_backgroundBlur_1050_12718" result="shape"/>
</filter>
</defs>
</svg>
