<svg width="200" height="104" viewBox="0 0 200 104" fill="none" xmlns="http://www.w3.org/2000/svg">
<g filter="url(#filter0_b_1050_12683)">
<rect width="200" height="104" rx="8" fill="white" fill-opacity="0.5"/>
<path d="M32.6965 24.3184V34.9079H21.876V24.3184H16V51.0725H21.876V40.3392H32.6965V51.0725H38.5726V24.3184H32.6965Z" fill="#0E4C71"/>
<path d="M111.077 24.3184V34.9079H100.242V24.3184H94.3806V51.0725H100.242V40.3392H111.077V51.0725H116.953V24.3184H111.077Z" fill="#0E4C71"/>
<path d="M55.2404 31.1865L58.7804 39.8075H51.6144L55.2404 31.1865ZM52.6033 24.1172L41.1379 51.0724H47.1286L49.5651 45.0664H60.8442L63.2949 51.0724H69.429L57.9634 24.1172H52.6033Z" fill="#0E4C71"/>
<path d="M69.8446 47.1783L73.3129 42.997C75.4847 45.0201 78.3179 46.1798 81.2814 46.2587C83.6748 46.2587 85.1224 45.2959 85.1224 43.7298V43.6579C85.1224 42.2211 84.2194 41.4021 79.7479 40.2527C74.3735 38.8158 70.9051 37.3789 70.9051 32.0626C70.9051 27.2061 74.7891 24.0019 80.2495 24.0019C83.8475 23.9455 87.3532 25.1441 90.1671 27.3929L87.1144 31.8327C85.1191 30.274 82.7022 29.3528 80.1779 29.1889C77.9277 29.1889 76.7382 30.2235 76.7382 31.531C76.7382 33.2983 77.8847 33.873 82.471 35.0513C87.8884 36.4881 90.9268 38.4134 90.9268 43.0832C90.9268 48.3996 86.8851 51.3883 81.138 51.3883C76.9644 51.3924 72.9348 49.8582 69.8159 47.0777" fill="#0E4C71"/>
<path d="M137.261 24.3184V51.0725H157.598V45.8423H143.109V40.2242H155.678V34.9798H143.109V29.5485H157.398V24.3184H137.261Z" fill="#0E4C71"/>
<path d="M178.265 24.3184L171.772 35.0516L165.409 24.3184H158.544L168.806 40.526V51.0725H174.682V40.4111L184.929 24.3184H178.265Z" fill="#0E4C71"/>
<path d="M134.954 51.0725L122.657 38.7588L118.573 42.8681L126.771 51.0725H134.954Z" fill="#586167"/>
<path d="M126.77 24.3184L122.614 28.4708L118.458 32.6377L122.614 36.7902L126.77 32.6377L130.912 28.4708L135.069 24.3184H126.77Z" fill="#0E4C71"/>
<path d="M94.395 62.2227L101.102 68.9041L94.395 75.6572V62.2227Z" fill="#0E4C71"/>
<path d="M111.364 76.6053C110.326 76.6197 109.297 76.4192 108.34 76.0162C107.441 75.6436 106.625 75.0944 105.941 74.401C105.256 73.7075 104.718 72.884 104.356 71.9786C103.969 71.0303 103.774 70.0143 103.782 68.99C103.772 66.9734 104.543 65.0316 105.932 63.573C106.627 62.8657 107.455 62.3041 108.368 61.9206C109.358 61.5076 110.421 61.3022 111.493 61.3172C112.128 61.3122 112.761 61.37 113.385 61.4897C113.913 61.5978 114.431 61.7517 114.932 61.9495C115.388 62.145 115.821 62.3907 116.222 62.6822C116.611 62.9572 116.975 63.2649 117.312 63.6018L115.248 66.0013C114.721 65.5117 114.128 65.1003 113.485 64.78C112.855 64.4747 112.163 64.3221 111.464 64.3346C110.872 64.3274 110.285 64.45 109.744 64.6938C109.223 64.9202 108.759 65.2586 108.383 65.6852C108.006 66.1087 107.705 66.5949 107.494 67.1221C107.286 67.698 107.18 68.3057 107.179 68.9181C107.18 69.5305 107.286 70.1383 107.494 70.7142C107.698 71.2415 107.994 71.7279 108.368 72.151C108.745 72.5807 109.209 72.9239 109.73 73.1568C110.274 73.4067 110.866 73.5343 111.464 73.5304C112.207 73.5507 112.944 73.3931 113.614 73.0706C114.247 72.7245 114.83 72.2944 115.348 71.7919L117.426 73.8897C117.06 74.2845 116.667 74.6542 116.251 74.996C115.83 75.3172 115.379 75.5963 114.904 75.8293C114.394 76.0643 113.861 76.2425 113.313 76.361C112.67 76.4812 112.018 76.5389 111.364 76.5335" fill="#586167"/>
<path d="M122.342 76.5619C121.833 76.565 121.325 76.4923 120.837 76.3463C120.38 76.2089 119.956 75.9792 119.59 75.671C119.241 75.3739 118.958 75.0068 118.759 74.5934C118.559 74.1411 118.456 73.6514 118.458 73.1565C118.444 72.6004 118.562 72.0487 118.802 71.5472C119.011 71.0996 119.332 70.7136 119.734 70.4265C120.164 70.1111 120.65 69.8819 121.167 69.7512C121.772 69.6021 122.393 69.5297 123.016 69.5358C123.525 69.5297 124.034 69.573 124.535 69.665C124.963 69.7414 125.385 69.8519 125.796 69.9954V69.7369C125.813 69.4474 125.766 69.1577 125.656 68.8892C125.547 68.6206 125.38 68.38 125.165 68.1851C124.646 67.7972 124.006 67.6085 123.36 67.6534C122.805 67.6468 122.252 67.7047 121.712 67.8258C121.223 67.9383 120.744 68.0872 120.278 68.2712L119.476 65.8143C120.102 65.5453 120.749 65.3289 121.41 65.1676C122.214 64.9809 123.037 64.894 123.861 64.9091C124.634 64.8867 125.405 64.9985 126.14 65.2396C126.718 65.4341 127.246 65.7529 127.688 66.1734C128.12 66.6101 128.435 67.1487 128.605 67.7396C128.814 68.4039 128.916 69.0977 128.906 69.7943V76.3894H125.81V75.1538C125.408 75.5962 124.92 75.9529 124.377 76.2027C123.745 76.4784 123.06 76.6109 122.371 76.5907L122.342 76.5619ZM123.345 74.3779C123.998 74.4045 124.64 74.2068 125.165 73.8174C125.386 73.6503 125.564 73.4327 125.683 73.1828C125.803 72.9328 125.861 72.6577 125.853 72.3807V71.8059C125.556 71.6691 125.243 71.5678 124.922 71.5041C124.554 71.4282 124.179 71.3897 123.804 71.3892C123.231 71.3565 122.662 71.4966 122.17 71.7916C121.99 71.9268 121.844 72.1027 121.745 72.3048C121.645 72.507 121.595 72.7299 121.597 72.9554C121.588 73.151 121.627 73.3458 121.709 73.5233C121.791 73.7008 121.915 73.8559 122.07 73.9756C122.448 74.2243 122.893 74.3498 123.345 74.3347" fill="#586167"/>
<path d="M131.027 65.0099H134.237V66.6335C134.627 66.1059 135.114 65.6573 135.671 65.3117C136.312 64.9479 137.041 64.7688 137.777 64.7944C138.435 64.7946 139.087 64.9215 139.698 65.1679C140.323 65.4218 140.886 65.8092 141.346 66.3031C141.844 66.8442 142.237 67.4725 142.507 68.1566C142.808 68.9548 142.953 69.8035 142.936 70.6567C142.952 71.5145 142.807 72.3675 142.507 73.1711C142.238 73.8484 141.85 74.4713 141.36 75.0104C140.903 75.5005 140.345 75.8874 139.726 76.1455C139.108 76.3973 138.445 76.5243 137.777 76.5191C137.037 76.5509 136.303 76.3768 135.656 76.0162C135.119 75.6959 134.636 75.2935 134.223 74.8235V79.7951H131.013L131.027 65.0099ZM136.946 73.8322C137.311 73.8341 137.671 73.7607 138.006 73.6166C138.336 73.4632 138.632 73.2487 138.881 72.9844C139.143 72.6932 139.352 72.3576 139.498 71.993C139.641 71.5771 139.714 71.1399 139.713 70.6998C139.71 70.2647 139.637 69.8329 139.498 69.421C139.356 69.0548 139.147 68.7184 138.881 68.4295C138.632 68.1615 138.336 67.9422 138.006 67.783C137.671 67.6388 137.311 67.5654 136.946 67.5675C136.581 67.5625 136.22 67.6359 135.886 67.783C135.554 67.9384 135.257 68.1583 135.011 68.4295C134.755 68.72 134.555 69.0564 134.424 69.421C134.272 69.8303 134.194 70.2633 134.194 70.6998C134.193 71.1364 134.271 71.5697 134.424 71.9786C134.559 72.346 134.758 72.6865 135.011 72.9844C135.258 73.2514 135.555 73.4664 135.886 73.6166C136.22 73.7636 136.581 73.8372 136.946 73.8322Z" fill="#586167"/>
<path d="M144.584 60.9004H147.967V63.7742H144.584V60.9004ZM144.671 65.0098H147.881V76.3609H144.671V65.0098Z" fill="#586167"/>
<path d="M153.987 76.5473C153.537 76.5495 153.091 76.4965 152.653 76.3892C152.27 76.2907 151.915 76.0981 151.622 75.8288C151.314 75.5408 151.082 75.1802 150.949 74.7799C150.76 74.255 150.673 73.6994 150.69 73.1419V67.7538H149.343V65.0094H150.69V62.1357H153.873V65.0094H156.538V67.7538H153.873V72.6103C153.873 73.3432 154.231 73.7168 154.903 73.7168C155.463 73.7184 156.012 73.5695 156.494 73.2857V75.8721C156.144 76.0789 155.769 76.2382 155.377 76.3461C154.912 76.4817 154.429 76.5447 153.944 76.533" fill="#586167"/>
<path d="M161.439 76.5619C160.954 76.558 160.471 76.4855 160.006 76.3463C159.548 76.212 159.123 75.9818 158.759 75.671C158.41 75.3739 158.127 75.0068 157.928 74.5934C157.728 74.1411 157.625 73.6514 157.627 73.1565C157.612 72.6004 157.73 72.0487 157.971 71.5472C158.179 71.0996 158.501 70.7136 158.902 70.4265C159.331 70.1082 159.818 69.8787 160.336 69.7512C160.941 69.6021 161.561 69.5297 162.184 69.5358C162.694 69.5297 163.203 69.573 163.703 69.665C164.128 69.7395 164.545 69.8502 164.95 69.9954V69.7369C164.97 69.4485 164.924 69.1596 164.818 68.891C164.711 68.6226 164.546 68.3814 164.335 68.1851C163.815 67.7972 163.174 67.6085 162.528 67.6534C161.974 67.6468 161.422 67.7047 160.88 67.8258C160.392 67.9383 159.913 68.0872 159.447 68.2712L158.645 65.8143C159.27 65.5453 159.917 65.3289 160.579 65.1676C161.383 64.9809 162.206 64.894 163.031 64.9091C163.803 64.8867 164.574 64.9985 165.309 65.2396C165.887 65.4341 166.415 65.7529 166.857 66.1734C167.284 66.6138 167.599 67.151 167.774 67.7396C167.984 68.4039 168.084 69.0977 168.075 69.7943V76.3894H164.979V75.1538C164.576 75.5962 164.089 75.9529 163.545 76.2027C162.914 76.4784 162.229 76.6109 161.539 76.5907L161.439 76.5619ZM162.514 74.3779C163.167 74.4045 163.809 74.2068 164.335 73.8174C164.554 73.6503 164.732 73.4327 164.852 73.1828C164.972 72.9328 165.03 72.6577 165.022 72.3807V71.8059C164.724 71.6691 164.411 71.5678 164.091 71.5041C163.723 71.4282 163.349 71.3897 162.972 71.3892C162.405 71.3594 161.842 71.4994 161.354 71.7916C161.161 71.9164 161.004 72.0892 160.898 72.2934C160.793 72.4975 160.742 72.7257 160.751 72.9554C160.745 73.152 160.787 73.3472 160.872 73.5247C160.957 73.702 161.082 73.8566 161.238 73.9756C161.617 74.2243 162.062 74.3498 162.514 74.3347" fill="#586167"/>
<path d="M173.42 60.9004H170.211V76.3609H173.42V60.9004Z" fill="#586167"/>
</g>
<defs>
<filter id="filter0_b_1050_12683" x="-16" y="-16" width="232" height="136" filterUnits="userSpaceOnUse" color-interpolation-filters="sRGB">
<feFlood flood-opacity="0" result="BackgroundImageFix"/>
<feGaussianBlur in="BackgroundImage" stdDeviation="8"/>
<feComposite in2="SourceAlpha" operator="in" result="effect1_backgroundBlur_1050_12683"/>
<feBlend mode="normal" in="SourceGraphic" in2="effect1_backgroundBlur_1050_12683" result="shape"/>
</filter>
</defs>
</svg>
