<svg width="40" height="41" viewBox="0 0 40 41" fill="none" xmlns="http://www.w3.org/2000/svg">
<path d="M20.0302 10.1855L15.3928 12.72L12.6455 11.245L20.0082 7.23535L27.3709 11.245L24.6676 12.72L20.0302 10.1855Z" fill="#CED6F4"/>
<path d="M24.6901 14.8389L27.3934 16.3139V19.264L22.756 21.7986V26.8678L20.0526 28.3428L17.3493 26.8678V21.7986L12.7119 19.264V16.3139L15.4153 14.8389L20.0526 17.3735L24.6901 14.8389Z" fill="#CED6F4"/>
<path d="M27.3908 21.3828V24.3329L24.6875 25.808V22.8579L27.3908 21.3828Z" fill="#CED6F4"/>
<path d="M24.6875 27.9284L29.3249 25.3938H29.3469V20.3247L32.0502 18.8496V26.8689L24.6875 30.8785V27.9284Z" fill="#CED6F4"/>
<path d="M29.3293 15.2538L26.626 13.7788L29.3293 12.3037L32.0326 13.7788V16.7289L29.3293 18.2039V15.2538Z" fill="#CED6F4"/>
<path d="M17.3262 31.9354V28.9854L20.0295 30.4604L22.7328 28.9854V31.9354L20.0295 33.4105L17.3262 31.9354Z" fill="#CED6F4"/>
<path d="M15.3928 25.808L12.6895 24.3329V21.3828L15.3928 22.8579V25.808Z" fill="#CED6F4"/>
<path d="M20.0295 15.2538L17.3262 13.7788L20.0295 12.3037L22.7328 13.7788L20.0295 15.2538Z" fill="#CED6F4"/>
<path d="M13.4574 13.7788L10.7541 15.2538V18.2039L8.05078 16.7289V13.7788L10.7541 12.3037L13.4574 13.7788Z" fill="#CED6F4"/>
<path d="M8.05078 18.8496L10.7541 20.3247H10.7761V25.3938L15.4135 27.9284V30.8785L8.05078 26.8689V18.8496Z" fill="#CED6F4"/>
<rect x="0.5" y="0.558594" width="39" height="39" rx="19.5" stroke="#CED6F4"/>
</svg>
