<svg width="40" height="41" viewBox="0 0 40 41" fill="none" xmlns="http://www.w3.org/2000/svg">
<g clip-path="url(#clip0_2678_14471)">
<path d="M22.9085 14.6109C22.9085 10.5932 20.9718 7.13184 19.4884 5.99866C19.4884 5.99866 19.3853 5.93685 19.3853 6.10167C19.2617 13.8692 15.3265 15.9913 13.1425 18.814C8.13589 25.3658 12.7923 32.5358 17.531 33.8544C20.1889 34.5962 16.9129 32.5358 16.5009 28.2091C16.0064 22.9552 22.9085 18.9582 22.9085 14.6109Z" fill="#CED6F4"/>
<path d="M25.5044 17.2694C25.4838 17.2488 25.4426 17.2488 25.4014 17.2694C25.4014 17.2694 25.4014 17.2694 25.3807 17.29C25.2983 18.2583 24.227 20.3599 22.8877 22.276C18.3344 28.7867 20.9304 31.9184 22.3933 33.6078C23.238 34.5968 22.3933 33.6078 24.5154 32.5983C24.6802 32.5159 28.6361 30.4143 29.0688 25.6549C29.5014 21.0192 26.5551 18.1141 25.5044 17.2694Z" fill="#CED6F4"/>
</g>
<rect x="0.5" y="0.558594" width="39" height="39" rx="19.5" stroke="#CED6F4"/>
<defs>
<clipPath id="clip0_2678_14471">
<rect width="18.131" height="28" fill="white" transform="translate(11 6)"/>
</clipPath>
</defs>
</svg>
