<svg width="40" height="41" viewBox="0 0 40 41" fill="none" xmlns="http://www.w3.org/2000/svg">
<path fill-rule="evenodd" clip-rule="evenodd" d="M28.929 21.8209C28.929 25.5726 29.1745 25.1152 27.2838 26.3028C26.5088 26.7896 25.5377 27.6796 24.4355 27.2466C24.0228 27.0845 22.4718 26.1185 22.0136 25.7947C20.8481 24.9709 21.236 24.3075 21.164 22.6416C20.3547 22.9444 19.835 23.5218 19.0392 23.7605C18.9053 27.2015 19.1684 26.722 21.5295 28.1302C25.5724 30.5416 24.4744 30.6706 28.5309 28.2255C31.7272 26.2989 31.1685 27.297 31.1685 20.4777C31.1685 18.8095 28.9827 18.0543 26.7476 16.6943C24.3466 15.2334 25.0036 15.9793 21.1901 18.0271C20.7009 18.2898 20.4772 18.5003 19.9582 18.8066L15.9623 21.2062C14.8305 21.8594 13.9227 20.9336 13.0881 20.4465C10.9763 19.2141 11.2526 19.4341 11.2526 15.9434C11.2526 14.1954 11.7796 14.467 12.8813 13.7536C14.7612 12.5361 14.9555 11.921 18.1389 14.2286C19.2501 15.034 18.9073 15.7854 18.9834 17.4092C19.5107 17.2222 19.747 17.0135 20.2302 16.7324C21.2252 16.1536 21.1431 16.3444 21.1431 14.6C21.1431 12.7686 20.1414 12.8354 17.271 11.0606C14.404 9.28806 15.3295 9.66736 10.1812 12.7285C9.00387 13.4286 9.05114 13.5999 9.06432 15.2693C9.096 19.2713 8.51792 20.3387 10.3136 21.38C16.5173 24.9775 13.8622 24.6933 19.879 21.422C24.9596 18.6599 24.0564 17.715 27.2191 19.5862C28.2813 20.2147 28.9293 20.2299 28.9293 21.8211L28.929 21.8209Z" fill="#CED6F4"/>
<rect x="0.5" y="0.558594" width="39" height="39" rx="19.5" stroke="#CED6F4"/>
</svg>
