<svg width="127" height="16" viewBox="0 0 127 16" fill="none" xmlns="http://www.w3.org/2000/svg">
<path d="M23.2473 6.23991H20.6151V4.31781H28.2913V6.23991H25.6714V12.8877H23.2473V6.23991ZM29.2588 6.25216H31.5849V12.8877H29.2588V6.25216ZM30.4218 5.51759C29.9974 5.51759 29.6546 5.39925 29.3934 5.16256C29.1323 4.92586 29.0017 4.63204 29.0017 4.28108C29.0017 3.93013 29.1323 3.6363 29.3934 3.39961C29.6546 3.16292 29.9974 3.04457 30.4218 3.04457C30.8462 3.04457 31.189 3.15884 31.4502 3.38737C31.7114 3.60774 31.842 3.8934 31.842 4.24436C31.842 4.61164 31.7114 4.9177 31.4502 5.16256C31.189 5.39925 30.8462 5.51759 30.4218 5.51759ZM40.4544 3.80362V12.8877H38.2385V12.2266C37.8059 12.7408 37.157 12.9979 36.2919 12.9979C35.6879 12.9979 35.137 12.8591 34.6391 12.5816C34.1413 12.296 33.7454 11.892 33.4516 11.3696C33.1659 10.8472 33.0231 10.2433 33.0231 9.55768C33.0231 8.87209 33.1659 8.2722 33.4516 7.75801C33.7454 7.23565 34.1413 6.83572 34.6391 6.55822C35.137 6.28072 35.6879 6.14197 36.2919 6.14197C37.0836 6.14197 37.6957 6.3705 38.1283 6.82756V3.80362H40.4544ZM36.7816 11.1492C37.1815 11.1492 37.5121 11.0105 37.7733 10.733C38.0344 10.4473 38.165 10.0556 38.165 9.55768C38.165 9.06798 38.0344 8.68437 37.7733 8.40687C37.5202 8.12937 37.1897 7.99062 36.7816 7.99062C36.3735 7.99062 36.0389 8.12937 35.7777 8.40687C35.5165 8.68437 35.3859 9.06798 35.3859 9.55768C35.3859 10.0556 35.5165 10.4473 35.7777 10.733C36.0389 11.0105 36.3735 11.1492 36.7816 11.1492ZM45.0851 6.14197C46.187 6.14197 47.0276 6.39499 47.6071 6.90102C48.1866 7.39889 48.4763 8.1661 48.4763 9.20264V12.8877H46.3094V12.0307C45.9748 12.6755 45.3218 12.9979 44.3506 12.9979C43.8364 12.9979 43.3915 12.9081 43.0161 12.7285C42.6407 12.549 42.355 12.3082 42.1591 12.0062C41.9714 11.6961 41.8775 11.3451 41.8775 10.9534C41.8775 10.3249 42.1183 9.83927 42.5998 9.49647C43.0814 9.14551 43.8241 8.97003 44.828 8.97003H46.1502C46.1094 8.26812 45.6401 7.91716 44.7423 7.91716C44.424 7.91716 44.1016 7.97021 43.7751 8.07632C43.4487 8.17426 43.1712 8.31301 42.9426 8.49257L42.1591 6.91326C42.5264 6.66841 42.9712 6.48069 43.4936 6.3501C44.0241 6.21135 44.5546 6.14197 45.0851 6.14197ZM44.9994 11.5288C45.2688 11.5288 45.5054 11.4635 45.7095 11.3329C45.9135 11.2023 46.0605 11.0105 46.1502 10.7575V10.1821H45.1463C44.4689 10.1821 44.1302 10.4065 44.1302 10.8554C44.1302 11.0595 44.2077 11.2227 44.3628 11.3451C44.5179 11.4675 44.7301 11.5288 44.9994 11.5288ZM50.2507 3.80362H52.5768V12.8877H50.2507V3.80362ZM60.7977 6.19094V8.07632H64.5806V9.94945H60.7977V12.8877H58.3736V4.31781H65.0948V6.19094H60.7977ZM66.3049 6.25216H68.631V12.8877H66.3049V6.25216ZM67.4679 5.51759C67.0435 5.51759 66.7007 5.39925 66.4395 5.16256C66.1783 4.92586 66.0478 4.63204 66.0478 4.28108C66.0478 3.93013 66.1783 3.6363 66.4395 3.39961C66.7007 3.16292 67.0435 3.04457 67.4679 3.04457C67.8923 3.04457 68.2351 3.15884 68.4963 3.38737C68.7575 3.60774 68.8881 3.8934 68.8881 4.24436C68.8881 4.61164 68.7575 4.9177 68.4963 5.16256C68.2351 5.39925 67.8923 5.51759 67.4679 5.51759ZM74.7704 6.14197C75.5947 6.14197 76.2558 6.38683 76.7537 6.87653C77.2597 7.36624 77.5128 8.10488 77.5128 9.09246V12.8877H75.1866V9.47198C75.1866 8.56603 74.8234 8.11305 74.097 8.11305C73.6971 8.11305 73.3747 8.24363 73.1299 8.50481C72.8932 8.76599 72.7748 9.15776 72.7748 9.68011V12.8877H70.4487V6.25216H72.6646V6.97448C72.9258 6.70514 73.236 6.50109 73.5951 6.36234C73.9542 6.21543 74.346 6.14197 74.7704 6.14197ZM82.1073 6.14197C83.2091 6.14197 84.0498 6.39499 84.6293 6.90102C85.2088 7.39889 85.4985 8.1661 85.4985 9.20264V12.8877H83.3316V12.0307C82.9969 12.6755 82.344 12.9979 81.3727 12.9979C80.8585 12.9979 80.4137 12.9081 80.0383 12.7285C79.6628 12.549 79.3772 12.3082 79.1813 12.0062C78.9936 11.6961 78.8997 11.3451 78.8997 10.9534C78.8997 10.3249 79.1405 9.83927 79.622 9.49647C80.1036 9.14551 80.8463 8.97003 81.8502 8.97003H83.1724C83.1316 8.26812 82.6623 7.91716 81.7645 7.91716C81.4462 7.91716 81.1238 7.97021 80.7973 8.07632C80.4709 8.17426 80.1934 8.31301 79.9648 8.49257L79.1813 6.91326C79.5486 6.66841 79.9934 6.48069 80.5158 6.3501C81.0463 6.21135 81.5768 6.14197 82.1073 6.14197ZM82.0216 11.5288C82.2909 11.5288 82.5276 11.4635 82.7317 11.3329C82.9357 11.2023 83.0826 11.0105 83.1724 10.7575V10.1821H82.1685C81.4911 10.1821 81.1524 10.4065 81.1524 10.8554C81.1524 11.0595 81.2299 11.2227 81.385 11.3451C81.5401 11.4675 81.7523 11.5288 82.0216 11.5288ZM91.5945 6.14197C92.4189 6.14197 93.08 6.38683 93.5778 6.87653C94.0839 7.36624 94.3369 8.10488 94.3369 9.09246V12.8877H92.0108V9.47198C92.0108 8.56603 91.6476 8.11305 90.9212 8.11305C90.5213 8.11305 90.1989 8.24363 89.954 8.50481C89.7173 8.76599 89.599 9.15776 89.599 9.68011V12.8877H87.2729V6.25216H89.4888V6.97448C89.75 6.70514 90.0601 6.50109 90.4192 6.36234C90.7783 6.21543 91.1701 6.14197 91.5945 6.14197ZM99.5902 12.9979C98.8557 12.9979 98.1987 12.851 97.6192 12.5571C97.0397 12.2633 96.5867 11.8552 96.2602 11.3329C95.9419 10.8105 95.7828 10.2188 95.7828 9.55768C95.7828 8.89658 95.9419 8.30893 96.2602 7.79474C96.5867 7.27238 97.0397 6.86837 97.6192 6.58271C98.1987 6.28888 98.8557 6.14197 99.5902 6.14197C100.341 6.14197 100.99 6.30521 101.537 6.63168C102.084 6.94999 102.471 7.39481 102.7 7.96613L100.9 8.88434C100.598 8.28852 100.157 7.99062 99.578 7.99062C99.1618 7.99062 98.8149 8.12937 98.5374 8.40687C98.268 8.68437 98.1334 9.06798 98.1334 9.55768C98.1334 10.0556 98.268 10.4473 98.5374 10.733C98.8149 11.0105 99.1618 11.1492 99.578 11.1492C100.157 11.1492 100.598 10.8513 100.9 10.2555L102.7 11.1737C102.471 11.745 102.084 12.1939 101.537 12.5204C100.99 12.8387 100.341 12.9979 99.5902 12.9979ZM110.593 9.58217C110.593 9.59849 110.58 9.79029 110.556 10.1576H105.732C105.83 10.5004 106.018 10.7656 106.295 10.9534C106.581 11.1329 106.936 11.2227 107.36 11.2227C107.679 11.2227 107.952 11.1778 108.181 11.088C108.417 10.9982 108.654 10.8513 108.891 10.6473L110.115 11.9205C109.47 12.6388 108.528 12.9979 107.287 12.9979C106.512 12.9979 105.83 12.851 105.242 12.5571C104.655 12.2633 104.198 11.8552 103.871 11.3329C103.553 10.8105 103.394 10.2188 103.394 9.55768C103.394 8.90474 103.549 8.32117 103.859 7.80698C104.177 7.28462 104.614 6.87653 105.169 6.58271C105.724 6.28888 106.348 6.14197 107.042 6.14197C107.703 6.14197 108.303 6.28072 108.842 6.55822C109.38 6.82756 109.805 7.22341 110.115 7.74576C110.433 8.25996 110.593 8.87209 110.593 9.58217ZM107.054 7.79474C106.695 7.79474 106.393 7.89676 106.148 8.1008C105.912 8.30485 105.761 8.58235 105.695 8.93331H108.413C108.348 8.58235 108.193 8.30485 107.948 8.1008C107.711 7.89676 107.413 7.79474 107.054 7.79474Z" fill="white"/>
<g clip-path="url(#clip0_1275_1416)">
<path d="M0.587537 4.30208C1.11547 4.31986 1.60744 4.47696 2.10354 4.63695C3.90274 5.21574 5.71517 5.43609 7.57845 4.91188C8.80507 4.56709 10.0205 4.12183 11.3344 4.29878L11.8602 4.34012C12.9029 4.75439 13.9939 5.03432 15.1072 5.17316C15.4214 5.2145 15.8683 5.44023 16.0143 4.87591V2.86793C15.9878 2.67983 15.8766 2.57854 15.6926 2.54629L15.0403 2.51694C13.8542 2.31974 12.764 1.73144 11.5481 1.65413C10.9931 1.60682 10.4352 1.60516 9.87996 1.64917C8.63474 1.76534 7.48419 2.27302 6.26957 2.51363L5.51177 2.5434H5.16698C4.87056 2.5434 4.57496 2.45823 4.27813 2.53554C3.19125 2.24615 2.16225 1.75005 1.02328 1.65372C0.692545 1.68721 0.293596 1.41146 0.0467845 1.8563C0.0691091 1.85878 0.0918472 1.86043 0.114585 1.86084L0.118719 1.85754C0.117194 1.85965 0.115813 1.86186 0.114585 1.86415V1.86126L0.0471979 1.85671C-0.0135747 2.56324 0.00502914 3.27019 0.0376893 3.97672C0.0819251 4.31655 0.356849 4.29464 0.587537 4.30208Z" fill="white"/>
<path d="M0.0519653 8.76267C0.0519653 8.87677 0.196662 8.96938 0.350867 8.92804C1.29429 9.01485 2.15999 9.38486 3.04884 9.67012L3.46929 9.70692C3.68427 9.84707 3.92033 9.84955 4.16218 9.80986C4.29472 9.85954 4.43983 9.86476 4.5756 9.82474C5.12127 9.94417 5.68652 9.94219 6.23134 9.81895L6.5166 9.80986C6.75804 9.85947 6.99079 9.80614 7.22686 9.76066C8.36086 9.54155 9.39565 8.92184 10.5855 8.92928H10.731C11.7732 8.94912 12.7154 9.36502 13.6874 9.66888L14.1008 9.71023C14.355 9.86691 14.632 9.84376 14.9098 9.81482L15.1 9.8235C15.3762 9.89254 15.654 9.98887 15.9178 9.78629C16.1158 8.99418 16.0918 8.20083 15.9335 7.40665C15.1939 7.13669 14.3753 7.22806 13.646 6.86673C13.1396 6.61537 12.5856 6.44545 12.0023 6.44091L11.8183 6.42189C11.694 6.38928 11.568 6.36388 11.4408 6.34582C10.0509 6.22179 8.71516 6.45538 7.41992 6.95768C7.09307 7.08818 6.75178 7.17909 6.40332 7.22847C4.94767 7.42402 3.58753 7.10734 2.22779 6.61082C1.57335 6.37187 0.863507 6.15193 0.140437 6.44545C-0.120844 7.21069 0.0618874 7.99123 0.0519653 8.76267ZM10.0832 8.90819C10.1005 8.93589 10.0832 8.92721 10.0832 8.90819V8.90819ZM10.0832 8.90406C10.0851 8.89728 10.089 8.89123 10.0943 8.88669L10.1187 8.88876L10.0832 8.90406Z" fill="white"/>
<path d="M16.0143 11.9381C16.0362 11.8029 15.9804 11.7624 15.8547 11.8062C15.7894 11.4866 15.5318 11.614 15.3586 11.6136C10.4574 11.6078 5.55672 11.6067 0.656604 11.6103C0.513148 11.6103 0.356875 11.5631 0.227889 11.6748C0.0848456 11.7037 0.011257 11.7843 0.0348219 11.9364V13.9448C0.0100168 14.0494 0.0232462 14.1354 0.144378 14.1685C0.283287 14.3591 0.487102 14.2743 0.659912 14.2743C5.557 14.2793 10.4537 14.2793 15.3499 14.2743C15.5401 14.2743 15.7654 14.3686 15.9151 14.1532C16.0139 14.116 16.0428 14.0441 16.018 13.9465C16.0164 13.2765 16.0151 12.607 16.0143 11.9381Z" fill="white"/>
</g>
<defs>
<clipPath id="clip0_1275_1416">
<rect width="16.0597" height="12.6944" fill="white" transform="translate(0 1.59961)"/>
</clipPath>
</defs>
</svg>
