<svg width="58" height="56" viewBox="0 0 58 56" fill="none" xmlns="http://www.w3.org/2000/svg">
<g opacity="0.5">
<g clip-path="url(#clip0_1050_13185)">
<path d="M2 0H58" stroke="url(#paint0_linear_1050_13185)" stroke-linecap="round" stroke-linejoin="round" stroke-dasharray="0.12 2"/>
<path d="M2 1.86621H58" stroke="url(#paint1_linear_1050_13185)" stroke-linecap="round" stroke-linejoin="round" stroke-dasharray="0.12 2"/>
<path d="M2 3.7334H58" stroke="url(#paint2_linear_1050_13185)" stroke-linecap="round" stroke-linejoin="round" stroke-dasharray="0.12 2"/>
<path d="M2 5.59961H58" stroke="url(#paint3_linear_1050_13185)" stroke-linecap="round" stroke-linejoin="round" stroke-dasharray="0.12 2"/>
<path d="M2 7.4668H58" stroke="url(#paint4_linear_1050_13185)" stroke-linecap="round" stroke-linejoin="round" stroke-dasharray="0.12 2"/>
<path d="M2 9.33301H58" stroke="url(#paint5_linear_1050_13185)" stroke-linecap="round" stroke-linejoin="round" stroke-dasharray="0.12 2"/>
<path d="M2 11.2002H58" stroke="url(#paint6_linear_1050_13185)" stroke-linecap="round" stroke-linejoin="round" stroke-dasharray="0.12 2"/>
<path d="M2 13.0664H58" stroke="url(#paint7_linear_1050_13185)" stroke-linecap="round" stroke-linejoin="round" stroke-dasharray="0.12 2"/>
<path d="M2 14.9336H58" stroke="url(#paint8_linear_1050_13185)" stroke-linecap="round" stroke-linejoin="round" stroke-dasharray="0.12 2"/>
<path d="M2 16.7998H58" stroke="url(#paint9_linear_1050_13185)" stroke-linecap="round" stroke-linejoin="round" stroke-dasharray="0.12 2"/>
<path d="M2 18.667H58" stroke="url(#paint10_linear_1050_13185)" stroke-linecap="round" stroke-linejoin="round" stroke-dasharray="0.12 2"/>
<path d="M2 20.5332H58" stroke="url(#paint11_linear_1050_13185)" stroke-linecap="round" stroke-linejoin="round" stroke-dasharray="0.12 2"/>
<path d="M2 22.4004H58" stroke="url(#paint12_linear_1050_13185)" stroke-linecap="round" stroke-linejoin="round" stroke-dasharray="0.12 2"/>
<path d="M2 24.2666H58" stroke="url(#paint13_linear_1050_13185)" stroke-linecap="round" stroke-linejoin="round" stroke-dasharray="0.12 2"/>
<path d="M2 26.1328H58" stroke="url(#paint14_linear_1050_13185)" stroke-linecap="round" stroke-linejoin="round" stroke-dasharray="0.12 2"/>
<path d="M2 28H58" stroke="url(#paint15_linear_1050_13185)" stroke-linecap="round" stroke-linejoin="round" stroke-dasharray="0.12 2"/>
<path d="M2 29.8662H58" stroke="url(#paint16_linear_1050_13185)" stroke-linecap="round" stroke-linejoin="round" stroke-dasharray="0.12 2"/>
<path d="M2 31.7334H58" stroke="url(#paint17_linear_1050_13185)" stroke-linecap="round" stroke-linejoin="round" stroke-dasharray="0.12 2"/>
<path d="M2 33.5996H58" stroke="url(#paint18_linear_1050_13185)" stroke-linecap="round" stroke-linejoin="round" stroke-dasharray="0.12 2"/>
<path d="M2 35.4668H58" stroke="url(#paint19_linear_1050_13185)" stroke-linecap="round" stroke-linejoin="round" stroke-dasharray="0.12 2"/>
<path d="M2 37.333H58" stroke="url(#paint20_linear_1050_13185)" stroke-linecap="round" stroke-linejoin="round" stroke-dasharray="0.12 2"/>
<path d="M2 39.2002H58" stroke="url(#paint21_linear_1050_13185)" stroke-linecap="round" stroke-linejoin="round" stroke-dasharray="0.12 2"/>
<path d="M2 41.0664H58" stroke="url(#paint22_linear_1050_13185)" stroke-linecap="round" stroke-linejoin="round" stroke-dasharray="0.12 2"/>
<path d="M2 42.9336H58" stroke="url(#paint23_linear_1050_13185)" stroke-linecap="round" stroke-linejoin="round" stroke-dasharray="0.12 2"/>
<path d="M2 44.7998H58" stroke="url(#paint24_linear_1050_13185)" stroke-linecap="round" stroke-linejoin="round" stroke-dasharray="0.12 2"/>
<path d="M2 46.667H58" stroke="url(#paint25_linear_1050_13185)" stroke-linecap="round" stroke-linejoin="round" stroke-dasharray="0.12 2"/>
<path d="M2 48.5332H58" stroke="url(#paint26_linear_1050_13185)" stroke-linecap="round" stroke-linejoin="round" stroke-dasharray="0.12 2"/>
<path d="M2 50.4004H58" stroke="url(#paint27_linear_1050_13185)" stroke-linecap="round" stroke-linejoin="round" stroke-dasharray="0.12 2"/>
<path d="M2 52.2666H58" stroke="url(#paint28_linear_1050_13185)" stroke-linecap="round" stroke-linejoin="round" stroke-dasharray="0.12 2"/>
<path d="M2 54.1338H58" stroke="url(#paint29_linear_1050_13185)" stroke-linecap="round" stroke-linejoin="round" stroke-dasharray="0.12 2"/>
<path d="M2 56H58" stroke="url(#paint30_linear_1050_13185)" stroke-linecap="round" stroke-linejoin="round" stroke-dasharray="0.12 2"/>
</g>
</g>
<path fill-rule="evenodd" clip-rule="evenodd" d="M18.2082 6.01666C17.1127 5.87531 16.11 6.64879 15.9687 7.74428C15.8273 8.83977 16.6008 9.84242 17.6963 9.98378L23.3036 10.7073L0.704743 29.9163C-0.136872 30.6317 -0.239211 31.8939 0.476162 32.7355C1.19153 33.5771 2.45372 33.6794 3.29534 32.9641L26.0444 13.6273V17.1158C26.0444 18.2203 26.9399 19.1158 28.0444 19.1158C29.149 19.1158 30.0444 18.2203 30.0444 17.1158V9.30244C30.0444 8.29682 29.2977 7.44758 28.3004 7.31888L18.2082 6.01666ZM41.5346 48.7218V13.3583C41.5346 12.6083 40.9265 12.0002 40.1765 12.0002C39.4264 12.0002 38.8184 12.6083 38.8184 13.3583V48.7218C38.8184 49.4718 39.4264 50.0799 40.1765 50.0799C40.9265 50.0799 41.5346 49.4718 41.5346 48.7218ZM40.1765 8.00022C37.2173 8.00022 34.8184 10.3991 34.8184 13.3583V48.7218C34.8184 51.681 37.2173 54.0799 40.1765 54.0799C43.1357 54.0799 45.5346 51.6809 45.5346 48.7218V13.3583C45.5346 10.3991 43.1357 8.00022 40.1765 8.00022ZM26.6212 31.0401V48.186C26.6212 49.232 25.7732 50.0799 24.7272 50.0799C23.6813 50.0799 22.8333 49.232 22.8333 48.186V31.0401C22.8333 29.9941 23.6813 29.1462 24.7272 29.1462C25.7732 29.1462 26.6212 29.9941 26.6212 31.0401ZM18.8333 31.0401C18.8333 27.785 21.4721 25.1462 24.7272 25.1462C27.9824 25.1462 30.6212 27.785 30.6212 31.0401V48.186C30.6212 51.4411 27.9824 54.0799 24.7272 54.0799C21.4721 54.0799 18.8333 51.4411 18.8333 48.186V31.0401ZM10.6362 43.364V48.7221C10.6362 49.4721 10.0281 50.0802 9.27808 50.0802C8.52802 50.0802 7.91998 49.4721 7.91998 48.7221V43.364C7.91998 42.6139 8.52803 42.0059 9.27808 42.0059C10.0281 42.0059 10.6362 42.6139 10.6362 43.364ZM3.91998 43.364C3.91998 40.4048 6.31889 38.0059 9.27808 38.0059C12.2373 38.0059 14.6362 40.4048 14.6362 43.364V48.7221C14.6362 51.6813 12.2373 54.0802 9.27808 54.0802C6.31889 54.0802 3.91998 51.6813 3.91998 48.7221V43.364Z" fill="url(#paint31_linear_1050_13185)"/>
<defs>
<linearGradient id="paint0_linear_1050_13185" x1="23.0024" y1="0.00194439" x2="23.5348" y2="7.8504" gradientUnits="userSpaceOnUse">
<stop offset="0.0864582" stop-color="#FF6600"/>
<stop offset="0.961458" stop-color="#FF6600"/>
</linearGradient>
<linearGradient id="paint1_linear_1050_13185" x1="23.0024" y1="1.86816" x2="23.5348" y2="9.71661" gradientUnits="userSpaceOnUse">
<stop offset="0.0864582" stop-color="#FF6600"/>
<stop offset="0.961458" stop-color="#FF6600"/>
</linearGradient>
<linearGradient id="paint2_linear_1050_13185" x1="23.0024" y1="3.73534" x2="23.5348" y2="11.5838" gradientUnits="userSpaceOnUse">
<stop offset="0.0864582" stop-color="#FF6600"/>
<stop offset="0.961458" stop-color="#FF6600"/>
</linearGradient>
<linearGradient id="paint3_linear_1050_13185" x1="23.0024" y1="5.60155" x2="23.5348" y2="13.45" gradientUnits="userSpaceOnUse">
<stop offset="0.0864582" stop-color="#FF6600"/>
<stop offset="0.961458" stop-color="#FF6600"/>
</linearGradient>
<linearGradient id="paint4_linear_1050_13185" x1="23.0024" y1="7.46874" x2="23.5348" y2="15.3172" gradientUnits="userSpaceOnUse">
<stop offset="0.0864582" stop-color="#FF6600"/>
<stop offset="0.961458" stop-color="#FF6600"/>
</linearGradient>
<linearGradient id="paint5_linear_1050_13185" x1="23.0024" y1="9.33495" x2="23.5348" y2="17.1834" gradientUnits="userSpaceOnUse">
<stop offset="0.0864582" stop-color="#FF6600"/>
<stop offset="0.961458" stop-color="#FF6600"/>
</linearGradient>
<linearGradient id="paint6_linear_1050_13185" x1="23.0024" y1="11.2021" x2="23.5348" y2="19.0506" gradientUnits="userSpaceOnUse">
<stop offset="0.0864582" stop-color="#FF6600"/>
<stop offset="0.961458" stop-color="#FF6600"/>
</linearGradient>
<linearGradient id="paint7_linear_1050_13185" x1="23.0024" y1="13.0684" x2="23.5348" y2="20.9168" gradientUnits="userSpaceOnUse">
<stop offset="0.0864582" stop-color="#FF6600"/>
<stop offset="0.961458" stop-color="#FF6600"/>
</linearGradient>
<linearGradient id="paint8_linear_1050_13185" x1="23.0024" y1="14.9355" x2="23.5348" y2="22.784" gradientUnits="userSpaceOnUse">
<stop offset="0.0864582" stop-color="#FF6600"/>
<stop offset="0.961458" stop-color="#FF6600"/>
</linearGradient>
<linearGradient id="paint9_linear_1050_13185" x1="23.0024" y1="16.8017" x2="23.5348" y2="24.6502" gradientUnits="userSpaceOnUse">
<stop offset="0.0864582" stop-color="#FF6600"/>
<stop offset="0.961458" stop-color="#FF6600"/>
</linearGradient>
<linearGradient id="paint10_linear_1050_13185" x1="23.0024" y1="18.6689" x2="23.5348" y2="26.5174" gradientUnits="userSpaceOnUse">
<stop offset="0.0864582" stop-color="#FF6600"/>
<stop offset="0.961458" stop-color="#FF6600"/>
</linearGradient>
<linearGradient id="paint11_linear_1050_13185" x1="23.0024" y1="20.5351" x2="23.5348" y2="28.3836" gradientUnits="userSpaceOnUse">
<stop offset="0.0864582" stop-color="#FF6600"/>
<stop offset="0.961458" stop-color="#FF6600"/>
</linearGradient>
<linearGradient id="paint12_linear_1050_13185" x1="23.0024" y1="22.4023" x2="23.5348" y2="30.2508" gradientUnits="userSpaceOnUse">
<stop offset="0.0864582" stop-color="#FF6600"/>
<stop offset="0.961458" stop-color="#FF6600"/>
</linearGradient>
<linearGradient id="paint13_linear_1050_13185" x1="23.0024" y1="24.2685" x2="23.5348" y2="32.117" gradientUnits="userSpaceOnUse">
<stop offset="0.0864582" stop-color="#FF6600"/>
<stop offset="0.961458" stop-color="#FF6600"/>
</linearGradient>
<linearGradient id="paint14_linear_1050_13185" x1="23.0024" y1="26.1348" x2="23.5348" y2="33.9832" gradientUnits="userSpaceOnUse">
<stop offset="0.0864582" stop-color="#FF6600"/>
<stop offset="0.961458" stop-color="#FF6600"/>
</linearGradient>
<linearGradient id="paint15_linear_1050_13185" x1="23.0024" y1="28.0019" x2="23.5348" y2="35.8504" gradientUnits="userSpaceOnUse">
<stop offset="0.0864582" stop-color="#FF6600"/>
<stop offset="0.961458" stop-color="#FF6600"/>
</linearGradient>
<linearGradient id="paint16_linear_1050_13185" x1="23.0024" y1="29.8682" x2="23.5348" y2="37.7166" gradientUnits="userSpaceOnUse">
<stop offset="0.0864582" stop-color="#FF6600"/>
<stop offset="0.961458" stop-color="#FF6600"/>
</linearGradient>
<linearGradient id="paint17_linear_1050_13185" x1="23.0024" y1="31.7353" x2="23.5348" y2="39.5838" gradientUnits="userSpaceOnUse">
<stop offset="0.0864582" stop-color="#FF6600"/>
<stop offset="0.961458" stop-color="#FF6600"/>
</linearGradient>
<linearGradient id="paint18_linear_1050_13185" x1="23.0024" y1="33.6016" x2="23.5348" y2="41.45" gradientUnits="userSpaceOnUse">
<stop offset="0.0864582" stop-color="#FF6600"/>
<stop offset="0.961458" stop-color="#FF6600"/>
</linearGradient>
<linearGradient id="paint19_linear_1050_13185" x1="23.0024" y1="35.4687" x2="23.5348" y2="43.3172" gradientUnits="userSpaceOnUse">
<stop offset="0.0864582" stop-color="#FF6600"/>
<stop offset="0.961458" stop-color="#FF6600"/>
</linearGradient>
<linearGradient id="paint20_linear_1050_13185" x1="23.0024" y1="37.335" x2="23.5348" y2="45.1834" gradientUnits="userSpaceOnUse">
<stop offset="0.0864582" stop-color="#FF6600"/>
<stop offset="0.961458" stop-color="#FF6600"/>
</linearGradient>
<linearGradient id="paint21_linear_1050_13185" x1="23.0024" y1="39.2021" x2="23.5348" y2="47.0506" gradientUnits="userSpaceOnUse">
<stop offset="0.0864582" stop-color="#FF6600"/>
<stop offset="0.961458" stop-color="#FF6600"/>
</linearGradient>
<linearGradient id="paint22_linear_1050_13185" x1="23.0024" y1="41.0684" x2="23.5348" y2="48.9168" gradientUnits="userSpaceOnUse">
<stop offset="0.0864582" stop-color="#FF6600"/>
<stop offset="0.961458" stop-color="#FF6600"/>
</linearGradient>
<linearGradient id="paint23_linear_1050_13185" x1="23.0024" y1="42.9355" x2="23.5348" y2="50.784" gradientUnits="userSpaceOnUse">
<stop offset="0.0864582" stop-color="#FF6600"/>
<stop offset="0.961458" stop-color="#FF6600"/>
</linearGradient>
<linearGradient id="paint24_linear_1050_13185" x1="23.0024" y1="44.8017" x2="23.5348" y2="52.6502" gradientUnits="userSpaceOnUse">
<stop offset="0.0864582" stop-color="#FF6600"/>
<stop offset="0.961458" stop-color="#FF6600"/>
</linearGradient>
<linearGradient id="paint25_linear_1050_13185" x1="23.0024" y1="46.6689" x2="23.5348" y2="54.5174" gradientUnits="userSpaceOnUse">
<stop offset="0.0864582" stop-color="#FF6600"/>
<stop offset="0.961458" stop-color="#FF6600"/>
</linearGradient>
<linearGradient id="paint26_linear_1050_13185" x1="23.0024" y1="48.5351" x2="23.5348" y2="56.3836" gradientUnits="userSpaceOnUse">
<stop offset="0.0864582" stop-color="#FF6600"/>
<stop offset="0.961458" stop-color="#FF6600"/>
</linearGradient>
<linearGradient id="paint27_linear_1050_13185" x1="23.0024" y1="50.4023" x2="23.5348" y2="58.2508" gradientUnits="userSpaceOnUse">
<stop offset="0.0864582" stop-color="#FF6600"/>
<stop offset="0.961458" stop-color="#FF6600"/>
</linearGradient>
<linearGradient id="paint28_linear_1050_13185" x1="23.0024" y1="52.2685" x2="23.5348" y2="60.117" gradientUnits="userSpaceOnUse">
<stop offset="0.0864582" stop-color="#FF6600"/>
<stop offset="0.961458" stop-color="#FF6600"/>
</linearGradient>
<linearGradient id="paint29_linear_1050_13185" x1="23.0024" y1="54.1357" x2="23.5348" y2="61.9842" gradientUnits="userSpaceOnUse">
<stop offset="0.0864582" stop-color="#FF6600"/>
<stop offset="0.961458" stop-color="#FF6600"/>
</linearGradient>
<linearGradient id="paint30_linear_1050_13185" x1="23.0024" y1="56.0019" x2="23.5348" y2="63.8504" gradientUnits="userSpaceOnUse">
<stop offset="0.0864582" stop-color="#FF6600"/>
<stop offset="0.961458" stop-color="#FF6600"/>
</linearGradient>
<linearGradient id="paint31_linear_1050_13185" x1="15.7819" y1="-71.3653" x2="130.27" y2="-50.5087" gradientUnits="userSpaceOnUse">
<stop stop-color="#2042B8"/>
<stop offset="0.54856" stop-color="#FF6600"/>
</linearGradient>
<clipPath id="clip0_1050_13185">
<path d="M2 28C2 12.536 14.536 0 30 0C45.464 0 58 12.536 58 28C58 43.464 45.464 56 30 56C14.536 56 2 43.464 2 28Z" fill="white"/>
</clipPath>
</defs>
</svg>
