<svg width="56" height="57" viewBox="0 0 56 57" fill="none" xmlns="http://www.w3.org/2000/svg">
<g opacity="0.5">
<g clip-path="url(#clip0_1050_13173)">
<path d="M0 0H56" stroke="url(#paint0_linear_1050_13173)" stroke-linecap="round" stroke-linejoin="round" stroke-dasharray="0.12 2"/>
<path d="M0 1.86621H56" stroke="url(#paint1_linear_1050_13173)" stroke-linecap="round" stroke-linejoin="round" stroke-dasharray="0.12 2"/>
<path d="M0 3.7334H56" stroke="url(#paint2_linear_1050_13173)" stroke-linecap="round" stroke-linejoin="round" stroke-dasharray="0.12 2"/>
<path d="M0 5.59961H56" stroke="url(#paint3_linear_1050_13173)" stroke-linecap="round" stroke-linejoin="round" stroke-dasharray="0.12 2"/>
<path d="M0 7.4668H56" stroke="url(#paint4_linear_1050_13173)" stroke-linecap="round" stroke-linejoin="round" stroke-dasharray="0.12 2"/>
<path d="M0 9.33301H56" stroke="url(#paint5_linear_1050_13173)" stroke-linecap="round" stroke-linejoin="round" stroke-dasharray="0.12 2"/>
<path d="M0 11.2002H56" stroke="url(#paint6_linear_1050_13173)" stroke-linecap="round" stroke-linejoin="round" stroke-dasharray="0.12 2"/>
<path d="M0 13.0664H56" stroke="url(#paint7_linear_1050_13173)" stroke-linecap="round" stroke-linejoin="round" stroke-dasharray="0.12 2"/>
<path d="M0 14.9336H56" stroke="url(#paint8_linear_1050_13173)" stroke-linecap="round" stroke-linejoin="round" stroke-dasharray="0.12 2"/>
<path d="M0 16.7998H56" stroke="url(#paint9_linear_1050_13173)" stroke-linecap="round" stroke-linejoin="round" stroke-dasharray="0.12 2"/>
<path d="M0 18.667H56" stroke="url(#paint10_linear_1050_13173)" stroke-linecap="round" stroke-linejoin="round" stroke-dasharray="0.12 2"/>
<path d="M0 20.5332H56" stroke="url(#paint11_linear_1050_13173)" stroke-linecap="round" stroke-linejoin="round" stroke-dasharray="0.12 2"/>
<path d="M0 22.4004H56" stroke="url(#paint12_linear_1050_13173)" stroke-linecap="round" stroke-linejoin="round" stroke-dasharray="0.12 2"/>
<path d="M0 24.2666H56" stroke="url(#paint13_linear_1050_13173)" stroke-linecap="round" stroke-linejoin="round" stroke-dasharray="0.12 2"/>
<path d="M0 26.1328H56" stroke="url(#paint14_linear_1050_13173)" stroke-linecap="round" stroke-linejoin="round" stroke-dasharray="0.12 2"/>
<path d="M0 28H56" stroke="url(#paint15_linear_1050_13173)" stroke-linecap="round" stroke-linejoin="round" stroke-dasharray="0.12 2"/>
<path d="M0 29.8662H56" stroke="url(#paint16_linear_1050_13173)" stroke-linecap="round" stroke-linejoin="round" stroke-dasharray="0.12 2"/>
<path d="M0 31.7334H56" stroke="url(#paint17_linear_1050_13173)" stroke-linecap="round" stroke-linejoin="round" stroke-dasharray="0.12 2"/>
<path d="M0 33.5996H56" stroke="url(#paint18_linear_1050_13173)" stroke-linecap="round" stroke-linejoin="round" stroke-dasharray="0.12 2"/>
<path d="M0 35.4668H56" stroke="url(#paint19_linear_1050_13173)" stroke-linecap="round" stroke-linejoin="round" stroke-dasharray="0.12 2"/>
<path d="M0 37.333H56" stroke="url(#paint20_linear_1050_13173)" stroke-linecap="round" stroke-linejoin="round" stroke-dasharray="0.12 2"/>
<path d="M0 39.2002H56" stroke="url(#paint21_linear_1050_13173)" stroke-linecap="round" stroke-linejoin="round" stroke-dasharray="0.12 2"/>
<path d="M0 41.0664H56" stroke="url(#paint22_linear_1050_13173)" stroke-linecap="round" stroke-linejoin="round" stroke-dasharray="0.12 2"/>
<path d="M0 42.9336H56" stroke="url(#paint23_linear_1050_13173)" stroke-linecap="round" stroke-linejoin="round" stroke-dasharray="0.12 2"/>
<path d="M0 44.7998H56" stroke="url(#paint24_linear_1050_13173)" stroke-linecap="round" stroke-linejoin="round" stroke-dasharray="0.12 2"/>
<path d="M0 46.667H56" stroke="url(#paint25_linear_1050_13173)" stroke-linecap="round" stroke-linejoin="round" stroke-dasharray="0.12 2"/>
<path d="M0 48.5332H56" stroke="url(#paint26_linear_1050_13173)" stroke-linecap="round" stroke-linejoin="round" stroke-dasharray="0.12 2"/>
<path d="M0 50.4004H56" stroke="url(#paint27_linear_1050_13173)" stroke-linecap="round" stroke-linejoin="round" stroke-dasharray="0.12 2"/>
<path d="M0 52.2666H56" stroke="url(#paint28_linear_1050_13173)" stroke-linecap="round" stroke-linejoin="round" stroke-dasharray="0.12 2"/>
<path d="M0 54.1338H56" stroke="url(#paint29_linear_1050_13173)" stroke-linecap="round" stroke-linejoin="round" stroke-dasharray="0.12 2"/>
<path d="M0 56H56" stroke="url(#paint30_linear_1050_13173)" stroke-linecap="round" stroke-linejoin="round" stroke-dasharray="0.12 2"/>
</g>
</g>
<path fill-rule="evenodd" clip-rule="evenodd" d="M28.2458 13.4899C25.5188 12.0471 22.3625 11.6349 19.3558 12.3291C16.3491 13.0232 13.694 14.7771 11.877 17.2685C10.06 19.7598 9.20255 22.8218 9.46143 25.8932C9.72031 28.9646 11.0782 31.8403 13.2869 33.993C14.0779 34.7639 14.0941 36.0302 13.3232 36.8212C12.5522 37.6122 11.286 37.6284 10.495 36.8575C9.82571 36.2052 9.21597 35.5023 8.66976 34.7572C8.26737 34.7049 7.87711 34.53 7.55896 34.2308C6.95173 33.6596 6.78075 32.7985 7.05875 32.0646C6.18947 30.2454 5.6476 28.2703 5.47556 26.2292C5.13582 22.1984 6.26114 18.1803 8.64521 14.9114C11.0293 11.6426 14.5124 9.34207 18.4559 8.43158C22.3995 7.5211 26.5393 8.06167 30.1164 9.9542C33.6935 11.8467 36.4683 14.9644 37.932 18.7357C38.6908 20.6907 39.0709 22.7535 39.0709 24.8174C41.2255 24.8174 43.3513 25.3551 45.2527 26.388C47.4218 27.5664 49.2085 29.3401 50.402 31.5C51.5955 33.6599 52.1461 36.1158 51.9888 38.5782C51.8315 41.0406 50.9729 43.4066 49.5142 45.3973C48.0555 47.3879 46.0577 48.9202 43.7563 49.8133C41.4548 50.7064 38.9459 50.9231 36.5253 50.4378C34.7836 50.0887 33.14 49.3866 31.6924 48.3829C31.6913 48.3849 31.6903 48.387 31.6892 48.3891C31.6196 48.5263 31.5479 48.6623 31.4742 48.7972C30.9444 49.7663 29.7292 50.1225 28.76 49.5926C27.7908 49.0627 27.4347 47.8475 27.9645 46.8783C28.0185 46.7796 28.071 46.68 28.1219 46.5795C28.3032 46.2221 28.5772 45.9426 28.8998 45.7553C27.8119 44.3741 27.0137 42.7813 26.5599 41.0723C24.0715 41.7323 21.4458 41.8178 18.8859 41.2968C17.8035 41.0765 17.1046 40.0205 17.3249 38.9381C17.5452 37.8558 18.6012 37.1569 19.6836 37.3772C22.7074 37.9926 25.8518 37.498 28.5402 35.9845C31.2285 34.471 33.2803 32.0402 34.3202 29.1381C35.36 26.2361 35.3184 23.0568 34.203 20.183C33.0876 17.309 30.9728 14.9326 28.2458 13.4899ZM38.0857 30.4874C38.2812 29.9418 38.4476 29.3888 38.5848 28.8306C40.2389 28.7406 41.8865 29.1114 43.3433 29.9028C44.8422 30.7171 46.0766 31.9427 46.901 33.4346C47.7254 34.9265 48.1056 36.6227 47.9969 38.3232C47.8883 40.0237 47.2953 41.6579 46.2877 43.033C45.28 44.4082 43.8997 45.467 42.3092 46.0842C40.7186 46.7014 38.9845 46.8512 37.3115 46.5159C35.6385 46.1805 34.0966 45.374 32.8677 44.1918C31.6387 43.0096 30.774 41.5012 30.375 39.8444L29.2155 40.1236C29.6522 39.925 30.0816 39.707 30.5025 39.47C34.0289 37.4847 36.7212 34.2956 38.0857 30.4874ZM8.21326 37.5375C8.62732 36.5135 8.13285 35.3477 7.10883 34.9336C6.08481 34.5195 4.91901 35.014 4.50494 36.038C4.44735 36.1804 4.39191 36.3239 4.33867 36.4682C4.28542 36.6126 4.23446 36.7576 4.18578 36.9033C3.83572 37.9509 4.40121 39.084 5.44884 39.4341C6.49648 39.7841 7.62953 39.2186 7.97959 38.171C8.01523 38.0643 8.05254 37.9581 8.09152 37.8525C8.13051 37.7468 8.17109 37.6418 8.21326 37.5375ZM7.42887 42.1614C7.37565 41.0581 6.43811 40.2069 5.33482 40.2601C4.23153 40.3133 3.38029 41.2509 3.43352 42.3542C3.44092 42.5076 3.4507 42.661 3.46285 42.8144C3.47501 42.9678 3.48953 43.1208 3.50639 43.2735C3.62763 44.3714 4.61594 45.1632 5.71384 45.0419C6.81173 44.9207 7.60346 43.9324 7.48222 42.8345C7.46988 42.7227 7.45925 42.6106 7.45035 42.4983C7.44145 42.3861 7.43429 42.2737 7.42887 42.1614ZM8.65473 46.6885C8.14403 45.7091 6.93605 45.3292 5.95664 45.8399C4.97722 46.3506 4.59725 47.5585 5.10795 48.5379C5.17897 48.6742 5.25214 48.8094 5.32745 48.9435C5.40278 49.0777 5.48012 49.2106 5.55943 49.3422C6.12961 50.2882 7.35874 50.5929 8.30476 50.0227C9.25079 49.4526 9.55548 48.2234 8.9853 47.2774C8.92723 47.181 8.8706 47.0837 8.81545 46.9855C8.76031 46.8873 8.70673 46.7883 8.65473 46.6885ZM27.9899 53.0569C28.8348 52.3453 28.9429 51.0836 28.2313 50.2388C27.5198 49.3939 26.2581 49.2859 25.4132 49.9974C25.3272 50.0699 25.2399 50.1411 25.1515 50.211C25.0631 50.2809 24.9737 50.3494 24.8833 50.4164C23.9962 51.0745 23.8105 52.3271 24.4686 53.2143C25.1266 54.1014 26.3793 54.2871 27.2664 53.629C27.3898 53.5375 27.5119 53.444 27.6326 53.3485C27.7533 53.2531 27.8724 53.1559 27.9899 53.0569ZM11.6657 50.2865C10.7916 49.6111 9.53559 49.7722 8.86021 50.6462C8.18483 51.5202 8.34587 52.7763 9.21991 53.4516C9.34147 53.5456 9.46457 53.6377 9.58917 53.728C9.71379 53.8183 9.83971 53.9066 9.96687 53.9929C10.8809 54.613 12.1246 54.3748 12.7448 53.4608C13.365 52.5467 13.1267 51.303 12.2127 50.6828C12.1196 50.6197 12.0274 50.555 11.9361 50.4889C11.8448 50.4228 11.7547 50.3553 11.6657 50.2865ZM22.3176 56.0381C23.3828 55.7458 24.0093 54.6453 23.7169 53.5801C23.4245 52.5149 22.3241 51.8884 21.2589 52.1808C21.1503 52.2106 21.0413 52.2387 20.9317 52.2652C20.8221 52.2916 20.7122 52.3164 20.6021 52.3394C19.5209 52.5655 18.8277 53.6253 19.0538 54.7065C19.2799 55.7877 20.3397 56.4808 21.4209 56.2547C21.5713 56.2233 21.7213 56.1895 21.8709 56.1533C22.0205 56.1172 22.1694 56.0788 22.3176 56.0381ZM15.9083 52.2933C14.8317 52.046 13.7586 52.7182 13.5112 53.7947C13.2639 54.8712 13.9361 55.9444 15.0127 56.1917C15.1624 56.2261 15.3128 56.2583 15.4638 56.2881C15.6148 56.3179 15.7661 56.3454 15.9177 56.3705C17.0074 56.5509 18.0371 55.8138 18.2176 54.7241C18.398 53.6343 17.6609 52.6047 16.5712 52.4242C16.4601 52.4058 16.3493 52.3857 16.2387 52.3639C16.1281 52.342 16.018 52.3185 15.9083 52.2933Z" fill="url(#paint31_linear_1050_13173)"/>
<defs>
<linearGradient id="paint0_linear_1050_13173" x1="21.0024" y1="0.00194439" x2="21.5348" y2="7.8504" gradientUnits="userSpaceOnUse">
<stop offset="0.0864582" stop-color="#FF6600"/>
<stop offset="0.961458" stop-color="#FF6600"/>
</linearGradient>
<linearGradient id="paint1_linear_1050_13173" x1="21.0024" y1="1.86816" x2="21.5348" y2="9.71661" gradientUnits="userSpaceOnUse">
<stop offset="0.0864582" stop-color="#FF6600"/>
<stop offset="0.961458" stop-color="#FF6600"/>
</linearGradient>
<linearGradient id="paint2_linear_1050_13173" x1="21.0024" y1="3.73534" x2="21.5348" y2="11.5838" gradientUnits="userSpaceOnUse">
<stop offset="0.0864582" stop-color="#FF6600"/>
<stop offset="0.961458" stop-color="#FF6600"/>
</linearGradient>
<linearGradient id="paint3_linear_1050_13173" x1="21.0024" y1="5.60155" x2="21.5348" y2="13.45" gradientUnits="userSpaceOnUse">
<stop offset="0.0864582" stop-color="#FF6600"/>
<stop offset="0.961458" stop-color="#FF6600"/>
</linearGradient>
<linearGradient id="paint4_linear_1050_13173" x1="21.0024" y1="7.46874" x2="21.5348" y2="15.3172" gradientUnits="userSpaceOnUse">
<stop offset="0.0864582" stop-color="#FF6600"/>
<stop offset="0.961458" stop-color="#FF6600"/>
</linearGradient>
<linearGradient id="paint5_linear_1050_13173" x1="21.0024" y1="9.33495" x2="21.5348" y2="17.1834" gradientUnits="userSpaceOnUse">
<stop offset="0.0864582" stop-color="#FF6600"/>
<stop offset="0.961458" stop-color="#FF6600"/>
</linearGradient>
<linearGradient id="paint6_linear_1050_13173" x1="21.0024" y1="11.2021" x2="21.5348" y2="19.0506" gradientUnits="userSpaceOnUse">
<stop offset="0.0864582" stop-color="#FF6600"/>
<stop offset="0.961458" stop-color="#FF6600"/>
</linearGradient>
<linearGradient id="paint7_linear_1050_13173" x1="21.0024" y1="13.0684" x2="21.5348" y2="20.9168" gradientUnits="userSpaceOnUse">
<stop offset="0.0864582" stop-color="#FF6600"/>
<stop offset="0.961458" stop-color="#FF6600"/>
</linearGradient>
<linearGradient id="paint8_linear_1050_13173" x1="21.0024" y1="14.9355" x2="21.5348" y2="22.784" gradientUnits="userSpaceOnUse">
<stop offset="0.0864582" stop-color="#FF6600"/>
<stop offset="0.961458" stop-color="#FF6600"/>
</linearGradient>
<linearGradient id="paint9_linear_1050_13173" x1="21.0024" y1="16.8017" x2="21.5348" y2="24.6502" gradientUnits="userSpaceOnUse">
<stop offset="0.0864582" stop-color="#FF6600"/>
<stop offset="0.961458" stop-color="#FF6600"/>
</linearGradient>
<linearGradient id="paint10_linear_1050_13173" x1="21.0024" y1="18.6689" x2="21.5348" y2="26.5174" gradientUnits="userSpaceOnUse">
<stop offset="0.0864582" stop-color="#FF6600"/>
<stop offset="0.961458" stop-color="#FF6600"/>
</linearGradient>
<linearGradient id="paint11_linear_1050_13173" x1="21.0024" y1="20.5351" x2="21.5348" y2="28.3836" gradientUnits="userSpaceOnUse">
<stop offset="0.0864582" stop-color="#FF6600"/>
<stop offset="0.961458" stop-color="#FF6600"/>
</linearGradient>
<linearGradient id="paint12_linear_1050_13173" x1="21.0024" y1="22.4023" x2="21.5348" y2="30.2508" gradientUnits="userSpaceOnUse">
<stop offset="0.0864582" stop-color="#FF6600"/>
<stop offset="0.961458" stop-color="#FF6600"/>
</linearGradient>
<linearGradient id="paint13_linear_1050_13173" x1="21.0024" y1="24.2685" x2="21.5348" y2="32.117" gradientUnits="userSpaceOnUse">
<stop offset="0.0864582" stop-color="#FF6600"/>
<stop offset="0.961458" stop-color="#FF6600"/>
</linearGradient>
<linearGradient id="paint14_linear_1050_13173" x1="21.0024" y1="26.1348" x2="21.5348" y2="33.9832" gradientUnits="userSpaceOnUse">
<stop offset="0.0864582" stop-color="#FF6600"/>
<stop offset="0.961458" stop-color="#FF6600"/>
</linearGradient>
<linearGradient id="paint15_linear_1050_13173" x1="21.0024" y1="28.0019" x2="21.5348" y2="35.8504" gradientUnits="userSpaceOnUse">
<stop offset="0.0864582" stop-color="#FF6600"/>
<stop offset="0.961458" stop-color="#FF6600"/>
</linearGradient>
<linearGradient id="paint16_linear_1050_13173" x1="21.0024" y1="29.8682" x2="21.5348" y2="37.7166" gradientUnits="userSpaceOnUse">
<stop offset="0.0864582" stop-color="#FF6600"/>
<stop offset="0.961458" stop-color="#FF6600"/>
</linearGradient>
<linearGradient id="paint17_linear_1050_13173" x1="21.0024" y1="31.7353" x2="21.5348" y2="39.5838" gradientUnits="userSpaceOnUse">
<stop offset="0.0864582" stop-color="#FF6600"/>
<stop offset="0.961458" stop-color="#FF6600"/>
</linearGradient>
<linearGradient id="paint18_linear_1050_13173" x1="21.0024" y1="33.6016" x2="21.5348" y2="41.45" gradientUnits="userSpaceOnUse">
<stop offset="0.0864582" stop-color="#FF6600"/>
<stop offset="0.961458" stop-color="#FF6600"/>
</linearGradient>
<linearGradient id="paint19_linear_1050_13173" x1="21.0024" y1="35.4687" x2="21.5348" y2="43.3172" gradientUnits="userSpaceOnUse">
<stop offset="0.0864582" stop-color="#FF6600"/>
<stop offset="0.961458" stop-color="#FF6600"/>
</linearGradient>
<linearGradient id="paint20_linear_1050_13173" x1="21.0024" y1="37.335" x2="21.5348" y2="45.1834" gradientUnits="userSpaceOnUse">
<stop offset="0.0864582" stop-color="#FF6600"/>
<stop offset="0.961458" stop-color="#FF6600"/>
</linearGradient>
<linearGradient id="paint21_linear_1050_13173" x1="21.0024" y1="39.2021" x2="21.5348" y2="47.0506" gradientUnits="userSpaceOnUse">
<stop offset="0.0864582" stop-color="#FF6600"/>
<stop offset="0.961458" stop-color="#FF6600"/>
</linearGradient>
<linearGradient id="paint22_linear_1050_13173" x1="21.0024" y1="41.0684" x2="21.5348" y2="48.9168" gradientUnits="userSpaceOnUse">
<stop offset="0.0864582" stop-color="#FF6600"/>
<stop offset="0.961458" stop-color="#FF6600"/>
</linearGradient>
<linearGradient id="paint23_linear_1050_13173" x1="21.0024" y1="42.9355" x2="21.5348" y2="50.784" gradientUnits="userSpaceOnUse">
<stop offset="0.0864582" stop-color="#FF6600"/>
<stop offset="0.961458" stop-color="#FF6600"/>
</linearGradient>
<linearGradient id="paint24_linear_1050_13173" x1="21.0024" y1="44.8017" x2="21.5348" y2="52.6502" gradientUnits="userSpaceOnUse">
<stop offset="0.0864582" stop-color="#FF6600"/>
<stop offset="0.961458" stop-color="#FF6600"/>
</linearGradient>
<linearGradient id="paint25_linear_1050_13173" x1="21.0024" y1="46.6689" x2="21.5348" y2="54.5174" gradientUnits="userSpaceOnUse">
<stop offset="0.0864582" stop-color="#FF6600"/>
<stop offset="0.961458" stop-color="#FF6600"/>
</linearGradient>
<linearGradient id="paint26_linear_1050_13173" x1="21.0024" y1="48.5351" x2="21.5348" y2="56.3836" gradientUnits="userSpaceOnUse">
<stop offset="0.0864582" stop-color="#FF6600"/>
<stop offset="0.961458" stop-color="#FF6600"/>
</linearGradient>
<linearGradient id="paint27_linear_1050_13173" x1="21.0024" y1="50.4023" x2="21.5348" y2="58.2508" gradientUnits="userSpaceOnUse">
<stop offset="0.0864582" stop-color="#FF6600"/>
<stop offset="0.961458" stop-color="#FF6600"/>
</linearGradient>
<linearGradient id="paint28_linear_1050_13173" x1="21.0024" y1="52.2685" x2="21.5348" y2="60.117" gradientUnits="userSpaceOnUse">
<stop offset="0.0864582" stop-color="#FF6600"/>
<stop offset="0.961458" stop-color="#FF6600"/>
</linearGradient>
<linearGradient id="paint29_linear_1050_13173" x1="21.0024" y1="54.1357" x2="21.5348" y2="61.9842" gradientUnits="userSpaceOnUse">
<stop offset="0.0864582" stop-color="#FF6600"/>
<stop offset="0.961458" stop-color="#FF6600"/>
</linearGradient>
<linearGradient id="paint30_linear_1050_13173" x1="21.0024" y1="56.0019" x2="21.5348" y2="63.8504" gradientUnits="userSpaceOnUse">
<stop offset="0.0864582" stop-color="#FF6600"/>
<stop offset="0.961458" stop-color="#FF6600"/>
</linearGradient>
<linearGradient id="paint31_linear_1050_13173" x1="20.2699" y1="-69.8762" x2="141.943" y2="-46.3815" gradientUnits="userSpaceOnUse">
<stop stop-color="#2042B8"/>
<stop offset="0.54856" stop-color="#FF6600"/>
</linearGradient>
<clipPath id="clip0_1050_13173">
<path d="M0 28C0 12.536 12.536 0 28 0C43.464 0 56 12.536 56 28C56 43.464 43.464 56 28 56C12.536 56 0 43.464 0 28Z" fill="white"/>
</clipPath>
</defs>
</svg>
