<svg width="56" height="57" viewBox="0 0 56 57" fill="none" xmlns="http://www.w3.org/2000/svg">
<g opacity="0.5">
<g clip-path="url(#clip0_1050_13154)">
<path d="M0 0H56" stroke="url(#paint0_linear_1050_13154)" stroke-linecap="round" stroke-linejoin="round" stroke-dasharray="0.12 2"/>
<path d="M0 1.86621H56" stroke="url(#paint1_linear_1050_13154)" stroke-linecap="round" stroke-linejoin="round" stroke-dasharray="0.12 2"/>
<path d="M0 3.7334H56" stroke="url(#paint2_linear_1050_13154)" stroke-linecap="round" stroke-linejoin="round" stroke-dasharray="0.12 2"/>
<path d="M0 5.59961H56" stroke="url(#paint3_linear_1050_13154)" stroke-linecap="round" stroke-linejoin="round" stroke-dasharray="0.12 2"/>
<path d="M0 7.4668H56" stroke="url(#paint4_linear_1050_13154)" stroke-linecap="round" stroke-linejoin="round" stroke-dasharray="0.12 2"/>
<path d="M0 9.33301H56" stroke="url(#paint5_linear_1050_13154)" stroke-linecap="round" stroke-linejoin="round" stroke-dasharray="0.12 2"/>
<path d="M0 11.2002H56" stroke="url(#paint6_linear_1050_13154)" stroke-linecap="round" stroke-linejoin="round" stroke-dasharray="0.12 2"/>
<path d="M0 13.0664H56" stroke="url(#paint7_linear_1050_13154)" stroke-linecap="round" stroke-linejoin="round" stroke-dasharray="0.12 2"/>
<path d="M0 14.9336H56" stroke="url(#paint8_linear_1050_13154)" stroke-linecap="round" stroke-linejoin="round" stroke-dasharray="0.12 2"/>
<path d="M0 16.7998H56" stroke="url(#paint9_linear_1050_13154)" stroke-linecap="round" stroke-linejoin="round" stroke-dasharray="0.12 2"/>
<path d="M0 18.667H56" stroke="url(#paint10_linear_1050_13154)" stroke-linecap="round" stroke-linejoin="round" stroke-dasharray="0.12 2"/>
<path d="M0 20.5332H56" stroke="url(#paint11_linear_1050_13154)" stroke-linecap="round" stroke-linejoin="round" stroke-dasharray="0.12 2"/>
<path d="M0 22.4004H56" stroke="url(#paint12_linear_1050_13154)" stroke-linecap="round" stroke-linejoin="round" stroke-dasharray="0.12 2"/>
<path d="M0 24.2666H56" stroke="url(#paint13_linear_1050_13154)" stroke-linecap="round" stroke-linejoin="round" stroke-dasharray="0.12 2"/>
<path d="M0 26.1328H56" stroke="url(#paint14_linear_1050_13154)" stroke-linecap="round" stroke-linejoin="round" stroke-dasharray="0.12 2"/>
<path d="M0 28H56" stroke="url(#paint15_linear_1050_13154)" stroke-linecap="round" stroke-linejoin="round" stroke-dasharray="0.12 2"/>
<path d="M0 29.8662H56" stroke="url(#paint16_linear_1050_13154)" stroke-linecap="round" stroke-linejoin="round" stroke-dasharray="0.12 2"/>
<path d="M0 31.7334H56" stroke="url(#paint17_linear_1050_13154)" stroke-linecap="round" stroke-linejoin="round" stroke-dasharray="0.12 2"/>
<path d="M0 33.5996H56" stroke="url(#paint18_linear_1050_13154)" stroke-linecap="round" stroke-linejoin="round" stroke-dasharray="0.12 2"/>
<path d="M0 35.4668H56" stroke="url(#paint19_linear_1050_13154)" stroke-linecap="round" stroke-linejoin="round" stroke-dasharray="0.12 2"/>
<path d="M0 37.333H56" stroke="url(#paint20_linear_1050_13154)" stroke-linecap="round" stroke-linejoin="round" stroke-dasharray="0.12 2"/>
<path d="M0 39.2002H56" stroke="url(#paint21_linear_1050_13154)" stroke-linecap="round" stroke-linejoin="round" stroke-dasharray="0.12 2"/>
<path d="M0 41.0664H56" stroke="url(#paint22_linear_1050_13154)" stroke-linecap="round" stroke-linejoin="round" stroke-dasharray="0.12 2"/>
<path d="M0 42.9336H56" stroke="url(#paint23_linear_1050_13154)" stroke-linecap="round" stroke-linejoin="round" stroke-dasharray="0.12 2"/>
<path d="M0 44.7998H56" stroke="url(#paint24_linear_1050_13154)" stroke-linecap="round" stroke-linejoin="round" stroke-dasharray="0.12 2"/>
<path d="M0 46.667H56" stroke="url(#paint25_linear_1050_13154)" stroke-linecap="round" stroke-linejoin="round" stroke-dasharray="0.12 2"/>
<path d="M0 48.5332H56" stroke="url(#paint26_linear_1050_13154)" stroke-linecap="round" stroke-linejoin="round" stroke-dasharray="0.12 2"/>
<path d="M0 50.4004H56" stroke="url(#paint27_linear_1050_13154)" stroke-linecap="round" stroke-linejoin="round" stroke-dasharray="0.12 2"/>
<path d="M0 52.2666H56" stroke="url(#paint28_linear_1050_13154)" stroke-linecap="round" stroke-linejoin="round" stroke-dasharray="0.12 2"/>
<path d="M0 54.1338H56" stroke="url(#paint29_linear_1050_13154)" stroke-linecap="round" stroke-linejoin="round" stroke-dasharray="0.12 2"/>
<path d="M0 56H56" stroke="url(#paint30_linear_1050_13154)" stroke-linecap="round" stroke-linejoin="round" stroke-dasharray="0.12 2"/>
</g>
</g>
<path fill-rule="evenodd" clip-rule="evenodd" d="M31.1465 13.6719C30.7519 13.2574 30.3611 12.8818 29.9809 12.5424C33.9215 13.5481 37.3959 15.7192 40.0154 18.6671C38.4043 19.285 36.8837 19.7981 35.4275 20.214C34.1996 17.3864 32.651 15.2522 31.1465 13.6719ZM36.1544 22.0859C37.7984 21.6096 39.511 21.0179 41.3244 20.3041C43.4707 23.2943 44.8156 26.8985 45.0452 30.8026C44.1358 30.9906 43.4522 31.796 43.4522 32.7612C43.4522 33.675 44.0652 34.4458 44.9024 34.6846C44.4738 37.8927 43.2877 40.8611 41.5298 43.4041C39.7177 42.708 38.0114 42.1225 36.3835 41.642C36.981 39.9356 37.4329 38.0314 37.6641 35.9153C37.7241 35.3663 37.3277 34.8726 36.7787 34.8126C36.2297 34.7526 35.736 35.149 35.676 35.698C35.4563 37.7089 35.0222 39.5081 34.4496 41.1113C31.5736 40.3841 28.9232 40.0017 26.3284 39.9287L26.3131 36.0407C26.3109 35.4884 25.8615 35.0425 25.3092 35.0447C24.7569 35.0468 24.3109 35.4963 24.3131 36.0486L24.3284 39.9334C21.3544 40.0307 18.4215 40.5273 15.2724 41.3443C14.8284 39.7256 14.4971 37.8654 14.327 35.7274C14.2832 35.1768 13.8014 34.766 13.2508 34.8098C12.7003 34.8536 12.2895 35.3354 12.3333 35.886C12.5129 38.1436 12.8655 40.1293 13.3445 41.8754C11.7951 42.3253 10.1846 42.8445 8.48511 43.4246C6.73343 40.8972 5.54699 37.9483 5.10866 34.7608C6.1963 34.7413 7.07198 33.8535 7.07198 32.7612C7.07198 31.6566 6.17654 30.7612 5.07198 30.7612H4.95799C5.19595 26.8513 6.5527 23.2437 8.71222 20.2542C10.4488 20.8061 12.0923 21.3005 13.668 21.7296C12.9988 23.856 12.5136 26.3472 12.3065 29.2641C12.2674 29.815 12.6823 30.2933 13.2332 30.3324C13.7841 30.3716 14.2624 29.9567 14.3015 29.4058C14.5014 26.5905 14.9704 24.2229 15.6065 22.2321C18.6969 22.9893 21.5515 23.4644 24.3811 23.5925V28.1929C24.3811 28.7452 24.8288 29.1929 25.3811 29.1929C25.9334 29.1929 26.3811 28.7452 26.3811 28.1929V23.6244C28.9359 23.5893 31.4946 23.2596 34.2163 22.6018C34.8662 24.4516 35.3701 26.5914 35.6336 29.0604C35.6922 29.6095 36.1849 30.0072 36.7341 29.9486C37.2833 29.89 37.681 29.3973 37.6223 28.8481C37.349 26.2873 36.8298 24.0446 36.1544 22.0859ZM35.6407 43.5084C37.0972 43.9328 38.6274 44.4475 40.2543 45.0589C37.5513 48.2132 33.8868 50.5194 29.7151 51.5233C30.2007 51.0989 30.7076 50.62 31.2207 50.0834C32.7814 48.451 34.3969 46.2858 35.6407 43.5084ZM24.3558 52.0697L24.3762 52.0703L24.3363 41.9342C21.5946 42.0289 18.8651 42.4845 15.8851 43.2518C17.1201 46.5701 18.8568 48.6579 20.4787 49.9758C21.7967 51.0468 23.0714 51.6363 24.0072 51.9573C24.1295 51.9992 24.2459 52.0365 24.3558 52.0697ZM9.77972 45.0976C12.1242 47.8196 15.1863 49.9058 18.6724 51.0624C16.9053 49.4768 15.1758 47.1572 13.9496 43.7825C12.6227 44.1669 11.2396 44.6066 9.77972 45.0976ZM14.3465 19.8412C12.9859 19.4733 11.5638 19.0525 10.061 18.5825C12.5049 15.8632 15.6804 13.8148 19.2778 12.7471C19.2298 12.7885 19.1818 12.8304 19.1337 12.8729C17.398 14.4068 15.6526 16.6329 14.3465 19.8412ZM0.92041 31.9999C0.92041 18.7009 11.7014 7.91992 25.0004 7.91992C38.2994 7.91992 49.0803 18.7009 49.0803 31.9999C49.0803 45.2989 38.2994 56.0798 25.0004 56.0798C11.7014 56.0798 0.92041 45.2989 0.92041 31.9999ZM33.4663 20.7244C32.3556 18.2594 30.9939 16.4121 29.698 15.0509C28.4565 13.7469 27.2658 12.8792 26.3945 12.341L26.3811 12.3327V21.6242C28.675 21.5906 30.9889 21.3041 33.4663 20.7244ZM24.3811 21.5904V11.9972C24.2727 12.0365 24.1582 12.0801 24.038 12.1286C23.0883 12.5115 21.7939 13.191 20.4582 14.3715C19.0131 15.6486 17.4872 17.5411 16.3034 20.3431C19.1804 21.0379 21.8043 21.4667 24.3811 21.5904ZM33.6827 42.9813C31.0616 42.3362 28.6638 42.0001 26.3363 41.9297L26.3742 51.5735L26.3904 51.5626C27.2897 50.96 28.5105 50.024 29.775 48.7013C31.1419 47.2717 32.5614 45.3893 33.6827 42.9813ZM9.11 30.7612C8.00543 30.7612 7.11 31.6566 7.11 32.7612C7.11 33.8657 8.00543 34.7612 9.11 34.7612H11.129C12.2336 34.7612 13.129 33.8657 13.129 32.7612C13.129 31.6566 12.2336 30.7612 11.129 30.7612H9.11ZM15.167 30.7612C14.0625 30.7612 13.167 31.6566 13.167 32.7612C13.167 33.8657 14.0625 34.7612 15.167 34.7612H17.186C18.2906 34.7612 19.186 33.8657 19.186 32.7612C19.186 31.6566 18.2906 30.7612 17.186 30.7612H15.167ZM21.2241 30.7612C20.1195 30.7612 19.2241 31.6566 19.2241 32.7612C19.2241 33.8657 20.1195 34.7612 21.2241 34.7612H23.2431C24.3477 34.7612 25.2431 33.8657 25.2431 32.7612C25.2431 31.6566 24.3477 30.7612 23.2431 30.7612H21.2241ZM27.2811 30.7612C26.1765 30.7612 25.2811 31.6566 25.2811 32.7612C25.2811 33.8657 26.1765 34.7612 27.2811 34.7612H29.3001C30.4047 34.7612 31.3001 33.8657 31.3001 32.7612C31.3001 31.6566 30.4047 30.7612 29.3001 30.7612H27.2811ZM33.3381 30.7612C32.2336 30.7612 31.3381 31.6566 31.3381 32.7612C31.3381 33.8657 32.2336 34.7612 33.3381 34.7612H35.3571C36.4617 34.7612 37.3571 33.8657 37.3571 32.7612C37.3571 31.6566 36.4617 30.7612 35.3571 30.7612H33.3381ZM39.3952 30.7612C38.2906 30.7612 37.3952 31.6566 37.3952 32.7612C37.3952 33.8657 38.2906 34.7612 39.3952 34.7612H41.4142C42.5188 34.7612 43.4142 33.8657 43.4142 32.7612C43.4142 31.6566 42.5188 30.7612 41.4142 30.7612H39.3952Z" fill="url(#paint31_linear_1050_13154)"/>
<defs>
<linearGradient id="paint0_linear_1050_13154" x1="21.0024" y1="0.00194439" x2="21.5348" y2="7.8504" gradientUnits="userSpaceOnUse">
<stop offset="0.0864582" stop-color="#FF6600"/>
<stop offset="0.961458" stop-color="#FF6600"/>
</linearGradient>
<linearGradient id="paint1_linear_1050_13154" x1="21.0024" y1="1.86816" x2="21.5348" y2="9.71661" gradientUnits="userSpaceOnUse">
<stop offset="0.0864582" stop-color="#FF6600"/>
<stop offset="0.961458" stop-color="#FF6600"/>
</linearGradient>
<linearGradient id="paint2_linear_1050_13154" x1="21.0024" y1="3.73534" x2="21.5348" y2="11.5838" gradientUnits="userSpaceOnUse">
<stop offset="0.0864582" stop-color="#FF6600"/>
<stop offset="0.961458" stop-color="#FF6600"/>
</linearGradient>
<linearGradient id="paint3_linear_1050_13154" x1="21.0024" y1="5.60155" x2="21.5348" y2="13.45" gradientUnits="userSpaceOnUse">
<stop offset="0.0864582" stop-color="#FF6600"/>
<stop offset="0.961458" stop-color="#FF6600"/>
</linearGradient>
<linearGradient id="paint4_linear_1050_13154" x1="21.0024" y1="7.46874" x2="21.5348" y2="15.3172" gradientUnits="userSpaceOnUse">
<stop offset="0.0864582" stop-color="#FF6600"/>
<stop offset="0.961458" stop-color="#FF6600"/>
</linearGradient>
<linearGradient id="paint5_linear_1050_13154" x1="21.0024" y1="9.33495" x2="21.5348" y2="17.1834" gradientUnits="userSpaceOnUse">
<stop offset="0.0864582" stop-color="#FF6600"/>
<stop offset="0.961458" stop-color="#FF6600"/>
</linearGradient>
<linearGradient id="paint6_linear_1050_13154" x1="21.0024" y1="11.2021" x2="21.5348" y2="19.0506" gradientUnits="userSpaceOnUse">
<stop offset="0.0864582" stop-color="#FF6600"/>
<stop offset="0.961458" stop-color="#FF6600"/>
</linearGradient>
<linearGradient id="paint7_linear_1050_13154" x1="21.0024" y1="13.0684" x2="21.5348" y2="20.9168" gradientUnits="userSpaceOnUse">
<stop offset="0.0864582" stop-color="#FF6600"/>
<stop offset="0.961458" stop-color="#FF6600"/>
</linearGradient>
<linearGradient id="paint8_linear_1050_13154" x1="21.0024" y1="14.9355" x2="21.5348" y2="22.784" gradientUnits="userSpaceOnUse">
<stop offset="0.0864582" stop-color="#FF6600"/>
<stop offset="0.961458" stop-color="#FF6600"/>
</linearGradient>
<linearGradient id="paint9_linear_1050_13154" x1="21.0024" y1="16.8017" x2="21.5348" y2="24.6502" gradientUnits="userSpaceOnUse">
<stop offset="0.0864582" stop-color="#FF6600"/>
<stop offset="0.961458" stop-color="#FF6600"/>
</linearGradient>
<linearGradient id="paint10_linear_1050_13154" x1="21.0024" y1="18.6689" x2="21.5348" y2="26.5174" gradientUnits="userSpaceOnUse">
<stop offset="0.0864582" stop-color="#FF6600"/>
<stop offset="0.961458" stop-color="#FF6600"/>
</linearGradient>
<linearGradient id="paint11_linear_1050_13154" x1="21.0024" y1="20.5351" x2="21.5348" y2="28.3836" gradientUnits="userSpaceOnUse">
<stop offset="0.0864582" stop-color="#FF6600"/>
<stop offset="0.961458" stop-color="#FF6600"/>
</linearGradient>
<linearGradient id="paint12_linear_1050_13154" x1="21.0024" y1="22.4023" x2="21.5348" y2="30.2508" gradientUnits="userSpaceOnUse">
<stop offset="0.0864582" stop-color="#FF6600"/>
<stop offset="0.961458" stop-color="#FF6600"/>
</linearGradient>
<linearGradient id="paint13_linear_1050_13154" x1="21.0024" y1="24.2685" x2="21.5348" y2="32.117" gradientUnits="userSpaceOnUse">
<stop offset="0.0864582" stop-color="#FF6600"/>
<stop offset="0.961458" stop-color="#FF6600"/>
</linearGradient>
<linearGradient id="paint14_linear_1050_13154" x1="21.0024" y1="26.1348" x2="21.5348" y2="33.9832" gradientUnits="userSpaceOnUse">
<stop offset="0.0864582" stop-color="#FF6600"/>
<stop offset="0.961458" stop-color="#FF6600"/>
</linearGradient>
<linearGradient id="paint15_linear_1050_13154" x1="21.0024" y1="28.0019" x2="21.5348" y2="35.8504" gradientUnits="userSpaceOnUse">
<stop offset="0.0864582" stop-color="#FF6600"/>
<stop offset="0.961458" stop-color="#FF6600"/>
</linearGradient>
<linearGradient id="paint16_linear_1050_13154" x1="21.0024" y1="29.8682" x2="21.5348" y2="37.7166" gradientUnits="userSpaceOnUse">
<stop offset="0.0864582" stop-color="#FF6600"/>
<stop offset="0.961458" stop-color="#FF6600"/>
</linearGradient>
<linearGradient id="paint17_linear_1050_13154" x1="21.0024" y1="31.7353" x2="21.5348" y2="39.5838" gradientUnits="userSpaceOnUse">
<stop offset="0.0864582" stop-color="#FF6600"/>
<stop offset="0.961458" stop-color="#FF6600"/>
</linearGradient>
<linearGradient id="paint18_linear_1050_13154" x1="21.0024" y1="33.6016" x2="21.5348" y2="41.45" gradientUnits="userSpaceOnUse">
<stop offset="0.0864582" stop-color="#FF6600"/>
<stop offset="0.961458" stop-color="#FF6600"/>
</linearGradient>
<linearGradient id="paint19_linear_1050_13154" x1="21.0024" y1="35.4687" x2="21.5348" y2="43.3172" gradientUnits="userSpaceOnUse">
<stop offset="0.0864582" stop-color="#FF6600"/>
<stop offset="0.961458" stop-color="#FF6600"/>
</linearGradient>
<linearGradient id="paint20_linear_1050_13154" x1="21.0024" y1="37.335" x2="21.5348" y2="45.1834" gradientUnits="userSpaceOnUse">
<stop offset="0.0864582" stop-color="#FF6600"/>
<stop offset="0.961458" stop-color="#FF6600"/>
</linearGradient>
<linearGradient id="paint21_linear_1050_13154" x1="21.0024" y1="39.2021" x2="21.5348" y2="47.0506" gradientUnits="userSpaceOnUse">
<stop offset="0.0864582" stop-color="#FF6600"/>
<stop offset="0.961458" stop-color="#FF6600"/>
</linearGradient>
<linearGradient id="paint22_linear_1050_13154" x1="21.0024" y1="41.0684" x2="21.5348" y2="48.9168" gradientUnits="userSpaceOnUse">
<stop offset="0.0864582" stop-color="#FF6600"/>
<stop offset="0.961458" stop-color="#FF6600"/>
</linearGradient>
<linearGradient id="paint23_linear_1050_13154" x1="21.0024" y1="42.9355" x2="21.5348" y2="50.784" gradientUnits="userSpaceOnUse">
<stop offset="0.0864582" stop-color="#FF6600"/>
<stop offset="0.961458" stop-color="#FF6600"/>
</linearGradient>
<linearGradient id="paint24_linear_1050_13154" x1="21.0024" y1="44.8017" x2="21.5348" y2="52.6502" gradientUnits="userSpaceOnUse">
<stop offset="0.0864582" stop-color="#FF6600"/>
<stop offset="0.961458" stop-color="#FF6600"/>
</linearGradient>
<linearGradient id="paint25_linear_1050_13154" x1="21.0024" y1="46.6689" x2="21.5348" y2="54.5174" gradientUnits="userSpaceOnUse">
<stop offset="0.0864582" stop-color="#FF6600"/>
<stop offset="0.961458" stop-color="#FF6600"/>
</linearGradient>
<linearGradient id="paint26_linear_1050_13154" x1="21.0024" y1="48.5351" x2="21.5348" y2="56.3836" gradientUnits="userSpaceOnUse">
<stop offset="0.0864582" stop-color="#FF6600"/>
<stop offset="0.961458" stop-color="#FF6600"/>
</linearGradient>
<linearGradient id="paint27_linear_1050_13154" x1="21.0024" y1="50.4023" x2="21.5348" y2="58.2508" gradientUnits="userSpaceOnUse">
<stop offset="0.0864582" stop-color="#FF6600"/>
<stop offset="0.961458" stop-color="#FF6600"/>
</linearGradient>
<linearGradient id="paint28_linear_1050_13154" x1="21.0024" y1="52.2685" x2="21.5348" y2="60.117" gradientUnits="userSpaceOnUse">
<stop offset="0.0864582" stop-color="#FF6600"/>
<stop offset="0.961458" stop-color="#FF6600"/>
</linearGradient>
<linearGradient id="paint29_linear_1050_13154" x1="21.0024" y1="54.1357" x2="21.5348" y2="61.9842" gradientUnits="userSpaceOnUse">
<stop offset="0.0864582" stop-color="#FF6600"/>
<stop offset="0.961458" stop-color="#FF6600"/>
</linearGradient>
<linearGradient id="paint30_linear_1050_13154" x1="21.0024" y1="56.0019" x2="21.5348" y2="63.8504" gradientUnits="userSpaceOnUse">
<stop offset="0.0864582" stop-color="#FF6600"/>
<stop offset="0.961458" stop-color="#FF6600"/>
</linearGradient>
<linearGradient id="paint31_linear_1050_13154" x1="17.6122" y1="-69.5738" x2="138.256" y2="-46.367" gradientUnits="userSpaceOnUse">
<stop stop-color="#2042B8"/>
<stop offset="0.54856" stop-color="#FF6600"/>
</linearGradient>
<clipPath id="clip0_1050_13154">
<path d="M0 28C0 12.536 12.536 0 28 0C43.464 0 56 12.536 56 28C56 43.464 43.464 56 28 56C12.536 56 0 43.464 0 28Z" fill="white"/>
</clipPath>
</defs>
</svg>
