<svg width="57" height="57" viewBox="0 0 57 57" fill="none" xmlns="http://www.w3.org/2000/svg">
<g opacity="0.5">
<g clip-path="url(#clip0_1050_13132)">
<path d="M1 0H57" stroke="url(#paint0_linear_1050_13132)" stroke-linecap="round" stroke-linejoin="round" stroke-dasharray="0.12 2"/>
<path d="M1 1.86621H57" stroke="url(#paint1_linear_1050_13132)" stroke-linecap="round" stroke-linejoin="round" stroke-dasharray="0.12 2"/>
<path d="M1 3.7334H57" stroke="url(#paint2_linear_1050_13132)" stroke-linecap="round" stroke-linejoin="round" stroke-dasharray="0.12 2"/>
<path d="M1 5.59961H57" stroke="url(#paint3_linear_1050_13132)" stroke-linecap="round" stroke-linejoin="round" stroke-dasharray="0.12 2"/>
<path d="M1 7.4668H57" stroke="url(#paint4_linear_1050_13132)" stroke-linecap="round" stroke-linejoin="round" stroke-dasharray="0.12 2"/>
<path d="M1 9.33301H57" stroke="url(#paint5_linear_1050_13132)" stroke-linecap="round" stroke-linejoin="round" stroke-dasharray="0.12 2"/>
<path d="M1 11.2002H57" stroke="url(#paint6_linear_1050_13132)" stroke-linecap="round" stroke-linejoin="round" stroke-dasharray="0.12 2"/>
<path d="M1 13.0664H57" stroke="url(#paint7_linear_1050_13132)" stroke-linecap="round" stroke-linejoin="round" stroke-dasharray="0.12 2"/>
<path d="M1 14.9336H57" stroke="url(#paint8_linear_1050_13132)" stroke-linecap="round" stroke-linejoin="round" stroke-dasharray="0.12 2"/>
<path d="M1 16.7998H57" stroke="url(#paint9_linear_1050_13132)" stroke-linecap="round" stroke-linejoin="round" stroke-dasharray="0.12 2"/>
<path d="M1 18.667H57" stroke="url(#paint10_linear_1050_13132)" stroke-linecap="round" stroke-linejoin="round" stroke-dasharray="0.12 2"/>
<path d="M1 20.5332H57" stroke="url(#paint11_linear_1050_13132)" stroke-linecap="round" stroke-linejoin="round" stroke-dasharray="0.12 2"/>
<path d="M1 22.4004H57" stroke="url(#paint12_linear_1050_13132)" stroke-linecap="round" stroke-linejoin="round" stroke-dasharray="0.12 2"/>
<path d="M1 24.2666H57" stroke="url(#paint13_linear_1050_13132)" stroke-linecap="round" stroke-linejoin="round" stroke-dasharray="0.12 2"/>
<path d="M1 26.1328H57" stroke="url(#paint14_linear_1050_13132)" stroke-linecap="round" stroke-linejoin="round" stroke-dasharray="0.12 2"/>
<path d="M1 28H57" stroke="url(#paint15_linear_1050_13132)" stroke-linecap="round" stroke-linejoin="round" stroke-dasharray="0.12 2"/>
<path d="M1 29.8662H57" stroke="url(#paint16_linear_1050_13132)" stroke-linecap="round" stroke-linejoin="round" stroke-dasharray="0.12 2"/>
<path d="M1 31.7334H57" stroke="url(#paint17_linear_1050_13132)" stroke-linecap="round" stroke-linejoin="round" stroke-dasharray="0.12 2"/>
<path d="M1 33.5996H57" stroke="url(#paint18_linear_1050_13132)" stroke-linecap="round" stroke-linejoin="round" stroke-dasharray="0.12 2"/>
<path d="M1 35.4668H57" stroke="url(#paint19_linear_1050_13132)" stroke-linecap="round" stroke-linejoin="round" stroke-dasharray="0.12 2"/>
<path d="M1 37.333H57" stroke="url(#paint20_linear_1050_13132)" stroke-linecap="round" stroke-linejoin="round" stroke-dasharray="0.12 2"/>
<path d="M1 39.2002H57" stroke="url(#paint21_linear_1050_13132)" stroke-linecap="round" stroke-linejoin="round" stroke-dasharray="0.12 2"/>
<path d="M1 41.0664H57" stroke="url(#paint22_linear_1050_13132)" stroke-linecap="round" stroke-linejoin="round" stroke-dasharray="0.12 2"/>
<path d="M1 42.9336H57" stroke="url(#paint23_linear_1050_13132)" stroke-linecap="round" stroke-linejoin="round" stroke-dasharray="0.12 2"/>
<path d="M1 44.7998H57" stroke="url(#paint24_linear_1050_13132)" stroke-linecap="round" stroke-linejoin="round" stroke-dasharray="0.12 2"/>
<path d="M1 46.667H57" stroke="url(#paint25_linear_1050_13132)" stroke-linecap="round" stroke-linejoin="round" stroke-dasharray="0.12 2"/>
<path d="M1 48.5332H57" stroke="url(#paint26_linear_1050_13132)" stroke-linecap="round" stroke-linejoin="round" stroke-dasharray="0.12 2"/>
<path d="M1 50.4004H57" stroke="url(#paint27_linear_1050_13132)" stroke-linecap="round" stroke-linejoin="round" stroke-dasharray="0.12 2"/>
<path d="M1 52.2666H57" stroke="url(#paint28_linear_1050_13132)" stroke-linecap="round" stroke-linejoin="round" stroke-dasharray="0.12 2"/>
<path d="M1 54.1338H57" stroke="url(#paint29_linear_1050_13132)" stroke-linecap="round" stroke-linejoin="round" stroke-dasharray="0.12 2"/>
<path d="M1 56H57" stroke="url(#paint30_linear_1050_13132)" stroke-linecap="round" stroke-linejoin="round" stroke-dasharray="0.12 2"/>
</g>
</g>
<path d="M16.584 13.5892C18.9926 14.5473 21.7439 13.8691 23.4313 11.9015C24.256 10.9398 25.744 10.9398 26.5687 11.9015C28.2561 13.8691 31.0074 14.5473 33.416 13.5892C34.5931 13.1209 35.9106 13.8124 36.194 15.0472C36.7737 17.5737 38.8947 19.4527 41.4727 19.7237C42.7326 19.8561 43.5778 21.0806 43.2549 22.3057C42.5941 24.8122 43.5989 27.4616 45.7556 28.8996C46.8097 29.6024 46.989 31.0795 46.1338 32.0141C44.3839 33.9264 44.0423 36.7394 45.2837 39.0149C45.8905 40.127 45.3628 41.5183 44.1712 41.9484C41.733 42.8284 40.1234 45.1604 40.1651 47.7523C40.1855 49.019 39.0718 50.0056 37.8167 49.8327C35.2488 49.4789 32.7398 50.7957 31.5723 53.1101C31.0017 54.2411 29.557 54.5972 28.5261 53.8609C26.4168 52.3542 23.5832 52.3542 21.4739 53.8609C20.443 54.5972 18.9983 54.2411 18.4277 53.1101C17.2602 50.7957 14.7512 49.4789 12.1832 49.8327C10.9282 50.0056 9.81451 49.019 9.8349 47.7523C9.87664 45.1604 8.26698 42.8284 5.82878 41.9484C4.63716 41.5183 4.10953 40.127 4.71626 39.0149C5.9577 36.7394 5.61615 33.9264 3.8662 32.0141C3.01096 31.0795 3.19031 29.6024 4.24437 28.8996C6.40111 27.4616 7.40592 24.8122 6.74513 22.3057C6.42218 21.0806 7.26742 19.8561 8.52735 19.7237C11.1053 19.4527 13.2263 17.5737 13.806 15.0472C14.0894 13.8124 15.4069 13.1209 16.584 13.5892Z" stroke="url(#paint31_linear_1050_13132)" stroke-width="4"/>
<path d="M31.1448 21.7472L33.8088 23.4344L20.0744 44.1248L17.44 42.4376L31.1448 21.7472ZM19.1272 22.6648C20.1139 22.6648 20.992 22.8819 21.7616 23.316C22.5509 23.7304 23.1627 24.3421 23.5968 25.1512C24.0507 25.9405 24.2776 26.8581 24.2776 27.904C24.2776 28.9499 24.0507 29.8773 23.5968 30.6864C23.1627 31.4757 22.5509 32.0875 21.7616 32.5216C20.992 32.936 20.1139 33.1432 19.1272 33.1432C18.1603 33.1432 17.2821 32.936 16.4928 32.5216C15.7232 32.0875 15.1115 31.4757 14.6576 30.6864C14.2037 29.8773 13.9768 28.9499 13.9768 27.904C13.9768 26.8581 14.2037 25.9405 14.6576 25.1512C15.1115 24.3421 15.7232 23.7304 16.4928 23.316C17.2821 22.8819 18.1603 22.6648 19.1272 22.6648ZM19.1272 25.24C17.7656 25.24 17.0848 26.128 17.0848 27.904C17.0848 28.6736 17.2328 29.3149 17.5288 29.828C17.8445 30.3213 18.3773 30.568 19.1272 30.568C20.4691 30.568 21.14 29.68 21.14 27.904C21.14 26.128 20.4691 25.24 19.1272 25.24ZM32.0624 32.9952C33.0491 32.9952 33.9272 33.2123 34.6968 33.6464C35.4861 34.0608 36.0979 34.6725 36.532 35.4816C36.9859 36.2709 37.2128 37.1885 37.2128 38.2344C37.2128 39.2803 36.9859 40.1979 36.532 40.9872C36.0979 41.7765 35.4861 42.3883 34.6968 42.8224C33.9075 43.2565 33.0293 43.4736 32.0624 43.4736C31.0955 43.4736 30.2173 43.2565 29.428 42.8224C28.6387 42.3883 28.0171 41.7765 27.5632 40.9872C27.1093 40.1979 26.8824 39.2803 26.8824 38.2344C26.8824 37.1885 27.1093 36.2709 27.5632 35.4816C28.0171 34.6725 28.6387 34.0608 29.428 33.6464C30.2173 33.2123 31.0955 32.9952 32.0624 32.9952ZM32.0624 35.5704C30.7008 35.5704 30.02 36.4584 30.02 38.2344C30.02 39.004 30.168 39.6453 30.464 40.1584C30.7797 40.6517 31.3125 40.8984 32.0624 40.8984C33.4043 40.8984 34.0752 40.0104 34.0752 38.2344C34.0752 36.4584 33.4043 35.5704 32.0624 35.5704Z" fill="url(#paint32_linear_1050_13132)"/>
<defs>
<linearGradient id="paint0_linear_1050_13132" x1="22.0024" y1="0.00194439" x2="22.5348" y2="7.8504" gradientUnits="userSpaceOnUse">
<stop offset="0.0864582" stop-color="#FF6600"/>
<stop offset="0.961458" stop-color="#FF6600"/>
</linearGradient>
<linearGradient id="paint1_linear_1050_13132" x1="22.0024" y1="1.86816" x2="22.5348" y2="9.71661" gradientUnits="userSpaceOnUse">
<stop offset="0.0864582" stop-color="#FF6600"/>
<stop offset="0.961458" stop-color="#FF6600"/>
</linearGradient>
<linearGradient id="paint2_linear_1050_13132" x1="22.0024" y1="3.73534" x2="22.5348" y2="11.5838" gradientUnits="userSpaceOnUse">
<stop offset="0.0864582" stop-color="#FF6600"/>
<stop offset="0.961458" stop-color="#FF6600"/>
</linearGradient>
<linearGradient id="paint3_linear_1050_13132" x1="22.0024" y1="5.60155" x2="22.5348" y2="13.45" gradientUnits="userSpaceOnUse">
<stop offset="0.0864582" stop-color="#FF6600"/>
<stop offset="0.961458" stop-color="#FF6600"/>
</linearGradient>
<linearGradient id="paint4_linear_1050_13132" x1="22.0024" y1="7.46874" x2="22.5348" y2="15.3172" gradientUnits="userSpaceOnUse">
<stop offset="0.0864582" stop-color="#FF6600"/>
<stop offset="0.961458" stop-color="#FF6600"/>
</linearGradient>
<linearGradient id="paint5_linear_1050_13132" x1="22.0024" y1="9.33495" x2="22.5348" y2="17.1834" gradientUnits="userSpaceOnUse">
<stop offset="0.0864582" stop-color="#FF6600"/>
<stop offset="0.961458" stop-color="#FF6600"/>
</linearGradient>
<linearGradient id="paint6_linear_1050_13132" x1="22.0024" y1="11.2021" x2="22.5348" y2="19.0506" gradientUnits="userSpaceOnUse">
<stop offset="0.0864582" stop-color="#FF6600"/>
<stop offset="0.961458" stop-color="#FF6600"/>
</linearGradient>
<linearGradient id="paint7_linear_1050_13132" x1="22.0024" y1="13.0684" x2="22.5348" y2="20.9168" gradientUnits="userSpaceOnUse">
<stop offset="0.0864582" stop-color="#FF6600"/>
<stop offset="0.961458" stop-color="#FF6600"/>
</linearGradient>
<linearGradient id="paint8_linear_1050_13132" x1="22.0024" y1="14.9355" x2="22.5348" y2="22.784" gradientUnits="userSpaceOnUse">
<stop offset="0.0864582" stop-color="#FF6600"/>
<stop offset="0.961458" stop-color="#FF6600"/>
</linearGradient>
<linearGradient id="paint9_linear_1050_13132" x1="22.0024" y1="16.8017" x2="22.5348" y2="24.6502" gradientUnits="userSpaceOnUse">
<stop offset="0.0864582" stop-color="#FF6600"/>
<stop offset="0.961458" stop-color="#FF6600"/>
</linearGradient>
<linearGradient id="paint10_linear_1050_13132" x1="22.0024" y1="18.6689" x2="22.5348" y2="26.5174" gradientUnits="userSpaceOnUse">
<stop offset="0.0864582" stop-color="#FF6600"/>
<stop offset="0.961458" stop-color="#FF6600"/>
</linearGradient>
<linearGradient id="paint11_linear_1050_13132" x1="22.0024" y1="20.5351" x2="22.5348" y2="28.3836" gradientUnits="userSpaceOnUse">
<stop offset="0.0864582" stop-color="#FF6600"/>
<stop offset="0.961458" stop-color="#FF6600"/>
</linearGradient>
<linearGradient id="paint12_linear_1050_13132" x1="22.0024" y1="22.4023" x2="22.5348" y2="30.2508" gradientUnits="userSpaceOnUse">
<stop offset="0.0864582" stop-color="#FF6600"/>
<stop offset="0.961458" stop-color="#FF6600"/>
</linearGradient>
<linearGradient id="paint13_linear_1050_13132" x1="22.0024" y1="24.2685" x2="22.5348" y2="32.117" gradientUnits="userSpaceOnUse">
<stop offset="0.0864582" stop-color="#FF6600"/>
<stop offset="0.961458" stop-color="#FF6600"/>
</linearGradient>
<linearGradient id="paint14_linear_1050_13132" x1="22.0024" y1="26.1348" x2="22.5348" y2="33.9832" gradientUnits="userSpaceOnUse">
<stop offset="0.0864582" stop-color="#FF6600"/>
<stop offset="0.961458" stop-color="#FF6600"/>
</linearGradient>
<linearGradient id="paint15_linear_1050_13132" x1="22.0024" y1="28.0019" x2="22.5348" y2="35.8504" gradientUnits="userSpaceOnUse">
<stop offset="0.0864582" stop-color="#FF6600"/>
<stop offset="0.961458" stop-color="#FF6600"/>
</linearGradient>
<linearGradient id="paint16_linear_1050_13132" x1="22.0024" y1="29.8682" x2="22.5348" y2="37.7166" gradientUnits="userSpaceOnUse">
<stop offset="0.0864582" stop-color="#FF6600"/>
<stop offset="0.961458" stop-color="#FF6600"/>
</linearGradient>
<linearGradient id="paint17_linear_1050_13132" x1="22.0024" y1="31.7353" x2="22.5348" y2="39.5838" gradientUnits="userSpaceOnUse">
<stop offset="0.0864582" stop-color="#FF6600"/>
<stop offset="0.961458" stop-color="#FF6600"/>
</linearGradient>
<linearGradient id="paint18_linear_1050_13132" x1="22.0024" y1="33.6016" x2="22.5348" y2="41.45" gradientUnits="userSpaceOnUse">
<stop offset="0.0864582" stop-color="#FF6600"/>
<stop offset="0.961458" stop-color="#FF6600"/>
</linearGradient>
<linearGradient id="paint19_linear_1050_13132" x1="22.0024" y1="35.4687" x2="22.5348" y2="43.3172" gradientUnits="userSpaceOnUse">
<stop offset="0.0864582" stop-color="#FF6600"/>
<stop offset="0.961458" stop-color="#FF6600"/>
</linearGradient>
<linearGradient id="paint20_linear_1050_13132" x1="22.0024" y1="37.335" x2="22.5348" y2="45.1834" gradientUnits="userSpaceOnUse">
<stop offset="0.0864582" stop-color="#FF6600"/>
<stop offset="0.961458" stop-color="#FF6600"/>
</linearGradient>
<linearGradient id="paint21_linear_1050_13132" x1="22.0024" y1="39.2021" x2="22.5348" y2="47.0506" gradientUnits="userSpaceOnUse">
<stop offset="0.0864582" stop-color="#FF6600"/>
<stop offset="0.961458" stop-color="#FF6600"/>
</linearGradient>
<linearGradient id="paint22_linear_1050_13132" x1="22.0024" y1="41.0684" x2="22.5348" y2="48.9168" gradientUnits="userSpaceOnUse">
<stop offset="0.0864582" stop-color="#FF6600"/>
<stop offset="0.961458" stop-color="#FF6600"/>
</linearGradient>
<linearGradient id="paint23_linear_1050_13132" x1="22.0024" y1="42.9355" x2="22.5348" y2="50.784" gradientUnits="userSpaceOnUse">
<stop offset="0.0864582" stop-color="#FF6600"/>
<stop offset="0.961458" stop-color="#FF6600"/>
</linearGradient>
<linearGradient id="paint24_linear_1050_13132" x1="22.0024" y1="44.8017" x2="22.5348" y2="52.6502" gradientUnits="userSpaceOnUse">
<stop offset="0.0864582" stop-color="#FF6600"/>
<stop offset="0.961458" stop-color="#FF6600"/>
</linearGradient>
<linearGradient id="paint25_linear_1050_13132" x1="22.0024" y1="46.6689" x2="22.5348" y2="54.5174" gradientUnits="userSpaceOnUse">
<stop offset="0.0864582" stop-color="#FF6600"/>
<stop offset="0.961458" stop-color="#FF6600"/>
</linearGradient>
<linearGradient id="paint26_linear_1050_13132" x1="22.0024" y1="48.5351" x2="22.5348" y2="56.3836" gradientUnits="userSpaceOnUse">
<stop offset="0.0864582" stop-color="#FF6600"/>
<stop offset="0.961458" stop-color="#FF6600"/>
</linearGradient>
<linearGradient id="paint27_linear_1050_13132" x1="22.0024" y1="50.4023" x2="22.5348" y2="58.2508" gradientUnits="userSpaceOnUse">
<stop offset="0.0864582" stop-color="#FF6600"/>
<stop offset="0.961458" stop-color="#FF6600"/>
</linearGradient>
<linearGradient id="paint28_linear_1050_13132" x1="22.0024" y1="52.2685" x2="22.5348" y2="60.117" gradientUnits="userSpaceOnUse">
<stop offset="0.0864582" stop-color="#FF6600"/>
<stop offset="0.961458" stop-color="#FF6600"/>
</linearGradient>
<linearGradient id="paint29_linear_1050_13132" x1="22.0024" y1="54.1357" x2="22.5348" y2="61.9842" gradientUnits="userSpaceOnUse">
<stop offset="0.0864582" stop-color="#FF6600"/>
<stop offset="0.961458" stop-color="#FF6600"/>
</linearGradient>
<linearGradient id="paint30_linear_1050_13132" x1="22.0024" y1="56.0019" x2="22.5348" y2="63.8504" gradientUnits="userSpaceOnUse">
<stop offset="0.0864582" stop-color="#FF6600"/>
<stop offset="0.961458" stop-color="#FF6600"/>
</linearGradient>
<linearGradient id="paint31_linear_1050_13132" x1="17.0227" y1="-76.6727" x2="147.286" y2="-51.6156" gradientUnits="userSpaceOnUse">
<stop stop-color="#2042B8"/>
<stop offset="0.54856" stop-color="#FF6600"/>
</linearGradient>
<linearGradient id="paint32_linear_1050_13132" x1="21.3182" y1="-37.4713" x2="82.4839" y2="-28.9739" gradientUnits="userSpaceOnUse">
<stop stop-color="#2042B8"/>
<stop offset="0.54856" stop-color="#FF6600"/>
</linearGradient>
<clipPath id="clip0_1050_13132">
<path d="M1 28C1 12.536 13.536 0 29 0V0C44.464 0 57 12.536 57 28V28C57 43.464 44.464 56 29 56V56C13.536 56 1 43.464 1 28V28Z" fill="white"/>
</clipPath>
</defs>
</svg>
