<svg width="70" height="70" viewBox="0 0 70 70" fill="none" xmlns="http://www.w3.org/2000/svg">
<path fill-rule="evenodd" clip-rule="evenodd" d="M36.2465 39.6373C37.2538 39.7205 40.4064 41.3447 40.8354 41.3447C41.0986 41.3447 41.6669 40.7956 41.9404 40.5913C42.8503 39.9115 44.8456 38.7245 45.8545 38.6413C45.8545 37.4668 46.4281 35.4015 46.4281 33.8036H51.4473C51.4473 35.4015 52.0209 37.4668 52.0209 38.6413C52.9803 38.7205 54.9429 39.8641 55.7719 40.4687C57.1817 41.4969 56.4295 41.7081 59.1949 40.4947C59.7305 40.2597 61.0171 39.6879 61.6291 39.6373C61.7405 40.1113 63.5427 43.0492 63.9236 43.7635L60.0518 46.7515C60.6153 49.1517 60.2345 50.2636 60.0518 52.4428C60.8298 52.8513 62.883 54.597 63.9236 55.2886L61.4858 59.5571C60.1575 58.8597 58.3886 58.4153 57.0401 57.7074L55.0342 59.132C54.3286 59.6001 53.5809 59.9448 52.7303 60.2609C52.1539 60.4753 52.0454 60.4467 51.9258 61.1702L51.5301 64.1924C51.328 65.7226 52.1757 65.3907 46.8583 65.3907C46.2592 65.3907 46.3145 63.9938 46.1332 62.6952C45.8552 60.7041 46.0715 60.6025 45.1452 60.2607C42.7935 59.3926 42.4776 58.7985 40.8352 57.7073C39.4868 58.4152 37.7178 58.8596 36.3896 59.557L33.9517 55.2884C34.651 54.8238 35.1648 54.381 35.8358 53.8851C36.5074 53.3887 37.0945 52.8255 37.8236 52.4427C37.6469 50.3368 37.2418 49.2286 37.8236 46.7513C37.5074 46.5414 37.1712 46.268 36.8529 46.0071L33.9517 43.7634C34.3961 42.9298 36.1353 40.1093 36.2462 39.6372L36.2465 39.6373ZM40.2618 36.3647C39.84 36.3647 38.0037 35.5253 37.4551 35.3077C34.3519 34.0767 34.609 33.9368 34.1294 34.6909C33.9587 34.9593 33.8702 35.1324 33.7143 35.4173C32.0428 38.4731 29.7653 41.996 28.2158 44.9016L30.752 46.7961C31.1941 47.1521 31.5365 47.3894 31.9642 47.7277C32.2203 47.9303 32.3242 48.009 32.6077 48.2274C33.2641 48.7333 33.0917 48.7355 33.0917 50.3084C33.0917 50.8334 29.0088 53.3301 28.3593 54.2924C28.4948 54.8694 28.7536 55.1261 29.0271 55.6217C29.6943 56.8313 34.2439 64.3743 34.3822 64.9638L39.0336 63.1757C39.6468 62.9308 40.0137 62.5411 40.6324 62.8732C40.8554 62.993 41.0304 63.1191 41.2747 63.2472C42.0991 63.6799 41.8214 63.5918 42.1341 65.8095C42.3024 67.0028 42.6018 68.4904 42.6999 69.6591H55.1762L55.9636 64.0375C56.1277 63.2739 56.4988 63.3168 57.154 62.9304C57.8778 62.5037 58.706 63.1205 60.2773 63.7441C60.916 63.9976 62.9984 64.9229 63.4936 64.9638C63.6068 64.4812 63.9262 64.0796 64.1845 63.6572L68.7996 55.7152C69.0723 55.2157 69.375 54.8955 69.5167 54.2924C69.1513 53.7509 67.7983 52.8473 67.1776 52.3447C64.4864 50.1644 64.7843 51.1897 64.7843 48.8856C64.7843 48.4482 65.3553 48.1759 65.8326 47.7915C66.2993 47.4158 66.6546 47.1754 67.1233 46.7956L69.66 44.9016L66.5662 39.5765C66.2542 39.0532 63.5524 34.2302 63.3503 34.2302C62.6661 34.2302 58.2355 36.3645 57.6142 36.3645C57.4299 36.3645 56.2716 35.7002 56.1568 35.5341C55.9173 35.1878 55.2352 30.0939 55.1764 29.3926H42.7001C42.6502 29.9889 42.4962 30.733 42.4051 31.3764C42.3197 31.98 41.9653 35.0863 41.7725 35.4442C41.6369 35.6957 40.479 36.3645 40.2623 36.3645L40.2618 36.3647Z" fill="url(#paint0_linear_1002_5355)"/>
<path fill-rule="evenodd" clip-rule="evenodd" d="M7.00687 8.56983C7.47205 8.60826 9.28123 9.39829 9.78948 9.60588C10.9289 10.0713 10.1887 10.0537 12.1745 8.75191C12.612 8.46505 12.9778 8.28738 13.48 8.09217C14.7789 7.58723 14.4368 8.00946 14.8591 4.63048C14.9762 3.69392 14.7145 3.96974 18.5977 3.96974L19.0481 7.31803C19.2234 8.15897 19.7709 7.68771 21.4031 8.77654C23.4126 10.1169 22.6938 10.052 23.7116 9.62222C24.2775 9.38328 26.0503 8.61499 26.5954 8.56994C26.7137 9.07378 28.0594 11.2681 28.334 11.6751C27.9052 11.9001 27.9615 11.9101 27.5894 12.2013C27.3157 12.4154 27.1253 12.5336 26.8633 12.7459C26.543 13.0054 25.6391 13.7758 25.3204 13.8601C25.3374 14.6183 25.5522 15.2545 25.5522 16.1602C25.5522 17.066 25.3374 17.7022 25.3204 18.4603C25.7917 18.5852 27.633 20.2774 28.334 20.6454C28.0621 21.0481 26.714 23.2453 26.5954 23.7504C26.0346 23.7042 24.3316 22.952 23.7951 22.7321C22.5792 22.2336 23.4409 22.2496 21.4732 23.4985L19.6176 24.4175C18.9379 24.6773 19.0494 24.6146 18.8294 26.6255C18.7688 27.1791 18.6093 27.8307 18.5976 28.3505C14.3281 28.3505 14.9689 28.7846 14.7725 26.9705C14.3152 22.7432 14.3926 25.6314 11.0899 22.8008C10.5143 22.3076 10.6 22.3791 9.87261 22.6801C9.32786 22.9055 7.47038 23.712 7.00665 23.7503C6.43252 22.6737 5.83959 21.7171 5.26802 20.6453C6.26136 19.9853 7.16089 19.1278 8.16581 18.4602L8.04985 15.8152C8.04985 14.9823 8.16581 14.6634 8.16581 13.8601C7.16089 13.1926 6.26136 12.3351 5.26802 11.6751C5.83959 10.6033 6.43252 9.64662 7.00665 8.56994L7.00687 8.56983ZM5.50005 4.08468C5.40847 4.47457 5.1504 4.79931 4.94162 5.14061C4.71571 5.51006 4.52296 5.84783 4.30517 6.23418L0.631836 12.5949C1.04037 12.8093 1.28809 13.0159 1.64821 13.3115L4.06568 15.168C4.57282 15.559 4.45686 15.5278 4.45686 16.62C4.45686 16.8879 4.30695 16.9583 4.1329 17.1037L0.631836 19.7252C1.02835 20.4687 1.41696 21.0994 1.85788 21.8438C2.30035 22.5905 2.6538 23.2499 3.07168 23.9746C3.31817 24.4019 5.40602 27.8355 5.49995 28.2355L9.12643 26.7732C10.1967 26.3433 9.83867 26.2672 10.8394 26.8475C11.3936 27.169 11.1645 26.8496 11.4468 28.7752L11.8749 31.8005H21.7271C21.7271 30.6263 22.3066 28.3828 22.3066 27.0854C23.9099 26.2436 23.1834 26.2834 25.0388 27.0196C26.0204 27.409 27.1283 27.7851 27.9861 28.2354L31.6722 21.8873C31.9751 21.3861 32.74 20.2118 32.8542 19.7251L30.0393 17.5729C29.6229 17.2664 29.4758 17.0843 29.0293 16.8499V15.4699C29.6269 15.1562 32.0598 13.1227 32.8542 12.5949C32.6949 11.9162 29.7244 7.10791 29.2213 6.1941C28.81 5.4469 28.3658 4.79665 27.9861 4.08457L23.6575 5.86594C23.3612 5.90745 22.7677 5.47672 22.3066 5.23468C22.3066 3.93728 21.7271 1.69371 21.7271 0.519531H11.8749C11.8417 0.914935 11.7174 1.53868 11.663 1.9194L11.2546 4.96427C11.1455 5.39777 11.2266 5.23159 10.9148 5.43222C9.83755 6.12531 9.93793 5.86903 7.96716 5.08661L5.49983 4.08468H5.50005Z" fill="url(#paint1_linear_1002_5355)"/>
<path fill-rule="evenodd" clip-rule="evenodd" d="M34.1465 9.78389L41.1733 16.8263L44.2553 13.8378L42.4674 11.9848C45.2192 11.9534 46.7225 12.0888 48.3228 13.2897C49.4955 14.1699 50.817 15.9732 50.817 17.9295V24.9014H55.2626C55.2626 19.8927 55.9337 15.6731 53.0542 11.868C51.8642 10.2955 49.876 8.89497 47.8626 8.19743C46.0623 7.57366 44.8123 7.685 42.4995 7.685L44.2524 5.86671L41.2439 2.8125L34.1466 9.78389H34.1465Z" fill="#AEAEAE"/>
<path fill-rule="evenodd" clip-rule="evenodd" d="M5.86963 39.926C5.86963 43.417 7.36297 45.7334 9.56017 47.9317C12.128 50.5009 15.3088 50.5974 18.6327 50.5974L16.8798 52.4156L19.8883 55.4698L26.9856 48.4984L19.9588 41.4559L16.8768 44.4444L18.6647 46.2974C15.9602 46.3288 14.3733 46.1663 12.8093 44.9925C11.5656 44.0591 10.3151 42.313 10.3151 40.2106V33.3809H5.86963V39.926V39.926Z" fill="#AEAEAE"/>
<path fill-rule="evenodd" clip-rule="evenodd" d="M46.8582 49.5972C46.8582 46.5432 51.0169 46.5559 51.0169 49.5972C51.0169 51.2313 48.7039 52.0895 47.5281 50.9244C47.2212 50.6203 46.8581 50.1399 46.8581 49.5972H46.8582ZM42.4126 49.1703C42.4126 56.8928 52.624 57.9539 54.8717 51.999C55.5711 50.1462 55.7117 48.6461 54.8432 46.7968C52.464 41.7308 45.5524 41.7143 43.1262 46.6057C42.9554 46.9502 42.8003 47.2931 42.6768 47.7249C42.6224 47.9149 42.4126 48.9287 42.4126 49.1703V49.1703Z" fill="url(#paint2_linear_1002_5355)"/>
<path fill-rule="evenodd" clip-rule="evenodd" d="M16.8592 17.8846C14.536 17.8846 14.5184 14.3965 16.8466 14.4719C18.2344 14.5168 19.0987 16.2245 17.9568 17.3636C17.7569 17.563 17.1807 17.8846 16.8592 17.8846V17.8846ZM11.5273 16.1595C11.5273 22.5174 21.3416 23.5209 22.0114 16.3252C22.2635 13.6171 19.6718 10.9844 17.207 10.9844C15.3622 10.9844 14.3389 11.2326 13.003 12.5635C12.2014 13.362 11.5275 14.6122 11.5275 16.1595H11.5273Z" fill="url(#paint3_linear_1002_5355)"/>
<defs>
<linearGradient id="paint0_linear_1002_5355" x1="42.58" y1="-35.3999" x2="146.181" y2="-14.8885" gradientUnits="userSpaceOnUse">
<stop stop-color="#2042B8"/>
<stop offset="0.54856" stop-color="#FF6600"/>
</linearGradient>
<linearGradient id="paint1_linear_1002_5355" x1="11.7998" y1="-49.8144" x2="92.3436" y2="-33.855" gradientUnits="userSpaceOnUse">
<stop stop-color="#2042B8"/>
<stop offset="0.54856" stop-color="#FF6600"/>
</linearGradient>
<linearGradient id="paint2_linear_1002_5355" x1="46.9299" y1="22.2893" x2="79.5465" y2="28.6527" gradientUnits="userSpaceOnUse">
<stop stop-color="#2042B8"/>
<stop offset="0.54856" stop-color="#FF6600"/>
</linearGradient>
<linearGradient id="paint3_linear_1002_5355" x1="15.1669" y1="-5.66971" x2="41.4453" y2="-0.541071" gradientUnits="userSpaceOnUse">
<stop stop-color="#2042B8"/>
<stop offset="0.54856" stop-color="#FF6600"/>
</linearGradient>
</defs>
</svg>
