<svg width="65" height="64" viewBox="0 0 65 64" fill="none" xmlns="http://www.w3.org/2000/svg">
<path fill-rule="evenodd" clip-rule="evenodd" d="M60.8108 17.5703L3.01261 17.5414C3.01753 17.5382 3.03053 17.5302 3.03662 17.5263L5.74291 16.0621C5.79279 16.0361 5.81809 16.0277 5.87453 15.9988L8.24123 14.7406C8.30153 14.7076 8.30786 14.7055 8.36781 14.6722L9.25953 14.1998C9.34958 14.1507 9.39899 14.1231 9.48705 14.0766L10.2456 13.6658C10.2532 13.6616 10.2633 13.6564 10.271 13.6522C10.3093 13.6321 10.3383 13.6208 10.3764 13.6017L11.9298 12.7775C11.9379 12.7736 11.9486 12.7694 11.9567 12.7653C11.9646 12.7615 11.9748 12.7563 11.9826 12.7523L15.2809 10.9837C15.3176 10.963 15.3201 10.9639 15.3577 10.9435L15.4324 10.9013C15.44 10.8971 15.4494 10.8911 15.457 10.887L16.4759 10.3468C16.5664 10.2948 16.6243 10.268 16.7079 10.228L17.4715 9.82227C17.4789 9.81807 17.4881 9.81166 17.4956 9.80734L18.7379 9.13983C18.7457 9.13563 18.756 9.13073 18.7636 9.12653L18.8869 9.05505C18.8947 9.05097 18.9048 9.04595 18.9128 9.04199L21.1559 7.85506C21.1636 7.85098 21.1735 7.8455 21.1813 7.84154L21.414 7.7234C21.4214 7.71909 21.4309 7.71291 21.4382 7.70871L22.4585 7.16982C22.5391 7.12574 22.4999 7.13892 22.5821 7.09846L23.3717 6.6798C23.3791 6.67549 23.3883 6.66907 23.3956 6.66464L24.1806 6.24132C24.1882 6.23701 24.1983 6.23188 24.2059 6.22768C24.2163 6.22208 24.2471 6.20692 24.2575 6.20132C24.3142 6.17077 24.3451 6.15118 24.3824 6.13135L27.6889 4.37091C27.7082 4.36041 27.7606 4.32765 27.7619 4.32695L27.8394 4.28764C27.8477 4.2838 27.8585 4.27995 27.8669 4.2761C27.8753 4.27225 27.8861 4.26852 27.8944 4.26467L28.4248 3.97651C28.5097 3.92555 28.4159 3.97605 28.5255 3.92135L29.0391 3.65535C29.0471 3.6515 29.0573 3.6466 29.0653 3.64264L29.4451 3.43786C29.4557 3.43249 29.4874 3.41827 29.498 3.41279C29.5753 3.37255 29.5014 3.41057 29.5723 3.37022C29.5797 3.36602 29.589 3.35938 29.5965 3.35529L30.7669 2.7328C30.7771 2.72696 30.8068 2.71075 30.8172 2.70516L31.3327 2.44102C31.4099 2.40079 31.3362 2.43869 31.4071 2.39845C31.8356 2.15508 31.902 2.11508 32.3434 2.38399L32.573 2.50516C32.6398 2.53909 32.6163 2.52907 32.6761 2.55799L33.9217 3.22223C33.9952 3.26142 34.082 3.29804 34.1547 3.34002L35.9622 4.29977C36.0517 4.34385 35.9937 4.31901 36.0611 4.3568C36.0686 4.361 36.0782 4.36694 36.0858 4.37102L36.5185 4.60088C36.5735 4.6305 36.5989 4.64216 36.6461 4.66816C36.7304 4.71458 36.7734 4.73674 36.8756 4.78945L37.0968 4.91901C37.1975 4.97393 37.226 4.98326 37.3312 5.03539L38.9061 5.87713C38.9813 5.91899 39.0434 5.94465 39.1394 5.99479C39.1471 5.99888 39.1572 6.00413 39.1648 6.00844L39.4965 6.18337C39.5038 6.18768 39.5135 6.19374 39.5208 6.19806L40.9668 6.97356C40.9747 6.97764 40.9849 6.98265 40.9926 6.98685C41.0003 6.99093 41.0102 6.99641 41.0178 7.00061L43.054 8.08247C43.119 8.12002 43.1037 8.11815 43.1758 8.15547L44.6293 8.92374C44.6369 8.92794 44.6465 8.93377 44.654 8.93797L48.1575 10.8133C48.2064 10.8374 48.2146 10.8361 48.2658 10.8609L48.3664 10.9162C48.4146 10.9431 48.4182 10.943 48.4682 10.9704C48.4759 10.9746 48.486 10.9797 48.4935 10.984L49.8664 11.7159C49.8743 11.72 49.8845 11.725 49.8922 11.7291L50.2994 11.9455C50.3076 11.9494 50.3183 11.9536 50.3264 11.9575L51.2606 12.4655C51.2679 12.4698 51.2774 12.476 51.2847 12.4804C51.2919 12.4847 51.3012 12.4913 51.3085 12.4956L53.6795 13.7495C53.7439 13.7795 53.67 13.7425 53.7346 13.7724L53.7877 13.7973C53.829 13.8187 53.8307 13.823 53.8853 13.8557L54.3396 14.1029C54.4041 14.1339 54.4031 14.1287 54.4711 14.1664L55.5335 14.741C55.5411 14.7452 55.5513 14.7504 55.5588 14.7547L57.0568 15.5562C57.1138 15.5851 57.1336 15.5867 57.1917 15.6163L58.3515 16.2495C58.3593 16.2536 58.369 16.259 58.3769 16.263L58.5601 16.3527C58.5675 16.3569 58.577 16.3631 58.5844 16.3674C58.5916 16.3717 58.6009 16.3782 58.6081 16.3827L59.9994 17.1352C60.0548 17.1638 60.0679 17.1652 60.1302 17.1992L60.8111 17.5707L60.8108 17.5703ZM31.419 0H32.0585C32.2417 0.00268218 32.4184 0.0137614 32.5364 0.0531779C32.8655 0.163264 33.1837 0.325827 33.4855 0.507399C33.4927 0.511714 33.5021 0.518245 33.5093 0.52256L33.8934 0.723257C33.9014 0.727222 33.9115 0.732236 33.9193 0.736318C33.9907 0.773868 33.9185 0.73865 33.9921 0.780399L36.6377 2.18843C36.6456 2.19239 36.6555 2.19776 36.6633 2.20172C36.6712 2.2058 36.681 2.21117 36.6887 2.21537L37.6851 2.73909C37.7638 2.78189 37.748 2.77431 37.8081 2.81093L40.6602 4.32438C40.6671 4.32799 40.7239 4.35785 40.7363 4.36508L41.0329 4.53616C41.0405 4.54024 41.05 4.5463 41.0577 4.55027C41.0656 4.55435 41.0756 4.55936 41.0837 4.56332L41.1382 4.58688C41.1466 4.59073 41.1572 4.59446 41.1657 4.59831L41.696 4.88647C41.7731 4.93277 41.7288 4.90758 41.8234 4.95399L42.711 5.4306C42.7194 5.43445 42.7301 5.43818 42.7386 5.44203L46.5084 7.44096C46.5408 7.45752 46.6005 7.48935 46.6352 7.50906L47.0867 7.75909C47.1268 7.7788 47.1402 7.78929 47.1614 7.8013C47.2314 7.84119 47.159 7.80375 47.2357 7.84399L51.0312 9.85609C51.8023 10.3179 52.6283 10.701 53.4162 11.135L55.2025 12.0772C55.2627 12.1139 55.2468 12.1062 55.3255 12.149L55.7781 12.398C55.7853 12.4023 55.7948 12.4086 55.8022 12.4129L55.9319 12.4781C55.9404 12.4819 55.951 12.4857 55.9595 12.4895L58.3305 13.7434C58.3378 13.7477 58.347 13.7542 58.3543 13.7585C58.3615 13.763 58.371 13.7692 58.3784 13.7735C58.3858 13.7778 58.3954 13.7839 58.4027 13.7881L59.4961 14.3708C59.5062 14.3767 59.5348 14.3941 59.5449 14.3999C59.5526 14.4043 59.5626 14.4094 59.5704 14.4136C59.6034 14.4318 59.616 14.4362 59.6474 14.4535L61.1708 15.2687C61.1784 15.2729 61.1887 15.2778 61.1964 15.282C61.2339 15.3023 61.2257 15.2968 61.2725 15.3228L61.3731 15.3782C61.3813 15.3822 61.3917 15.3865 61.3999 15.3904C61.4082 15.3942 61.419 15.3982 61.4273 15.402C61.4356 15.4059 61.4464 15.4097 61.4547 15.4136L61.6596 15.5205C61.6675 15.5246 61.6779 15.5291 61.6858 15.5333L62.1776 15.8209C62.4289 16.0031 62.6345 16.175 62.8083 16.4368C62.9058 16.5838 63.1143 16.9781 63.1143 17.1038V18.1145V18.1225V18.1298V18.1367V18.1431V18.149C63.114 18.2612 63.1111 18.1068 63.0692 18.2251C63.0509 18.2765 63.0605 18.2489 63.0417 18.3143L62.869 18.6866L62.2037 19.3846C62.1967 19.3892 62.1869 19.3952 62.1799 19.3998C62.1702 19.4061 62.1429 19.4247 62.1333 19.4311L61.6796 19.6401C61.3517 19.7952 60.8394 19.7473 60.4601 19.7473H3.31543L2.53543 19.7077C2.38718 19.7047 2.29666 19.7282 2.17195 19.681L1.28281 19.1671C1.24628 19.1348 1.26759 19.1555 1.22239 19.1107L0.917113 18.715C0.863949 18.6356 0.88737 18.6674 0.847439 18.59L0.730924 18.3173C0.727645 18.308 0.724015 18.2979 0.720736 18.2886L0.661133 18.0145V17.1845C0.672843 17.096 0.691578 17.0104 0.720736 16.9303C0.878587 16.4965 1.14534 16.1337 1.52978 15.8701L6.3174 13.2911C6.37911 13.2602 6.38356 13.255 6.44609 13.2249L8.07026 12.3546C8.07764 12.3503 8.08759 12.3447 8.09485 12.3403L8.90518 11.9033C9.01467 11.8467 9.05741 11.8205 9.16023 11.7686L10.364 11.1404C10.4443 11.1017 10.4279 11.1098 10.4908 11.0723L11.3279 10.6231C11.3827 10.5938 11.3345 10.6177 11.402 10.5803L12.7198 9.87125C12.7272 9.86693 12.7365 9.86052 12.7438 9.85632L13.0531 9.69784C13.0889 9.67836 13.0949 9.67685 13.1296 9.65749L14.6024 8.86963C14.6098 8.86531 14.6195 8.85948 14.627 8.85528L15.9307 8.17109C15.9784 8.14427 15.9944 8.13389 16.0558 8.10124L17.1723 7.50276C17.1807 7.49892 17.1915 7.49518 17.1998 7.49134L18.8037 6.63968C18.8752 6.60237 18.861 6.60388 18.9254 6.56645C18.9748 6.53788 18.9991 6.52902 19.0553 6.5015L20.1035 5.95165C20.1418 5.93159 20.1868 5.90838 20.2297 5.88296L20.3518 5.81031C20.3887 5.79013 20.3925 5.79037 20.4287 5.77031L21.5964 5.14501C21.6042 5.14093 21.6139 5.13533 21.6216 5.13125L21.8544 5.01323C21.8617 5.00892 21.8709 5.00239 21.8782 4.99807L22.2892 4.78536C22.3449 4.75318 22.35 4.74502 22.4096 4.71085L23.0248 4.39062C23.0323 4.38642 23.042 4.38071 23.0495 4.37639L23.2487 4.26374C23.2561 4.25942 23.2657 4.25336 23.2731 4.24916C23.2833 4.24333 23.3132 4.22735 23.3235 4.22176L25.0293 3.316C25.1078 3.269 25.0644 3.29477 25.1571 3.24882L28.2813 1.57887C28.326 1.55683 28.3216 1.56325 28.3632 1.54377L28.9716 1.21678C28.9793 1.2127 28.9893 1.20733 28.997 1.20313C29.0049 1.19905 29.0151 1.19415 29.0229 1.18996L29.5636 0.91206C29.6349 0.872993 29.6127 0.879873 29.6841 0.837658C29.7807 0.780516 29.8572 0.746697 29.9411 0.704948L31.2888 0.0257732C31.3333 0.0113128 31.3761 0.00396531 31.4197 0.000350192L31.419 0Z" fill="#AEAEAE"/>
<path fill-rule="evenodd" clip-rule="evenodd" d="M26.7347 42.1375V40.6603C26.7347 40.5263 26.7635 40.5098 26.7737 40.3882C26.9007 40.4221 26.7998 40.3964 26.8845 40.4334L27.2843 40.6183C27.4079 40.669 27.3831 40.673 27.532 40.7214L27.9886 40.8885C28.0732 40.9211 27.9674 40.8855 28.0693 40.9248L28.9314 41.1936C29.0796 41.2258 29.0856 41.1972 29.2277 41.2484L30.1693 41.438C30.9324 41.4711 31.3334 41.5156 32.1602 41.5156C32.6807 41.5156 33.0892 41.4499 33.5659 41.4383L34.4917 41.2717C34.6062 41.2272 35.1759 41.1284 35.3836 41.0327C35.6025 40.9318 35.502 40.9987 35.6537 40.9517C35.8079 40.9039 35.6799 40.9107 35.9363 40.8446L36.6024 40.5749C36.6728 40.5439 36.6627 40.5431 36.7305 40.5081L37.0006 40.3882C37.0107 40.5099 37.0395 40.5263 37.0395 40.6603C37.0395 41.1567 37.1198 42.5761 36.8963 42.8889C36.748 43.0964 36.4907 43.3368 36.2663 43.4666L35.9981 43.627C35.9027 43.6849 35.9625 43.6527 35.8469 43.7097L35.0237 44.056C34.9453 44.08 34.9103 44.0758 34.8335 44.0998C34.7329 44.1313 34.7543 44.1418 34.6697 44.1698C34.5577 44.2069 34.5852 44.1841 34.4695 44.2037C34.3165 44.2296 34.2681 44.2916 34.1074 44.3096C33.885 44.3344 33.8993 44.2969 33.6968 44.3672C33.509 44.4324 32.0957 44.5474 31.7699 44.5474L30.1057 44.3777C29.9001 44.3062 29.9453 44.3304 29.703 44.3123L29.1341 44.1791C29.0397 44.1536 29.0558 44.1405 28.9697 44.1096C28.8131 44.0534 28.7729 44.0702 28.6145 43.9968L28.2791 43.8645C27.7241 43.6008 26.8587 43.2413 26.7702 42.5683C26.7498 42.4136 26.7346 42.3315 26.7346 42.1373L26.7347 42.1375ZM26.7347 36.8897C26.7347 34.7356 26.6087 35.1945 27.37 35.4797C27.6523 35.5855 27.879 35.6952 28.1436 35.7589C28.4083 35.8227 28.4544 35.8923 28.9925 36.0018C29.1532 36.0345 29.0697 36.0563 29.2479 36.0973C29.3673 36.1248 29.4564 36.0999 29.5742 36.1223C29.6614 36.1389 29.7603 36.2026 29.866 36.2204C30.1427 36.267 30.0545 36.1673 30.5072 36.2815C30.8981 36.3801 32.7736 36.372 33.2037 36.2958C33.674 36.2125 33.196 36.2545 33.801 36.2298C34.0756 36.2186 34.0459 36.125 34.346 36.1118C34.6697 36.0976 34.5629 36.0567 34.7498 36.0085C34.8128 35.9922 34.8545 35.995 34.9212 35.9848L35.7899 35.7226C35.9293 35.6783 35.8067 35.7163 35.9277 35.6655L36.7548 35.323C36.7549 35.3229 37.0397 35.1278 37.0397 35.3735C37.0397 35.8708 37.1104 37.3126 36.9161 37.6606C36.7291 37.9956 36.6104 38.0411 36.3046 38.2566L35.6794 38.6057C35.6266 38.6291 35.5681 38.6624 35.5218 38.682L33.8271 39.1712C33.5538 39.2386 33.3511 39.2033 33.1916 39.2379C32.5358 39.3805 31.195 39.3949 30.6136 39.2461C30.4152 39.1954 30.285 39.2627 29.823 39.1394C29.6009 39.0801 29.4978 39.1047 29.2773 39.0219L27.7135 38.4026L27.1095 37.9935C26.7624 37.6895 26.7349 37.3531 26.7349 36.8894L26.7347 36.8897ZM26.7347 31.6808V30.0482C26.9664 30.0482 27.0497 30.148 27.4146 30.304C27.4231 30.3076 27.4331 30.3124 27.4414 30.3162C27.4496 30.3199 27.4592 30.3255 27.4673 30.3292C27.4754 30.3331 27.4848 30.3389 27.4928 30.3427L28.6804 30.7539C28.8862 30.7916 28.9642 30.8458 29.1764 30.8819L29.6881 30.9943C29.971 31.0437 29.9206 30.9755 30.238 31.0686C30.6188 31.1804 33.1449 31.1731 33.5069 31.0779C33.6651 31.0363 33.5521 31.0314 33.7607 31.0198C33.8866 31.0128 34.0125 31.0072 34.0864 30.9943C34.1287 30.9869 34.1741 30.979 34.2154 30.9672C34.3254 30.936 34.2123 30.9607 34.3303 30.9262C34.4131 30.902 34.508 30.8971 34.5981 30.8819L35.6047 30.6015C35.7297 30.5523 35.6252 30.583 35.7082 30.549L36.633 30.1872C36.6416 30.1836 36.6521 30.1796 36.6607 30.176C36.9513 30.0585 36.8337 30.0526 37.0397 30.0479C37.0397 30.5273 37.1066 32.1566 36.9169 32.4913C36.8306 32.6434 36.6026 32.8619 36.4606 32.9698C36.3627 33.0442 36.2912 33.0996 36.1841 33.1609L35.7208 33.3992C35.645 33.4362 35.6559 33.4393 35.5656 33.4779L35.2018 33.6208C34.9082 33.7 35.1111 33.6835 34.854 33.7411C34.5858 33.8011 34.6622 33.8274 34.4973 33.8522C34.2464 33.89 34.3194 33.8618 34.1136 33.9365C33.951 33.9955 33.751 33.9618 33.4995 34.0248C33.0118 34.1468 33.3811 34.0748 32.862 34.0896L30.4866 34.0865C30.3652 34.0688 30.4277 34.0673 30.3061 34.0331C30.0708 33.967 29.8304 33.992 29.6894 33.9475C29.4874 33.8838 29.5663 33.891 29.3129 33.8559L28.5726 33.6214C28.4531 33.5895 28.5124 33.6075 28.4039 33.5562L27.4763 33.0806C27.4697 33.0758 27.4606 33.0687 27.454 33.0639L27.2065 32.8827C27.2007 32.8773 27.1924 32.8693 27.1866 32.8637C27.1808 32.8582 27.1727 32.85 27.1668 32.8444L26.8721 32.5159C26.7536 32.3199 26.7349 31.9786 26.7349 31.6808H26.7347ZM26.7737 27.0161C26.7737 26.7982 26.764 26.7477 26.872 26.5698C27.0571 26.2649 27.4006 26.0608 27.6919 25.8704L28.6218 25.4359C28.7218 25.4071 28.7095 25.4315 28.8126 25.3927C28.9416 25.3441 28.827 25.3676 28.9429 25.3281C29.0359 25.2964 29.0464 25.3132 29.1442 25.2953C29.3202 25.2631 29.2861 25.2169 29.4688 25.191C29.6235 25.169 29.69 25.1757 29.8377 25.1308C30.0164 25.0763 30.0174 25.0846 30.2303 25.0553L31.0269 24.9546C31.3594 24.954 31.5429 24.9173 31.8871 24.9173C32.4044 24.9173 33.0104 24.9822 33.5105 25.0499C33.918 25.1049 33.9486 25.1511 34.2697 25.1878C34.5269 25.2173 34.3765 25.2385 34.5971 25.2894L35.8805 25.7605L36.5686 26.2026C36.5833 26.2152 36.6742 26.2994 36.6898 26.3151C37.2186 26.8416 37.0463 27.2488 36.5758 27.682L36.2414 27.932C36.234 27.9364 36.2242 27.9421 36.2168 27.9464C36.2095 27.9507 36.1999 27.9569 36.1927 27.9613L34.8641 28.5429C34.7808 28.5655 34.7684 28.5828 34.6973 28.6101C34.4598 28.7012 33.8899 28.7652 33.611 28.8499C33.4844 28.8883 32.9905 28.9012 32.8202 28.9176C31.5637 29.0384 32.2046 29.0239 30.9904 28.9201C30.8416 28.9074 30.3178 28.892 30.1928 28.8591C30.0453 28.8203 30.0226 28.7805 29.8552 28.7678C29.3033 28.7257 28.9447 28.5471 28.4744 28.3937L28.0308 28.2136C27.6982 28.0558 27.3552 27.8485 27.0953 27.5904C26.9297 27.4259 26.7737 27.2795 26.7737 27.0166V27.0161ZM24.5488 26.6274V42.8372C24.5488 42.9665 24.7062 43.389 24.7714 43.5484C24.8261 43.6821 24.8095 43.666 24.8788 43.7914C24.9382 43.8986 24.9394 43.8915 24.9956 43.9861L25.1337 44.1983C25.6003 44.8164 25.8759 44.9594 26.4559 45.3695L27.0515 45.7093C27.1227 45.744 27.1021 45.735 27.1549 45.7618L27.5933 45.9471C27.7243 45.9927 27.7479 46.0214 27.8399 46.0514L29.1082 46.4209C29.2012 46.438 29.3107 46.4386 29.4209 46.4593C29.59 46.4913 29.7673 46.5654 29.9741 46.5693C30.3597 46.5764 30.605 46.6855 31.1844 46.6855C31.7047 46.6855 32.9657 46.7583 33.4483 46.6078C33.6461 46.5461 33.9733 46.5744 34.1761 46.5162C34.5637 46.405 34.9717 46.3633 35.3668 46.2248C35.4679 46.1893 35.5115 46.1939 35.6155 46.1616L36.5681 45.7885C36.6309 45.7597 36.5942 45.773 36.6702 45.7348C36.7285 45.7054 36.7527 45.6965 36.8021 45.6717C37.4199 45.3601 38.0314 44.9593 38.4722 44.4194C38.6736 44.1728 38.8678 43.9039 38.9825 43.6059L39.1421 43.104C39.1805 42.982 39.2253 42.9732 39.2253 42.8371V26.6273L39.0291 25.9676C39.0252 25.9596 39.0199 25.9498 39.0163 25.9415L38.941 25.7443C38.9369 25.7367 38.9304 25.7276 38.9261 25.7203L38.8968 25.6718C38.8765 25.636 38.8766 25.6322 38.8564 25.5953L38.7216 25.3796C38.6764 25.3125 38.6321 25.2422 38.5792 25.1717L38.1095 24.6677C38.1036 24.6622 38.0952 24.6544 38.0892 24.6489L37.4747 24.1725C37.3983 24.1148 37.3396 24.0719 37.2672 24.0293L37.2175 24.0011C37.2075 23.9952 37.1791 23.9776 37.1692 23.9715L34.7363 23.0513C34.531 23.0398 34.6019 23.0669 34.4349 23.0016L33.2147 22.8173C32.9286 22.8201 32.7914 22.78 32.5523 22.7773H31.222C30.9829 22.78 30.8457 22.8201 30.5596 22.8173L29.3394 23.0016C29.1724 23.0669 29.2434 23.04 29.038 23.0513C28.8202 23.0633 28.4308 23.2356 28.2177 23.2839L27.6904 23.4585C27.6135 23.4919 27.658 23.4777 27.5852 23.5092L25.6055 24.7252C25.5999 24.7308 25.5918 24.7391 25.5862 24.7448C25.5806 24.7504 25.5725 24.7587 25.5668 24.7643L24.9906 25.4733L24.5488 26.627V26.6274Z" fill="url(#paint0_linear_1006_5430)"/>
<path fill-rule="evenodd" clip-rule="evenodd" d="M7.99852 40.3886C8.17944 40.4037 8.33694 40.5456 8.52242 40.6054L10.8082 41.3222C11.1061 41.3365 11.1856 41.4276 11.4332 41.4383C12.1963 41.4714 12.5973 41.5159 13.4241 41.5159C13.9447 41.5159 14.3529 41.4504 14.8298 41.4386C15.0823 41.4323 15.2057 41.3453 15.4574 41.3251C15.6877 41.3065 15.5983 41.3313 15.7826 41.2602C15.9488 41.1963 15.9376 41.2305 16.1064 41.1939C16.2153 41.1703 16.2535 41.1227 16.3628 41.0995L16.8202 40.972C16.9432 40.9441 16.8603 40.9783 16.9734 40.9301L18.3032 40.3497C18.3032 40.7446 18.3563 42.3765 18.2926 42.6327C18.2211 42.9206 17.8146 43.3014 17.53 43.467L16.2248 44.0719C16.0861 44.1058 16.133 44.0866 16.0116 44.1317C15.8883 44.1777 15.9015 44.1729 15.7657 44.1978C15.5483 44.2378 15.5394 44.3014 15.297 44.3141C14.991 44.3301 15.0434 44.3663 14.8138 44.416C14.6371 44.4543 14.4364 44.4179 14.2543 44.4418C13.2517 44.5736 13.0963 44.5935 12.0807 44.4474C11.8927 44.4203 11.6938 44.4514 11.5204 44.4224C11.3359 44.3916 11.3109 44.3267 11.0431 44.3147C10.7087 44.2998 9.87902 44.007 9.49083 43.8392C9.43029 43.8131 9.43615 43.8217 9.37608 43.7981L8.74678 43.453C8.67699 43.4121 8.64104 43.3873 8.56083 43.3273C8.37007 43.1845 8.11023 42.907 8.03084 42.6889C7.94535 42.4538 7.99863 40.8093 7.99863 40.3886H7.99852ZM7.99852 37.3566V35.3353C7.99852 35.0957 8.31515 35.3278 8.52699 35.4309C8.63343 35.4827 8.54701 35.4504 8.66657 35.4862L8.91904 35.5845C9.32549 35.7602 9.81942 35.9132 10.2562 36.0021C10.417 36.0347 10.3334 36.0565 10.5116 36.0976C10.631 36.1251 10.72 36.1002 10.8378 36.1225C10.9278 36.1397 10.9781 36.1876 11.0971 36.2142C11.3056 36.2609 11.503 36.2207 11.7376 36.276C12.1924 36.3832 14.0322 36.3773 14.5009 36.2908C15.1694 36.1674 14.8669 36.3082 15.4026 36.1392C15.5429 36.0949 15.575 36.1248 15.7229 36.1082C15.8598 36.0929 15.8886 36.048 15.9833 36.0177C16.0803 35.9867 16.1992 35.9888 16.2829 35.9662C16.4663 35.9165 16.3514 35.9199 16.5471 35.8795C16.7096 35.8459 16.6809 35.8528 16.8145 35.7959C16.9106 35.755 16.9775 35.7503 17.0829 35.7133L18.1754 35.2464C18.184 35.2427 18.1947 35.2389 18.2032 35.2351L18.3034 35.1795C18.3034 35.7875 18.3656 36.7973 18.3036 37.3565C18.2853 37.5222 18.294 37.4225 18.1957 37.6376C18.1313 37.7786 18.2399 37.5643 18.1718 37.6916C18.0256 37.965 17.4474 38.3652 17.2064 38.4794L16.505 38.7916C16.3542 38.8633 16.3699 38.8194 16.2381 38.8755C15.9022 39.0189 16.0344 38.923 15.8162 38.9996C15.5358 39.098 14.9815 39.2163 14.6733 39.2219C14.4007 39.2269 14.2033 39.3387 13.6586 39.3387C13.1558 39.3387 12.355 39.372 11.9023 39.2608C11.678 39.2059 11.4247 39.2236 11.1782 39.1656L10.5141 39.0107C10.4186 38.975 9.92937 38.8596 9.71192 38.76C9.63885 38.7265 9.65185 38.7377 9.57164 38.7053C9.56285 38.7018 9.55243 38.6978 9.54376 38.6942L8.46293 38.0601C8.4572 38.0545 8.44923 38.0463 8.4435 38.0407L8.09419 37.6112C8.02908 37.4943 7.99875 37.4709 7.99875 37.3562L7.99852 37.3566ZM7.99852 32.1088V30.0485C8.28213 30.0485 8.23869 30.1292 8.53542 30.2524C8.63144 30.2923 8.66001 30.2904 8.76224 30.3374C8.77044 30.3411 8.77969 30.347 8.78789 30.3507L9.20827 30.515C9.38802 30.5569 9.29914 30.5366 9.43837 30.5969C9.44681 30.6005 9.45664 30.6055 9.46543 30.6088C9.47444 30.6123 9.48475 30.6159 9.49423 30.619C9.50653 30.6231 10.1368 30.8306 10.44 30.8821C10.846 30.9511 10.8545 31.0054 11.2389 31.0195C11.5634 31.0314 11.4888 31.1368 12.097 31.1368C12.5942 31.1368 14.3826 31.1802 14.7704 31.0781C15.1936 30.9668 15.0568 31.0457 15.35 30.9945L15.594 30.9265C15.787 30.8702 15.7849 30.9207 16.1357 30.8053L16.7765 30.6272C16.8886 30.5958 16.814 30.6176 16.8913 30.5859C17.0641 30.5151 17.0763 30.547 17.2374 30.4642L18.3033 30.0096C18.3033 30.355 18.3443 32.0994 18.2831 32.283C18.2827 32.2845 18.1913 32.4603 18.1902 32.4625L18.0951 32.601C17.8733 32.8658 17.5873 33.1067 17.2721 33.2587L15.3491 33.948L14.3228 34.0921C13.6294 34.0833 13.0594 34.1833 12.2866 34.097C12.1484 34.0816 11.9997 34.0968 11.8607 34.0935C11.7336 34.0905 11.4989 34.0112 11.0837 33.9732C10.9065 33.957 10.8761 33.8935 10.7205 33.8684C10.448 33.8247 10.6623 33.9077 10.3769 33.783C10.3012 33.7498 9.99846 33.7122 9.69283 33.5701L9.36976 33.4254C9.31999 33.4006 9.2927 33.3917 9.23427 33.3661L8.7188 33.0631C8.70908 33.0568 8.68168 33.0384 8.67196 33.032L8.38436 32.8129C8.37862 32.8073 8.37031 32.7993 8.36469 32.7937C8.21246 32.6421 7.99863 32.3651 7.99863 32.1087L7.99852 32.1088ZM7.99852 26.9388C7.99852 26.771 8.01819 26.774 8.12159 26.5949L8.3278 26.3338C8.75112 25.9544 8.74819 26.0004 9.23556 25.7218C9.25476 25.7108 9.27139 25.6982 9.30992 25.6792L10.1793 25.34C10.2992 25.291 10.2331 25.3218 10.3735 25.3002C10.5602 25.2714 10.5562 25.2223 10.6981 25.1958C10.8461 25.1683 10.9235 25.1819 11.0716 25.1402C11.1459 25.1192 11.1764 25.0994 11.2499 25.0846L11.8582 25.0295C12.0248 25.0096 12.0265 24.9592 12.2516 24.9548C12.5886 24.9481 12.7788 24.9176 13.112 24.9176C13.4442 24.9176 13.6248 24.9597 13.9322 24.9561C14.1462 24.9535 14.1534 24.9542 14.3171 25.0004C14.4752 25.0448 14.5499 25.0218 14.7408 25.0449C14.8134 25.0537 15.0159 25.073 15.114 25.1009L16.1989 25.381C16.3134 25.4306 16.2269 25.3953 16.3516 25.4232L17.1405 25.7649C17.2504 25.8185 17.3529 25.8649 17.4486 25.9245C17.4926 25.9519 17.5215 25.9741 17.5646 26.0034L17.7688 26.1499C17.941 26.287 18.3035 26.6726 18.3035 26.8613C18.3035 27.1067 18.3264 27.0768 18.1533 27.3336L17.97 27.5787C17.8253 27.7255 18.0813 27.4751 17.9301 27.6167C17.9096 27.6359 17.8849 27.6576 17.8685 27.672L17.4568 27.9617C17.4495 27.966 17.4401 27.9724 17.4329 27.9767C17.4256 27.9811 17.416 27.9872 17.4088 27.9916C17.1219 28.1641 16.5717 28.4309 16.2569 28.5161C16.1912 28.5338 16.1625 28.5327 16.0976 28.5519C15.8187 28.634 15.5245 28.7506 15.2204 28.7668C15.0117 28.7779 15.0167 28.8144 14.8452 28.8595L13.112 28.9993L11.4568 28.8595C11.3093 28.8207 11.2866 28.7809 11.1192 28.7682C10.7475 28.7398 10.3681 28.6168 10.0145 28.5078L9.7022 28.3912C9.18193 28.211 7.99863 27.5857 7.99863 26.939L7.99852 26.9388ZM5.81262 27.172V42.2935C5.81262 42.7191 5.85138 43.0754 5.99845 43.469L6.4309 44.2433C6.99228 44.9407 7.61115 45.3381 8.399 45.7429L8.63893 45.8538C8.96623 45.9942 8.79479 45.9641 9.23614 46.0754L10.0448 46.3196C10.268 46.3712 10.3631 46.4248 10.579 46.4484C10.8423 46.4771 10.9197 46.5512 11.1622 46.5674C11.7176 46.6043 11.5669 46.6321 11.7847 46.6471C12.6628 46.7078 13.6389 46.7078 14.517 46.6471C14.7349 46.6321 14.5842 46.6043 15.1395 46.5674C15.2032 46.5632 15.3697 46.5367 15.4398 46.5167C15.5888 46.4739 15.4825 46.4747 15.7226 46.4484C15.8073 46.4391 15.9361 46.4256 16.0258 46.4005L16.8486 46.1703C16.9473 46.1436 17.0035 46.1053 17.1047 46.0755L17.719 45.8321C17.805 45.7991 17.7643 45.8216 17.8577 45.776L18.7104 45.3036C18.8984 45.1686 19.0983 45.0462 19.2634 44.8825C19.3039 44.8423 19.3306 44.8128 19.3601 44.7844C19.3659 44.7788 19.3742 44.7709 19.38 44.7654C19.3859 44.7599 19.3943 44.7521 19.4003 44.7466L20.0281 44.0112C20.0665 43.9475 20.1271 43.8574 20.1607 43.7935L20.3189 43.4458C20.4475 43.0537 20.4193 43.1023 20.4521 42.6843C20.4699 42.4579 20.489 42.2666 20.489 41.9823V27.4052C20.489 27.0947 20.4863 26.4896 20.3785 26.2323C20.3343 26.1265 20.3644 26.2199 20.3336 26.0828C20.2921 25.8982 20.3041 25.9752 20.2391 25.8271L19.8045 25.1326L18.7356 24.1757C18.7261 24.1691 18.6984 24.1511 18.689 24.1444L18.5286 24.032C18.4802 24.0035 18.4584 23.9953 18.4032 23.9625L17.6532 23.5822C17.5542 23.5363 17.4933 23.5227 17.4003 23.4841C17.2972 23.4413 17.2283 23.4243 17.1151 23.3794L16.7864 23.2791C16.6435 23.2446 16.7172 23.2294 16.5673 23.1863C16.4241 23.1451 16.4087 23.1929 16.268 23.1345C16.0922 23.0616 16.2236 23.068 15.9625 23.0501L14.711 22.8192C14.2787 22.7863 13.3132 22.7169 12.945 22.7685C12.8204 22.7859 12.6923 22.7794 12.5645 22.7784C12.2865 22.7761 12.1612 22.8212 11.8627 22.818C11.6624 22.8159 10.7821 22.9386 10.5759 23.0136C10.4184 23.0708 10.4493 23.0363 10.2636 23.0524C10.053 23.0707 10.1109 23.1208 9.97633 23.1552C9.77808 23.2058 9.57374 23.217 9.27771 23.3535L8.84901 23.5097C8.47546 23.6718 8.08529 23.8181 7.7594 24.0572L6.98842 24.611C6.95094 24.6419 6.93806 24.651 6.90328 24.6817C6.6418 24.9127 6.41252 25.1935 6.23429 25.4926C6.22996 25.5 6.22446 25.51 6.22001 25.5172C6.04635 25.8049 5.91637 26.0925 5.86695 26.4484C5.83135 26.7057 5.8125 26.901 5.8125 27.1717L5.81262 27.172Z" fill="url(#paint1_linear_1006_5430)"/>
<path fill-rule="evenodd" clip-rule="evenodd" d="M50.6625 44.548L48.993 44.4225C48.8084 44.3917 48.7835 44.3268 48.5157 44.3148C48.3097 44.3055 47.8039 44.1308 47.5819 44.0785L47.2652 43.9663C47.2107 43.948 47.1965 43.9494 47.1455 43.9299L46.3594 43.5467C46.1748 43.435 45.8437 43.1997 45.7156 43.0217C45.7098 43.0138 45.6733 42.9576 45.6691 42.9514L45.4909 42.6624C45.4301 42.4807 45.4712 40.6966 45.4712 40.3497L47.0488 40.9943C47.2209 41.0608 47.1034 41.0549 47.3428 41.0902C47.5441 41.1201 47.482 41.144 47.6365 41.1865L48.2424 41.3217C48.6281 41.3524 48.7101 41.4296 48.906 41.4382C49.9367 41.4837 50.8762 41.5571 51.9096 41.4748C52.0583 41.4629 52.0725 41.442 52.2632 41.4383C52.5746 41.4322 52.6303 41.3423 52.8902 41.3241C53.4216 41.2869 53.049 41.2622 53.5496 41.2034C53.7476 41.1802 53.681 41.1539 53.8078 41.1107C53.964 41.0576 53.9468 41.1135 54.1203 41.0333L55.6247 40.4324C55.7336 40.3885 55.5702 40.4056 55.7759 40.3885C55.7759 40.7835 55.8265 42.4134 55.7535 42.6597C55.7218 42.7671 55.5993 42.951 55.5325 43.0228C55.1528 43.4302 54.6468 43.7093 54.129 43.9185C53.8933 44.0138 52.9543 44.3044 52.7696 44.3141C52.4637 44.33 52.516 44.3663 52.2864 44.416C52.1097 44.4542 51.909 44.4178 51.7268 44.4418C51.4128 44.483 51.0241 44.5479 50.6623 44.5479L50.6625 44.548ZM51.1309 39.3391C50.5641 39.3391 50.1531 39.3604 49.6077 39.3011C49.3796 39.2764 49.3782 39.2278 49.1406 39.222C48.7585 39.2127 48.5585 39.1395 48.1963 39.074C48.0085 39.0401 48.1144 39.059 47.9863 39.0112C47.7468 38.9217 47.821 39.0087 47.5624 38.8892C47.412 38.8198 47.5102 38.8667 47.3509 38.8276L45.9178 38.0391L45.5252 37.536C45.4616 37.4151 45.5013 37.6021 45.4715 37.395L45.4711 35.1798L46.1086 35.4778C46.4145 35.5778 46.4766 35.6391 46.691 35.7141C46.7903 35.7488 46.8752 35.7506 46.9712 35.7848C47.0654 35.8182 46.9952 35.8 47.0791 35.8328L47.4914 35.9664C47.5742 35.9887 47.6946 35.9871 47.7911 36.0179C47.8858 36.0482 47.9147 36.093 48.0515 36.1084C48.6335 36.1733 48.4269 36.2011 48.6364 36.2256C48.9663 36.2642 48.6948 36.184 49.2733 36.291C49.7164 36.3729 51.559 36.3794 51.9723 36.2899C52.1248 36.2569 52.0809 36.2364 52.2618 36.2284C52.3731 36.2234 52.5005 36.2387 52.6105 36.2257C52.734 36.2111 52.7731 36.1716 52.8752 36.1394C53.0154 36.0951 53.0476 36.1249 53.1953 36.1084C53.3322 36.0931 53.3612 36.0482 53.4558 36.0179C53.6109 35.9683 53.5807 36.0228 53.8963 35.9123C54.1119 35.8369 54.3676 35.79 54.6911 35.6543L55.0824 35.4998C55.1641 35.47 55.128 35.4872 55.1952 35.4566L55.4291 35.3394C55.5262 35.2884 55.7759 35.1297 55.7759 35.3351C55.7759 35.701 55.8328 37.2869 55.7357 37.5108L55.6666 37.6364C55.6063 37.7431 55.5704 37.7962 55.4869 37.885L55.3893 37.9822C55.3836 37.9878 55.3753 37.9957 55.3694 38.0012C55.1419 38.2142 54.7816 38.4465 54.5038 38.5774L53.7662 38.8535C53.671 38.8867 53.6835 38.8956 53.634 38.9161L53.5773 38.9375C53.53 38.9514 53.526 38.9477 53.4791 38.9562C53.1887 39.0088 53.2668 39.0423 52.9835 39.0846C52.812 39.1103 52.7673 39.1118 52.624 39.1541L51.131 39.3389L51.1309 39.3391ZM50.6625 34.1302L49.2226 34.0869C49.0986 34.0689 49.1116 34.0472 48.9794 34.0181C48.8143 33.9819 48.6042 33.9954 48.455 33.9573L47.8238 33.7695C47.6398 33.7089 47.7232 33.7949 47.4885 33.6759C47.4253 33.6439 47.4609 33.6528 47.3777 33.6307C47.2045 33.5849 47.3017 33.6337 47.1397 33.5567L47.0875 33.5309C47.079 33.5272 47.0685 33.5232 47.0598 33.5197L46.5554 33.2835C46.5048 33.2579 46.5268 33.2731 46.4775 33.2444C46.1069 33.0284 46.0538 32.9756 45.7335 32.6636C45.6774 32.6091 45.6493 32.5878 45.6077 32.5168C45.5943 32.4939 45.5056 32.3171 45.5028 32.3103C45.401 32.0634 45.4709 30.4232 45.4709 30.0097L47.847 30.8699L48.6725 31.0196C49.0599 31.0325 48.9578 31.1369 49.5695 31.1369C50.0667 31.1369 51.855 31.1803 52.2428 31.0783C52.666 30.9669 52.5293 31.0458 52.8225 30.9946L55.096 30.3044C55.1045 30.3007 55.115 30.2967 55.1237 30.2932C55.1326 30.2896 55.1433 30.2863 55.1523 30.2828L55.3973 30.1769C55.6322 30.0796 55.5888 30.0485 55.7758 30.0485V32.1088C55.7758 32.3423 55.6111 32.5611 55.5026 32.6919L55.2855 32.9032C55.1939 32.9754 55.1131 33.0385 55.0169 33.1022L54.3016 33.4782C54.2476 33.5014 54.2615 33.4915 54.2156 33.5092C54.2066 33.5127 54.1958 33.516 54.1871 33.5196L54.1326 33.5432C53.8585 33.6691 53.3867 33.8263 53.0882 33.8636C52.934 33.8829 52.8697 33.9434 52.7601 33.9645C52.6244 33.9906 52.4567 33.9842 52.3336 34.0062C52.1369 34.0415 52.1538 34.0749 51.989 34.0907L50.6622 34.13L50.6625 34.1302ZM50.6625 28.9991L48.9604 28.8672C48.8281 28.8385 48.7625 28.7858 48.628 28.7707C48.1431 28.7162 48.367 28.7381 47.9082 28.6322L46.4876 28.0644C46.48 28.0602 46.4698 28.0551 46.4621 28.051L46.2227 27.9007C46.2159 27.8959 46.2065 27.8895 46.1997 27.8848C45.9175 27.6925 45.8364 27.6497 45.6373 27.3563C45.3752 26.9698 45.4122 26.7277 45.8059 26.3392L45.9033 26.2418C46.079 26.0661 46.0871 26.0799 46.3027 25.9399L46.8943 25.635C47.2547 25.4527 47.3683 25.4611 47.549 25.393C48.061 25.2 48.3431 25.2013 48.5741 25.1311L49.7631 24.9546C50.1041 24.9535 50.2847 24.9174 50.6236 24.9174C51.1408 24.9174 51.7468 24.9824 52.2469 25.05C52.6545 25.1051 52.685 25.1512 53.0061 25.188C53.2633 25.2175 53.1129 25.2387 53.3334 25.2896L55.152 26.083C55.1584 26.088 55.1673 26.0954 55.1735 26.1004C56.2834 27.0054 55.6724 27.5224 54.7107 28.0937L53.4288 28.6052L52.693 28.7665C52.4843 28.7775 52.4892 28.814 52.3177 28.8592L50.6625 28.999V28.9991ZM43.2852 27.5219V41.9045C43.2852 42.2298 43.288 42.9856 43.3827 43.2068C43.4343 43.3277 43.3977 43.2165 43.427 43.3182C43.4486 43.3935 43.4374 43.3996 43.4641 43.4756C43.5534 43.7306 43.7361 44.0604 43.9153 44.2702C43.9227 44.2788 43.9448 44.3026 43.9525 44.3109L44.277 44.6486C44.2828 44.6541 44.2912 44.662 44.297 44.6675C44.2983 44.6687 44.3427 44.7129 44.3556 44.7258C44.3612 44.7315 44.3693 44.7397 44.375 44.7454L45.0202 45.269C45.0273 45.2736 45.0367 45.2799 45.0438 45.2844C45.0508 45.289 45.0605 45.2951 45.0674 45.2997C45.0954 45.3179 45.1082 45.3253 45.1386 45.3454L46.3298 45.9474C46.6904 46.0733 47.0283 46.2368 47.4173 46.3027L47.69 46.381C47.7656 46.408 47.9186 46.434 47.9806 46.4414L48.599 46.5642C48.711 46.5748 48.8355 46.5588 48.9406 46.5738C49.0936 46.5959 49.0398 46.6275 49.2203 46.6452C50.0978 46.7316 51.0778 46.6976 51.9516 46.6479C52.2053 46.6334 52.2845 46.5743 52.5365 46.5695C52.7471 46.5656 53.7082 46.3457 53.9364 46.292L54.5723 46.0702C54.6114 46.0599 54.5986 46.0676 54.6375 46.0575L56.2971 45.2224L56.7564 44.8636C56.7959 44.8272 56.8151 44.8121 56.8587 44.7712L57.341 44.2408C57.4083 44.1654 57.4416 44.1305 57.4908 44.0401C57.7798 43.5089 57.9615 43.1024 57.9615 42.4488V27.0166C57.9615 26.5286 57.8564 26.1059 57.6546 25.6897L57.4326 25.3278C57.0989 24.8788 56.6957 24.4641 56.2137 24.1705L55.1186 23.5896C55.0275 23.5484 54.9366 23.5136 54.8459 23.4726C54.553 23.3397 54.181 23.2102 53.8653 23.1663C53.6204 23.1323 53.7105 23.0638 53.434 23.0517C53.201 23.0414 53.2791 23.0392 53.1168 22.9789C52.772 22.8508 50.6868 22.7204 50.412 22.7632C49.9772 22.8308 49.4212 22.7645 48.993 22.8277L48.072 22.9989C47.893 23.0608 47.936 23.0334 47.7364 23.0533C47.5399 23.0729 47.6003 23.1058 47.4789 23.1467L47.0422 23.2561C46.9603 23.2853 46.9669 23.2721 46.8869 23.2958L46.2093 23.5538C45.8456 23.7035 45.5094 23.8724 45.1805 24.0843L43.6328 25.6139C43.6065 25.656 43.6114 25.6382 43.5778 25.7145C43.5739 25.7231 43.5706 25.734 43.5671 25.7427C43.4965 25.9143 43.3525 26.2243 43.3278 26.3983L43.2853 27.5222L43.2852 27.5219Z" fill="url(#paint2_linear_1006_5430)"/>
<path d="M5.52539 52.96H58.8796V50.46H5.52539V52.96ZM59.1296 53.21V57.723H61.6296V53.21H59.1296ZM5.27539 57.723V53.21H2.77539V57.723H5.27539ZM58.8796 52.96C59.0177 52.96 59.1296 53.0719 59.1296 53.21H61.6296C61.6296 51.6912 60.3984 50.46 58.8796 50.46V52.96ZM5.52539 50.46C4.00661 50.46 2.77539 51.6912 2.77539 53.21H5.27539C5.27539 53.0719 5.38732 52.96 5.52539 52.96V50.46Z" fill="#AEAEAE"/>
<mask id="path-6-inside-1_1006_5430" fill="white">
<path d="M0 57.7188C0 56.6142 0.89543 55.7188 2 55.7188H62.4049C63.5095 55.7188 64.4049 56.6142 64.4049 57.7188V62.7362C64.4049 63.2885 63.9572 63.7362 63.4049 63.7362H32.2025H1C0.447716 63.7362 0 63.2885 0 62.7362V57.7188Z"/>
</mask>
<path d="M2 58.2188H62.4049V53.2188H2V58.2188ZM61.9049 57.7188V62.7362H66.9049V57.7188H61.9049ZM2.5 62.7362V57.7188H-2.5V62.7362H2.5ZM63.4049 61.2362H32.2025V66.2362H63.4049V61.2362ZM32.2025 61.2362H1V66.2362H32.2025V61.2362ZM-2.5 62.7362C-2.5 64.6692 -0.932996 66.2362 1 66.2362V61.2362C1.82843 61.2362 2.5 61.9078 2.5 62.7362H-2.5ZM61.9049 62.7362C61.9049 61.9078 62.5765 61.2362 63.4049 61.2362V66.2362C65.3379 66.2362 66.9049 64.6692 66.9049 62.7362H61.9049ZM62.4049 58.2188C62.1288 58.2188 61.9049 57.9949 61.9049 57.7188H66.9049C66.9049 55.2335 64.8902 53.2188 62.4049 53.2188V58.2188ZM2 53.2188C-0.485282 53.2188 -2.5 55.2335 -2.5 57.7188H2.5C2.5 57.9949 2.27614 58.2188 2 58.2188V53.2188Z" fill="#AEAEAE" mask="url(#path-6-inside-1_1006_5430)"/>
<defs>
<linearGradient id="paint0_linear_1006_5430" x1="29.6356" y1="-15.7214" x2="67.2381" y2="-11.2845" gradientUnits="userSpaceOnUse">
<stop stop-color="#2042B8"/>
<stop offset="0.54856" stop-color="#FF6600"/>
</linearGradient>
<linearGradient id="paint1_linear_1006_5430" x1="10.8992" y1="-15.7759" x2="48.5023" y2="-11.342" gradientUnits="userSpaceOnUse">
<stop stop-color="#2042B8"/>
<stop offset="0.54856" stop-color="#FF6600"/>
</linearGradient>
<linearGradient id="paint2_linear_1006_5430" x1="48.3719" y1="-15.7722" x2="85.9748" y2="-11.3385" gradientUnits="userSpaceOnUse">
<stop stop-color="#2042B8"/>
<stop offset="0.54856" stop-color="#FF6600"/>
</linearGradient>
</defs>
</svg>
