<svg width="65" height="60" viewBox="0 0 65 60" fill="none" xmlns="http://www.w3.org/2000/svg">
<path d="M4.81414 13.8497C5.91871 13.8497 6.81414 12.9543 6.81414 11.8497V3.92973C6.81422 3.92242 6.81426 3.91511 6.81426 3.90779C6.81426 3.45137 7.02659 2.96012 7.42517 2.55825C7.84402 2.13595 8.27704 2 8.4883 2H61.0642C61.959 2 62.8649 2.91564 62.8649 3.7818V55.9708C62.8649 56.8368 61.959 57.7526 61.0642 57.7526H8.4883C8.27438 57.7526 7.8433 57.6153 7.42399 57.188C7.02234 56.7786 6.81426 56.2842 6.81426 55.8447V48.0289C6.81426 46.9244 5.91883 46.0289 4.81426 46.0289H2.53381C2.53022 46.0289 2.494 46.0284 2.42118 45.9932C2.34514 45.9564 2.25254 45.8924 2.16165 45.8012C2.08603 45.7254 2.03238 45.6515 2 45.597V33.532C2 33.5316 2.00001 33.5294 2.00071 33.5247C2.00143 33.52 2.00294 33.5123 2.00607 33.5018C2.01257 33.4798 2.0251 33.4487 2.0469 33.4113C2.06885 33.3737 2.0955 33.338 2.12281 33.3079C2.14895 33.2792 2.16687 33.2654 2.16856 33.2641C2.16869 33.264 2.16872 33.2639 2.16865 33.264L2.16875 33.2639C2.36049 33.1272 2.56191 33.052 2.93703 33.0176C3.2584 32.9881 3.55103 32.9935 3.96671 33.0013C4.20103 33.0057 4.47444 33.0108 4.81414 33.0108C5.91871 33.0108 6.81414 32.1154 6.81414 31.0108V28.7417C6.81414 27.6371 5.91871 26.7417 4.81414 26.7417H2.41449C2.40826 26.7405 2.38859 26.7359 2.35591 26.7209C2.29942 26.6948 2.22814 26.648 2.15909 26.5793C2.09 26.5106 2.04384 26.4405 2.01869 26.3865C2.00624 26.3597 2.00156 26.3429 2 26.3361V14.2449C2 14.2326 2.00041 14.2234 2.00086 14.2168C2.12569 14.0011 2.20819 13.9428 2.22395 13.9319C2.2394 13.9213 2.2886 13.8883 2.44952 13.8606C2.63495 13.8286 2.89341 13.8153 3.31622 13.8211C3.43612 13.8227 3.59414 13.8268 3.77146 13.8314C4.09295 13.8398 4.47788 13.8497 4.81414 13.8497Z" stroke="#AEAEAE" stroke-width="4" stroke-miterlimit="2.61313" stroke-linejoin="round"/>
<path fill-rule="evenodd" clip-rule="evenodd" d="M42.2847 25.8981C42.201 25.7021 42.1479 25.5776 42.1479 25.5376L42.1479 25.5379C42.1479 25.0207 42.6291 24.5618 42.9842 24.2231C43.0453 24.1648 43.1028 24.11 43.1534 24.0591L50.3208 16.8474C52.1468 15.0379 50.4534 13.5003 49.3664 13.5003C48.4487 13.5003 47.5592 14.4679 46.9197 15.1635C46.7872 15.3076 46.6654 15.4401 46.5564 15.5498L44.1845 17.9365L41.7612 20.3752C41.3722 20.7667 41.0575 21.097 40.7955 21.3721C39.4962 22.7361 39.4901 22.7425 38.1248 22.1149C36.2131 21.2361 33.8816 21.1581 31.8465 21.8127C31.2863 21.9929 30.9183 22.1812 30.6424 22.3224C29.9186 22.6928 29.8281 22.7391 28.5618 21.4648L22.6324 15.4979C22.5253 15.3901 22.4064 15.2608 22.2774 15.1204C21.6517 14.4399 20.7878 13.5002 19.8739 13.5002C19.0522 13.5002 18.1209 14.2613 18.1209 15.0568C18.1209 16.0607 18.256 16.1936 18.7853 16.7142C18.8427 16.7707 18.9046 16.8316 18.9716 16.8987C19.2443 17.1721 19.4847 17.4143 19.7344 17.666L19.7345 17.6661C19.8705 17.8031 20.0093 17.9429 20.1575 18.0921C20.2804 18.2157 20.5309 18.4627 20.8662 18.7934L20.8663 18.7935L20.8663 18.7935C22.683 20.5849 26.9892 24.8313 26.9892 25.2264C26.9892 25.9404 26.8302 26.2716 26.6361 26.6757C26.5089 26.9407 26.3665 27.2371 26.244 27.6934C25.7381 29.5784 25.7616 31.7982 26.6099 33.5985C26.695 33.779 26.7616 33.8986 26.8137 33.992C26.9561 34.2475 26.9892 34.307 26.9892 34.8772C26.9892 35.3766 25.8465 36.4526 25.1673 37.0921L25.1673 37.0921C25.0147 37.2358 24.8855 37.3575 24.7979 37.4456L20.1575 42.1153C20.0619 42.2115 19.9358 42.3288 19.7932 42.4614C19.1341 43.0744 18.1209 44.0167 18.1209 44.7356C18.1209 45.8244 18.6765 46.7072 19.5645 46.7072C20.6604 46.7072 20.6633 46.7043 21.3552 45.9973L21.3555 45.997C21.4289 45.922 21.5101 45.8391 21.6011 45.7474L28.5618 38.7427C28.6487 38.6552 28.7285 38.5733 28.8027 38.4972L28.8028 38.4971C29.5895 37.6896 29.7488 37.5261 31.1485 38.1632C32.9694 38.9921 35.0784 39.1353 37.0301 38.5477C37.5952 38.3776 38.0004 38.1925 38.323 38.0451C39.2007 37.6442 39.4668 37.5226 40.6784 38.7427L47.6905 45.7992C47.7402 45.8493 47.792 45.9045 47.8461 45.9622C48.1571 46.2936 48.545 46.7071 49.0568 46.7071C50.1876 46.7071 51.1192 46.2804 51.1192 44.943C51.1192 44.0142 50.1636 43.1271 49.4722 42.4854C49.3269 42.3505 49.1933 42.2265 49.0827 42.1152L46.7109 39.7284C45.7439 38.7552 44.9673 37.9965 44.3494 37.3928C42.7239 35.8047 42.1962 35.2891 42.1867 34.7642C42.1822 34.5119 42.2974 34.2574 42.4681 33.8805C42.591 33.6091 42.7426 33.2743 42.8989 32.8311C43.9598 29.823 42.7163 26.9095 42.2847 25.8981ZM17.3207 18.456C16.5592 17.6985 15.8521 16.642 15.8521 15.1603H15.8521C15.8521 14.7614 16.1341 13.8974 16.2635 13.6028C17.2641 11.3253 20.1736 10.7068 21.9805 11.8987C22.7208 12.3871 29.806 19.4672 30.1857 20.0377C30.4341 19.9794 30.5986 19.9122 30.7719 19.8413L30.7719 19.8413C30.9121 19.784 31.0581 19.7243 31.2591 19.665C33.3463 19.0487 34.8827 18.9334 37.0889 19.421C37.5631 19.5258 37.9218 19.658 38.2531 19.7801C38.5224 19.8793 38.7737 19.9719 39.0541 20.0377C39.3079 19.6562 42.9867 15.9959 44.9508 14.0417C45.4578 13.5373 45.8505 13.1466 46.0405 12.9553C47.4205 11.5662 47.8308 11.3209 49.7787 11.3209C51.926 11.3209 54.5074 14.3077 52.7022 17.4797C52.4515 17.9203 45.0424 25.3585 44.6227 25.6414C44.7059 26.0003 44.8205 26.3202 44.9409 26.6562C45.2294 27.461 45.5508 28.3581 45.5508 30.1036C45.5508 31.8876 45.225 32.7833 44.9365 33.5763C44.8168 33.9051 44.7036 34.2163 44.6227 34.5658C44.992 34.8145 49.1193 39.0138 50.7945 40.7183C51.128 41.0576 51.3644 41.2981 51.4545 41.3888C51.5196 41.4543 51.5846 41.519 51.6491 41.5831C52.1663 42.0979 52.6547 42.584 52.9777 43.2803C53.3365 44.0539 53.4524 45.186 53.1745 46.077C52.3461 48.7323 49.0283 50.3895 46.0919 47.4077C45.9825 47.2967 45.8013 47.1119 45.5663 46.8726L45.5662 46.8725C43.8667 45.1408 39.3595 40.5485 38.9511 40.2732C38.6398 40.3461 38.3664 40.4429 38.0872 40.5417C37.7938 40.6456 37.494 40.7517 37.1374 40.8347C34.1398 41.5324 31.9434 40.8102 30.8504 40.4508L30.8503 40.4508L30.8503 40.4508C30.5339 40.3468 30.31 40.2732 30.1859 40.2732C30.0392 40.2732 28.6183 41.7417 26.9738 43.4414L26.9738 43.4414C24.8717 45.614 22.4044 48.1641 21.7659 48.5072C19.1139 49.9324 15.8522 47.9897 15.8522 44.8392C15.8522 43.5127 16.7048 42.4764 17.4764 41.7001C17.6662 41.5091 18.0548 41.1136 18.5574 40.6021L18.5578 40.6016L18.5579 40.6016L18.558 40.6015C20.5244 38.6001 24.235 34.8235 24.6174 34.5658C23.3936 32.2382 23.3919 28.0757 24.6174 25.7451C24.2542 25.5003 21.0056 22.1971 18.9237 20.0802L18.9237 20.0802L18.9237 20.0802C18.1769 19.3208 17.5802 18.7141 17.3207 18.456ZM50.8428 35.7514V28.9143C50.8428 27.3405 52.9796 27.5806 52.9796 28.6937V36.0454C52.9796 36.2489 52.8093 36.5069 52.6634 36.6148C52.0801 37.0456 50.8428 36.9131 50.8428 35.7514ZM50.8428 25.7343C50.8428 26.8901 52.9796 27.3194 52.9796 25.4892C52.9796 24.7883 51.9036 24.2226 51.1489 24.9296C50.9376 25.1275 50.8428 25.3777 50.8428 25.7343ZM35.0316 33.6306H34.2066C32.7571 33.6306 31.113 31.976 31.113 30.5174C31.113 28.8906 31.5835 27.5983 33.1734 26.8834C36.6124 25.3368 39.7381 29.6582 37.2235 32.5158C36.7962 33.0014 35.8859 33.6307 35.0316 33.6307V33.6306ZM28.8444 30.1023C28.8444 35.1593 34.9808 37.8863 38.6154 34.2278C39.6125 33.2241 40.1696 32.2104 40.3362 30.3546C40.5935 27.4879 37.9101 24.3949 35.1348 24.3949C33.2263 24.3949 31.7993 24.673 30.4154 26.1833C29.6521 27.0165 28.8445 28.5417 28.8445 30.1023H28.8444ZM32.5566 29.9991C32.5566 30.6287 32.5986 31.0393 33.1441 31.587C34.4195 32.8674 36.6815 32.0273 36.6815 30.1028C36.6815 27.444 32.5566 27.3786 32.5566 29.9991Z" fill="url(#paint0_linear_1005_5397)"/>
<defs>
<linearGradient id="paint0_linear_1005_5397" x1="28.8412" y1="-49.346" x2="122.762" y2="-31.383" gradientUnits="userSpaceOnUse">
<stop stop-color="#2042B8"/>
<stop offset="0.54856" stop-color="#FF6600"/>
</linearGradient>
</defs>
</svg>
